<?xml version="1.0" encoding="UTF-8" standalone="no"?>
<svg
   fill="none"
   viewBox="4 -4 48 48"
   version="1.1"
   id="svg2"
   sodipodi:docname="arrow-up.svg"
   width="48"
   height="48"
   inkscape:version="1.4.1-rc (d9e8dc1fe0, 2025-03-10)"
   xmlns:inkscape="http://www.inkscape.org/namespaces/inkscape"
   xmlns:sodipodi="http://sodipodi.sourceforge.net/DTD/sodipodi-0.dtd"
   xmlns="http://www.w3.org/2000/svg"
   xmlns:svg="http://www.w3.org/2000/svg">
  <defs
     id="defs2" />
  <sodipodi:namedview
     id="namedview2"
     pagecolor="#505050"
     bordercolor="#eeeeee"
     borderopacity="1"
     inkscape:showpageshadow="0"
     inkscape:pageopacity="0"
     inkscape:pagecheckerboard="0"
     inkscape:deskcolor="#505050"
     inkscape:zoom="7.8583733"
     inkscape:cx="35.69441"
     inkscape:cy="34.231003"
     inkscape:window-width="1920"
     inkscape:window-height="1011"
     inkscape:window-x="0"
     inkscape:window-y="32"
     inkscape:window-maximized="1"
     inkscape:current-layer="svg2" />
  <path
     id="path1"
     style="fill:#1a1a1a;stroke-width:3;stroke-linejoin:round"
     d="M 50.923828 -4.1582031 C 50.803444 -4.1531928 50.647715 -4.1007153 50.349609 -4.0195312 C 50.130756 -3.9699392 49.910028 -3.9217009 49.691406 -3.8710938 C 49.04368 -3.7211568 48.227633 -3.5224412 47.591797 -3.3828125 C 47.297709 -3.3182313 47.001729 -3.2552945 46.707031 -3.1933594 C 45.947304 -3.0594822 45.18715 -2.9312071 44.425781 -2.8046875 C 43.325592 -2.6218645 40.67961 -2.1925025 39.65625 -2.0429688 C 38.675923 -1.8997233 37.692527 -1.774943 36.710938 -1.640625 C 36.260125 -1.5789572 35.810181 -1.5168298 35.359375 -1.4550781 C 35.325337 -1.4538748 35.291851 -1.4523633 35.257812 -1.4511719 C 32.185186 -1.3436303 29.109599 -1.2621023 26.041016 -1.0605469 C 24.02053 -0.94709084 22.001644 -0.81916507 19.980469 -0.71875 C 19.058535 -0.6729464 18.13415 -0.65936262 17.212891 -0.6015625 C 16.464781 -0.5546266 15.719125 -0.47250857 14.972656 -0.40429688 C 13.286728 -0.25023816 12.422794 -0.15978435 10.755859 0.0078125 C 10.154423 0.06109841 9.5522039 0.11029669 8.9511719 0.16796875 C 8.4745508 0.21370241 7.9966431 0.26557535 7.5195312 0.3125 C 7.5257033 0.19179678 7.5330865 0.07188441 7.5390625 -0.048828125 C 7.5506205 -0.28228483 7.5711945 -0.5162591 7.5703125 -0.75 C 7.5691325 -1.0627011 7.5428913 -1.1059971 7.4726562 -1.3652344 C 7.2850482 -1.5498903 7.1027037 -1.738041 6.9179688 -1.9257812 C 6.9260751 -2.0065583 6.9342428 -2.0872989 6.9433594 -2.1679688 C 6.9599664 -2.3149206 7.0931473 -2.4894954 7.0039062 -2.6074219 C 6.2496894 -3.6040696 6.0384964 -3.9165708 5.9433594 -3.8691406 C 5.8908891 -3.837168 5.8720914 -3.6898018 5.8105469 -3.4863281 C 5.8043835 -3.487927 5.7973253 -3.4885978 5.7929688 -3.4882812 L 5.7910156 -3.4882812 L 5.7890625 -3.4863281 L 5.7871094 -3.4863281 L 5.7851562 -3.484375 L 5.7832031 -3.4824219 L 5.78125 -3.4824219 L 5.78125 -3.4804688 L 5.7792969 -3.4785156 L 5.7792969 -3.4765625 C 5.7752187 -3.4640006 5.779644 -3.4414386 5.7890625 -3.4140625 C 5.7001958 -3.1361409 5.6857759 -3.1189258 5.5605469 -2.8007812 C 5.4967839 -2.6661843 5.4342164 -2.5304515 5.3691406 -2.3964844 C 5.3391629 -2.3347708 5.3072719 -2.2737113 5.2753906 -2.2128906 L 5.1796875 -2.2949219 C 5.189473 -2.223303 5.1983742 -2.1517784 5.2070312 -2.0800781 C 5.1902449 -2.0454405 5.1750047 -2.010136 5.1601562 -1.9746094 C 5.1010773 -1.8332556 5.0616309 -1.6839075 5.0117188 -1.5390625 C 4.8321501 -1.0179521 4.6378607 -0.50325285 4.4414062 0.01171875 C 4.3056216 0.29847005 4.1038039 0.70132437 4.0058594 1.0058594 C 3.6896451 1.9890512 3.8183585 3.0457933 3.8808594 4.0546875 C 4.0404017 5.4192974 4.0116583 5.3215599 4.2597656 6.7714844 C 4.3633877 7.3770454 4.4927619 7.9792935 4.5898438 8.5859375 C 4.9760717 10.999395 5.1960752 13.433179 5.4042969 15.867188 C 5.3907565 16.329627 5.3788217 16.791307 5.3769531 17.253906 C 5.3731331 18.199115 5.4039095 19.144682 5.4140625 20.089844 C 5.4610035 24.459356 5.4006949 21.206912 5.4980469 25.603516 C 5.5248901 28.453703 5.5000024 27.784167 5.5742188 29.466797 C 5.4399535 30.617733 5.3034724 31.768501 5.1953125 32.921875 C 5.1294285 33.541126 5.0994694 34.164598 5.0898438 34.787109 C 5.0883838 34.881329 5.0938869 34.976107 5.0917969 35.070312 C 5.091255 35.094781 5.0714384 35.128615 5.0742188 35.150391 L 5.0742188 35.152344 L 5.0761719 35.154297 C 5.0765346 35.155063 5.0776672 35.159429 5.078125 35.160156 L 5.0800781 35.162109 L 5.0820312 35.164062 C 5.3038204 35.334365 5.5370642 35.487804 5.7714844 35.640625 C 5.8152719 35.687036 5.8602034 35.733185 5.9042969 35.779297 C 5.8974734 35.83198 5.888654 35.887739 5.8808594 35.947266 C 5.8503414 36.18033 5.7132347 36.853641 5.8085938 37.128906 C 5.8786371 37.331095 6.0288193 37.495615 6.1425781 37.677734 C 6.1847531 38.13633 6.236425 38.59296 6.2617188 39.052734 C 6.0739026 39.067374 5.8539339 39.084098 5.5820312 39.101562 C 5.2384052 39.123632 4.8950824 39.141714 4.5507812 39.146484 C 4.3129618 39.149784 3.8137358 38.888389 3.8378906 39.125 C 3.8396044 39.141787 3.8410709 39.157383 3.84375 39.173828 C 3.7713189 39.167266 3.7092523 39.153222 3.5292969 39.117188 C 3.7132304 39.28479 3.8849663 39.470585 4.0585938 39.652344 C 4.2449359 39.913506 4.50595 40.146482 4.6796875 40.412109 C 4.7051885 40.377909 4.7170324 40.32822 4.7558594 40.310547 C 4.7640879 40.306802 4.7740707 40.302615 4.7832031 40.298828 C 4.828628 40.329328 4.8741299 40.359405 4.921875 40.386719 C 5.0963839 40.486549 5.3130168 40.291346 5.5097656 40.25 C 5.7809967 40.193007 6.0539428 40.1419 6.3261719 40.089844 C 6.4505879 40.307792 6.6300378 40.443673 6.8261719 40.630859 L 6.8730469 40.667969 C 7.0599995 40.805055 7.3087441 41.047056 7.4082031 40.882812 C 7.4690001 40.782412 7.4018962 40.648391 7.3945312 40.53125 C 7.3920428 40.491677 7.3895771 40.451657 7.3867188 40.412109 C 7.3917723 40.415499 7.3972727 40.420464 7.4023438 40.423828 C 7.4403664 40.456184 7.4780727 40.488635 7.515625 40.521484 C 7.5092452 40.509627 7.5018693 40.497031 7.4960938 40.484375 C 7.4974764 40.485228 7.498616 40.485477 7.5 40.486328 C 7.5022781 40.487729 7.5078224 40.491279 7.5097656 40.492188 L 7.5117188 40.492188 C 7.512531 40.492407 7.5168426 40.492081 7.5175781 40.492188 L 7.5195312 40.492188 L 7.5214844 40.492188 L 7.5234375 40.490234 L 7.5234375 40.488281 L 7.5253906 40.486328 L 7.5253906 40.484375 L 7.5253906 40.482422 C 7.53219 40.443668 7.4684539 40.300248 7.4570312 40.234375 C 7.4373412 40.120828 7.4147515 40.006042 7.3945312 39.892578 C 7.4806464 39.960302 7.5821291 40.045157 7.6757812 40.099609 C 7.7935987 40.222309 7.9191971 40.337397 8.0429688 40.451172 C 8.0533691 40.460732 8.0632007 40.468467 8.0683594 40.470703 L 8.0703125 40.470703 L 8.0722656 40.470703 L 8.0722656 40.46875 L 8.0742188 40.46875 L 8.0742188 40.466797 L 8.0742188 40.464844 L 8.0742188 40.462891 C 8.0708482 40.429173 7.997105 40.295892 7.9082031 40.134766 C 7.9161947 40.128916 7.9246303 40.121753 7.9316406 40.113281 C 8.1565949 40.322726 8.2763949 40.382561 8.3359375 40.341797 C 8.3689951 40.361582 8.4044792 40.383469 8.4394531 40.404297 C 8.4492487 40.410131 8.4597399 40.412776 8.4667969 40.414062 C 8.469007 40.414255 8.4746282 40.414329 8.4765625 40.414062 L 8.4785156 40.412109 C 8.4793505 40.411756 8.4836041 40.410616 8.484375 40.410156 L 8.4863281 40.408203 L 8.4882812 40.40625 L 8.4902344 40.404297 C 8.4907635 40.403434 8.4917153 40.399396 8.4921875 40.398438 C 8.5113576 40.350094 8.4728786 40.205251 8.4453125 40.076172 C 8.6521964 40.157941 8.8957654 40.158024 9.1171875 40.199219 C 9.4653622 40.263999 9.8166547 40.322665 10.169922 40.347656 C 11.102598 40.413636 11.677234 40.338944 12.605469 40.271484 C 13.12983 40.153497 13.861375 40.055817 14.347656 39.736328 C 14.630394 39.749679 14.914444 39.764003 15.197266 39.775391 C 15.605322 39.791821 16.014221 39.791976 16.421875 39.816406 C 16.695609 39.832816 17.29853 40.164444 17.240234 39.896484 C 17.235936 39.876728 17.230822 39.857149 17.226562 39.837891 C 17.713172 39.889263 17.995037 39.855751 17.052734 39.152344 C 16.976836 38.901156 16.90559 38.731237 16.832031 38.617188 C 16.90827 38.610338 16.984316 38.602625 17.060547 38.595703 C 19.009727 38.418712 20.959874 38.248666 22.910156 38.083984 C 23.693002 38.102251 24.475052 38.117048 25.257812 38.138672 C 25.567139 38.147216 25.876286 38.157003 26.185547 38.167969 C 26.104679 38.493363 26.024682 38.818096 26.103516 39.125 C 26.137436 39.257054 26.176746 39.385337 26.222656 39.509766 C 26.222447 39.512052 26.222866 39.515292 26.222656 39.517578 C 26.154816 39.610298 25.939953 39.722276 26.019531 39.794922 C 26.194929 39.955041 26.41347 40.199174 26.625 40.339844 C 26.65172 40.38538 26.677563 40.431793 26.705078 40.476562 C 25.614698 40.609214 24.523885 40.739224 23.433594 40.871094 C 22.530332 40.959444 21.626338 41.033882 20.724609 41.136719 C 20.50501 41.161759 16.60185 41.691026 16.335938 41.724609 C 14.791937 41.919608 14.085786 41.984591 12.574219 42.144531 C 12.109138 42.193741 11.64474 42.243484 11.179688 42.292969 C 10.338745 42.377869 9.8961763 42.429667 9.0820312 42.486328 C 8.8504972 42.502438 8.2811301 42.528489 7.9960938 42.542969 C 7.9144058 42.547069 7.8331772 42.547011 7.7519531 42.556641 C 7.7151841 42.561041 7.6803206 42.574494 7.6445312 42.583984 L 8.4980469 43.583984 C 8.5489899 43.586984 8.599464 43.59697 8.6503906 43.59375 C 8.8023795 43.58405 9.1213051 43.511788 9.2421875 43.486328 C 9.443157 43.443998 9.6443332 43.397807 9.8457031 43.357422 C 10.690265 43.188052 10.897572 43.158942 11.802734 43.003906 C 12.248462 42.932506 12.695687 42.865237 13.140625 42.789062 C 13.694951 42.694162 14.247292 42.589899 14.800781 42.490234 C 15.440697 42.380173 16.08041 42.268003 16.720703 42.160156 C 21.331299 41.383569 16.262214 42.244249 21.025391 41.478516 C 21.881082 41.340954 22.735121 41.190324 23.589844 41.046875 C 24.654528 40.898416 25.718555 40.748929 26.783203 40.599609 C 26.91701 40.809689 27.055956 41.012113 27.193359 41.210938 C 27.209852 41.234802 27.225508 41.25051 27.234375 41.255859 L 27.236328 41.255859 L 27.238281 41.255859 L 27.240234 41.255859 L 27.242188 41.255859 L 27.244141 41.255859 L 27.244141 41.253906 L 27.246094 41.251953 L 27.246094 41.25 L 27.248047 41.248047 C 27.262191 41.197555 27.185504 40.926968 27.072266 40.558594 C 27.550009 40.491679 28.028014 40.425548 28.505859 40.359375 C 28.624935 40.500777 28.747262 40.629905 28.878906 40.726562 C 28.992944 40.868811 29.10464 41.01332 29.210938 41.164062 C 29.185391 41.062305 29.153347 40.963522 29.128906 40.861328 C 29.153708 40.869442 29.179471 40.875611 29.205078 40.880859 C 29.368328 40.914315 29.268389 40.576047 29.191406 40.263672 C 30.235023 40.120332 31.279517 39.980541 32.324219 39.845703 C 33.894902 39.633486 35.471614 39.4663 37.044922 39.275391 C 37.365973 39.318668 37.697417 39.364874 38.019531 39.408203 C 37.82605 39.451686 37.633531 39.492453 37.439453 39.533203 C 36.668189 39.695144 35.891308 39.828747 35.119141 39.986328 C 34.235155 40.166728 33.35509 40.370408 32.470703 40.548828 C 31.557109 40.73314 30.639516 40.896541 29.724609 41.074219 C 23.021197 42.376043 30.789089 40.886396 24.232422 42.138672 C 22.16964 42.513266 20.099697 42.842394 18.023438 43.132812 C 17.717773 43.175568 17.416421 43.223317 17.115234 43.259766 C 16.819318 43.180189 16.519071 43.087117 16.462891 43.316406 C 16.281944 43.324421 16.099971 43.324785 15.916016 43.314453 C 16.227588 43.552386 16.50809 43.843326 16.8125 44.09375 C 16.903798 44.194 16.998303 44.292871 17.080078 44.394531 C 17.080482 44.390785 17.084229 44.384367 17.085938 44.380859 C 17.094566 44.36706 17.114138 44.354204 17.146484 44.339844 C 17.260852 44.413489 17.381025 44.47731 17.507812 44.529297 C 17.781602 44.641559 18.080064 44.383535 18.369141 44.320312 C 18.79605 44.226942 19.225516 44.144904 19.654297 44.060547 C 21.503245 43.696789 23.356721 43.348961 25.207031 42.992188 C 26.934425 42.649854 28.641563 42.220613 30.365234 41.861328 C 31.359936 41.65399 32.360509 41.471823 33.357422 41.275391 C 34.423607 41.06531 35.486294 40.841132 36.554688 40.642578 C 38.490452 40.28283 39.650894 40.102602 41.261719 39.855469 C 42.832174 40.081401 44.401537 40.31092 45.964844 40.582031 C 46.63348 40.697987 47.300834 40.827226 47.966797 40.958984 C 47.960778 41.277253 47.950196 41.595673 47.943359 41.914062 C 47.984509 42.048511 47.923963 42.185502 47.939453 42.320312 C 47.941753 42.340362 47.951237 42.360207 47.966797 42.373047 C 48.019974 42.416947 48.071888 42.464125 48.123047 42.511719 C 48.405263 42.851677 48.757665 43.130286 49.099609 43.410156 L 49.101562 43.412109 L 49.103516 43.412109 L 49.105469 43.414062 L 49.107422 43.414062 L 49.109375 43.414062 C 49.110159 43.414104 49.114434 43.414107 49.115234 43.414062 L 49.117188 43.414062 C 49.137017 43.409157 49.159428 43.381008 49.164062 43.361328 C 49.197853 43.217934 49.065212 43.063672 49.132812 42.921875 C 49.075493 42.332854 49.001803 41.744776 48.939453 41.15625 C 48.862649 40.431296 48.793967 39.705584 48.71875 38.980469 C 48.748338 38.978592 48.777055 38.976501 48.806641 38.974609 C 49.170497 38.951339 49.535989 38.929959 49.900391 38.917969 C 49.916582 38.917435 49.932679 38.917865 49.951172 38.919922 C 49.958835 38.959291 49.968172 38.999681 49.976562 39.041016 C 50.161605 39.952585 50.233329 40.175671 50.261719 40.205078 L 50.263672 40.207031 L 50.265625 40.207031 L 50.267578 40.207031 L 50.269531 40.207031 L 50.271484 40.205078 L 50.271484 40.203125 L 50.273438 40.203125 C 50.279139 40.192208 50.279978 40.164634 50.28125 40.15625 L 50.283203 40.15625 L 50.283203 40.158203 C 50.28734 40.179223 50.299349 40.319467 50.355469 40.835938 L 50.400391 40.875 C 50.366025 40.069054 50.358947 40.221116 50.384766 40.257812 L 50.386719 40.259766 L 50.388672 40.259766 L 50.388672 40.261719 L 50.390625 40.261719 L 50.392578 40.261719 L 50.394531 40.261719 L 50.396484 40.261719 L 50.398438 40.259766 L 50.400391 40.259766 L 50.400391 40.257812 L 50.402344 40.255859 C 50.427645 40.223514 50.46831 40.062486 50.525391 39.505859 C 50.603231 38.746814 50.534609 37.804167 50.505859 37.060547 C 50.395149 33.135323 50.358545 29.209006 50.474609 25.283203 C 50.57789 22.899528 50.665896 20.514404 50.773438 18.130859 C 51.031768 18.304958 51.254334 18.588945 51.525391 18.724609 C 51.622561 18.811544 51.718888 18.89868 51.810547 18.990234 C 51.785886 18.923942 51.757464 18.859139 51.732422 18.792969 C 51.753429 18.796417 51.773203 18.797531 51.794922 18.798828 C 52.010591 18.811708 51.683928 18.383262 51.630859 18.173828 C 51.579368 17.97063 51.526942 17.765982 51.476562 17.5625 C 51.449457 17.385285 51.427204 17.219856 51.410156 17.080078 C 51.263665 15.878939 51.209417 14.666389 51.113281 13.460938 C 51.095801 13.181903 51.078653 12.904052 51.060547 12.625 C 51.093787 11.699706 51.12235 10.895546 51.146484 9.9355469 C 51.159764 9.4072989 51.186351 8.8027197 51.144531 8.2617188 C 51.136031 8.1519568 51.090496 7.8991359 51.066406 7.7636719 L 50.644531 7.4023438 C 50.584507 6.7376215 50.529159 6.0732063 50.498047 5.40625 C 50.469907 4.6718474 50.437804 3.9733656 50.433594 3.2402344 C 50.431994 2.9610895 50.443269 2.6814932 50.443359 2.4023438 C 50.443501 1.9489653 50.40851 1.4958658 50.443359 1.0429688 L 49.595703 0.31835938 C 49.600803 0.42999648 49.609758 0.54059915 49.611328 0.65234375 C 49.613594 0.81347069 49.61307 0.91174442 49.611328 0.97851562 C 49.268367 0.80854867 48.917141 0.65515447 48.564453 0.5078125 C 48.412535 0.4443456 48.237539 0.46222605 48.074219 0.44140625 C 47.853748 0.41330135 47.632743 0.3861546 47.412109 0.359375 C 46.566987 0.30497897 45.722174 0.28777676 44.876953 0.29492188 C 44.839354 0.25448928 44.800992 0.21459821 44.763672 0.17382812 C 45.734566 0.1225506 46.707553 0.084875744 47.681641 0.078125 C 48.293047 0.0738878 49.069326 0.07588237 49.693359 0.1328125 C 49.881807 0.1500049 50.068665 0.18911478 50.255859 0.21679688 C 50.252738 0.21452486 50.249211 0.21126314 50.246094 0.20898438 C 50.283778 0.216193 50.316827 0.22123862 50.332031 0.21875 L 50.333984 0.21679688 L 50.335938 0.21679688 L 50.337891 0.21679688 L 50.337891 0.21484375 L 50.339844 0.21484375 L 50.339844 0.21289062 L 50.339844 0.2109375 L 50.339844 0.20898438 L 50.339844 0.20703125 L 50.337891 0.20507812 L 50.337891 0.203125 L 50.335938 0.20117188 C 50.333119 0.19766182 50.327748 0.19217643 50.322266 0.1875 C 50.088078 -0.012245657 49.82301 -0.16883727 49.554688 -0.32226562 C 49.429603 -0.41384246 49.301526 -0.50093416 49.166016 -0.57617188 C 49.145042 -0.58781578 49.122791 -0.58917048 49.099609 -0.5859375 C 49.066699 -0.60591053 49.034439 -0.62593461 49.001953 -0.64648438 C 48.864514 -0.63225617 48.72756 -0.61671985 48.589844 -0.60546875 C 47.590578 -0.52383345 47.9997 -0.58077005 46.833984 -0.47851562 C 46.179982 -0.42114588 45.526481 -0.35933745 44.873047 -0.29296875 C 44.700777 -0.28356785 44.527728 -0.27326458 44.355469 -0.26367188 C 44.246099 -0.37418892 44.13346 -0.48020293 44.013672 -0.578125 C 44.084985 -0.58153281 44.157195 -0.58459619 44.228516 -0.58789062 C 44.476622 -0.60095112 44.725998 -0.59717253 44.972656 -0.62695312 C 45.118095 -0.64451302 45.466671 -0.59982392 45.400391 -0.73046875 C 45.394741 -0.74160234 45.388664 -0.75265737 45.382812 -0.76367188 C 45.621256 -0.79215414 45.85913 -0.82062656 46.097656 -0.84960938 C 47.693921 -0.93962903 49.292105 -1.0039554 50.890625 -1.0214844 C 50.961379 -1.003388 51.025001 -0.9922499 51.052734 -1.0019531 C 51.053811 -1.0024599 51.057651 -1.003312 51.058594 -1.0039062 L 51.060547 -1.0058594 L 51.0625 -1.0078125 L 51.0625 -1.0097656 L 51.064453 -1.0117188 L 51.064453 -1.0136719 L 51.066406 -1.015625 C 51.066621 -1.0166975 51.066349 -1.0203082 51.066406 -1.0214844 C 51.071141 -1.0215263 51.075344 -1.0233964 51.080078 -1.0234375 C 51.069536 -1.0106678 51.064979 -0.99664971 51.064453 -0.98828125 L 51.064453 -0.98632812 L 51.064453 -0.984375 L 51.064453 -0.98242188 L 51.066406 -0.98046875 L 51.066406 -0.97851562 L 51.068359 -0.9765625 L 51.070312 -0.9765625 L 51.070312 -0.97460938 C 51.125208 -0.9297859 51.469022 -1.0294981 51.484375 -1.1054688 L 51.484375 -1.1074219 C 51.48439 -1.108203 51.484435 -1.1125058 51.484375 -1.1132812 L 51.484375 -1.1152344 L 51.484375 -1.1171875 L 51.482422 -1.1191406 L 51.480469 -1.1210938 C 51.480015 -1.1218351 51.479053 -1.1262197 51.478516 -1.1269531 C 51.477273 -1.1284034 51.476198 -1.1294445 51.474609 -1.1308594 C 51.042612 -1.5156124 50.584014 -1.8785418 50.089844 -2.1796875 C 50.071356 -2.1714168 50.049032 -2.160782 50.025391 -2.1503906 C 50.022096 -2.1547006 50.018877 -2.1597201 50.015625 -2.1640625 C 50.014619 -2.1653986 50.040019 -2.1764512 50.072266 -2.1894531 C 50.023753 -2.2188321 49.974991 -2.2472298 49.925781 -2.2753906 C 49.811145 -2.3409926 49.662977 -2.2518385 49.53125 -2.2421875 C 49.354403 -2.2292355 49.176936 -2.2186862 49 -2.2070312 C 48.788948 -2.1908592 48.578238 -2.1743721 48.367188 -2.1582031 C 47.335341 -1.9619922 46.291803 -1.8338405 45.251953 -1.6894531 C 45.059117 -1.6626773 44.86685 -1.6369396 44.673828 -1.6113281 C 44.495846 -1.8368479 44.435136 -1.8947009 44.351562 -1.8769531 C 44.34441 -1.8827504 44.337225 -1.8887536 44.330078 -1.8945312 C 44.242018 -1.9657213 44.103158 -1.8775226 43.990234 -1.8691406 C 42.838081 -1.7836516 43.347046 -1.8199556 41.890625 -1.7324219 C 41.740483 -1.7255756 41.589594 -1.7177934 41.439453 -1.7109375 C 42.125124 -1.8209122 42.811695 -1.9295865 43.498047 -2.0351562 C 44.132667 -2.1318162 44.766458 -2.225108 45.400391 -2.3261719 C 47.447173 -2.652477 49.48442 -3.0609755 51.550781 -3.25 C 51.704159 -3.2575549 52.059142 -3.1637463 52.103516 -3.2265625 L 52.105469 -3.2285156 L 52.105469 -3.2304688 L 52.107422 -3.2324219 L 52.107422 -3.234375 L 52.107422 -3.2363281 C 52.108586 -3.2465285 52.104446 -3.2591779 52.09375 -3.2753906 C 52.091738 -3.2784407 52.089928 -3.2821283 52.087891 -3.2851562 C 52.104305 -3.2861336 52.120304 -3.286144 52.136719 -3.2871094 C 52.187992 -3.290125 52.31597 -3.2745034 52.341797 -3.2832031 L 52.34375 -3.2832031 L 52.34375 -3.2851562 L 52.34375 -3.2871094 L 52.34375 -3.2890625 L 52.341797 -3.2910156 C 52.340116 -3.2927022 52.337476 -3.2947083 52.333984 -3.296875 C 51.280474 -3.9506988 51.188673 -4.1692259 50.923828 -4.1582031 z M 50.072266 -2.1894531 C 50.077867 -2.1860611 50.084252 -2.1830953 50.089844 -2.1796875 C 50.162259 -2.2120833 50.196488 -2.2277081 50.207031 -2.234375 L 50.208984 -2.2363281 L 50.210938 -2.2363281 L 50.210938 -2.2382812 L 50.208984 -2.2382812 C 50.197217 -2.2372229 50.124774 -2.2106247 50.072266 -2.1894531 z M 17.080078 44.394531 C 17.079965 44.39558 17.080092 44.397366 17.080078 44.398438 C 17.082592 44.431362 17.129919 44.478954 17.201172 44.564453 C 17.167167 44.506977 17.12501 44.450389 17.080078 44.394531 z M 42.269531 -2.3066406 C 40.948824 -2.0556757 39.625664 -1.8097249 38.302734 -1.5703125 C 37.451648 -1.5337633 36.601335 -1.4999435 35.75 -1.46875 C 36.087378 -1.5149982 36.424326 -1.56127 36.761719 -1.6074219 C 38.59164 -1.8864772 40.429856 -2.1063469 42.269531 -2.3066406 z M 37.322266 -1.3945312 C 34.574024 -0.903003 31.82169 -0.43515298 29.066406 0.013671875 C 27.119553 0.30811476 25.172901 0.60582949 23.224609 0.890625 C 23.111628 0.90365876 22.997769 0.91685983 22.884766 0.9296875 L 22.160156 0.98242188 C 21.202435 1.0648796 20.245574 1.1552039 19.287109 1.2285156 C 18.410905 1.2955356 17.532822 1.3403236 16.65625 1.4023438 C 16.464139 1.4159363 16.27205 1.4317576 16.080078 1.4472656 C 16.187789 1.4238539 16.296562 1.4002533 16.404297 1.3769531 C 17.391377 1.2032429 18.375757 1.0149533 19.365234 0.85546875 C 20.785811 0.62649928 25.153295 0.00894383 26.511719 -0.18359375 C 29.379837 -0.59010902 32.249305 -0.98882769 35.119141 -1.3828125 C 35.853377 -1.3936137 36.587829 -1.3975033 37.322266 -1.3945312 z M 7.21875 -1.3789062 L 7.2207031 -1.3789062 L 7.2226562 -1.3789062 L 7.2246094 -1.3789062 L 7.2265625 -1.3789062 L 7.2285156 -1.3789062 L 7.2304688 -1.3769531 L 7.2324219 -1.3769531 L 7.234375 -1.375 C 7.2499643 -1.3610892 7.2590169 -1.3179009 7.2558594 -1.3007812 L 7.2558594 -1.2988281 L 7.2558594 -1.296875 L 7.2539062 -1.296875 L 7.2539062 -1.2949219 L 7.2519531 -1.2949219 L 7.25 -1.2949219 L 7.2480469 -1.2949219 L 7.2480469 -1.296875 L 7.2460938 -1.296875 C 7.2451537 -1.2975082 7.2432497 -1.2978788 7.2421875 -1.2988281 C 7.2245363 -1.3146043 7.2070032 -1.3317707 7.1894531 -1.3476562 C 7.1960001 -1.3577018 7.2038859 -1.3667807 7.2128906 -1.375 L 7.2148438 -1.3769531 L 7.2167969 -1.3769531 L 7.21875 -1.3789062 z M 34.792969 -1.3769531 C 30.782911 -0.82716895 26.77298 -0.27208765 22.767578 0.31054688 C 21.616064 0.47804864 20.465812 0.65565054 19.314453 0.82421875 C 18.28745 0.9745801 17.259768 1.1195744 16.232422 1.2675781 C 15.551065 1.3511679 14.868713 1.4289677 14.1875 1.5136719 C 13.605106 1.5289347 13.021854 1.5435451 12.439453 1.5585938 C 11.518272 1.5700101 9.5835966 1.5980327 8.59375 1.5898438 C 8.2147097 1.5867079 7.8317858 1.5830411 7.4492188 1.5683594 C 7.4561742 1.4521619 7.4656426 1.3190667 7.4746094 1.1640625 C 7.7331489 1.1168298 7.9899098 1.0689382 8.2480469 1.0234375 C 9.788063 0.7519857 9.5216356 0.79731986 11.214844 0.48828125 C 13.302613 0.11506079 15.416675 -0.055852415 17.523438 -0.27539062 C 18.392461 -0.36594883 19.259162 -0.4791254 20.128906 -0.5625 C 21.977527 -0.73971108 24.245255 -0.88754068 26.083984 -1.0175781 C 28.984599 -1.1823688 31.88794 -1.3269566 34.792969 -1.3769531 z M 39.320312 -1.3671875 C 40.126725 -1.3479583 40.711152 -1.3207694 41.583984 -1.2792969 C 40.918866 -1.1950698 40.103391 -1.0945367 40.017578 -1.0839844 C 38.397827 -0.88480275 36.775587 -0.69977885 35.154297 -0.51367188 C 34.561892 -0.44377368 33.970823 -0.37860605 33.378906 -0.3046875 C 28.465962 0.30884357 34.557107 -0.42183231 29.490234 0.19335938 C 29.127352 0.23741846 28.76343 0.27991807 28.400391 0.32226562 C 28.705437 0.27417163 29.011775 0.22475916 29.316406 0.17382812 C 31.06867 -0.092205515 32.822201 -0.34367805 34.574219 -0.61132812 C 36.157474 -0.85319681 37.739473 -1.1096753 39.320312 -1.3671875 z M 31.777344 0.43359375 C 31.080372 0.51479127 30.384038 0.59878238 29.6875 0.68359375 C 29.636577 0.68699596 29.586079 0.68996193 29.535156 0.69335938 C 29.429025 0.70034266 29.323936 0.70804266 29.220703 0.71484375 C 30.07268 0.61794828 30.924588 0.52261748 31.777344 0.43359375 z M 39.476562 0.5390625 C 39.383911 0.55503096 39.289867 0.56993296 39.197266 0.5859375 C 39.157712 0.5916199 39.118521 0.59770092 39.078125 0.60351562 C 38.930052 0.6146107 38.78278 0.62572615 38.634766 0.63671875 C 37.853052 0.69499835 37.070029 0.74494556 36.289062 0.8125 C 34.843737 0.9375227 32.218696 1.2198407 30.808594 1.3574219 C 30.053494 1.4310956 29.298475 1.5027887 28.542969 1.5722656 C 28.593786 1.5648543 28.644477 1.5580702 28.695312 1.5507812 C 28.866237 1.5245318 29.036148 1.4972722 29.207031 1.4707031 C 30.183539 1.366121 31.159204 1.2528667 32.136719 1.1582031 C 33.137135 1.0613221 34.139297 0.9853879 35.140625 0.8984375 C 36.585107 0.77300622 38.031274 0.65297108 39.476562 0.5390625 z M 36.871094 0.55859375 C 36.22793 0.62697356 35.583781 0.69221074 34.941406 0.76757812 C 33.988842 0.87933959 33.040636 1.014803 32.087891 1.125 C 31.921943 1.1441939 31.019633 1.2409148 29.958984 1.3535156 C 30.743479 1.2300479 31.527868 1.1052169 32.3125 0.98242188 C 33.830691 0.82071525 35.348845 0.66707759 36.871094 0.55859375 z M 48.822266 0.703125 C 48.842674 0.70127449 48.862248 0.70422593 48.873047 0.7109375 L 48.875 0.71289062 L 48.876953 0.71289062 L 48.876953 0.71484375 L 48.878906 0.71679688 L 48.878906 0.71875 L 48.880859 0.72070312 C 48.881026 0.7214288 48.880777 0.72383638 48.880859 0.72460938 C 48.884879 0.7623596 48.862197 0.79023151 48.824219 0.8125 C 48.793491 0.79295797 48.764013 0.77303726 48.734375 0.75195312 L 48.732422 0.75 L 48.730469 0.74804688 L 48.728516 0.74609375 L 48.728516 0.74414062 L 48.728516 0.7421875 L 48.728516 0.74023438 L 48.728516 0.73828125 L 48.730469 0.73632812 L 48.732422 0.734375 C 48.745045 0.72035948 48.78655 0.70636339 48.822266 0.703125 z M 29.050781 0.76171875 C 28.892632 0.78120721 28.7343 0.80066038 28.576172 0.8203125 C 27.875699 0.905353 27.176166 1.0005919 26.474609 1.0761719 C 25.85607 1.142808 25.236745 1.1953824 24.617188 1.2519531 C 25.909314 1.100666 27.201647 0.94604555 28.494141 0.796875 C 28.679874 0.78485153 28.865052 0.77383838 29.050781 0.76171875 z M 5.1972656 0.890625 C 5.1721616 1.0965207 5.15137 1.3026485 5.1328125 1.5097656 C 5.1013285 1.8611563 5.0656499 2.2136448 5.0605469 2.5664062 C 5.0484659 3.401716 5.1497769 4.3278335 5.21875 5.1523438 C 5.2459762 5.430106 5.2708743 5.7084494 5.296875 5.9863281 C 5.2901459 7.7286314 5.3898121 9.4674512 5.5175781 11.205078 C 5.4968707 11.537966 5.4780435 11.871758 5.4667969 12.205078 C 5.4386679 13.038755 5.4504339 13.873012 5.4355469 14.707031 C 5.4313018 14.944838 5.4247184 15.182156 5.4179688 15.419922 C 5.1745051 12.621963 4.8037827 9.8369605 4.5800781 7.0371094 C 4.5435782 6.5802824 4.5035409 6.1237169 4.4804688 5.6660156 C 4.4615066 5.2898511 4.4635419 4.9136564 4.4550781 4.5371094 C 4.486874 3.778763 4.4983193 3.0091281 4.671875 2.265625 C 4.7844502 1.7833589 4.9907681 1.3370446 5.1972656 0.890625 z M 43.447266 0.94140625 C 44.733066 0.93386156 46.024564 0.92251915 47.306641 1.0292969 C 47.323477 1.0965984 47.341107 1.1630403 47.357422 1.2304688 C 45.722777 1.578227 44.060063 1.8314177 42.404297 2.046875 C 41.50633 2.163724 40.608323 2.2776465 39.707031 2.3652344 C 38.641519 2.4687787 37.573036 2.5344529 36.505859 2.6191406 C 35.351074 2.6890417 34.196267 2.768339 33.041016 2.8300781 C 29.568477 3.0156564 26.092333 3.1397044 22.615234 3.1933594 C 21.506208 3.2104724 20.396253 3.2303594 19.287109 3.2246094 C 18.330998 3.2196491 17.37582 3.1898258 16.419922 3.1679688 C 16.694848 3.1323151 16.969171 3.095854 17.244141 3.0605469 C 17.710634 3.0166311 18.176602 2.9714715 18.642578 2.921875 C 19.113871 2.8709123 20.420527 2.7314503 21.121094 2.6503906 C 21.764152 2.6004928 22.40712 2.5470727 23.050781 2.5058594 C 23.827279 2.4561394 24.605822 2.424108 25.382812 2.3828125 L 27.732422 2.2285156 C 29.922116 2.0703389 32.117038 1.962257 34.304688 1.7753906 C 36.13321 1.6191997 37.956046 1.4166117 39.777344 1.1933594 C 40.466135 1.1105268 41.156534 1.0283213 41.845703 0.94921875 C 42.141416 0.94766336 42.585897 0.94646064 43.447266 0.94140625 z M 47.402344 1.0371094 C 47.584662 1.0531472 47.767318 1.072426 47.949219 1.09375 C 47.825907 1.1248992 47.702125 1.1554342 47.578125 1.1835938 L 47.402344 1.0371094 z M 6.6933594 1.3007812 C 6.6978924 1.381323 6.7014533 1.456415 6.7050781 1.5253906 C 6.6586061 1.5215625 6.612803 1.516028 6.5664062 1.5117188 C 6.572324 1.4475267 6.5782252 1.3845199 6.5839844 1.3203125 C 6.6205363 1.3143071 6.6568209 1.3069211 6.6933594 1.3007812 z M 33.560547 1.3261719 C 31.54533 1.5473639 29.526052 1.7257352 27.503906 1.8691406 C 28.689008 1.7436655 29.875345 1.6244099 31.0625 1.5214844 C 32.056545 1.4353012 32.824996 1.3766857 33.560547 1.3261719 z M 49.613281 1.6347656 C 49.614157 1.6553899 49.614243 1.676717 49.615234 1.6992188 C 49.661984 2.7594223 49.762881 3.8172442 49.865234 4.8730469 C 50.039605 6.6862026 50.229903 8.4986362 50.351562 10.316406 C 50.354941 10.367203 50.384802 10.906851 50.416016 11.484375 C 50.414917 11.684507 50.413376 11.907423 50.412109 12.171875 C 50.15063 10.31294 49.971545 8.4445181 49.755859 6.5800781 C 49.490546 4.2866409 49.589743 5.1618555 49.630859 5.5273438 C 49.612549 5.3653132 49.574351 5.032063 49.505859 4.4277344 C 49.475139 4.1652632 49.444042 3.9031825 49.414062 3.640625 C 49.40891 3.5954816 49.393016 3.4745627 49.376953 3.3300781 C 49.378258 3.3162155 49.379536 3.302924 49.380859 3.2890625 C 49.411062 2.8529636 49.449692 2.6756753 49.380859 2.5292969 L 49.380859 2.5273438 C 49.380806 2.5264455 49.380994 2.5223615 49.380859 2.5214844 L 49.378906 2.5195312 L 49.378906 2.5175781 C 49.378502 2.5167693 49.375502 2.5125032 49.375 2.5117188 L 49.373047 2.5097656 L 49.371094 2.5078125 C 49.283104 2.3485664 49.056932 2.2138457 48.533203 1.7949219 C 48.830453 1.7730657 49.126608 1.7507796 49.423828 1.7285156 C 49.472864 1.6690709 49.538642 1.6432817 49.613281 1.6347656 z M 48.337891 1.8085938 C 48.340204 1.8084243 48.34339 1.8087632 48.345703 1.8085938 C 48.345449 1.8098161 48.343974 1.8112259 48.34375 1.8125 L 48.337891 1.8085938 z M 47.503906 1.8691406 C 47.816911 3.3126335 48.014318 4.7808959 48.119141 6.2539062 C 48.162321 6.8607273 48.176438 7.470445 48.205078 8.078125 C 48.214378 8.71894 48.230752 9.35912 48.232422 10 C 48.235822 11.313371 48.202351 12.583656 48.175781 13.896484 C 48.136431 15.840414 48.109092 17.782781 48.0625 19.726562 C 48.047317 20.251225 48.032869 20.776122 48.017578 21.300781 C 48.009851 21.405128 48.001728 21.51092 47.994141 21.615234 C 47.806097 24.20061 47.900853 22.838339 47.773438 24.716797 C 47.68113 23.297472 47.591347 21.877026 47.482422 20.458984 C 47.370149 18.997359 47.235327 17.537334 47.117188 16.076172 C 47.065218 15.413115 47.013077 14.751085 46.962891 14.087891 C 46.679344 10.340886 46.981348 14.185284 46.720703 10.814453 C 46.69937 10.538553 46.652501 9.9709347 46.611328 9.4335938 C 46.639951 8.8995839 46.670073 8.3640605 46.699219 7.8300781 C 46.818958 5.2282512 46.721434 7.1384071 46.849609 4.9628906 C 46.863189 4.7324509 46.864879 4.5012876 46.886719 4.2714844 C 46.898999 4.1422934 47.032118 3.9916321 46.953125 3.8886719 C 46.93848 3.8695844 46.923287 3.8507393 46.908203 3.8320312 C 47.18287 3.4728183 47.144307 3.4593086 46.005859 2.9902344 C 45.91838 2.9208298 45.831044 2.8522505 45.744141 2.7832031 L 45.742188 2.78125 C 45.74136 2.7806925 45.73707 2.7777369 45.736328 2.7773438 L 45.734375 2.7773438 L 45.732422 2.7773438 L 45.732422 2.7792969 L 45.730469 2.7792969 L 45.730469 2.78125 L 45.728516 2.78125 L 45.728516 2.7832031 L 45.728516 2.7851562 C 45.726171 2.8023514 45.736024 2.8435657 45.744141 2.8808594 C 45.739538 2.8789533 45.7351 2.8769189 45.730469 2.875 C 45.720828 2.8710058 45.709963 2.8697761 45.703125 2.8691406 C 45.700992 2.8691048 45.695206 2.8688335 45.693359 2.8691406 L 45.691406 2.8710938 L 45.689453 2.8710938 L 45.6875 2.8730469 L 45.685547 2.875 L 45.683594 2.8769531 L 45.681641 2.8789062 L 45.679688 2.8808594 L 45.679688 2.8828125 C 45.663813 2.9219302 45.709135 3.0354359 45.753906 3.1503906 C 45.754531 4.3272721 45.690579 5.5027871 45.712891 6.6796875 C 45.735101 7.0383025 45.747637 7.3979544 45.779297 7.7558594 C 45.875823 8.8471999 45.951186 9.1514285 46.105469 10.232422 C 46.062728 12.44504 45.943689 14.657046 45.888672 16.869141 C 45.841642 18.759914 45.841211 20.547987 45.832031 22.4375 C 45.874961 23.398591 45.918011 24.359222 45.960938 25.320312 C 45.998018 26.237932 46.032176 27.154772 46.072266 28.072266 C 46.108816 28.908834 46.130669 29.74687 46.191406 30.582031 C 46.326847 32.444521 46.380881 32.928219 46.402344 32.976562 L 46.402344 32.978516 L 46.404297 32.978516 L 46.404297 32.980469 L 46.40625 32.980469 L 46.40625 32.978516 L 46.408203 32.978516 C 46.433216 32.919955 46.382223 31.930666 46.482422 34.443359 L 46.527344 34.482422 C 46.487859 33.491883 46.465125 32.930315 46.453125 32.648438 C 46.484567 33.317126 46.569976 34.900584 46.492188 30.837891 C 46.476168 30.001262 46.417061 29.165803 46.375 28.330078 C 46.157694 24.012029 46.269817 27.072088 46.144531 22.703125 C 46.133621 21.784561 46.102048 20.865848 46.111328 19.947266 C 46.131588 17.940942 46.239761 16.462424 46.349609 14.46875 C 46.39163 13.706107 46.421181 13.176868 46.441406 12.808594 C 46.560187 13.798383 46.66737 14.789136 46.765625 15.78125 C 47.163672 20.055996 47.543639 24.34122 47.515625 28.638672 C 47.493685 29.141408 47.479639 29.64419 47.449219 30.146484 C 47.429799 30.46709 47.261082 30.804261 47.367188 31.107422 C 47.419598 31.257166 47.482761 31.401701 47.554688 31.542969 C 47.55751 31.54458 47.55968 31.545216 47.5625 31.546875 C 47.561711 31.549201 47.561363 31.552385 47.560547 31.554688 C 47.586439 31.605148 47.612798 31.655508 47.640625 31.705078 L 47.640625 31.707031 C 47.667824 33.271982 47.739299 34.835218 47.816406 36.398438 C 47.754665 36.385467 47.685382 36.376393 47.609375 36.367188 C 47.482555 36.227808 47.351598 36.09275 47.21875 35.958984 C 47.014992 35.672801 46.810304 35.387868 46.580078 35.123047 C 46.579208 35.122046 46.577071 35.119924 46.576172 35.119141 L 46.574219 35.117188 L 46.572266 35.117188 L 46.570312 35.115234 L 46.568359 35.115234 L 46.566406 35.115234 C 46.565403 35.115208 46.561574 35.115099 46.560547 35.115234 C 46.558448 35.115804 46.552964 35.119994 46.550781 35.121094 C 46.526338 35.135742 46.496938 35.176031 46.46875 35.183594 C 46.460753 35.185738 46.453332 35.187402 46.445312 35.189453 C 46.437232 35.181266 46.427986 35.174218 46.419922 35.166016 C 46.292918 35.191586 46.167427 35.224688 46.039062 35.242188 C 45.191576 35.357765 44.327332 35.359461 43.474609 35.394531 C 41.341355 35.482261 43.052953 35.428621 40.730469 35.488281 C 40.186789 35.499141 39.643048 35.502014 39.099609 35.521484 C 38.428654 35.545524 37.758482 35.586501 37.087891 35.619141 C 36.283557 35.653941 35.480377 35.69456 34.675781 35.722656 C 34.376541 35.733105 34.076642 35.744533 33.777344 35.753906 C 32.65024 35.734853 31.51016 35.717211 30.822266 35.708984 C 30.712825 35.707665 29.978175 35.701833 29.050781 35.693359 C 29.058459 34.138169 29.090436 32.581299 29.107422 31.027344 C 29.112922 30.31874 29.125657 29.610979 29.123047 28.902344 C 29.121047 28.353338 29.11734 27.803896 29.09375 27.255859 C 29.088729 27.139439 29.08156 27.026532 29.072266 26.917969 C 29.10073 26.547347 29.137198 26.065972 29.1875 25.402344 C 29.521957 25.008617 30.036135 24.50503 29.253906 24.513672 C 29.300216 23.886964 29.347904 23.260525 29.400391 22.634766 C 29.449931 22.044162 29.723326 21.420624 29.566406 20.867188 C 29.51104 20.671917 29.442739 20.485469 29.363281 20.306641 C 29.522962 20.209108 29.325414 19.943709 29.0625 19.734375 C 28.82565 19.344623 28.54796 18.993902 28.273438 18.666016 C 28.265248 18.656234 28.256368 18.649058 28.25 18.646484 L 28.248047 18.646484 L 28.246094 18.646484 L 28.244141 18.646484 L 28.242188 18.646484 L 28.240234 18.646484 L 28.238281 18.646484 L 28.236328 18.648438 L 28.234375 18.650391 L 28.232422 18.652344 L 28.230469 18.654297 C 28.186796 18.716801 28.218049 19.077386 28.197266 19.230469 C 28.115788 19.763674 28.020456 20.376686 27.931641 20.978516 C 27.953785 20.744209 27.977061 20.509609 28 20.275391 L 27.619141 19.945312 C 27.684322 18.745556 27.751719 18.714873 26.607422 17.771484 C 26.562707 17.71932 26.524962 17.678554 26.492188 17.650391 C 26.489083 17.415857 26.481686 17.183927 26.472656 16.955078 C 26.449856 16.377219 26.398464 16.17097 26.306641 15.671875 L 25.777344 15.074219 C 26.251066 14.577943 26.727234 14.086283 27.212891 13.601562 C 27.805026 13.027404 28.423851 12.482393 29.068359 11.96875 C 29.217003 12.348986 29.355841 12.733266 29.5 13.115234 C 30.132031 14.938014 30.91282 16.70564 31.701172 18.464844 C 31.985734 19.099842 32.262466 19.737327 32.566406 20.363281 C 32.922764 21.097187 33.89185 22.910541 34.306641 23.693359 L 34.353516 23.730469 C 34.274256 23.515199 33.356957 21.022001 33.333984 20.964844 C 33.085723 20.347184 32.807929 19.743222 32.546875 19.130859 C 32.0876 18.053524 31.616127 16.976795 31.195312 15.882812 C 31.371366 16.153632 31.528449 16.40186 31.730469 16.619141 C 32.545167 17.987594 33.388774 19.338969 34.173828 20.724609 C 35.503999 23.034782 34.363501 21.044272 35.53125 23.115234 C 35.678093 23.375655 35.789772 23.661097 35.976562 23.894531 C 36.13171 24.088421 36.287749 24.281266 36.449219 24.470703 C 36.440577 24.448314 36.432435 24.426116 36.423828 24.402344 C 36.449057 24.445164 36.473941 24.486366 36.498047 24.527344 C 36.499301 24.528802 36.500698 24.529792 36.501953 24.53125 C 36.502293 24.532509 36.501624 24.533928 36.501953 24.535156 C 36.588441 24.682194 36.6668 24.816418 36.730469 24.925781 C 37.050646 25.475748 37.207748 25.919578 38.050781 26.080078 C 38.103316 26.12356 38.156537 26.167574 38.208984 26.210938 C 38.226241 26.225205 38.23772 26.232273 38.242188 26.234375 L 38.242188 26.236328 L 38.244141 26.236328 L 38.244141 26.234375 L 38.244141 26.232422 L 38.242188 26.230469 C 38.232843 26.215317 38.183664 26.16102 38.119141 26.091797 C 38.152292 26.097294 38.185494 26.102755 38.220703 26.107422 C 38.447976 26.137543 38.131837 25.761833 37.962891 25.496094 C 38.008519 25.531391 38.056222 25.567845 38.105469 25.605469 C 38.170979 25.655519 38.299178 25.54649 38.310547 25.464844 C 38.333087 25.302971 38.240128 25.146239 38.191406 24.990234 C 37.975916 24.300234 37.649471 23.498928 37.396484 22.84375 C 36.639352 21.050628 35.868969 19.262461 35.050781 17.496094 C 34.458046 16.216452 33.827105 14.953608 33.230469 13.675781 C 32.941689 13.057294 32.662941 12.435134 32.378906 11.814453 C 32.133495 11.254208 31.885741 10.694037 31.642578 10.132812 C 31.626129 10.094848 31.610077 10.057549 31.59375 10.019531 C 31.561721 9.9117147 31.523388 9.808174 31.464844 9.7148438 C 31.336431 9.4114903 31.20878 9.1081748 31.076172 8.8066406 C 30.954812 8.5306826 30.881653 8.222875 30.697266 7.984375 C 30.427943 7.6360216 30.126376 7.3141474 29.806641 7.0097656 C 29.968335 6.8371432 30.166688 6.6237068 30.423828 6.3476562 C 30.6707 6.0768185 30.919083 5.8077074 31.164062 5.5351562 C 31.30993 5.3728723 31.662008 5.2508556 31.595703 5.0429688 C 31.568356 4.9572272 31.543252 4.8753239 31.517578 4.796875 C 31.537722 4.7885395 31.555776 4.7806588 31.574219 4.7753906 C 31.543863 4.7503857 31.514101 4.7255052 31.484375 4.6992188 C 30.80314 2.643113 30.711437 3.2106808 30.257812 3.8847656 C 30.230104 3.9033695 30.209852 3.9367588 30.193359 3.9785156 C 30.039652 4.1937108 29.876411 4.4029125 29.71875 4.6152344 C 29.143294 5.3682755 28.641842 6.0309816 28.042969 6.78125 C 25.851731 9.5264353 23.553173 12.186281 21.15625 14.753906 C 20.49806 15.471972 19.831588 16.182669 19.181641 16.908203 C 18.669312 17.480113 18.185736 18.077717 17.669922 18.646484 C 16.636084 19.786457 15.536789 20.87045 14.380859 21.886719 C 14.296419 21.960959 14.201992 22.024673 14.113281 22.09375 L 15.009766 23.009766 C 15.459344 22.551143 15.284126 22.746532 15.890625 21.935547 C 17.710657 19.501877 15.913979 21.814373 18.058594 19.029297 C 19.614156 17.009183 19.590125 17.073231 21.337891 14.933594 C 23.320256 12.580013 25.442538 10.345801 27.654297 8.2070312 C 27.632524 8.2550456 27.607329 8.300109 27.580078 8.3378906 C 27.287006 8.7442156 26.979189 9.140208 26.666016 9.53125 C 25.544451 10.931685 25.120948 11.378304 23.904297 12.759766 C 23.388294 13.347605 22.85344 13.920245 22.355469 14.523438 C 15.856291 22.395886 25.528423 10.931064 19.072266 18.632812 C 19.050866 18.658342 16.498745 21.602835 16.339844 21.835938 C 16.069029 22.233213 15.908836 22.695188 15.693359 23.125 L 15.152344 23.849609 L 15.195312 23.890625 L 15.761719 23.193359 C 16.121065 22.90447 16.522378 22.662494 16.839844 22.328125 C 16.97073 22.19027 18.01875 20.817195 18.738281 19.871094 C 18.884785 19.915114 19.155281 19.933172 19.601562 19.912109 C 18.225645 21.398213 18.808635 20.874292 17.421875 22.191406 C 17.188682 22.412888 16.855218 22.738917 16.550781 22.919922 C 16.509941 22.944202 16.460925 22.951267 16.416016 22.966797 L 17.378906 24.09375 C 17.593033 23.925073 17.602 23.937755 17.794922 23.658203 C 18.225899 23.033698 18.580157 22.359206 19.007812 21.732422 C 19.361186 21.214508 19.744395 20.717917 20.113281 20.210938 C 20.19989 20.091906 20.286363 19.972493 20.373047 19.853516 C 20.445216 19.846447 20.520109 19.838358 20.597656 19.830078 C 20.646745 19.897353 20.693761 19.964947 20.738281 20.033203 C 20.715603 19.982866 20.700955 19.933446 20.705078 19.900391 C 20.708444 19.873405 20.711728 19.846385 20.716797 19.818359 C 20.846565 19.80397 20.984362 19.787267 21.128906 19.769531 C 21.519043 19.721661 21.538939 19.099168 21.75 18.767578 C 22.037052 18.316601 22.332319 17.870491 22.623047 17.421875 C 22.855984 17.066105 23.091801 16.712632 23.332031 16.361328 L 23.960938 16.990234 C 24.485479 16.439076 25.006944 15.883661 25.53125 15.332031 C 25.643773 16.153099 25.745788 16.974086 25.792969 17.814453 C 25.960258 20.794154 25.833519 23.773874 25.730469 26.751953 C 25.678249 29.181542 25.63459 31.61129 25.585938 34.041016 C 25.583609 34.15671 25.58209 34.272764 25.582031 34.388672 C 25.558126 34.618402 25.528772 34.846617 25.503906 35.076172 C 25.525206 35.10901 25.547249 35.142687 25.568359 35.175781 C 25.566268 35.210151 25.563284 35.244988 25.560547 35.279297 C 25.554294 35.358204 25.444686 35.439746 25.460938 35.494141 C 25.462725 35.498752 25.46485 35.503609 25.46875 35.507812 C 25.519263 35.562258 25.572111 35.614487 25.625 35.664062 C 25.1116 35.660574 24.747493 35.658538 24.669922 35.660156 C 23.798433 35.678356 22.929044 35.752547 22.058594 35.798828 C 21.427327 35.834927 20.797206 35.872005 20.166016 35.908203 C 19.958375 35.88965 19.750496 35.871336 19.542969 35.851562 C 18.504758 35.752643 17.467437 35.638814 16.429688 35.535156 C 14.071604 35.299615 11.713475 35.072271 9.3554688 34.835938 C 9.3740095 34.569464 9.3931037 34.301377 9.4140625 34.035156 C 9.5088755 32.679156 9.6135414 31.326065 9.7617188 29.974609 C 9.8493868 29.175032 9.9284226 28.868937 9.9355469 28.126953 C 9.9368669 27.989178 9.9173001 27.852325 9.9082031 27.714844 L 9.4414062 27.316406 C 9.4807318 26.979214 9.5446377 26.425061 9.6464844 25.544922 C 9.8372555 23.896315 10.051193 22.243535 10.150391 20.585938 C 10.164331 20.353063 10.164955 20.119909 10.171875 19.886719 L 9.34375 19.179688 C 9.3513272 19.049663 9.3577189 18.930278 9.3613281 18.826172 C 9.3684081 18.622066 9.3558356 18.417107 9.3535156 18.212891 L 8.125 17.183594 C 8.3834432 19.34381 8.2251609 21.519549 7.9980469 23.681641 C 7.9876884 23.673531 7.9790011 23.666627 7.96875 23.658203 C 7.9416269 23.619515 7.9133315 23.580688 7.8847656 23.542969 C 7.881567 23.461113 7.8786519 23.378722 7.875 23.296875 L 7.5605469 23.029297 C 7.5455671 22.416325 7.530056 21.804342 7.5136719 21.191406 C 7.5298756 20.795111 7.5457055 20.398234 7.5605469 20.001953 C 7.6247619 18.172368 7.7220053 16.343128 7.7070312 14.511719 L 7.609375 14.431641 C 7.6225022 14.300495 7.6375223 14.170118 7.6523438 14.039062 C 7.6708967 13.86353 7.6885413 13.687258 7.7070312 13.511719 C 7.7639899 12.970967 7.9114626 12.609361 7.3320312 12.373047 C 7.2924643 9.6253489 7.2497186 6.8779807 7.3476562 4.1308594 C 7.3654724 3.5281789 7.3744808 3.1614026 7.3808594 2.921875 C 7.3893048 2.927047 7.3978083 2.93232 7.40625 2.9375 C 7.5460273 3.0493438 7.6900648 3.1579314 7.8398438 3.2558594 C 7.8661501 3.273059 7.8956088 3.2658363 7.9277344 3.2539062 C 8.0706517 3.336199 8.2162036 3.4133233 8.3652344 3.4824219 C 8.3872635 3.4970489 8.4086761 3.5118884 8.4296875 3.5273438 C 8.426517 3.520316 8.4247283 3.5140127 8.421875 3.5078125 C 8.4834159 3.5352282 8.5442867 3.5619624 8.6074219 3.5859375 C 8.662264 3.6067633 8.7193038 3.6106821 8.7773438 3.6074219 C 8.8141302 3.6149381 8.8510364 3.6250859 8.8867188 3.6367188 C 9.1848135 3.7338997 9.4623283 3.8962872 9.7695312 3.9589844 C 9.9684839 3.9995884 10.176465 3.9571702 10.378906 3.9414062 C 10.95967 3.8961843 11.534227 3.7741973 12.115234 3.7324219 C 12.988382 3.6182209 13.86128 3.5032512 14.734375 3.3886719 C 15.269556 3.3770075 15.80466 3.3630953 16.339844 3.3515625 C 17.350537 3.3276835 18.360316 3.301247 19.371094 3.28125 C 21.907323 3.231073 23.442442 3.2302155 25.980469 3.15625 C 28.004062 3.097277 31.064614 2.9697004 33.091797 2.8613281 C 34.247064 2.7995711 35.399887 2.7222686 36.554688 2.6523438 C 40.202576 2.3739708 43.854931 2.1326297 47.503906 1.8691406 z M 20.738281 20.033203 C 20.775014 20.114734 20.830617 20.195736 20.841797 20.207031 C 20.840738 20.204171 20.838366 20.199398 20.833984 20.191406 C 20.804879 20.138319 20.772205 20.085214 20.738281 20.033203 z M 31.574219 4.7753906 C 31.61653 4.8102442 31.661088 4.8435912 31.705078 4.875 C 31.706323 4.8758886 31.70604 4.8783457 31.707031 4.8789062 L 31.708984 4.8789062 L 31.710938 4.8789062 L 31.712891 4.8789062 L 31.714844 4.8769531 L 31.712891 4.875 C 31.705769 4.8517696 31.647408 4.7725611 31.609375 4.7695312 L 31.607422 4.7695312 L 31.605469 4.7695312 L 31.603516 4.7695312 C 31.594324 4.7713736 31.583949 4.7726112 31.574219 4.7753906 z M 36.501953 24.535156 C 36.500367 24.532459 36.499639 24.53005 36.498047 24.527344 C 36.482006 24.508696 36.465176 24.489424 36.449219 24.470703 C 36.475993 24.540069 36.502372 24.599687 36.513672 24.615234 L 36.515625 24.617188 L 36.517578 24.617188 L 36.519531 24.617188 L 36.519531 24.615234 C 36.519602 24.605663 36.513706 24.579011 36.501953 24.535156 z M 47.560547 31.554688 C 47.558522 31.550741 47.5567 31.546921 47.554688 31.542969 C 47.511336 31.518224 47.46779 31.498742 47.423828 31.488281 C 47.420116 31.487398 47.415409 31.487802 47.412109 31.488281 C 47.411055 31.488582 47.40726 31.489798 47.40625 31.490234 C 47.403355 31.491936 47.39703 31.495262 47.394531 31.498047 C 47.361364 31.541664 47.365481 31.682724 47.396484 31.724609 C 47.397252 31.725495 47.399594 31.729701 47.400391 31.730469 C 47.401216 31.731114 47.405396 31.733857 47.40625 31.734375 L 47.408203 31.734375 C 47.409113 31.734623 47.413125 31.736223 47.414062 31.736328 C 47.415027 31.736285 47.41893 31.736525 47.419922 31.736328 C 47.42094 31.735973 47.424737 31.734894 47.425781 31.734375 L 47.427734 31.732422 C 47.491645 31.691342 47.533945 31.629682 47.560547 31.554688 z M 6.0253906 1.9042969 C 5.976812 3.4968362 5.8917945 5.0873164 5.796875 6.6777344 C 5.7922946 6.3286213 5.7876548 5.9799991 5.7832031 5.6308594 C 5.7594842 4.4938528 5.7689189 3.3559542 5.9628906 2.2324219 C 5.9819589 2.1219737 6.0022877 2.0135278 6.0253906 1.9042969 z M 10.792969 1.9238281 C 10.813891 1.9500447 10.835963 1.9761256 10.857422 2.0019531 C 9.7106191 2.1650219 8.5577097 2.3107297 7.4003906 2.3613281 C 7.4037913 2.3018824 7.4076908 2.2324144 7.4140625 2.1328125 C 7.6430927 2.1191288 7.8725461 2.0946576 8.1015625 2.0800781 C 8.9986153 2.0229723 9.8953812 1.973381 10.792969 1.9238281 z M 6.5195312 2.015625 L 6.6523438 2.109375 C 6.6785935 2.1113917 6.705136 2.1130742 6.7324219 2.1152344 C 6.7354681 2.1965923 6.7369054 2.2823436 6.7402344 2.3789062 C 6.7355892 2.378953 6.7312079 2.378863 6.7265625 2.3789062 C 6.7313432 2.3826729 6.7374147 2.3868473 6.7421875 2.390625 C 6.7425868 2.4022302 6.7417799 2.413877 6.7421875 2.4257812 C 6.6607018 2.4063874 6.5675301 2.3807465 6.5449219 2.3828125 L 6.5449219 2.3847656 L 6.5429688 2.3847656 L 6.5429688 2.3867188 L 6.5429688 2.3886719 L 6.5429688 2.390625 L 6.5449219 2.390625 C 6.547364 2.3930353 6.5509774 2.3966911 6.5566406 2.4003906 C 6.618958 2.4410999 6.6824914 2.4809495 6.7460938 2.5195312 C 6.7553008 2.7907639 6.7669565 3.1408197 6.7851562 3.6503906 C 6.8879008 5.9698651 6.9529436 8.2901281 7 10.611328 C 7.0112482 11.166165 7.0136648 11.722481 7.0234375 12.277344 C 6.9263043 12.253404 6.8180431 12.229699 6.6953125 12.208984 C 6.6478755 12.165346 6.6002338 12.12114 6.5546875 12.076172 C 6.5526363 12.074147 6.5499403 12.073248 6.5488281 12.072266 C 6.5547008 12.082769 6.6177437 12.160171 6.6230469 12.197266 C 6.5931914 12.192571 6.5626219 12.188121 6.53125 12.183594 C 6.2992987 12.150124 6.5080391 12.652443 6.5019531 12.886719 C 6.4965747 13.09385 6.494947 13.300625 6.4921875 13.507812 L 6.4628906 13.484375 C 6.4720332 13.55963 6.4800161 13.63561 6.4882812 13.710938 C 6.4872291 13.788857 6.4876017 13.865445 6.4863281 13.943359 C 6.4838442 15.90322 6.4113213 17.861246 6.3164062 19.818359 C 6.2477664 18.767358 6.1613775 17.867004 6.0742188 16.808594 C 6.07376 16.803023 6.0727238 16.796587 6.0722656 16.791016 C 6.0714441 16.769051 6.0711396 16.748527 6.0703125 16.726562 C 5.9400974 13.268621 5.9722703 14.819255 5.8828125 11.449219 C 5.8765889 11.214763 5.8707104 10.98055 5.8652344 10.746094 C 5.8705869 10.579161 5.875283 10.413097 5.8789062 10.246094 C 5.9231593 9.4861678 5.9612695 8.7243837 6.0117188 7.9648438 C 6.143697 5.9778222 6.3339009 3.9979608 6.5195312 2.015625 z M 48.462891 2.6152344 C 48.500922 3.0292217 48.546547 3.4426291 48.574219 3.8574219 C 48.57835 3.9193483 48.57627 3.9704893 48.580078 4.03125 C 48.539388 3.5590769 48.509684 3.086841 48.462891 2.6152344 z M 12.816406 2.9160156 C 12.826505 2.9266547 12.835537 2.9366688 12.845703 2.9472656 C 12.699191 2.9583516 12.564103 2.968539 12.441406 2.9765625 C 12.242371 2.9895788 12.043 3.0005036 11.84375 3.0097656 C 11.700544 3.0035877 11.557246 2.996924 11.414062 2.9902344 C 11.706436 2.9696881 11.998672 2.94871 12.291016 2.9277344 C 12.466198 2.9271773 12.641433 2.9234861 12.816406 2.9160156 z M 49.226562 5.9335938 C 49.317992 6.4694079 49.401155 7.0072141 49.470703 7.546875 C 49.692059 9.2644924 49.649872 9.0504295 49.626953 9.0273438 L 49.625 9.0273438 L 49.625 9.0253906 L 49.623047 9.0253906 L 49.623047 9.0273438 L 49.621094 9.0273438 L 49.621094 9.0292969 L 49.621094 9.03125 C 49.610297 9.0656269 49.624968 9.3192738 49.767578 10.568359 C 49.828128 11.098684 49.915935 11.625723 49.990234 12.154297 C 50.150278 13.19749 50.245272 13.803697 50.376953 14.699219 C 50.318217 16.662777 50.194471 18.625362 50.111328 20.587891 C 50.021108 22.717421 50.037655 22.686773 50.005859 24.878906 C 49.943189 28.729022 49.786258 32.577079 49.763672 36.427734 C 49.783681 37.192785 49.771657 37.612461 49.830078 38.142578 C 49.686059 37.973525 49.571518 37.75888 49.378906 37.664062 C 49.390928 37.54319 49.404178 37.421829 49.414062 37.300781 C 49.483942 36.445286 49.487169 36.313348 49.539062 35.412109 C 49.568083 34.762811 49.62781 33.474969 49.644531 32.851562 C 49.704921 30.599865 49.665079 28.34442 49.537109 26.095703 C 49.481429 24.729069 49.409715 23.363074 49.363281 21.996094 C 49.339421 21.293791 49.33215 20.591107 49.3125 19.888672 C 49.29341 19.20593 49.262867 18.524646 49.248047 17.841797 C 49.246426 17.767092 49.245583 17.691931 49.244141 17.617188 C 49.271499 17.472149 49.299747 17.326158 49.330078 17.181641 C 49.313383 17.162193 49.29587 17.144561 49.279297 17.125 C 49.284142 17.086284 49.289726 17.046194 49.296875 17.007812 C 49.30526 16.962808 49.378308 16.91033 49.380859 16.875 L 49.380859 16.873047 L 49.380859 16.871094 L 49.380859 16.869141 L 49.378906 16.867188 L 49.378906 16.865234 L 49.378906 16.863281 L 49.376953 16.861328 L 49.375 16.861328 L 49.373047 16.859375 C 49.37192 16.858273 49.370559 16.856512 49.369141 16.855469 C 49.323456 16.82185 49.277897 16.790679 49.230469 16.759766 C 49.218384 15.718467 49.218148 14.674153 49.214844 13.634766 C 49.222444 12.948497 49.238991 12.262484 49.238281 11.576172 C 49.237626 10.938914 49.216228 10.301299 49.210938 9.6640625 C 49.200613 8.4214291 49.192021 7.1766832 49.226562 5.9335938 z M 29.488281 7.3496094 C 29.597755 7.5514595 29.928384 7.7968501 30.041016 8.0058594 C 30.118519 8.1496815 30.196066 8.2968685 30.273438 8.4453125 C 30.138147 8.3234317 30.001328 8.2037446 29.863281 8.0859375 C 29.86064 8.0836838 29.855736 8.0793456 29.853516 8.078125 L 29.851562 8.078125 L 29.849609 8.078125 L 29.847656 8.078125 L 29.845703 8.078125 L 29.84375 8.078125 L 29.84375 8.0800781 L 29.841797 8.0800781 L 29.841797 8.0820312 L 29.839844 8.0839844 C 29.824143 8.1160455 29.849055 8.2490164 29.84375 8.3066406 C 29.862928 8.416278 29.884097 8.5253206 29.904297 8.6347656 C 29.904371 8.6496255 29.909169 8.6658054 29.914062 8.6835938 C 29.937309 8.8085914 29.957905 8.9338426 29.982422 9.0585938 C 29.911488 8.9872266 29.840887 8.9102234 29.769531 8.8320312 C 29.682628 8.6825541 29.569902 8.5453647 29.443359 8.4140625 C 29.653969 8.1552075 29.725709 7.888356 29.167969 7.6992188 C 29.265234 7.590353 29.364173 7.4829297 29.488281 7.3496094 z M 48.708984 7.4355469 C 48.761097 9.3921709 48.792166 11.347697 48.828125 13.304688 C 48.832586 14.380844 48.834106 15.458795 48.841797 16.535156 C 48.814373 16.520701 48.787336 16.506415 48.759766 16.492188 C 48.701444 16.421786 48.641694 16.350406 48.582031 16.28125 C 48.626436 13.688936 48.670837 11.096343 48.707031 8.5039062 C 48.706892 8.1965023 48.709053 7.8272509 48.708984 7.4355469 z M 30.107422 7.5703125 C 30.202625 7.6114583 30.319061 7.7736317 30.324219 7.8046875 L 30.324219 7.8066406 L 30.322266 7.8066406 L 30.320312 7.8066406 L 30.318359 7.8066406 C 30.315878 7.8055222 30.312696 7.8039922 30.308594 7.8007812 C 30.239481 7.7466858 30.172783 7.6624233 30.107422 7.5703125 z M 29.994141 9.1191406 C 30.007784 9.1879769 30.023095 9.2574095 30.037109 9.3261719 C 30.002224 9.3064674 29.964808 9.2865328 29.927734 9.2675781 C 29.927421 9.2652242 29.928111 9.2640988 29.927734 9.2617188 C 29.92061 9.2167364 29.910715 9.1719311 29.898438 9.1289062 C 29.94237 9.1293736 29.974927 9.1263266 29.994141 9.1191406 z M 29.884766 9.4414062 C 29.899803 9.4552566 29.914965 9.4667728 29.925781 9.4765625 C 29.944509 9.5020779 29.9615 9.529342 29.980469 9.5546875 C 29.945527 9.5212633 29.91165 9.4867835 29.876953 9.453125 C 29.879946 9.4493071 29.881995 9.4453146 29.884766 9.4414062 z M 29.677734 9.6035156 C 29.684622 9.6228235 29.691234 9.6407202 29.697266 9.6582031 C 29.679843 9.6456656 29.661779 9.6324468 29.644531 9.6191406 C 29.65554 9.6136906 29.667081 9.6091011 29.677734 9.6035156 z M 29.005859 9.9726562 C 29.068086 10.11728 29.128873 10.257662 29.189453 10.396484 C 29.099988 10.305622 29.012788 10.215344 28.931641 10.119141 C 28.909287 10.146245 28.886178 10.172521 28.863281 10.199219 L 28.802734 10.146484 C 28.86933 10.089235 28.936677 10.031134 29.005859 9.9726562 z M 28.585938 10.333984 C 28.593489 10.363607 28.600959 10.394458 28.609375 10.423828 C 28.592515 10.452813 28.57375 10.478671 28.554688 10.498047 C 28.355047 10.700971 28.153606 10.901674 27.945312 11.095703 C 27.907094 11.068851 27.870443 11.042242 27.832031 11.015625 C 28.07386 10.790828 28.321169 10.565814 28.585938 10.333984 z M 25.46875 12.164062 L 25.470703 12.164062 C 25.469369 12.165536 25.468129 12.170403 25.466797 12.171875 C 25.462068 12.177101 25.455878 12.182299 25.451172 12.1875 C 25.455482 12.181819 25.460547 12.17558 25.464844 12.169922 L 25.464844 12.167969 C 25.466096 12.16632 25.467499 12.165709 25.46875 12.164062 z M 5.7949219 12.404297 C 5.8549468 13.375579 5.9076465 14.348328 5.9550781 15.320312 C 5.9514117 15.274215 5.9470424 15.227737 5.9433594 15.181641 C 5.8834912 14.344185 5.8298176 13.506322 5.78125 12.667969 C 5.7857712 12.580334 5.7904679 12.491934 5.7949219 12.404297 z M 31.896484 13.322266 C 32.126613 13.82186 32.052141 13.642706 32.742188 14.640625 L 32.771484 14.664062 L 32.771484 14.666016 C 32.823307 14.786039 32.875311 14.906719 32.925781 15.027344 C 33.583901 16.576675 34.218315 18.134552 34.853516 19.693359 C 34.899835 19.807029 35.057309 20.192088 35.242188 20.642578 C 34.19228 18.478481 33.177626 16.29746 32.21875 14.091797 C 32.127609 13.871982 32.01515 13.606705 31.896484 13.322266 z M 5.7226562 13.820312 C 5.7558467 14.239037 5.7873275 14.657523 5.8183594 15.076172 C 5.8551824 15.613024 5.8977837 16.150333 5.9296875 16.6875 C 5.9889915 17.686024 6.0219902 18.684998 6.0800781 19.683594 C 6.1004573 20.033938 6.1270468 20.384213 6.1503906 20.734375 C 6.1621422 21.261732 6.173086 21.789056 6.1855469 22.316406 C 6.1513339 22.946047 6.1174082 23.575513 6.0839844 24.205078 C 6.0802926 24.267756 6.0762035 24.329924 6.0722656 24.392578 C 5.9787727 23.01728 5.8875373 21.641877 5.7890625 20.267578 C 5.7328456 19.483023 5.6717258 18.700263 5.6113281 17.916016 C 5.6152192 17.765995 5.619847 17.614873 5.6230469 17.464844 C 5.6411789 16.614711 5.6472912 15.76391 5.6757812 14.914062 C 5.6880164 14.549086 5.705209 14.185081 5.7226562 13.820312 z M 23.597656 14.025391 C 23.302406 14.413353 23.005956 14.800347 22.707031 15.185547 C 22.496783 15.407516 22.260122 15.655392 21.986328 15.941406 C 21.817655 16.117608 21.6424 16.287147 21.466797 16.457031 C 21.796387 16.07759 22.192048 15.631823 22.787109 14.951172 C 23.056862 14.64262 23.327208 14.333333 23.597656 14.025391 z M 33.109375 14.257812 C 33.859575 15.806554 34.603983 17.3588 35.289062 18.9375 C 35.973373 20.514427 36.008484 20.666593 36.574219 22.193359 C 36.671688 22.499568 36.773916 22.781565 36.861328 23.064453 C 36.162074 21.505721 36.381843 22.032628 35.632812 20.306641 C 34.959082 18.754166 34.317352 17.188607 33.679688 15.621094 C 33.492284 15.166586 33.303321 14.711173 33.109375 14.257812 z M 32.599609 15.859375 C 33.179717 17.073298 33.748241 18.291121 34.318359 19.509766 C 34.447465 19.785732 34.73914 20.40559 35.042969 21.054688 C 34.25173 19.720813 33.534256 18.343059 32.847656 16.955078 C 32.726653 16.710467 32.608517 16.463673 32.492188 16.216797 C 32.51418 16.225226 32.537725 16.233743 32.560547 16.242188 C 32.696428 16.292462 32.641805 16.068399 32.599609 15.859375 z M 50.78125 17.982422 C 50.783893 17.985905 50.786401 17.988719 50.789062 17.992188 C 50.786045 18.008736 50.781263 18.024561 50.777344 18.041016 C 50.778249 18.021048 50.780342 18.00239 50.78125 17.982422 z M 5.6015625 18.328125 C 5.6502502 18.961797 5.6987164 19.594603 5.7441406 20.228516 C 5.90593 22.486347 5.9586983 23.425128 6.0488281 24.75 C 5.9740909 25.817894 5.8665199 26.883617 5.7480469 27.947266 C 5.7142829 27.131656 5.6842594 26.343697 5.6601562 25.742188 C 5.6408501 24.807664 5.561122 21.155797 5.5644531 20.216797 C 5.5666908 19.586832 5.584193 18.9579 5.6015625 18.328125 z M 48.953125 21.214844 C 48.958992 21.364004 48.963667 21.512922 48.96875 21.662109 C 49.01484 23.015193 49.051839 24.367483 49.09375 25.720703 C 49.09145 28.330443 49.053094 30.947184 48.826172 33.548828 C 48.792882 33.93045 48.746951 34.31042 48.707031 34.691406 C 48.690476 34.818312 48.673347 34.945427 48.65625 35.072266 C 48.627466 34.677338 48.605326 34.299792 48.591797 33.986328 C 48.564147 33.345629 48.561655 32.703625 48.546875 32.0625 C 48.554275 31.38865 48.554483 30.714722 48.570312 30.041016 C 48.592022 29.116656 48.683295 27.090898 48.724609 26.154297 C 48.79726 24.507221 48.876561 22.861735 48.953125 21.214844 z M 28.513672 22.359375 C 28.510948 22.998279 28.491199 23.638847 28.474609 24.277344 C 28.471729 24.388158 28.468234 24.499252 28.464844 24.613281 C 28.360422 24.633394 28.246391 24.656692 28.125 24.683594 C 28.114721 24.641582 28.102176 24.600976 28.083984 24.560547 C 28.20648 23.819833 28.347824 23.084882 28.513672 22.359375 z M 7.9804688 23.669922 C 7.9853379 23.673433 7.99056 23.678223 7.9980469 23.683594 C 7.9974805 23.688984 7.9966609 23.693828 7.9960938 23.699219 C 7.9902556 23.690632 7.9844299 23.680411 7.9785156 23.671875 L 7.9804688 23.669922 z M 7.7226562 33.326172 C 7.6849909 33.770923 7.6474147 34.215436 7.609375 34.660156 C 7.5693275 34.655562 7.530282 34.651078 7.4902344 34.646484 C 7.6605046 33.805579 7.6893086 33.723007 7.7089844 33.347656 C 7.7139216 33.340859 7.7179142 33.332699 7.7226562 33.326172 z M 27.154297 34.15625 C 27.17964 34.17016 27.205359 34.183004 27.230469 34.197266 C 27.230987 34.184232 27.231908 34.171237 27.232422 34.158203 C 27.426414 34.368039 27.656649 34.541164 27.890625 34.710938 C 27.93591 34.755977 27.983219 34.800497 28.03125 34.841797 C 28.025674 35.049953 28.020211 35.243548 28.017578 35.419922 C 28.016267 35.507531 28.015846 35.595977 28.015625 35.683594 C 27.701757 35.680839 27.384434 35.678351 27.076172 35.675781 C 27.090471 35.331532 27.111731 34.963633 27.138672 34.472656 C 27.15664 34.491418 27.173153 34.508839 27.191406 34.527344 C 27.196354 34.532359 27.203868 34.538708 27.207031 34.541016 L 27.208984 34.541016 L 27.210938 34.541016 L 27.212891 34.541016 L 27.212891 34.539062 C 27.214108 34.521132 27.178234 34.441017 27.144531 34.359375 C 27.14814 34.293461 27.150469 34.22673 27.154297 34.15625 z M 10.806641 35.488281 C 11.8007 35.50106 12.48598 35.514703 13.865234 35.580078 C 15.058223 35.636627 18.391148 35.847989 19.572266 35.941406 C 18.245836 36.016962 16.91886 36.091254 15.591797 36.15625 C 15.253093 36.121302 14.914948 36.084975 14.576172 36.050781 C 10.240599 35.478315 14.093677 36.016062 10.806641 35.488281 z M 13.285156 36.072266 C 13.745314 36.100571 14.20585 36.131998 14.666016 36.160156 C 14.779638 36.168264 14.894207 36.17528 15.007812 36.183594 C 14.846732 36.191167 14.684539 36.199743 14.523438 36.207031 C 14.412126 36.212067 14.301078 36.217439 14.189453 36.222656 C 13.987767 36.188654 13.785816 36.154208 13.583984 36.121094 C 13.484581 36.104784 13.384582 36.088472 13.285156 36.072266 z M 35 36.103516 C 35.707694 36.111196 36.199399 36.12109 36.589844 36.130859 C 37.1257 36.162297 37.661436 36.194755 38.197266 36.228516 C 37.20468 36.330871 36.211858 36.4295 35.21875 36.525391 C 32.515799 36.786376 32.548451 36.768437 30.720703 36.917969 C 30.558206 36.912979 30.394886 36.908152 30.232422 36.902344 C 29.776559 36.852474 29.488842 36.821991 29.050781 36.779297 C 29.050034 36.578008 29.04854 36.377096 29.048828 36.175781 C 31.032144 36.120101 33.015001 36.081971 35 36.103516 z M 9.265625 36.179688 C 9.5907673 36.220649 9.9151 36.261722 10.240234 36.302734 C 9.9440275 36.287535 9.6477764 36.264985 9.3515625 36.25 C 9.3202677 36.246858 9.2911662 36.243416 9.2617188 36.240234 C 9.263093 36.219821 9.2642562 36.200101 9.265625 36.179688 z M 28.019531 36.207031 C 28.02136 36.365341 28.023488 36.523325 28.025391 36.681641 C 27.753419 36.655553 27.434431 36.624713 27.052734 36.587891 C 27.053988 36.46532 27.056104 36.349132 27.058594 36.236328 C 27.378863 36.22615 27.699292 36.216823 28.019531 36.207031 z M 26.244141 36.259766 C 26.29514 36.338944 26.346089 36.418739 26.398438 36.496094 C 26.398222 36.505686 26.398655 36.515687 26.398438 36.525391 C 26.338922 36.519625 26.27687 36.511875 26.214844 36.505859 C 25.653638 36.445893 25.094289 36.38536 24.533203 36.324219 C 25.103534 36.300636 25.673612 36.277901 26.244141 36.259766 z M 23.996094 36.345703 C 25.230774 36.458653 26.246585 36.552065 26.253906 36.552734 C 26.301508 36.558244 26.34888 36.562872 26.396484 36.568359 C 26.395656 36.605331 26.395394 36.643091 26.394531 36.681641 C 25.632717 36.620652 24.871236 36.548744 24.111328 36.464844 C 23.851965 36.436208 23.592989 36.408784 23.333984 36.376953 C 23.554648 36.366528 23.7754 36.355429 23.996094 36.345703 z M 41.074219 36.439453 C 41.79226 36.50211 42.508416 36.571812 43.224609 36.652344 C 41.745625 36.713465 40.265972 36.755227 38.787109 36.824219 C 38.009997 36.860469 37.23289 36.886259 36.457031 36.943359 C 36.126854 36.967662 35.796423 36.996418 35.466797 37.027344 C 34.438093 37.015115 33.645089 36.989199 32.287109 36.955078 C 32.242467 36.954392 32.198938 36.953867 32.154297 36.953125 C 32.270471 36.945037 32.385761 36.935574 32.501953 36.927734 C 34.878217 36.767403 35.729995 36.74299 38.058594 36.613281 C 43.208032 36.326444 38.699392 36.56307 41.074219 36.439453 z M 21.744141 36.457031 C 21.785173 36.54807 21.846059 36.639804 21.914062 36.730469 C 21.260285 36.673071 20.606988 36.616987 19.953125 36.560547 C 20.550463 36.524515 21.146569 36.489328 21.744141 36.457031 z M 19.720703 36.574219 C 20.464013 36.640747 21.206028 36.709378 21.949219 36.777344 C 22.093448 36.962973 22.261946 37.146058 22.359375 37.328125 L 22.361328 37.330078 L 22.361328 37.332031 L 22.363281 37.332031 L 22.365234 37.332031 L 22.367188 37.332031 L 22.367188 37.330078 L 22.367188 37.328125 L 22.369141 37.326172 C 22.37436 37.312105 22.377704 37.277057 22.382812 37.261719 C 22.480395 37.255982 22.578199 37.249906 22.675781 37.244141 C 22.711267 37.267204 22.74659 37.289029 22.783203 37.310547 C 23.052267 37.468676 23.408101 37.339181 23.71875 37.369141 C 23.951131 37.391556 24.205177 37.422149 24.470703 37.455078 L 23.376953 37.544922 C 22.533915 37.455537 21.691877 37.356385 20.851562 37.242188 C 20.481286 37.187454 18.748072 36.930591 17.390625 36.728516 C 18.032136 36.686885 18.67283 36.639516 19.314453 36.599609 C 19.449515 36.591209 19.585629 36.582462 19.720703 36.574219 z M 27.052734 36.644531 C 27.377337 36.681482 27.700803 36.718784 28.025391 36.755859 C 28.025544 36.769783 28.025246 36.782951 28.025391 36.796875 C 27.700299 36.7773 27.375621 36.755774 27.050781 36.732422 C 27.050964 36.702603 27.052486 36.67354 27.052734 36.644531 z M 14.796875 36.878906 C 15.293203 36.94178 15.788834 37.005435 16.285156 37.068359 C 17.049323 37.165239 17.812792 37.27999 18.578125 37.367188 C 19.441012 37.465497 20.305711 37.537152 21.169922 37.623047 C 21.318388 37.635886 21.466778 37.649091 21.615234 37.662109 C 21.087849 37.694344 20.560022 37.727476 20.033203 37.767578 C 19.499776 37.743176 19.028682 37.720777 18.677734 37.701172 C 17.681807 37.645532 16.688612 37.568563 15.693359 37.501953 C 14.753843 37.524009 13.813939 37.502647 12.876953 37.457031 C 12.642698 37.333191 12.387604 37.294356 11.820312 37.175781 C 12.183214 37.12447 12.623316 37.071596 13.072266 37.019531 C 13.10136 37.016715 13.132215 37.012689 13.162109 37.009766 C 14.158236 36.930697 14.586646 36.895681 14.796875 36.878906 z M 27.972656 37.318359 C 27.990941 37.318824 28.009059 37.319846 28.027344 37.320312 C 28.027328 37.323152 28.027361 37.325285 28.027344 37.328125 C 28.009075 37.32482 27.990925 37.321665 27.972656 37.318359 z M 29.21875 37.351562 C 29.749658 37.366177 30.279661 37.381493 30.810547 37.396484 C 30.773991 37.398986 30.737728 37.399842 30.701172 37.402344 C 30.591437 37.410605 30.482776 37.4194 30.373047 37.427734 C 29.98836 37.403169 29.603253 37.378787 29.21875 37.351562 z M 29.054688 37.382812 C 29.391414 37.407271 29.727556 37.429176 30.064453 37.451172 C 29.750051 37.47524 29.435451 37.500777 29.121094 37.525391 C 29.099105 37.521454 29.076676 37.517612 29.054688 37.513672 C 29.054205 37.470168 29.055109 37.426318 29.054688 37.382812 z M 31.306641 37.410156 C 31.773578 37.423228 32.240101 37.435073 32.707031 37.447266 C 33.010163 37.451741 33.306742 37.456805 33.599609 37.460938 C 34.08822 37.530725 34.58814 37.603969 35.121094 37.685547 C 34.150046 37.64308 33.178283 37.593162 32.208984 37.544922 C 31.712776 37.512561 31.216989 37.48241 30.720703 37.451172 C 30.727374 37.45065 30.733563 37.44974 30.740234 37.449219 C 30.943822 37.435291 31.132432 37.42223 31.306641 37.410156 z M 30.414062 37.474609 C 31.025369 37.513626 31.636798 37.54999 32.248047 37.589844 C 33.488485 37.650982 34.499275 37.70725 35.541016 37.75 C 35.68763 37.772777 35.837409 37.796244 35.990234 37.820312 C 35.365634 37.848687 34.739812 37.883168 34.115234 37.912109 C 32.633027 37.937535 32.001955 37.950483 31.578125 37.957031 C 30.825391 37.827081 30.072283 37.694875 29.320312 37.560547 C 29.684876 37.531705 30.049481 37.503184 30.414062 37.474609 z M 35.539062 37.492188 C 36.130427 37.503531 36.72893 37.515832 37.353516 37.535156 C 38.523814 37.571369 39.693367 37.636677 40.863281 37.683594 C 40.238473 37.704443 39.613221 37.721927 38.988281 37.738281 C 38.545743 37.749865 38.102767 37.756861 37.660156 37.765625 C 37.086951 37.687444 36.513711 37.608976 35.939453 37.539062 C 35.806202 37.52284 35.672382 37.507825 35.539062 37.492188 z M 9.3417969 37.537109 C 9.3596478 37.551149 9.3780387 37.564804 9.3964844 37.578125 C 10.340467 38.259844 11.590799 38.221902 12.681641 38.457031 C 12.666966 38.458371 12.651393 38.459598 12.636719 38.460938 C 11.560502 38.378779 10.551456 38.268349 9.4628906 38.111328 C 9.4444647 38.10867 9.4229601 38.105231 9.3984375 38.101562 C 9.3770376 37.912126 9.3599451 37.736114 9.3417969 37.537109 z M 25.099609 37.537109 C 25.506358 37.592205 25.915793 37.650324 26.285156 37.703125 C 26.28279 37.720147 26.280113 37.736837 26.277344 37.753906 C 26.161012 37.763518 26.044062 37.773541 25.927734 37.783203 C 25.349674 37.736573 24.772484 37.685106 24.195312 37.628906 C 24.437791 37.604234 24.734498 37.574659 25.099609 37.537109 z M 13.037109 37.556641 C 14.02328 37.644983 15.008489 37.740948 15.992188 37.855469 C 16.196827 37.86249 17.150567 37.894097 18.246094 37.931641 C 17.940439 37.962468 17.635877 37.994262 17.330078 38.023438 C 16.187893 38.132409 15.044827 38.240146 13.902344 38.345703 C 13.468616 37.92999 13.238051 37.700233 13.037109 37.556641 z M 12.988281 37.734375 L 12.990234 37.734375 L 12.992188 37.734375 L 12.994141 37.734375 L 12.996094 37.734375 C 13.057978 37.743751 13.289355 37.948054 13.326172 38.060547 C 13.352461 38.140877 13.340013 38.237099 13.302734 38.320312 C 13.201813 38.180119 13.089885 37.999387 12.988281 37.771484 C 12.983556 37.760886 12.982447 37.749879 12.982422 37.744141 L 12.982422 37.742188 L 12.982422 37.740234 L 12.984375 37.738281 L 12.986328 37.736328 L 12.988281 37.736328 L 12.988281 37.734375 z M 22.935547 37.779297 C 23.421766 37.822981 23.908283 37.868501 24.394531 37.912109 C 24.325738 37.917937 24.256292 37.923847 24.1875 37.929688 C 23.643063 37.913568 23.00237 37.890444 22.34375 37.865234 C 22.637659 37.825052 22.821262 37.797365 22.935547 37.779297 z M 26.267578 37.804688 C 26.267314 37.806134 26.267845 37.8091 26.267578 37.810547 C 26.258629 37.809852 26.249183 37.807338 26.240234 37.806641 C 26.249449 37.80589 26.258364 37.805438 26.267578 37.804688 z M 47.099609 37.8125 C 47.184064 37.812964 47.27662 37.811946 47.380859 37.8125 C 47.549795 37.813382 47.71973 37.817827 47.888672 37.818359 C 47.894528 37.936083 47.898757 38.054136 47.904297 38.171875 C 47.774415 38.207898 47.645883 38.242951 47.515625 38.277344 C 47.41757 38.166623 47.311946 38.061621 47.203125 37.960938 C 47.168614 37.911062 47.134523 37.862019 47.099609 37.8125 z M 27.054688 37.814453 C 27.283291 37.848143 27.513535 37.882711 27.742188 37.916016 C 27.513713 37.901051 27.285024 37.885345 27.056641 37.869141 C 27.056436 37.851085 27.054882 37.832211 27.054688 37.814453 z M 48.255859 37.818359 C 48.264763 37.819226 48.273856 37.821142 48.283203 37.822266 C 48.291103 37.833261 48.298639 37.842591 48.306641 37.853516 C 48.297135 37.86463 48.286616 37.875718 48.273438 37.882812 L 48.271484 37.882812 L 48.269531 37.884766 L 48.267578 37.884766 L 48.265625 37.884766 L 48.263672 37.884766 L 48.261719 37.884766 L 48.259766 37.884766 L 48.259766 37.882812 L 48.257812 37.882812 L 48.257812 37.880859 L 48.255859 37.880859 L 48.255859 37.878906 L 48.255859 37.876953 L 48.253906 37.875 C 48.250642 37.863081 48.252886 37.841588 48.255859 37.818359 z M 24.671875 37.935547 C 24.702142 37.938251 24.733405 37.942612 24.763672 37.945312 C 24.716463 37.9442 24.666967 37.942675 24.617188 37.941406 C 24.635429 37.939895 24.653634 37.937057 24.671875 37.935547 z M 21.095703 38.029297 C 21.611657 38.046756 21.979685 38.059947 22.068359 38.0625 C 22.211033 38.066608 22.355361 38.070573 22.498047 38.074219 C 20.672383 38.231584 18.847016 38.392038 17.021484 38.550781 C 16.947546 38.557211 16.872759 38.56379 16.798828 38.570312 C 16.789609 38.558152 16.780777 38.54568 16.771484 38.535156 C 17.075685 38.499537 17.379367 38.464936 17.683594 38.429688 C 18.520135 38.332768 19.357871 38.250144 20.193359 38.144531 C 20.531456 38.101793 20.83112 38.063343 21.095703 38.029297 z M 27.060547 38.199219 C 27.377895 38.210347 27.694301 38.220244 28.011719 38.228516 C 28.008316 38.36018 28.005905 38.493377 28.001953 38.625 C 27.99835 38.745045 27.996138 38.84083 27.994141 38.919922 C 27.94388 39.084896 27.894775 39.247338 27.957031 39.382812 C 27.960237 39.389788 27.9616 39.397363 27.964844 39.404297 C 27.955625 39.467989 27.942224 39.548372 27.921875 39.677734 C 28.098389 39.843199 28.262015 40.059776 28.427734 40.263672 C 27.963474 40.321489 27.499552 40.378857 27.035156 40.435547 C 27.034004 40.431841 27.032408 40.427549 27.03125 40.423828 C 27.066256 40.40693 27.099223 40.381465 27.130859 40.345703 C 27.454747 39.979581 27.075146 39.190196 27.066406 38.611328 C 27.064215 38.466217 27.06229 38.329164 27.060547 38.199219 z M 29.068359 38.298828 C 29.838056 38.35369 30.608214 38.401188 31.378906 38.441406 C 31.858147 38.511944 32.335562 38.585056 32.814453 38.658203 C 33.580427 38.7752 34.346451 38.902419 35.113281 39.013672 C 35.231646 39.030845 35.68089 39.09111 36.263672 39.169922 C 35.769348 39.24976 35.357283 39.315578 35.121094 39.351562 C 33.141378 39.653185 31.156758 39.920913 29.169922 40.171875 C 29.149055 40.080641 29.132491 39.994369 29.128906 39.925781 C 29.100589 39.38394 29.07989 38.841863 29.068359 38.298828 z M 35.285156 38.570312 C 36.459219 38.599252 37.637221 38.627395 38.025391 38.636719 C 38.506136 38.640461 38.987986 38.643092 39.46875 38.646484 C 38.973362 38.727814 38.343947 38.832459 37.712891 38.935547 C 37.519748 38.908714 37.327695 38.879897 37.134766 38.851562 C 36.518079 38.760994 35.900862 38.667073 35.285156 38.570312 z M 40.798828 38.771484 C 40.380032 38.866167 39.9615 38.960815 39.542969 39.056641 C 39.429141 39.082463 39.314901 39.108491 39.201172 39.134766 C 39.027052 39.111407 38.853828 39.087663 38.679688 39.064453 C 39.276944 38.982336 39.873509 38.897041 40.470703 38.814453 C 40.585014 38.799798 40.693776 38.785082 40.798828 38.771484 z M 47.941406 39.03125 C 47.954378 39.390681 47.963893 39.74971 47.96875 40.109375 C 47.844511 40.000401 47.711185 39.903621 47.582031 39.800781 L 47.580078 39.800781 C 47.539042 39.804772 47.498008 39.809454 47.457031 39.814453 C 47.398997 39.77755 47.357228 39.752302 47.345703 39.742188 L 47.34375 39.742188 L 47.34375 39.740234 L 47.345703 39.740234 C 47.357565 39.738339 47.428088 39.758706 47.580078 39.800781 C 47.454891 39.701131 47.334801 39.595215 47.205078 39.501953 C 47.02868 39.375135 46.784705 39.389744 46.574219 39.335938 C 46.405452 39.292797 46.237222 39.249816 46.068359 39.207031 C 46.431231 39.166115 46.796183 39.128359 47.166016 39.09375 C 47.424016 39.069607 47.682882 39.049161 47.941406 39.03125 z M 42.970703 39.216797 C 43.030218 39.231198 43.09078 39.245348 43.150391 39.259766 C 42.901093 39.31386 42.651127 39.369323 42.402344 39.425781 C 42.327113 39.441013 42.250886 39.457026 42.173828 39.472656 C 42.031462 39.458167 41.890369 39.44264 41.748047 39.427734 C 41.811713 39.417326 41.873862 39.407064 41.9375 39.396484 C 42.282279 39.339166 42.626568 39.277892 42.970703 39.216797 z M 43.960938 39.46875 C 44.261191 39.552079 44.562254 39.635102 44.863281 39.71875 C 44.303866 39.673795 43.744325 39.624952 43.185547 39.572266 C 43.445256 39.537847 43.70379 39.502683 43.960938 39.46875 z M 40.103516 39.689453 L 40.105469 39.689453 C 40.301631 39.717742 40.497167 39.745252 40.693359 39.773438 C 39.279049 40.060037 37.757488 40.364574 36.507812 40.589844 C 35.419593 40.78601 34.326267 40.954249 33.236328 41.140625 C 32.221824 41.314102 31.211539 41.504879 30.195312 41.667969 C 28.384338 41.958604 26.561441 42.17779 24.751953 42.478516 C 24.224193 42.557819 23.782011 42.627182 23.369141 42.689453 C 23.74416 42.603492 24.119178 42.51704 24.494141 42.431641 C 25.382546 42.244998 26.26804 42.04916 27.158203 41.871094 C 28.119592 41.678779 31.745265 40.999898 32.724609 40.833984 C 33.643569 40.6783 34.565931 40.549298 35.486328 40.402344 C 39.425543 39.773396 36.301176 40.240899 40.103516 39.689453 z " />
</svg>
