<svg xmlns="http://www.w3.org/2000/svg" fill="none" viewBox="4 -4 48 48"><path d="M50.924-4.158c-.12.005-.276.057-.574.138q-.33.074-.659.149c-.647.15-1.463.349-2.1.488q-.441.097-.884.19-1.14.2-2.281.388c-1.1.183-3.746.612-4.77.762-.98.143-1.963.268-2.945.402l-1.352.186-.101.004c-3.073.107-6.148.189-9.217.39-2.02.114-4.04.242-6.06.342-.922.046-1.847.06-2.768.117-.748.047-1.494.13-2.24.198-1.686.154-2.55.244-4.217.412-.602.053-1.204.102-1.805.16-.476.046-.954.098-1.431.145l.02-.362c.01-.233.031-.467.03-.701 0-.313-.027-.356-.097-.615-.188-.185-.37-.373-.555-.56l.025-.243c.017-.147.15-.321.06-.44-.753-.996-.965-1.309-1.06-1.261-.052.032-.07.18-.132.383l-.018-.002h-.002l-.002.002h-.002l-.002.002-.002.002h-.002v.002l-.002.001v.002q-.005.021.01.063c-.089.278-.103.295-.228.613l-.192.405q-.046.092-.094.183l-.095-.082.027.215q-.025.052-.047.105c-.059.142-.098.291-.148.436-.18.521-.374 1.036-.57 1.55-.136.287-.338.69-.436.995-.316.983-.188 2.04-.125 3.049.16 1.364.13 1.267.379 2.716.103.606.233 1.208.33 1.815.386 2.413.606 4.847.814 7.281-.013.463-.025.924-.027 1.387-.004.945.027 1.89.037 2.836.047 4.37-.013 1.117.084 5.514.027 2.85.002 2.18.076 3.863-.134 1.15-.27 2.302-.379 3.455-.066.62-.096 1.243-.105 1.865-.002.094.004.19.002.283 0 .025-.02.059-.018.08v.002l.002.002.002.006.002.002.002.002c.222.17.455.324.69.477l.132.138-.023.168c-.03.233-.168.907-.072 1.182.07.202.22.367.334.549.042.458.093.915.119 1.375-.188.014-.408.031-.68.049-.344.022-.687.04-1.031.044-.238.004-.737-.258-.713-.021l.006.049c-.073-.007-.135-.02-.315-.057.184.168.356.354.53.535.186.262.447.494.62.76.026-.034.038-.084.077-.101l.027-.012q.068.046.139.088c.174.1.391-.096.588-.137q.407-.084.816-.16c.125.218.304.354.5.54l.047.038c.187.137.436.38.535.215.061-.1-.006-.235-.013-.352l-.008-.119.015.012.114.097-.02-.037.004.002.01.006h.011l.002-.002v-.002l.002-.002v-.004c.007-.038-.057-.182-.068-.248l-.062-.341c.086.067.187.152.28.207q.18.181.368.351.016.015.025.02h.004v-.002h.002v-.006c-.003-.034-.077-.167-.166-.328a.1.1 0 0 0 .024-.022c.225.21.344.27.404.229l.103.062q.015.009.028.01h.01l.002-.002.005-.002.002-.002.002-.002.002-.002.002-.006c.02-.048-.02-.193-.047-.322.207.082.45.082.672.123a9 9 0 0 0 1.053.149c.933.066 1.507-.01 2.435-.077.525-.118 1.256-.215 1.743-.535q.424.022.85.04c.407.016.816.016 1.224.04.274.017.877.348.818.08q-.007-.03-.013-.058c.486.051.768.018-.174-.686a2.2 2.2 0 0 0-.221-.535l.229-.021q2.924-.265 5.85-.512c.782.018 1.564.033 2.347.055q.464.012.928.029c-.081.325-.161.65-.082.957q.05.198.119.385v.008c-.068.092-.283.204-.203.277.175.16.393.404.605.545l.08.137-3.271.394c-.904.088-1.808.163-2.71.266-.219.025-4.122.554-4.388.588-1.544.195-2.25.26-3.762.42l-1.394.148c-.841.085-1.284.137-2.098.193-.232.016-.8.042-1.086.057-.082.004-.163.004-.244.014-.037.004-.072.017-.107.027l.853 1c.051.003.101.013.152.01.152-.01.471-.082.592-.108.201-.042.402-.088.604-.129.844-.169 1.052-.198 1.957-.353.445-.071.893-.139 1.338-.215.554-.095 1.106-.2 1.66-.299q.96-.166 1.92-.33c4.61-.776-.459.084 4.304-.681.856-.138 1.71-.289 2.565-.432l3.193-.447q.203.314.41.61.027.037.041.046h.01v-.002l.002-.002v-.002l.002-.002c.014-.05-.062-.321-.176-.69l1.434-.199c.119.142.241.27.373.368a9 9 0 0 1 .332.437c-.026-.102-.058-.2-.082-.303q.037.012.076.02c.163.033.063-.305-.014-.617q1.566-.216 3.133-.418c1.57-.213 3.148-.38 4.72-.57l.976.132q-.29.065-.58.125c-.772.162-1.549.296-2.32.453-.885.18-1.765.384-2.65.563-.913.184-1.83.348-2.745.525-6.704 1.302 1.064-.188-5.493 1.065q-3.093.56-6.209.994c-.305.043-.607.09-.908.127-.296-.08-.596-.173-.652.056a5 5 0 0 1-.547-.002c.312.238.592.53.896.78.092.1.186.199.268.3 0-.003.004-.01.006-.013q.013-.02.06-.041.172.11.362.19c.274.112.572-.146.861-.21.427-.093.857-.175 1.285-.26 1.85-.363 3.703-.711 5.553-1.068 1.727-.342 3.435-.771 5.158-1.13.995-.208 1.996-.39 2.992-.587 1.067-.21 2.13-.434 3.198-.632 1.935-.36 3.096-.54 4.707-.788 1.57.226 3.14.456 4.703.727.668.116 1.336.245 2.002.377-.006.318-.017.637-.024.955.042.135-.019.272-.004.406a.08.08 0 0 0 .028.053q.08.067.156.139c.282.34.635.618.977.898l.002.002h.002l.001.002h.012c.02-.005.042-.033.047-.053.034-.143-.099-.297-.031-.44-.058-.588-.131-1.176-.194-1.765-.076-.725-.145-1.45-.22-2.176l.088-.005q.546-.038 1.093-.057.025 0 .051.002l.026.121c.185.912.256 1.135.285 1.164l.002.002h.006l.001-.002v-.002h.002c.006-.01.007-.038.008-.047h.002v.002c.004.021.016.161.072.678l.045.039c-.034-.806-.041-.654-.015-.617l.002.002h.002v.002h.007l.002-.002h.002v-.002l.002-.002c.026-.032.066-.194.123-.75.078-.76.01-1.702-.02-2.445-.11-3.926-.146-7.852-.03-11.778.103-2.383.19-4.769.298-7.152.259.174.481.458.752.594q.148.13.286.265c-.025-.066-.054-.13-.079-.197q.03.005.063.006c.216.013-.111-.416-.164-.625q-.078-.305-.154-.611c-.028-.178-.05-.343-.067-.483-.146-1.201-.2-2.414-.297-3.62l-.052-.835c.033-.925.061-1.73.085-2.69.014-.528.04-1.132-.001-1.673-.009-.11-.055-.363-.079-.498l-.421-.362c-.06-.664-.116-1.329-.147-1.996-.028-.734-.06-1.433-.064-2.166-.002-.279.01-.559.01-.838 0-.453-.035-.906 0-1.359l-.848-.725c.005.112.014.223.015.334.003.161.002.26 0 .327a18 18 0 0 0-1.047-.471c-.151-.064-.326-.046-.49-.067L47.412.36a35 35 0 0 0-2.535-.064l-.113-.121c.97-.051 1.944-.09 2.918-.096.611-.004 1.387-.002 2.011.055.189.017.376.056.563.084l-.01-.008c.038.007.07.012.086.01l.002-.002h.004V.215h.002V.207l-.002-.002V.203l-.002-.002-.014-.014c-.234-.2-.499-.356-.767-.51a4 4 0 0 0-.389-.253.1.1 0 0 0-.066-.01l-.098-.06c-.137.014-.274.03-.412.04-1 .082-.59.025-1.756.127q-.981.087-1.961.186l-.518.03a4 4 0 0 0-.341-.315l.215-.01c.248-.013.497-.01.744-.039.145-.018.494.027.427-.103l-.017-.034.715-.086c1.596-.09 3.194-.154 4.793-.171.07.018.134.029.162.019l.006-.002.002-.002.002-.002v-.002l.001-.002v-.002l.002-.002v-.005l.014-.002a.1.1 0 0 0-.016.035v.006l.002.002v.001l.002.002h.002v.002c.055.045.399-.054.414-.13v-.012l-.002-.002-.002-.002-.001-.006-.004-.004A9.7 9.7 0 0 0 50.09-2.18l-.065.03-.01-.014a.4.4 0 0 1 .057-.025l-.146-.086c-.115-.066-.263.023-.395.033q-.266.018-.531.035l-.633.049c-1.032.196-2.075.324-3.115.469l-.578.078c-.178-.226-.239-.284-.322-.266l-.022-.018c-.088-.07-.227.017-.34.026-1.152.085-.643.049-2.1.137l-.45.021q1.028-.166 2.058-.324c.635-.097 1.268-.19 1.902-.291 2.047-.326 4.084-.735 6.15-.924.154-.008.51.086.554.023l.001-.002v-.001l.002-.002v-.004q.002-.015-.013-.04l-.006-.01.049-.001c.051-.003.179.012.205.004h.002v-.006l-.002-.002-.008-.006c-1.054-.654-1.145-.872-1.41-.861m-.852 1.969.018.01.117-.055.002-.002h.002v-.002h-.002a1 1 0 0 0-.137.049M17.08 44.395v.003c.003.033.05.081.121.166a2 2 0 0 0-.12-.17M42.27-2.307q-1.982.377-3.967.737-1.276.054-2.553.101l1.012-.138c1.83-.28 3.668-.5 5.508-.7m-4.948.912Q33.2-.658 29.066.014c-1.946.294-3.893.592-5.841.877l-.34.039-.725.052c-.958.083-1.914.173-2.873.247-.876.067-1.754.111-2.63.173q-.29.022-.577.045l.324-.07c.987-.174 1.972-.362 2.961-.522 1.42-.229 5.788-.846 7.147-1.039q4.302-.608 8.607-1.199 1.102-.016 2.203-.012M7.22-1.379h.01l.001.002h.002l.002.002c.016.014.025.057.022.074v.004h-.002v.002h-.006v-.002h-.002q-.001 0-.004-.002l-.053-.049a.1.1 0 0 1 .024-.027l.002-.002h.002zm27.574.002c-4.01.55-8.02 1.105-12.025 1.688-1.152.167-2.302.345-3.454.513q-1.54.224-3.082.444c-.68.083-1.363.161-2.044.246l-1.749.045c-.92.011-2.855.039-3.845.03a38 38 0 0 1-1.145-.02l.026-.405q.386-.071.773-.14C9.788.751 9.522.796 11.215.487c2.088-.373 4.202-.544 6.308-.763.87-.09 1.736-.204 2.606-.287 1.849-.178 4.116-.326 5.955-.456 2.9-.164 5.804-.309 8.709-.359m4.527.01c.807.019 1.391.046 2.264.088-.665.084-1.48.184-1.566.195-1.62.2-3.242.384-4.864.57-.592.07-1.183.135-1.775.21-4.913.613 1.178-.118-3.889.497l-1.09.13q.459-.073.916-.15c1.753-.265 3.506-.517 5.258-.784 1.583-.242 3.165-.499 4.746-.756m-7.543 1.8q-1.045.124-2.09.25l-.152.01-.314.022q1.278-.146 2.556-.281m7.7.106q-.14.023-.28.047l-.119.018q-.222.016-.443.033c-.782.058-1.565.108-2.346.176-1.445.125-4.07.407-5.48.544q-1.133.111-2.266.215l.152-.021.512-.08c.977-.105 1.952-.218 2.93-.313 1-.097 2.002-.173 3.004-.26Q37.307.71 39.477.54M36.87.56c-.643.068-1.287.133-1.93.209-.952.111-1.9.247-2.853.357-.166.02-1.068.116-2.129.229q1.176-.187 2.354-.372C33.83.821 35.349.667 36.87.56m11.951.144a.1.1 0 0 1 .051.008l.002.002h.002v.002l.002.002v.002l.002.002v.004c.004.037-.019.065-.057.088l-.09-.061-.002-.002-.002-.002-.001-.002V.738l.001-.002.002-.002c.013-.014.055-.028.09-.03M29.051.762l-.475.058c-.7.085-1.4.18-2.101.256-.619.067-1.238.12-1.858.176 1.292-.151 2.585-.306 3.877-.455zM5.197.89a20 20 0 0 0-.064.619c-.032.351-.067.704-.072 1.056-.013.836.089 1.762.158 2.586l.078.834c-.007 1.743.093 3.481.22 5.22q-.032.499-.05 1c-.028.833-.017 1.667-.031 2.501q-.008.356-.018.713c-.243-2.798-.614-5.583-.838-8.383-.036-.457-.076-.913-.1-1.371-.018-.376-.016-.752-.025-1.129.032-.758.043-1.528.217-2.271.112-.483.319-.929.525-1.375m38.25.05c1.286-.007 2.578-.018 3.86.088l.05.201c-1.634.348-3.297.601-4.953.817a84 84 0 0 1-2.697.318c-1.065.104-2.134.17-3.201.254-1.155.07-2.31.15-3.465.211-3.473.186-6.949.31-10.426.363-1.109.017-2.219.037-3.328.032-.956-.005-1.911-.035-2.867-.057l.824-.107q.7-.066 1.399-.14c.47-.05 1.778-.19 2.478-.27.643-.05 1.286-.104 1.93-.145.776-.05 1.555-.082 2.332-.123l2.35-.154c2.19-.159 4.384-.267 6.572-.454 1.828-.156 3.651-.358 5.472-.582q1.035-.124 2.069-.244zm3.955.096q.274.024.547.057l-.37.09zm-40.709.264.012.224q-.069-.006-.139-.013l.018-.192zm26.868.025q-3.024.33-6.057.543c1.185-.125 2.371-.245 3.558-.348a135 135 0 0 1 2.499-.195m16.052.309.002.064c.047 1.06.148 2.118.25 3.174.175 1.813.365 3.626.487 5.443l.064 1.168-.004.688c-.261-1.86-.44-3.727-.656-5.592-.265-2.293-.166-1.418-.125-1.053l-.125-1.1-.092-.786c-.005-.046-.021-.166-.037-.31l.004-.042c.03-.436.069-.613 0-.76v-.008l-.002-.001v-.002l-.004-.006-.002-.002-.002-.002c-.088-.16-.314-.294-.838-.713l.89-.066a.27.27 0 0 1 .19-.094m-1.275.174h.008l-.002.004zm-.834.06c.313 1.444.51 2.912.615 4.385.043.607.057 1.216.086 1.824.01.64.026 1.281.027 1.922.004 1.313-.03 2.584-.056 3.896-.04 1.944-.067 3.887-.114 5.83l-.044 1.575-.024.314c-.188 2.586-.093 1.223-.22 3.102-.093-1.42-.183-2.84-.292-4.258-.112-1.462-.247-2.922-.365-4.383q-.079-.994-.154-1.988c-.284-3.747.018.097-.242-3.274l-.11-1.38q.045-.802.088-1.604c.12-2.602.022-.692.15-2.867.014-.23.016-.462.038-.692.012-.129.145-.28.066-.382l-.045-.057c.275-.36.236-.373-.902-.842l-.262-.207-.002-.002-.006-.004h-.004v.002h-.002v.002h-.001v.004c-.003.017.007.059.015.096l-.014-.006a.1.1 0 0 0-.027-.006h-.01l-.002.002h-.002l-.002.002-.001.002-.002.002-.002.002-.002.002v.002c-.016.039.03.152.074.267 0 1.177-.063 2.353-.041 3.53.022.358.035.718.066 1.076.097 1.091.172 1.395.326 2.476-.042 2.213-.161 4.425-.216 6.637-.047 1.89-.048 3.679-.057 5.569l.129 2.882c.037.918.071 1.835.111 2.752.037.837.059 1.675.12 2.51.135 1.863.189 2.346.21 2.395v.002h.002v.001h.002v-.001h.002c.025-.059-.026-1.048.074 1.464l.045.04-.074-1.835c.032.67.117 2.253.04-1.81-.017-.837-.076-1.672-.118-2.508-.217-4.318-.105-1.258-.23-5.627-.011-.918-.043-1.837-.034-2.756.02-2.006.129-3.485.239-5.478l.091-1.66q.178 1.484.325 2.972c.398 4.275.778 8.56.75 12.858-.022.502-.036 1.005-.067 1.507-.02.321-.188.658-.082.961q.08.225.188.436l.008.004-.002.008q.038.075.08.15v.002c.027 1.565.098 3.128.175 4.691a3 3 0 0 0-.207-.03 13 13 0 0 0-.39-.409 11 11 0 0 0-.643-.84l-.002-.002h-.002l-.002-.002h-.009c-.003 0-.008.005-.01.006-.025.015-.054.055-.082.063l-.024.005-.025-.023c-.127.026-.253.059-.38.076-.848.116-1.713.117-2.565.153-2.134.087-.422.034-2.745.093-.543.011-1.087.014-1.63.033-.671.025-1.342.066-2.012.098-.804.035-1.608.076-2.412.104q-.45.017-.899.03c-1.127-.018-2.267-.036-2.955-.044l-1.771-.016c.007-1.555.04-3.112.056-4.666.006-.708.019-1.416.016-2.125a42 42 0 0 0-.03-1.646 8 8 0 0 0-.02-.338l.114-1.516c.335-.393.85-.897.067-.888q.069-.94.146-1.88c.05-.59.323-1.213.166-1.767a4 4 0 0 0-.203-.56c.16-.098-.038-.363-.3-.573a9 9 0 0 0-.79-1.068.1.1 0 0 0-.023-.02h-.012l-.002.002-.002.002-.002.002-.002.002c-.043.063-.012.423-.033.576-.081.534-.177 1.147-.265 1.749l.068-.704-.38-.33c.064-1.2.132-1.23-1.013-2.174a1 1 0 0 0-.115-.12q-.005-.352-.02-.696c-.022-.578-.074-.784-.165-1.283l-.53-.598c.474-.496.95-.988 1.436-1.472a26 26 0 0 1 1.855-1.633c.149.38.288.764.432 1.146.632 1.823 1.413 3.59 2.201 5.35.285.635.561 1.272.865 1.898.357.734 1.326 2.548 1.74 3.33l.048.037c-.08-.215-.997-2.708-1.02-2.765-.248-.618-.526-1.222-.787-1.834-.46-1.077-.93-2.154-1.352-3.248.176.27.333.519.535.736.815 1.369 1.659 2.72 2.444 4.106 1.33 2.31.19.32 1.357 2.39.147.26.259.546.446.78q.23.29.472.576l-.025-.069.074.125.004.004v.004l.228.39c.32.55.478.995 1.32 1.155l.159.13a.2.2 0 0 0 .033.024v.002h.002v-.004l-.002-.002a2 2 0 0 0-.123-.138l.102.015c.227.03-.09-.345-.258-.61l.142.108c.066.05.194-.059.206-.14.022-.162-.07-.319-.12-.475-.215-.69-.542-1.491-.795-2.146a171 171 0 0 0-2.345-5.348c-.593-1.28-1.224-2.542-1.82-3.82-.29-.619-.568-1.24-.852-1.862q-.37-.84-.736-1.681l-.05-.113a1.2 1.2 0 0 0-.128-.305q-.192-.456-.389-.908c-.121-.276-.194-.584-.379-.823a9 9 0 0 0-.89-.974l.617-.662q.372-.405.74-.813c.146-.162.498-.284.432-.492l-.078-.246.056-.022-.09-.076c-.68-2.056-.773-1.488-1.226-.814a.2.2 0 0 0-.065.094c-.153.215-.317.424-.474.636-.576.753-1.077 1.416-1.676 2.166a136 136 0 0 1-6.887 7.973c-.658.718-1.324 1.429-1.974 2.154-.513.572-.996 1.17-1.512 1.738a41 41 0 0 1-3.29 3.24c-.084.075-.178.139-.267.208l.897.916c.45-.459.274-.263.88-1.074 1.82-2.434.024-.122 2.169-2.907 1.555-2.02 1.531-1.956 3.279-4.095a90 90 0 0 1 6.316-6.727 1 1 0 0 1-.074.13q-.441.609-.914 1.194c-1.122 1.4-1.545 1.847-2.762 3.229-.516.588-1.05 1.16-1.549 1.763-6.499 7.873 3.173-3.592-3.283 4.11-.021.025-2.573 2.97-2.732 3.203-.271.397-.431.86-.647 1.289l-.54.725.042.04.567-.697c.36-.289.76-.53 1.078-.865.13-.138 1.179-1.51 1.898-2.457.147.044.417.062.864.041-1.376 1.486-.793.962-2.18 2.28-.233.22-.567.547-.871.728-.041.024-.09.031-.135.047l.963 1.127c.214-.169.223-.156.416-.436.43-.624.785-1.299 1.213-1.926.353-.517.736-1.014 1.105-1.521l.26-.357.225-.024q.074.1.14.203a.3.3 0 0 1-.033-.133l.012-.082q.195-.021.412-.048c.39-.048.41-.67.621-1.002.287-.451.582-.898.873-1.346q.35-.535.709-1.06l.629.628c.524-.55 1.046-1.106 1.57-1.658.113.821.215 1.642.262 2.482.167 2.98.04 5.96-.063 8.938-.052 2.43-.095 4.86-.144 7.289q-.003.174-.004.348c-.024.23-.053.458-.078.687l.064.1-.007.103c-.007.08-.116.16-.1.215l.008.014q.076.081.156.156a81 81 0 0 0-.955-.004c-.872.018-1.741.093-2.611.139l-1.893.11-.623-.057c-1.038-.1-2.076-.213-3.113-.317-2.358-.235-4.717-.463-7.075-.7q.028-.4.06-.8c.094-1.356.199-2.709.347-4.06.087-.8.166-1.106.174-1.848 0-.138-.019-.275-.028-.412l-.467-.399.205-1.771c.191-1.649.405-3.301.504-4.96.014-.232.015-.465.022-.698l-.828-.707q.011-.197.017-.354c.007-.204-.005-.409-.007-.613l-1.229-1.03c.258 2.16.1 4.337-.127 6.499l-.03-.024-.083-.115-.01-.246-.314-.268q-.022-.919-.047-1.838l.047-1.189c.064-1.83.161-3.659.146-5.49l-.098-.08.043-.393.055-.527c.057-.541.204-.903-.375-1.139-.04-2.748-.082-5.495.016-8.242l.033-1.21.025.017c.14.111.284.22.434.318.026.017.056.01.088-.002q.214.124.437.228l.065.045-.008-.02q.091.042.185.079.083.029.17.021.056.012.11.03c.298.097.575.26.883.322.198.04.406-.002.609-.018.58-.045 1.155-.167 1.736-.209l2.62-.343q.803-.02 1.605-.037 1.515-.038 3.031-.07c2.536-.05 4.071-.052 6.61-.126 2.023-.059 5.084-.186 7.11-.295 1.156-.061 2.309-.139 3.464-.209 3.648-.278 7.3-.52 10.949-.783M20.738 20.033a1 1 0 0 0 .104.174l-.008-.016a2 2 0 0 0-.096-.158M31.574 4.775a2 2 0 0 0 .131.1l.002.004h.006l.002-.002-.002-.002c-.007-.023-.066-.102-.104-.105h-.005zm4.928 19.76-.004-.008-.049-.056a1 1 0 0 0 .065.144l.002.002h.004v-.002a1 1 0 0 0-.018-.08m11.059 7.02-.006-.012a.5.5 0 0 0-.131-.055h-.012l-.006.002q-.006.003-.011.008c-.034.044-.03.185.001.227l.004.005.006.004h.002l.006.002h.006l.006-.002.002-.002a.34.34 0 0 0 .133-.177M6.025 1.905a164 164 0 0 1-.228 4.773L5.783 5.63c-.024-1.137-.014-2.275.18-3.399q.029-.164.062-.328m4.768.019q.031.039.064.078c-1.146.163-2.3.309-3.457.36l.014-.23c.23-.013.459-.037.688-.052a320 320 0 0 1 2.691-.156m-4.273.092.132.093.08.006.008.264h-.013l.015.012v.035c-.081-.02-.174-.045-.197-.043v.002h-.002v.006h.002l.012.01q.093.06.19.119c.008.27.02.62.038 1.13.103 2.32.168 4.64.215 6.961.011.555.014 1.111.023 1.666a5 5 0 0 0-.328-.068l-.14-.133-.006-.004c.006.01.069.088.074.125l-.092-.013c-.232-.034-.023.468-.029.703q-.006.31-.01.62l-.03-.023q.014.114.026.227 0 .116-.002.232a125 125 0 0 1-.17 5.875c-.068-1.05-.155-1.951-.242-3.01l-.002-.017q0-.032-.002-.064c-.13-3.458-.098-1.908-.187-5.278l-.018-.703q.008-.25.014-.5c.044-.76.082-1.522.133-2.281.132-1.987.322-3.967.508-5.95m41.943.6c.038.413.084.827.111 1.241.004.062.002.113.006.174-.04-.472-.07-.944-.117-1.416m-35.647.3.03.031-.405.03a32 32 0 0 1-.597.033l-.43-.02.877-.062q.263 0 .525-.012m36.41 3.018q.139.803.245 1.613c.221 1.717.179 1.503.156 1.48h-.002v-.002h-.002v.002h-.002v.004c-.01.035.004.288.147 1.537.06.53.148 1.058.222 1.586.16 1.043.255 1.65.387 2.545-.059 1.964-.183 3.926-.266 5.889-.09 2.13-.073 2.099-.105 4.29-.063 3.851-.22 7.7-.242 11.55.02.765.008 1.184.066 1.715-.144-.17-.258-.384-.451-.479q.019-.18.035-.363c.07-.856.073-.988.125-1.889.03-.65.089-1.937.106-2.56.06-2.252.02-4.508-.108-6.756-.056-1.367-.127-2.733-.174-4.1-.024-.702-.03-1.405-.05-2.107-.02-.683-.05-1.364-.065-2.047l-.004-.225q.04-.218.086-.435-.026-.029-.05-.057.006-.06.017-.117c.008-.045.081-.098.084-.133v-.006l-.002-.002v-.004l-.002-.002h-.002l-.002-.002-.004-.004a3 3 0 0 0-.139-.095c-.012-1.042-.012-2.086-.015-3.125.007-.687.024-1.373.023-2.059 0-.637-.022-1.275-.027-1.912-.01-1.243-.019-2.487.016-3.73M29.489 7.35c.11.201.44.447.553.656q.117.216.232.44a20 20 0 0 0-.41-.36q-.004-.005-.01-.008h-.009v.002h-.002v.002l-.002.002c-.016.032.01.165.004.223q.03.164.06.328.001.021.01.049.033.188.068.375a7 7 0 0 1-.212-.227c-.087-.15-.2-.287-.327-.418.211-.259.283-.526-.275-.715.097-.109.196-.216.32-.35m19.221.086c.052 1.956.083 3.912.12 5.869.004 1.076.005 2.154.013 3.23l-.082-.043q-.088-.107-.178-.21c.044-2.593.089-5.186.125-7.778zm-18.602.134a.57.57 0 0 1 .217.235v.002h-.006l-.01-.006a1.1 1.1 0 0 1-.2-.23m-.113 1.55q.022.102.043.206l-.11-.058v-.006a1 1 0 0 0-.029-.133.3.3 0 0 0 .096-.01m-.11.321.042.036q.028.038.054.078l-.103-.102zm-.206.163.02.054-.053-.039zm-.672.369.183.423a5 5 0 0 1-.257-.277l-.069.08-.06-.053zm-.42.361.023.09a.4.4 0 0 1-.054.074q-.298.306-.61.598l-.113-.08c.242-.225.49-.45.754-.682m-3.117 1.83h.002l-.004.008-.016.015.014-.017v-.002zm-19.674.24q.09 1.458.16 2.916l-.012-.138q-.09-1.257-.162-2.514zm26.101.918c.23.5.156.32.846 1.319l.03.023v.002l.154.361c.658 1.55 1.292 3.108 1.928 4.666.046.114.203.5.388.95a173 173 0 0 1-3.023-6.551c-.091-.22-.204-.485-.323-.77m-26.173.498q.049.629.095 1.256c.037.537.08 1.074.112 1.611.059.999.092 1.998.15 2.997.02.35.047.7.07 1.05q.017.792.036 1.582l-.102 1.89-.012.187c-.093-1.376-.184-2.751-.283-4.125q-.085-1.177-.178-2.352l.012-.451c.018-.85.024-1.701.053-2.55q.02-.548.047-1.095m17.875.205q-.443.582-.891 1.16c-.21.223-.447.47-.72.756-.17.177-.345.346-.52.516.33-.38.725-.825 1.32-1.506zm9.511.233c.75 1.549 1.495 3.1 2.18 4.68.684 1.576.72 1.729 1.285 3.255.098.307.2.589.287.871-.699-1.558-.48-1.031-1.228-2.757a220 220 0 0 1-1.953-4.686q-.281-.682-.57-1.363m-.51 1.601c.58 1.214 1.15 2.432 1.72 3.65.128.277.42.897.724 1.546-.791-1.334-1.509-2.712-2.195-4.1q-.182-.367-.356-.738l.069.025c.135.05.08-.174.039-.383m18.182 2.123.008.01q-.005.025-.012.049zm-45.18.346q.075.95.143 1.9c.162 2.258.215 3.197.305 4.522a78 78 0 0 1-.301 3.197c-.034-.815-.064-1.603-.088-2.205-.02-.934-.099-4.586-.096-5.525.003-.63.02-1.26.038-1.889m43.352 2.887.016.447c.046 1.353.083 2.705.125 4.059-.003 2.61-.04 5.226-.268 7.828-.033.381-.079.761-.119 1.142l-.05.381c-.03-.395-.052-.772-.065-1.086-.028-.64-.03-1.282-.045-1.923.007-.674.007-1.348.023-2.022.022-.924.113-2.95.155-3.887.072-1.647.152-3.292.228-4.94m-20.44 1.144c-.002.64-.022 1.28-.038 1.918l-.01.336q-.158.03-.34.07a1 1 0 0 0-.041-.122q.182-1.112.43-2.202M7.98 23.67q.007.007.018.015l-.002.015-.017-.027zm-.257 9.657-.114 1.334-.119-.014c.17-.84.2-.923.219-1.298zm19.431.83.076.041.002-.039c.194.21.425.383.659.553q.068.069.14.13l-.013.579q-.003.132-.002.264l-.94-.008c.014-.344.036-.712.063-1.203l.052.054.016.014h.006v-.002c.001-.018-.035-.098-.068-.18q.003-.098.01-.203m-16.347 1.332c.994.013 1.679.027 3.058.092 1.193.057 4.526.268 5.707.361a501 501 0 0 1-3.98.215q-.508-.053-1.016-.105c-4.335-.573-.482-.035-3.77-.563m2.478.584q.69.045 1.381.088l.342.024-.485.023-.334.016q-.302-.052-.605-.102zM35 36.104c.708.007 1.2.017 1.59.027q.803.047 1.607.098-1.488.153-2.978.296c-2.703.261-2.67.243-4.498.393l-.489-.016c-.455-.05-.743-.08-1.181-.123l-.002-.603A153 153 0 0 1 35 36.104m-25.734.076q.488.06.974.123c-.296-.015-.592-.038-.888-.053l-.09-.01zm18.754.027.005.475-.972-.094q.002-.183.006-.352zm-1.776.053q.076.12.154.236v.03l-.183-.02q-.84-.09-1.682-.182.855-.036 1.711-.064m-2.248.086 2.258.207.142.015-.001.114a76 76 0 0 1-2.284-.217q-.389-.042-.777-.088.33-.016.662-.031m17.078.093a87 87 0 0 1 2.15.213c-1.478.061-2.958.103-4.437.172-.777.036-1.554.062-2.33.12q-.495.036-.99.083c-1.029-.012-1.822-.038-3.18-.072l-.133-.002.348-.025c2.376-.16 3.228-.185 5.557-.315 5.149-.287.64-.05 3.015-.174m-19.33.018c.041.091.102.183.17.273l-1.96-.17q.894-.053 1.79-.103m-2.023.117 2.228.203c.144.186.313.37.41.551l.002.002v.002h.006v-.004l.002-.002c.005-.014.009-.049.014-.064l.293-.018.107.067c.27.158.625.028.936.058.232.023.486.053.752.086l-1.094.09a86 86 0 0 1-2.525-.303l-3.461-.513c.641-.042 1.282-.09 1.923-.13zm7.332.07.972.112v.04a84 84 0 0 1-.974-.064zm-12.256.235 1.488.19c.764.096 1.528.211 2.293.298.863.098 1.728.17 2.592.256l.445.04q-.791.045-1.582.105c-.533-.025-1.004-.047-1.355-.067-.996-.055-1.99-.132-2.985-.199-.94.022-1.88 0-2.816-.045-.234-.124-.49-.163-1.057-.281.363-.052.803-.104 1.252-.156l.09-.01zm13.176.44.054.001v.008zm1.246.033 1.592.044-.11.006-.328.026zm-.164.03q.504.036 1.01.07-.473.036-.944.073l-.066-.011zm2.252.028 1.4.037.893.014c.488.07.988.143 1.521.225-.971-.043-1.943-.093-2.912-.141l-1.488-.094.02-.002zm-.893.065q.917.057 1.834.115c1.24.061 2.251.117 3.293.16l.45.07c-.625.029-1.251.063-1.876.092l-2.537.045a394 394 0 0 1-2.258-.396q.548-.044 1.094-.086m5.125.017c.591.012 1.19.024 1.815.043 1.17.036 2.34.102 3.51.149q-.938.03-1.876.054-.663.016-1.328.028-.86-.12-1.72-.227zm-26.197.045.054.041c.944.682 2.195.644 3.286.879l-.045.004a47 47 0 0 1-3.174-.35l-.065-.01c-.021-.189-.038-.365-.056-.564m15.758 0c.406.055.816.113 1.185.166l-.008.05-.35.03a105 105 0 0 1-1.732-.154zm-12.063.02c.986.088 1.971.184 2.955.298l2.254.077q-.458.046-.916.091-1.713.165-3.428.323c-.433-.416-.664-.646-.865-.79m-.049.177h.008c.062.01.293.214.33.327a.37.37 0 0 1-.023.26c-.101-.14-.213-.322-.315-.55a.1.1 0 0 1-.006-.027v-.004l.002-.002.002-.002h.002zm9.948.045q.729.067 1.459.133l-.207.018c-.545-.016-1.186-.04-1.844-.065.294-.04.477-.068.592-.086m3.332.026v.006q-.015-.003-.028-.004zm20.832.008h.28c.17 0 .34.005.509.005l.015.354q-.194.054-.388.105a5 5 0 0 0-.313-.316zm-20.045.001.687.102q-.343-.022-.685-.047zm21.2.004.028.004.024.032a.1.1 0 0 1-.034.029h-.002l-.001.002h-.01v-.002h-.002v-.002h-.002v-.004l-.002-.002a.2.2 0 0 1 .002-.057m-23.583.118q.045.004.092.01l-.147-.005zm-3.576.093.972.033q.215.008.43.012-2.739.238-5.477.477l-.222.02q-.014-.02-.028-.036l.913-.105c.836-.097 1.674-.18 2.51-.285zm5.965.17q.475.017.95.03l-.009.396-.008.295c-.05.165-.1.327-.037.463l.008.021-.043.274c.176.165.34.382.506.586l-1.393.172-.004-.012a.3.3 0 0 0 .1-.078c.324-.366-.056-1.156-.065-1.735zm2.007.1q1.155.082 2.31.142.72.106 1.436.217c.766.117 1.532.244 2.3.356l1.15.156c-.495.08-.907.146-1.143.182-1.98.301-3.964.569-5.951.82a1.6 1.6 0 0 1-.041-.246 53 53 0 0 1-.06-1.627m6.217.271c1.174.03 2.352.057 2.74.067l1.444.01c-.496.08-1.125.185-1.756.289q-.289-.041-.578-.084-.926-.136-1.85-.282m5.514.201-1.598.364-.521-.07q.896-.126 1.79-.25zm7.142.26q.02.54.028 1.078c-.124-.109-.258-.205-.387-.308h-.002l-.123.013c-.058-.036-.1-.062-.111-.072h-.002v-.002h.002c.012-.002.082.019.234.06-.125-.099-.245-.205-.375-.298-.176-.127-.42-.112-.63-.166l-.507-.129q.544-.061 1.098-.113.388-.036.775-.063m-4.97.186.18.043q-.375.082-.749.166l-.228.047-.426-.045q.095-.014.19-.032.517-.086 1.033-.18m.99.252.902.25q-.84-.068-1.677-.147.39-.052.775-.103m-3.857.22h.001l.588.084c-1.414.287-2.936.592-4.185.817-1.088.196-2.182.364-3.272.55-1.014.174-2.024.365-3.04.528-1.812.29-3.635.51-5.444.81-.528.08-.97.15-1.383.211l1.125-.257c.889-.187 1.774-.383 2.664-.56.962-.193 4.587-.872 5.567-1.038.919-.156 1.84-.285 2.761-.432 3.94-.629.815-.161 4.618-.713" style="fill:currentColor;stroke-width:3;stroke-linejoin:round"/></svg>