<?xml version="1.0" encoding="UTF-8" standalone="no"?>
<svg
   fill="none"
   viewBox="4 -4 48 48"
   version="1.1"
   id="svg2"
   sodipodi:docname="arrow-up.svg"
   width="48"
   height="48"
   inkscape:version="1.4.1-rc (d9e8dc1fe0, 2025-03-10)"
   xmlns:inkscape="http://www.inkscape.org/namespaces/inkscape"
   xmlns:sodipodi="http://sodipodi.sourceforge.net/DTD/sodipodi-0.dtd"
   xmlns="http://www.w3.org/2000/svg"
   xmlns:svg="http://www.w3.org/2000/svg">
  <path
     id="path3"
     style="baseline-shift:baseline;display:inline;overflow:visible;opacity:1;vector-effect:none;fill:#1a1a1a;stroke-width:1.02003;stroke-linejoin:round;enable-background:accumulate;stop-color:#000000;stop-opacity:1;fill-opacity:1"
     d="M 21.759766 -3.9375 A 1.5525181 1.4765231 0 0 0 21.5 -3.9082031 C 17.247191 -3.0932238 12.90273 -1.2751607 9.7519531 0.609375 C 8.6508284 1.2679776 7.7645953 2.2668826 6.9804688 3.2773438 C 6.1963422 4.2878049 5.5938409 5.1182143 5.3085938 6.1171875 C 3.7494803 11.577399 3.7057701 16.511849 4.0019531 21.986328 C 4.4115885 29.557807 6.174004 35.425418 13.222656 40.003906 C 18.885246 43.682072 27.386784 44.368331 33.308594 43.673828 C 39.217611 42.980826 41.531133 41.882503 45.871094 38.263672 C 47.06253 37.270204 48.11259 35.745723 49.048828 34.109375 C 49.985064 32.473028 50.743587 30.830683 50.988281 29.402344 C 51.963826 23.707853 52.658558 16.987746 49.830078 9.4335938 C 48.975069 7.150087 47.520692 4.8749378 45.884766 2.9648438 C 44.981911 1.9106768 43.602375 1.0717824 42.125 0.20507812 C 40.647625 -0.66162612 39.148481 -1.4263848 38.216797 -1.8417969 C 33.255412 -4.0539433 28.081432 -4.1168382 21.759766 -3.9375 z M 22.007812 -0.98242188 C 28.162454 -1.1524407 32.712756 -1.0331679 36.900391 0.83398438 C 37.651242 1.1687679 39.12526 1.9176472 40.494141 2.7207031 C 41.863021 3.5237591 43.204444 4.5100747 43.478516 4.8300781 C 44.913787 6.5058904 46.210896 8.5686708 46.90625 10.425781 C 49.487756 17.320328 48.877078 23.376745 47.925781 28.929688 C 47.804837 29.635666 47.151566 31.244411 46.320312 32.697266 C 45.489061 34.150123 44.4142 35.551019 43.824219 36.042969 C 39.608437 39.558254 38.611865 40.077513 32.927734 40.744141 C 27.66788 41.361011 19.52041 40.518471 14.972656 37.564453 C 8.6891564 33.482971 7.4929028 29.105359 7.0996094 21.835938 C 6.8091319 16.466912 6.8645668 11.936063 8.3046875 6.8925781 C 8.3005037 6.9072137 8.8268792 5.8690252 9.4785156 5.0292969 C 10.130151 4.1895685 10.988346 3.3562099 11.404297 3.1074219 C 14.18965 1.441453 18.272683 -0.24963995 22.007812 -0.98242188 z M 28.470703 3.3261719 C 28.287736 3.328879 28.085658 3.3591756 27.861328 3.4335938 L 27.859375 3.4335938 C 27.118579 3.6803953 26.825939 3.9962957 26.332031 4.390625 C 25.83767 4.7853165 25.29547 5.257848 24.751953 5.7324219 C 23.664919 6.6815697 22.386495 7.7055688 22.224609 7.7910156 C 21.5022 8.1720085 21.040688 8.6443408 20.300781 9.3203125 C 19.560875 9.9962842 18.712648 10.815155 17.904297 11.613281 C 16.287595 13.209533 14.830078 14.720703 14.830078 14.720703 A 1.5 1.5 0 0 0 14.867188 16.841797 A 1.5 1.5 0 0 0 16.988281 16.804688 C 16.988281 16.804688 18.426671 15.313045 20.011719 13.748047 C 20.804243 12.965548 21.634156 12.165591 22.324219 11.535156 C 23.014281 10.904722 23.73591 10.384866 23.625 10.443359 C 24.685115 9.883807 25.645644 8.9342897 26.724609 7.9921875 C 26.860875 7.8732066 26.99622 7.7557846 27.128906 7.640625 C 27.09746 10.599765 27.014943 17.465822 26.910156 19.367188 C 26.834046 20.738278 26.696301 24.594594 26.597656 28.246094 C 26.548336 30.071843 26.508156 31.838356 26.494141 33.205078 C 26.487141 33.888439 26.486641 34.470534 26.494141 34.921875 C 26.497941 35.147546 26.504042 35.338957 26.513672 35.507812 C 26.523372 35.676671 26.49981 35.740761 26.59375 36.087891 A 1.5 1.5 0 0 0 28.433594 37.142578 A 1.5 1.5 0 0 0 29.488281 35.302734 C 29.503134 35.357614 29.513638 35.395968 29.519531 35.419922 C 29.515101 35.396795 29.5095 35.365461 29.507812 35.335938 C 29.502012 35.234755 29.497491 35.072611 29.494141 34.871094 C 29.487441 34.46806 29.487241 33.902639 29.494141 33.234375 C 29.507841 31.897847 29.546651 30.141922 29.595703 28.326172 C 29.693813 24.694671 29.836364 20.792113 29.90625 19.533203 C 30.027391 17.335123 30.103319 10.506213 30.130859 7.6113281 C 31.101568 8.464777 32.127948 9.5567004 32.589844 10.179688 A 1.50015 1.50015 0 0 0 32.589844 10.181641 C 33.155677 10.94414 34.205006 12.705839 35.185547 14.349609 C 35.675817 15.171494 36.157228 15.973805 36.591797 16.652344 C 37.026366 17.330882 37.351211 17.84555 37.808594 18.306641 A 1.5 1.5 0 0 0 39.929688 18.314453 A 1.5 1.5 0 0 0 39.939453 16.193359 C 39.903299 16.156915 39.515462 15.657024 39.117188 15.035156 C 38.718913 14.413288 38.248324 13.62824 37.761719 12.8125 C 36.788818 11.181538 35.790093 9.4621074 34.998047 8.3945312 L 34.998047 8.3925781 C 34.273532 7.4156093 33.117235 6.2197223 31.935547 5.2050781 C 31.344515 4.6975943 30.759541 4.2456603 30.173828 3.8984375 C 29.880972 3.7248261 29.590672 3.5741505 29.244141 3.4628906 C 29.027864 3.3934513 28.775649 3.32166 28.470703 3.3261719 z " />
  <defs
     id="defs2" />
  <sodipodi:namedview
     id="namedview2"
     pagecolor="#505050"
     bordercolor="#eeeeee"
     borderopacity="1"
     inkscape:showpageshadow="0"
     inkscape:pageopacity="0"
     inkscape:pagecheckerboard="0"
     inkscape:deskcolor="#505050"
     inkscape:zoom="12.212121"
     inkscape:cx="24.033499"
     inkscape:cy="24.238213"
     inkscape:window-width="1920"
     inkscape:window-height="1011"
     inkscape:window-x="0"
     inkscape:window-y="32"
     inkscape:window-maximized="1"
     inkscape:current-layer="svg2" />
  <g
     class="fills"
     id="g1">
    <rect
       width="33"
       height="25"
       class="frame-background"
       rx="0"
       ry="0"
       transform="rotate(-90,16.5,12.5)"
       id="rect1"
       x="0"
       y="0" />
  </g>
</svg>
