<svg xmlns="http://www.w3.org/2000/svg" viewBox="0 0 8.467 8.467"><path d="M.41 7.555c0-.113.113-5.946-.003-6.307C.291.886.391.54.77.418 1.149.293 5.96.631 6.54.51 7.123.39 7.758.442 7.914.732c.156.29.205 6.432.044 6.82-.162.39-.282.561-.66.504-.376-.057-6.506.349-6.887-.501Z" style="fill:none;stroke:currentColor;stroke-width:.777594;stroke-linecap:round;stroke-linejoin:round;stroke-dasharray:none"/><path d="M5.857 2.858s-.386-1.004-1.175-1.14c-.79-.137-1.684.267-1.933 1.05-.249.782-.592 2.66-.195 3.029.398.368 1.113.942 1.727 1.055.615.113 1.396-.736 1.688-1.307" style="stroke-dasharray:none;stroke-linejoin:round;stroke-linecap:round;stroke-width:.79375;stroke:currentColor;fill:none"/></svg>