<svg xmlns="http://www.w3.org/2000/svg" viewBox="0 0 24 24"><path d="M3.162-.285c-.489.001-.978.024-1.459.123-.327.053-.644.118-.916.32L.373.7A1.6 1.6 0 0 1 .805.527C.49.793.437.806.377 1.14l-.023.236-.032.025.018.123c-.048.485-.096.968-.106 1.456-.006.182-.018.364-.02.546 0 .29.03.728.04 1.018l.008.242q-.026.51-.053 1.02c-.004.072-.018.143-.01.215a.13.13 0 0 0 .026.06l.002.002H.23v.002h.002l.002-.002h.002l.002-.002c.122-.138.228-.29.334-.441A92 92 0 0 0 .54 7.254q-.009.268-.021.535c-.03.597-.041.515-.065 1.121-.024.62-.03 1.243-.039 1.863-.02 1.058-.002 2.115-.01 3.172.01.885-.014 1.77.004 2.655l.004.472c.01.627.016.372.012 1-.003.393-.008.784.006 1.176-.032.38-.004.753.04 1.129.018.307.004.617-.015.924-.023.199-.038.4-.053.6l-.05.4-.05.492c-.022.1-.05.199-.064.3q0 .026-.002.048c-.059.09-.074.189-.013.33l.004-.012h.002c.001.013-.005.085.001.104l.002.001v.002h.006v-.002l.192-.183c.292-.099.386-.14.398-.18v-.014c-.006-.027-.041-.06-.068-.115l.144.028q.164.01.326.017l-.132.16q.354-.078.713-.136.187.004.377.005a3 3 0 0 0-.094.165 3.5 3.5 0 0 0-.41.398c-.003.003-.005.01-.006.012h-.002v.004l.002.002v.002h.002l.002.001h.004c.033.004.147-.037.21-.048l-.023.039c1.581-.16 3.174-.172 4.762-.219 2.139-.076 4.277.032 6.414.105 1.378.055 2.757.097 4.137.086l.5-.015c.248-.009.53-.02.78-.041.313-.028.623-.08.932-.131.486-.074.972-.052 1.457.004.212.022.41.095.614.152.013.004.03.015.043.018h.008l.001-.002h.002l.002-.002q.174-.168.338-.346l.07-.023c.255-.252.54-.475.764-.754l.006-.008v-.002l.002-.006v-.01l-.002-.002v-.002c-.017-.04-.13-.07-.187-.074-.065-.005-.13-.003-.196-.008-.212-.014-.423-.035-.634-.05a19 19 0 0 0-1.62-.02c.27-.075.532-.18.791-.29.217-.084.435-.185.664-.227.134-.017.068-.007.194-.032l.039-.027.133.012.031-.028q.053-.103.103-.207.038-.037.098-.093l.027-.03c.194-.286.134-.153.215-.38a.6.6 0 0 0-.168-.022q.01-.079.006-.162-.015-.218-.025-.436c.033.076.069.15.096.227l.03-.026c.123-.35.28-.688.366-1.048.024-.104.131-1.489.145-1.659q.035.752.08 1.502l.033.534q-.048.039-.098.074.006.028.01.062-.047.067-.09.135c-.095.15.055.484.133.605q.002.006.006.01c.006.113.005.172-.002.533-.003.174-.011.347-.016.52-.019.381-.027.76-.033 1.14q0 .125-.004.249c-.002.048-.04.154-.031.183v.002l.002.002h.002v.002h.006l.005-.002q.003 0 .004-.002l.024-.012.015-.013v.006c.296-.161.542-.4.815-.598-.038-.074-.006-.223-.002-.293.015-.288.018-.577.027-.865q.004-.374-.002-.746c.196-.15.397-.295.555-.483.044-.052-.027-.135-.035-.203-.017-.15-.033-.567-.04-.697-.032-.735-.008-.254-.054-1.098-.012-.235-.027-.471-.037-.707-.01-.248-.012-.498-.025-.746a37 37 0 0 0-.248-2.642 8 8 0 0 1-.053-.375c-.03-.695-.055-1.39-.065-2.084-.002-1.309-.03-2.62.032-3.928.01-.24.036-.48.05-.72.007-.122.008-.245.012-.366l-.13.082.027-.084a.5.5 0 0 1 .091-.117q-.157.158-.312.32l-.035.022q.048-.618.101-1.237c.098-.036.077-.091.012-.15.074-.844.16-1.685.266-2.526.039-.326.087-.653.117-.98.035-.385.037-.731.02-1.113-.005-.106-.002-.214-.026-.317-.013-.057-.029-.177-.066-.199h-.002l-.002-.002h-.01l-.006.002h-.002q-.003.001-.006.004c-.252.154-.414.422-.62.633-.037.353-.084.707-.108 1.06-.031.447-.034.56-.03.588v.002l.002.002v.002l.002.002.002.002h.002l.002.002v.002l.002.002.002.002c.01.025.014.134-.006.654-.01.249-.037.498-.056.746l-.014.1c-.09-1.08-.036-2.17.043-3.248l-.637.545.006.08c-.13-.044-.25-.073-.39-.112q-.445-.11-.893-.2c.171.03.32.058.385.07q.182.028.365.052c.204.026.309.062.486-.082.095-.077.17-.175.25-.27q.085-.077.174-.152l.027-.029c.073-.128.188-.24.22-.385V.682L23.036.68V.678L23.2.496l.002-.002V.492c.1-.11.214-.247.363-.433-.012-.024-.02-.053-.039-.073-.07-.077-.484-.045-.6-.074q-.794-.063-1.59-.021c-.444.031-.888.093-1.306.255l-.232.3c-.262-.031-.522-.066-.783-.096-.234-.024-.469-.06-.703-.07-.395-.02-1.702-.004-2.059.001-1.16.018-2.318.058-3.477.096l-.394.014a4 4 0 0 1-.447-.06c-.257-.026-.256-.03-.516-.038-.388-.012-.778.018-1.164-.033C9.562.2 8.866.21 8.178.107 7.672.03 7.162-.027 6.654-.092 6.316-.13 5.977-.127 5.64-.168a8 8 0 0 0-1.233-.055c-.415-.01-.828-.06-1.244-.062m19.695 23.758-.015.007-.053.047q.04-.003.05-.007h.003v-.002h.002l.002-.002.002-.002v-.002l.002-.002zm-.03-3.42a.3.3 0 0 0-.02-.063v-.002h-.002v-.002h-.002v.002c-.003.013 0 .062-.002.082zM1.94.346q.337-.015.676.004c.41.01.82.039 1.229.076q.51.014 1.02.066L4.76.498c-.5.028-1 .035-1.5.043A34 34 0 0 0 2.105.539C1.644.537 1.758.537 1.344.537c-.035 0-.073-.01-.11-.016l.04-.04L1.27.425q.333-.066.67-.08m19.52.174a4 4 0 0 1 .621.05l-.027.002Q21.52.545 20.986.535q.238-.016.475-.015M.51.96h.006L.502.976C.503.972.505.965.508.963H.51zm11.26.089c.456.033.915.008 1.373.01a6 6 0 0 1-.172.181q.056-.015.113-.025l-.01.025-.004.014v.008l.002.006h.002l.002.002.002.001.002.002c.043.019.2-.047.274-.054q.16-.014.32-.032c.397-.003.795.006 1.191.038.549.047.681.054 1.244.12.437.052.874.118 1.309.184l-.205-.013c-.265-.015-.531-.023-.797-.034-.594-.013-1.189-.02-1.783-.037a56 56 0 0 1-2.871-.162q-.472-.038-.944-.08l-.66-.02a.4.4 0 0 0-.002-.072q.807-.032 1.614-.062m-6.594.191.08.002.129.002-.262.033zm1.685.381-.097.111c.048.01.097.026.146.028.145.004.289-.005.434-.01 1.83-.059-.767.018 1.353-.062.942-.036.77-.024 1.703.003.326.013.652.02.977.038 1.27.066.683.06 1.924.13.899.051 1.801.066 2.701.106 1.246.062 2.479.263 3.72.375.702.049 1.395.174 2.092.25.404.048.318.106.64-.43l.019.182-.487.416c.096.562.086 1.137.12 1.705.016.284.074.981.097 1.26.126 1.192.112 2.392.022 3.586.006.366-.068.733-.024 1.1.003.026.002.082.012.103v.002l.002.002h.002v.002h.01l.002-.002q.107-.064.167-.108l-.037.676c-.075 1.24-.223 2.475-.306 3.715-.004.98-.108 1.952-.235 2.922-.104.736-.23 1.467-.326 2.205-.06.443-.05.888-.017 1.332-.423.181-.851.364-1.31.424-.084.007-.167.02-.25.023-.503.022-1.008-.06-1.51-.03-.622.006-1.241-.036-1.862-.01l-1.453.108a11.6 11.6 0 0 1-1.776-.033c-.62-.052-1.243-.09-1.857-.197-.67-.081-1.345-.15-2.021-.152-.803 0-1.606.037-2.409.045-.955-.004-1.91.03-2.865.002-.44-.013-.877-.039-1.316-.061-.01-.495-.077-.985-.117-1.479-.078-.654-.133-1.311-.22-1.964-.136-.947-.31-1.89-.345-2.848l-.037-.703c.014-.133.033-.265.035-.399.002-.121-.017-.242-.025-.363a38 38 0 0 1-.07-1.726c-.016-1.01.002-2.018-.087-3.024a119 119 0 0 1-.085-3.396c.054-.384.086-.769.119-1.155.035-.372.08-.746.072-1.12-.006-.256-.04-.51-.07-.763l.218-.058c.516-.141.472-.14 1.026-.266.584-.131.65-.134 1.258-.24.776-.125 1.559-.2 2.343-.252m-3.84.033q-.333.076-.666.159l-.359.449a2.6 2.6 0 0 0-.09-.457c.373-.03.745-.098 1.115-.15m-1.851.131.027.024q.052.003.106.005c-.057.068-.113.156-.088.229q.004.008.01.016-.036.017-.065.033c.002-.126.004-.124.01-.307m11.187 1.297a6 6 0 0 0-.716.023h-.022l-.033.006a5.6 5.6 0 0 0-1.219.248c-.41.133-.545.203-.94.373-.143.077-.291.147-.43.23a6 6 0 0 0-.257.163 4 4 0 0 0-.406.254q-.245.176-.47.375-.18.083-.352.184c-.22.129-.275.181-.479.335-.073.064-.147.124-.219.19q-.103.095-.2.197c-.23.238-.75.69-.977 1.088-.096.166-.15.325-.219.502-.092.398-.18.8-.256 1.201.019.024.029.058.057.07.032.014.081.024.107 0q.075-.07.149-.142-.095.3-.184.601c-.14.515-.259 1.054-.236 1.592.01.262.11.833.174 1.084.045.184.109.364.164.545.143.389.333.757.57 1.09l-.346.36c.164.14.283.32.38.511.033.067.057.137.093.203.038.07.084.136.127.203.111.168.246.312.388.45q.394.376.829.707c.071.046.139.095.212.138l.008.004c.082.064.13.1.28.186.201.115.414.198.63.279q.12.06.24.117c.433.196.901.277 1.364.363.15.006.503.133.637.106.136-.027.287-.098.431-.178.393-.06.78-.162 1.164-.252.599-.127 1.177-.332 1.756-.525.464-.167.913-.373 1.36-.582.325-.16.607-.39.894-.608.238-.17.451-.37.668-.566.155-.312.617-.52.824-.857q.084-.028.17-.045c.078.043.158.08.246.093.38.061.916-.404.8-.78-.03-.022-.056-.052-.09-.063-.095-.031-.243-.006-.33.013l-.06.016q-.039-.019-.083-.037a6 6 0 0 1-.746-.438c.055-.123.083-.248.027-.347-.035-.006-.078-.035-.11-.028l-.01.006-.003.002q-.09.078-.176.158l-.002-.002c-.06-.05-.117-.105-.18-.152-.04-.03-.086-.052-.128-.078-.038-.01-.075-.03-.114-.033s-.108.039-.136.054a5 5 0 0 0-.397.252c-.05.013-.112.037-.158.057l.082-.082c.037-.037-.017.011-.096.086l-.025.012c-.106.053-.181.15-.272.226l-.187.158c-.363.264-.707.552-1.037.854l-.02.01h-.002l-.002.002v.002h-.002v.004l.002.001.002.002c-.152.14-.308.277-.45.428l-.024.012c.095-.133.2-.26.29-.395q.125-.155.253-.308-.063.04-.125.084l.004-.008.003-.014v-.004h-.002v-.002h-.005c-.035.01-.159.12-.217.153q-.148.085-.301.162c-.472.229-.888.337-1.395.465-.984.228-1.988.345-2.998.336-.084.008-.234-.017-.382-.028a1 1 0 0 0-.1-.254c-.164-.267-.487-.437-.72-.625a5 5 0 0 1-.352-.306c-.106-.102-.202-.214-.303-.32-.239-.297-.234-.288-.453-.57q-.071-.09-.139-.183c-.02-.029-.036-.096-.056-.12l-.006-.006H7.38v-.002h-.006l-.002.002h-.004q-.001.002-.004.003l-.023.014v-.014H7.34v-.002h-.002a1.6 1.6 0 0 0 .064-.35c.006-.116-.071-.22-.111-.331-.173-.48-.113-.292-.094-.235l-.09-.265-.046-.16c.038-.51.059-1.022.103-1.53.02-.404.045-.806.063-1.21v-.003c.252-.43.567-.819.898-1.19l-.408.396.035-.041a.2.2 0 0 0 .033-.067l.004-.027.316-.313q.072-.05.143-.097l-.389.535c.212-.22.434-.43.635-.658q.014-.018.012-.043.465-.292.957-.532l.066-.013-.236.293c.056-.004.113 0 .168-.01.096-.017.19-.048.285-.068a22 22 0 0 1 1.326-.24l.344-.042c.556-.066.13-.01.686-.091.287-.043.408-.068.693-.075.097-.002.194.006.29.008.335.032.672.086.985.211l.022.01.01.006c.056.026.165.076.222.109l.006.004c.009.008.02.024.027.03h.012v-.003l.002-.002c.081.062.115.11.137.12h.012v-.002l.005-.002.006-.006c.036-.04.095-.198.35-.559q.015-.014.031-.027.188.07.371.15a.56.56 0 0 1-.05.383.5.5 0 0 1-.087.104l.143-.137c-.027.054-.058.114-.057.133v.004h.002v.001h.004l.002-.002q.004 0 .01-.003c.014-.009.09-.06.19-.135l-.012.025q-.298.3-.592.604c.037.037.06.11.113.111.059 0 .095-.068.137-.11.066-.063.413-.385.723-.708q.174.103.34.222l.04-.033q.016.019.028.04c.065-.079.136-.15.201-.23.192-.157.385-.314.568-.482l.002-.002v-.004h-.002l-.002-.002c-.01-.004-.035-.007-.045-.013q-.074-.05-.148-.102l-.322-.215.158-.213q-.105.09-.207.182l-.113-.074.013-.066c0-.134.009-.257-.033-.387a1.9 1.9 0 0 0-.445-.717c-.072-.067-.155-.12-.233-.18-.29-.189-.62-.34-.974-.3l-.069.1q-.06-.009-.162-.02c-.44-.056-.49-.075-.957-.108-.439-.031-.65-.028-1.09-.035m-11.67.092c-.004.679.01 1.357.03 2.035a22 22 0 0 1-.088-.92c.004-.13.01-.253.014-.351zm11.434.53h.002q.122-.002.244.003c.192.005.347.012.5.025-.481.09-.624.105-1.105.256l-.065.02a8 8 0 0 0-.32.054l-.166.016-.055.006c.092-.073.17-.135.242-.195.029.006.06.015.102.027.044.013.083.056.129.049.066-.011.408-.203.465-.235zm-2.092.368q-.369.22-.732.45l-.09.056c.006-.07-.006-.126-.041-.158a.2.2 0 0 0-.06-.035 7 7 0 0 1 .923-.313m-.549.963-.076.041-.177.106q-.115.03-.227.066.236-.115.48-.213m-1.316.15a4.3 4.3 0 0 0-.701.725l-.074.088-.075.063-.023.03.053-.038c-.05.061-.09.117-.15.217q-.015.024-.028.048l-.031.03c-.053.05-.249.207-.229.35l-.113.128c-.16.184-.283.4-.424.598q-.058.102-.113.205c.262-.731.613-1.426 1.096-2.04l.025-.023a.27.27 0 0 0 .115-.091c.07-.051.141-.102.17-.145q.152-.055.309-.1.096-.024.193-.044m14.606.184h.009l.002.002.002.002v.002c.02.044-.044.293-.084.488l-.03-.351a.5.5 0 0 1 .1-.143M.723 5.428q0 .037.002.074l-.004.004v.002l-.028.021v-.002q-.052.043-.103.086l.049-.066q.024-.016.048-.031L.68 5.488zm-.035.088.005.011.028-.021-.002-.002H.717v-.002H.71zm6.242.17q-.122.13-.242.263c-.168.202-.333.405-.487.617.06-.145.09-.221.194-.388.036-.06.157-.194.164-.215V5.96c.128-.103.212-.176.37-.275m15.97.263q.128.003.227.002-.068.74-.139 1.48l-.01.008h-.001v.008h.002l.001.002.006.004q-.049.518-.095 1.037.022-.953.02-1.906l-.153.133q-.016-.313-.041-.625a3 3 0 0 0 .183-.143m-15.015.533h.002v.002q-.001.005-.008.018c-.063.103-.156.186-.233.28l-.017.017.04-.055c.054-.068.195-.246.216-.262M7.61 6.6l-.125.115.004-.014zm-6.418.834q-.056.463-.101.927.016-.435.031-.87l.035-.036zm.301.545q.013.642.031 1.283.014.229.022.459l-.068.06c.002-.209.007-.576.005-.617-.002-.068-.014-.134-.021-.201l-.07.06q.035-.465.087-.93zM1.48 9.838q.03.979.021 1.959l-.006-.084a63 63 0 0 1-.017-1.787zm21.693 2.039.012.496.013.729c-.146.113-.287.23-.418.36-.034.035.005.097.006.145q.007.16.008.319 0 .469-.012.937L22.62 15q.001-.09.004-.18l.014-.517c.022-.582.013-.475.058-1.053l.143-.145c.088-.068.176-.171.264-.22q-.044-.013-.055-.022l-.002-.002q.04-.056.074-.117c.071-.133.018-.302.027-.453q.014-.207.026-.414m-6.399.617.016.01-.027.02zm.055.033.063.04q-.024.026-.05.052c-.047.05-.084.11-.126.166q-.044.06-.086.117l-.152.088q.043-.055.085-.111a1 1 0 0 0 .065-.086c.068-.088.138-.174.201-.266m-.619.172h.002v.002l-.002.01v-.012m-.059.143c-.006.014-.003.01-.021.045l-.205.111q.09-.065.181-.129zm1.176.002.31.191-.366.201q.043-.063.084-.129l.007-.017v-.006h-.004l-.002.002q-.004 0-.011.004l.002-.006v-.004l-.002-.002h-.004c-.022.007-.099.08-.168.14h-.002a.5.5 0 0 0-.22.044 6 6 0 0 0 .376-.418m1.002.435a1 1 0 0 1-.13.026h-.005l-.002-.002v-.004l.002-.002.002-.002.01-.01q.06-.006.123-.006m-1.07.381h.002c0 .014-.007.028-.01.041a.7.7 0 0 1-.084.178 5 5 0 0 1-.22.178c-.197.148-.387.304-.59.443q.097-.114.234-.28l.002-.001.002-.006v-.002l.002-.002v-.002l-.002-.006v-.004c-.008-.017-.034-.036-.06-.049.086-.05.168-.111.251-.166.097-.068.192-.139.291-.205q.06-.039.123-.076.026-.014.051-.03h.002v-.001l.002-.002zm-2.016.035a8 8 0 0 1-.496.24q-.185.089-.367.182l-.065.016.15-.09.143-.094q.316-.13.635-.254m1.824.325a1 1 0 0 1-.093.105c.007-.01.035-.043.093-.105m-.757.11q-.005.034.037.067-.24.1-.487.182zm-9.442.089.09.064.158.174a2 2 0 0 1-.248-.238m-5.668.058.014.17-.018.014zm11.697.059q-.049.02-.1.037l-.085.008zm.118.726q-.078.053-.159.104a5.2 5.2 0 0 1-1.585.145l.345-.127c.207 0 .416-.014.623-.02q.388-.04.776-.101m-2.455.053q.351.042.705.059l-.102.127c-.314-.03-.549-.085-.928-.156l-.117-.028c.178.002.315 0 .442-.002m1.568.922-.164.033.033-.015zm-10.424.682c.06.579.144 1.155.217 1.732.073.667.103 1.337.168 2.004l.039.256c.013.084.032.169.043.254q.023.191.035.385l-.164-.006c-.058-.489-.084-.981-.113-1.473-.068-1.051-.196-2.098-.225-3.152m5 1.218-.51.598c-.124.052-.143.21-.466.795l-.004.01v.01l.002.002.004.005.052-.09.033-.001-.08.097c.028.023.098.035.133.051q.112.051.23.08c.155.034.785.107.901.121 1.06.093 2.111.268 3.17.377.705.073 1.413.131 2.12.2q.361.023.724.05.368.053.736.098c.263.027.508.062.773.05q.148-.006.301-.029.187.006.373.01c.763.016 1.525-.026 2.285-.068.55.022 1.027-.214 1.518-.42l.025-.031c-.446-.208-.518-.218-1.062-.122-.548.059-.745.087-1.195.112q.173-.232.345-.463l.06-.065-.015.004.016-.02q-.401-.05-.8-.103l.042-.033v.012l.002.002.004.006c.02.017.068.028.092.017l.006-.004h.002v-.002l.001-.002v-.007l-.001-.002a.2.2 0 0 0-.073-.028l-.025.004-.006.002v-.002h.006l.01-.008.015.004.198-.027c.763-.094.502-.067 1.218-.137.724-.07.176-.01.719-.084.062-.008.14.018.188-.023l.06-.053c.22-.204.402-.446.606-.666l-.1.002v-.008h-.002v-.002h-.002v-.002h-.006a.1.1 0 0 0-.037.012c-.961.014-1.924-.024-2.885-.023-1.357-.033-.663-.013-2.076-.057-1.091-.027-2.184-.032-3.275-.066-.32-.01-.638-.03-.957-.043a93 93 0 0 0-2.354-.028c-.022 0-.78.007-.888.004-.05-.001-.101-.01-.15-.015m10.469 1.377.01-.003v-.002h.002a.1.1 0 0 0 .023-.032h-.002zm-11.438.05-.005-.007-.014.026h.002zm7.707.109q.082.062.168.113a9 9 0 0 1-.466-.084zm-1.689.115-.063.068-.074-.008-.418-.054q.277 0 .555-.006M.965 21.13q.026.127.07.289c.044.159.123.306.184.459l.031-.027c.06-.275.113-.496.156-.715q.003.345.028.691.005.076.013.162l-.047.053.055.01.008.08q-.102-.01-.205-.016c-.056-.003-.127-.041-.168-.004l-.23.21c.009-.077.026-.152.017-.23.006-.322.046-.643.088-.962m1.2.926.003.007v.002h.002v-.009h.093l.016.109-.226-.004.07-.103zm.661.011c.253.01.506.026.76.04.95.032 1.902.004 2.853.017.79.01 1.579-.015 2.368.002q.515.012 1.029.055a35 35 0 0 0-2.59.037l-.176.01q-.147-.01-.295-.018c-.97-.016-1.943-.04-2.914-.043q-.544 0-1.09.002a1 1 0 0 0 .053-.096zm5.488.713.184.014c-.809.07-1.617.143-2.428.191L5.838 23l-.264-.006.143-.014a170 170 0 0 1 2.597-.199m4.403.065c.787-.003 1.574-.01 2.361.013l-.017.02c.192.028.39.036.578.084.139.035.244.064.324.09-.808 0-1.618-.013-2.426-.016q-.46-.006-.922-.008.034-.067.078-.164z" style="fill:currentColor;stroke-width:3;stroke-linejoin:round"></path></svg>