<?xml version="1.0" encoding="UTF-8" standalone="no"?>
<svg
   viewBox="0 0 24 24"
   version="1.1"
   id="svg2"
   sodipodi:docname="Cara_gezeichnet.svg"
   width="24"
   height="24"
   inkscape:version="1.4.1-rc (d9e8dc1fe0, 2025-03-10)"
   xmlns:inkscape="http://www.inkscape.org/namespaces/inkscape"
   xmlns:sodipodi="http://sodipodi.sourceforge.net/DTD/sodipodi-0.dtd"
   xmlns="http://www.w3.org/2000/svg"
   xmlns:svg="http://www.w3.org/2000/svg">
  <defs
     id="defs2" />
  <sodipodi:namedview
     id="namedview2"
     pagecolor="#505050"
     bordercolor="#eeeeee"
     borderopacity="1"
     inkscape:showpageshadow="0"
     inkscape:pageopacity="0"
     inkscape:pagecheckerboard="0"
     inkscape:deskcolor="#505050"
     inkscape:zoom="15.22349"
     inkscape:cx="12.907684"
     inkscape:cy="13.86016"
     inkscape:window-width="1920"
     inkscape:window-height="1011"
     inkscape:window-x="0"
     inkscape:window-y="32"
     inkscape:window-maximized="1"
     inkscape:current-layer="svg2" />
  <path
     id="path2"
     style="fill:#1a1a1a;stroke-width:3;stroke-linejoin:round"
     d="M 3.1621094 -0.28515625 C 2.6730419 -0.28381025 2.1838344 -0.26099735 1.703125 -0.16210938 C 1.3764682 -0.10869847 1.0585727 -0.043729025 0.78710938 0.15820312 L 0.37304688 0.69921875 C 0.50960366 0.61708961 0.65473767 0.56616822 0.8046875 0.52734375 C 0.48965938 0.79277788 0.43679863 0.80581322 0.37695312 1.1386719 C 0.36939474 1.2166555 0.36129954 1.2970102 0.35351562 1.375 L 0.32226562 1.4003906 C 0.32730448 1.4408981 0.3350467 1.4829059 0.33984375 1.5234375 C 0.29157318 2.0077177 0.24352434 2.4914656 0.234375 2.9785156 C 0.227678 3.160713 0.21574475 3.3430724 0.21484375 3.5253906 C 0.21341375 3.8147594 0.24395365 4.2534039 0.25390625 4.5429688 C 0.25723131 4.6397101 0.25976402 4.71849 0.26171875 4.7851562 C 0.24434537 5.1247913 0.22799638 5.4650948 0.20898438 5.8046875 C 0.20494837 5.8767715 0.19134985 5.9477642 0.19921875 6.0195312 C 0.20100556 6.0358298 0.21279437 6.0685801 0.22460938 6.0800781 L 0.2265625 6.0820312 L 0.22851562 6.0820312 L 0.23046875 6.0820312 L 0.23046875 6.0839844 L 0.23242188 6.0839844 L 0.234375 6.0820312 L 0.23632812 6.0820312 L 0.23828125 6.0800781 C 0.36009141 5.9417722 0.46623723 5.7897584 0.57226562 5.6386719 C 0.55566667 6.1770361 0.54617303 6.7152856 0.5390625 7.2539062 C 0.5319495 7.4321822 0.52667212 7.6108766 0.51757812 7.7890625 C 0.48712763 8.3857008 0.4768918 8.303756 0.453125 8.9101562 C 0.4288127 9.5304753 0.4225293 10.152761 0.4140625 10.773438 C 0.3935191 11.830896 0.41162688 12.887775 0.40429688 13.945312 C 0.41369488 14.829942 0.39022212 15.715118 0.40820312 16.599609 C 0.40954113 16.757474 0.40975038 16.914413 0.41210938 17.072266 C 0.42147838 17.699048 0.42791273 17.443929 0.42382812 18.072266 C 0.42127613 18.464902 0.4155115 18.855605 0.4296875 19.248047 C 0.3984325 19.627142 0.42620353 20.001081 0.47070312 20.376953 C 0.48815152 20.684364 0.47353672 20.993711 0.45507812 21.300781 C 0.43178394 21.500046 0.41748482 21.700575 0.40234375 21.900391 C 0.38632044 22.034531 0.36861378 22.166757 0.3515625 22.300781 L 0.30273438 22.792969 C 0.27994574 22.892907 0.25241318 22.992022 0.23828125 23.09375 C 0.23781616 23.109733 0.23770567 23.12594 0.23632812 23.140625 C 0.17709169 23.23032 0.16179103 23.329908 0.22265625 23.470703 C 0.22397896 23.464671 0.22578513 23.461093 0.2265625 23.458984 L 0.22851562 23.458984 C 0.23017877 23.472174 0.22363362 23.543706 0.23046875 23.5625 L 0.23242188 23.564453 L 0.23242188 23.566406 L 0.234375 23.566406 L 0.23632812 23.566406 L 0.23828125 23.566406 L 0.23828125 23.564453 C 0.30102185 23.502748 0.36596136 23.442183 0.4296875 23.380859 C 0.7223019 23.282135 0.81578126 23.240454 0.828125 23.201172 C 0.82879643 23.197801 0.82851348 23.190932 0.828125 23.1875 C 0.82245722 23.159747 0.78690313 23.127049 0.75976562 23.072266 C 0.80450566 23.080564 0.85233131 23.09036 0.90429688 23.099609 C 1.0130155 23.106553 1.1217233 23.111724 1.2304688 23.117188 L 1.0976562 23.277344 C 1.3342608 23.224402 1.5715917 23.180827 1.8105469 23.140625 C 1.936271 23.144018 2.0617678 23.144914 2.1875 23.146484 C 2.1540035 23.199633 2.123797 23.254932 2.09375 23.310547 C 1.9483056 23.434545 1.8062107 23.563041 1.6835938 23.708984 C 1.6807045 23.712424 1.6789764 23.71818 1.6777344 23.720703 L 1.6757812 23.720703 L 1.6757812 23.722656 L 1.6757812 23.724609 L 1.6777344 23.726562 L 1.6777344 23.728516 L 1.6796875 23.728516 L 1.6816406 23.730469 L 1.6835938 23.730469 L 1.6855469 23.730469 C 1.7190264 23.733958 1.8332154 23.692832 1.8964844 23.681641 C 1.8889003 23.694982 1.8808398 23.707511 1.8730469 23.720703 C 3.4542025 23.561049 5.0473123 23.548738 6.6347656 23.501953 C 8.7740421 23.426113 10.911557 23.534038 13.048828 23.607422 C 14.427172 23.661662 15.806071 23.703529 17.185547 23.693359 C 17.351937 23.688259 17.519181 23.683584 17.685547 23.677734 C 17.93429 23.669034 18.216747 23.658849 18.466797 23.636719 C 18.779171 23.609069 19.089196 23.556215 19.398438 23.505859 C 19.883527 23.431839 20.370494 23.453556 20.855469 23.509766 C 21.067027 23.531726 21.265574 23.605245 21.46875 23.662109 C 21.48151 23.665684 21.498979 23.677102 21.511719 23.679688 L 21.513672 23.679688 L 21.515625 23.679688 L 21.517578 23.679688 L 21.519531 23.679688 L 21.521484 23.677734 L 21.523438 23.677734 L 21.525391 23.675781 C 21.641502 23.563819 21.75319 23.448012 21.863281 23.330078 C 21.887415 23.323109 21.909789 23.315477 21.933594 23.306641 C 22.187962 23.055345 22.473386 22.831537 22.697266 22.552734 C 22.69863 22.551035 22.702142 22.5466 22.703125 22.544922 L 22.703125 22.542969 C 22.703435 22.542142 22.704856 22.53793 22.705078 22.537109 L 22.705078 22.535156 L 22.705078 22.533203 C 22.70505 22.532402 22.705185 22.528138 22.705078 22.527344 L 22.703125 22.525391 L 22.703125 22.523438 C 22.685951 22.483315 22.572114 22.453769 22.515625 22.449219 C 22.450765 22.444019 22.385234 22.445806 22.320312 22.441406 C 22.108349 22.427016 21.897437 22.406055 21.685547 22.390625 C 21.146259 22.358724 20.605896 22.356876 20.066406 22.371094 C 20.335771 22.295727 20.598047 22.19108 20.857422 22.080078 C 21.073865 21.996568 21.29161 21.895657 21.521484 21.853516 C 21.65516 21.836626 21.588792 21.846666 21.714844 21.822266 C 21.728436 21.81218 21.742425 21.803397 21.753906 21.794922 C 21.791431 21.799265 21.834176 21.802877 21.886719 21.806641 L 21.917969 21.779297 C 21.952826 21.709381 21.988122 21.641846 22.021484 21.572266 C 22.04749 21.547656 22.078366 21.516435 22.119141 21.478516 L 22.146484 21.449219 C 22.339952 21.162822 22.280486 21.295839 22.361328 21.068359 C 22.305549 21.052932 22.249901 21.046711 22.193359 21.046875 C 22.199542 20.994564 22.201277 20.939852 22.199219 20.884766 C 22.189592 20.739367 22.180519 20.595063 22.173828 20.449219 C 22.207063 20.524963 22.242623 20.59868 22.269531 20.675781 L 22.300781 20.650391 C 22.422634 20.300767 22.580752 19.96186 22.666016 19.601562 C 22.690449 19.498293 22.797251 18.113427 22.810547 17.943359 C 22.833994 18.443979 22.861797 18.945141 22.890625 19.445312 C 22.902028 19.623051 22.913674 19.800603 22.923828 19.978516 C 22.891793 20.004534 22.85928 20.029291 22.826172 20.052734 C 22.829946 20.071378 22.832974 20.09273 22.835938 20.115234 C 22.804497 20.159039 22.775037 20.204362 22.746094 20.25 C 22.651194 20.399643 22.800734 20.734467 22.878906 20.855469 C 22.881145 20.858933 22.882426 20.861848 22.884766 20.865234 C 22.891102 20.977629 22.889592 21.037027 22.882812 21.398438 C 22.879613 21.571537 22.871888 21.744904 22.867188 21.917969 C 22.847967 22.299138 22.840024 22.677228 22.833984 23.058594 C 22.832684 23.141134 22.833078 23.224147 22.830078 23.306641 C 22.828359 23.355391 22.789572 23.460599 22.798828 23.490234 L 22.798828 23.492188 L 22.800781 23.494141 L 22.802734 23.494141 L 22.802734 23.496094 L 22.804688 23.496094 L 22.806641 23.496094 L 22.808594 23.496094 C 22.809239 23.495987 22.813754 23.494329 22.814453 23.494141 C 22.815961 23.493598 22.816623 23.493077 22.818359 23.492188 C 22.825893 23.488331 22.834328 23.48443 22.841797 23.480469 C 22.847464 23.475488 22.851738 23.471761 22.857422 23.466797 C 22.857088 23.468979 22.857727 23.470645 22.857422 23.472656 C 23.152983 23.31203 23.399026 23.072666 23.671875 22.875 C 23.634225 22.80111 23.666122 22.65246 23.669922 22.582031 C 23.685382 22.29402 23.687516 22.005028 23.697266 21.716797 C 23.70014 21.468015 23.699182 21.2193 23.695312 20.970703 C 23.890882 20.820318 24.091794 20.675847 24.25 20.488281 C 24.29426 20.435801 24.222534 20.353375 24.214844 20.285156 C 24.197924 20.135114 24.181571 19.717583 24.175781 19.587891 C 24.142971 18.852791 24.166974 19.333528 24.121094 18.490234 C 24.108724 18.254524 24.093954 18.019026 24.083984 17.783203 C 24.073484 17.534751 24.071524 17.285446 24.058594 17.037109 C 24.012604 16.153521 23.920586 15.272094 23.810547 14.394531 C 23.789898 14.269872 23.772159 14.145025 23.757812 14.019531 C 23.727196 13.325488 23.702664 12.630431 23.693359 11.935547 C 23.691359 10.627269 23.663649 9.3152236 23.724609 8.0078125 C 23.735829 7.767095 23.761491 7.5276874 23.775391 7.2871094 C 23.782391 7.1658089 23.783059 7.0433091 23.787109 6.921875 C 23.743747 6.9496282 23.700016 6.9767456 23.65625 7.0039062 C 23.664536 6.9755612 23.673303 6.9475912 23.683594 6.9199219 C 23.695667 6.887463 23.752013 6.827103 23.775391 6.8027344 C 23.669994 6.9086081 23.566366 7.01529 23.462891 7.1230469 C 23.451242 7.1302057 23.439373 7.1373582 23.427734 7.1445312 C 23.460015 6.7318688 23.493497 6.3205452 23.529297 5.9082031 C 23.627452 5.8723657 23.605749 5.8168576 23.541016 5.7578125 C 23.615461 4.9141643 23.701375 4.0731843 23.806641 3.2324219 C 23.845771 2.9061029 23.894075 2.579261 23.923828 2.2519531 C 23.958818 1.8669856 23.960769 1.520606 23.943359 1.1386719 C 23.938559 1.0331912 23.941999 0.92509616 23.917969 0.82226562 C 23.904611 0.76499835 23.889096 0.64512924 23.851562 0.62304688 L 23.849609 0.62304688 L 23.847656 0.62109375 C 23.846879 0.6208927 23.842594 0.62121579 23.841797 0.62109375 L 23.839844 0.62109375 L 23.837891 0.62109375 C 23.837033 0.62122217 23.832909 0.62283049 23.832031 0.62304688 L 23.830078 0.62304688 C 23.828237 0.6238449 23.826148 0.62577193 23.824219 0.62695312 C 23.572333 0.78121153 23.409806 1.0487557 23.203125 1.2597656 C 23.167195 1.6128102 23.120416 1.9665764 23.095703 2.3203125 C 23.064507 2.7669015 23.061626 2.8792968 23.066406 2.9082031 L 23.066406 2.9101562 L 23.068359 2.9121094 L 23.068359 2.9140625 L 23.070312 2.9160156 L 23.072266 2.9179688 L 23.074219 2.9179688 L 23.076172 2.9199219 L 23.076172 2.921875 L 23.078125 2.9238281 L 23.080078 2.9257812 C 23.089303 2.9514843 23.094015 3.059772 23.074219 3.5800781 C 23.064719 3.8289009 23.036888 4.0779196 23.017578 4.3261719 C 23.016197 4.3360868 23.011299 4.3720478 23.003906 4.4257812 C 22.913606 3.3456764 22.96779 2.25636 23.046875 1.1777344 L 22.410156 1.7226562 C 22.412136 1.7495026 22.414016 1.775888 22.416016 1.8027344 C 22.286476 1.7590813 22.166578 1.7302832 22.025391 1.6914062 C 21.729389 1.6178464 21.431606 1.5510791 21.132812 1.4902344 C 21.304263 1.5211383 21.453721 1.5490252 21.517578 1.5605469 C 21.639114 1.5785929 21.760876 1.5981872 21.882812 1.6132812 C 22.087492 1.6386193 22.192028 1.674563 22.369141 1.53125 C 22.464307 1.4542442 22.539854 1.3555766 22.619141 1.2617188 C 22.677251 1.2106007 22.733313 1.1583388 22.792969 1.109375 L 22.820312 1.0800781 C 22.893193 0.95183946 23.00837 0.83958427 23.039062 0.6953125 C 23.039239 0.69447634 23.038958 0.69025706 23.039062 0.68945312 L 23.039062 0.6875 L 23.039062 0.68554688 L 23.039062 0.68359375 L 23.039062 0.68164062 L 23.037109 0.6796875 L 23.037109 0.67773438 C 23.091333 0.61774451 23.145576 0.55625293 23.199219 0.49609375 L 23.201172 0.49414062 L 23.201172 0.4921875 C 23.300338 0.38159973 23.414907 0.24539741 23.564453 0.05859375 C 23.551553 0.03487003 23.543711 0.006164525 23.525391 -0.013671875 C 23.454391 -0.090544845 23.041026 -0.058906285 22.925781 -0.087890625 C 22.396389 -0.1314892 21.866466 -0.13640793 21.335938 -0.109375 C 20.891481 -0.07774089 20.447497 -0.016194425 20.029297 0.14648438 L 19.796875 0.4453125 C 19.535128 0.41498147 19.275398 0.38012664 19.013672 0.34960938 C 18.779744 0.32618457 18.545385 0.29035647 18.310547 0.27929688 C 17.916362 0.26073287 16.609048 0.275725 16.251953 0.28125 C 15.092817 0.299186 13.933986 0.33889382 12.775391 0.37695312 C 12.644017 0.38228296 12.512241 0.38678055 12.380859 0.390625 C 12.231006 0.37826693 12.082322 0.35842142 11.933594 0.33007812 C 11.677118 0.30505512 11.67792 0.30097125 11.417969 0.29296875 C 11.029873 0.28102135 10.64031 0.31091782 10.253906 0.25976562 C 9.5621269 0.19929025 8.8657743 0.2091597 8.1777344 0.10742188 C 7.6716137 0.029579015 7.1622032 -0.027398295 6.6542969 -0.091796875 C 6.3162178 -0.12955688 5.9765183 -0.12742438 5.6386719 -0.16796875 C 5.2295695 -0.21066825 4.8176 -0.24233157 4.40625 -0.22265625 C 3.9910891 -0.23220704 3.5776434 -0.28292778 3.1621094 -0.28515625 z M 22.857422 23.472656 C 22.852082 23.475558 22.847169 23.477619 22.841797 23.480469 C 22.824133 23.495994 22.806537 23.511628 22.789062 23.527344 C 22.816081 23.523711 22.830913 23.523389 22.839844 23.519531 L 22.841797 23.519531 L 22.841797 23.517578 L 22.84375 23.517578 L 22.845703 23.515625 L 22.847656 23.513672 L 22.847656 23.511719 L 22.849609 23.509766 C 22.852553 23.502417 22.854735 23.49035 22.857422 23.472656 z M 22.826172 20.052734 C 22.820811 20.026253 22.813878 20.004326 22.806641 19.990234 L 22.806641 19.988281 L 22.804688 19.988281 L 22.804688 19.986328 L 22.802734 19.986328 L 22.802734 19.988281 C 22.799786 20.001098 22.802281 20.050445 22.800781 20.070312 C 22.809135 20.064669 22.817906 20.058588 22.826172 20.052734 z M 1.9414062 0.34570312 C 2.1661336 0.33484152 2.3918316 0.33757085 2.6171875 0.34960938 C 3.0271463 0.36022637 3.4373447 0.38869805 3.8457031 0.42578125 C 4.1863055 0.436583 4.5264886 0.45669714 4.8652344 0.4921875 C 4.8305189 0.49429407 4.7944931 0.49613642 4.7597656 0.49804688 C 4.2598812 0.52554696 3.7600603 0.53331523 3.2597656 0.54101562 C 2.8748638 0.53346272 2.4906179 0.53345498 2.1054688 0.5390625 C 1.6439956 0.53666008 1.7583248 0.53681105 1.34375 0.53710938 C 1.3092645 0.53713419 1.2709444 0.52750998 1.234375 0.52148438 C 1.2470756 0.50794316 1.2597052 0.4944606 1.2734375 0.48046875 C 1.271874 0.46150534 1.271538 0.44280507 1.2714844 0.42578125 C 1.4933313 0.38091269 1.7166789 0.35656473 1.9414062 0.34570312 z M 21.460938 0.51953125 C 21.618856 0.52072497 21.776489 0.5289809 21.933594 0.54882812 C 21.983085 0.55508031 22.032795 0.56227806 22.082031 0.5703125 C 22.072869 0.57097036 22.063851 0.57161717 22.054688 0.57226562 C 21.699169 0.55308028 21.342163 0.54253814 20.986328 0.53515625 C 21.144079 0.52514989 21.303019 0.51833753 21.460938 0.51953125 z M 0.50976562 0.9609375 L 0.51171875 0.9609375 C 0.51318479 0.96074033 0.51416337 0.96095794 0.515625 0.9609375 C 0.51098832 0.9657061 0.50659753 0.96984835 0.50195312 0.97460938 C 0.50319197 0.97193341 0.50539288 0.96558128 0.5078125 0.96289062 L 0.50976562 0.96289062 L 0.50976562 0.9609375 z M 11.769531 1.0488281 C 12.225511 1.0819144 12.685401 1.0572812 13.142578 1.0585938 C 13.086798 1.1199665 13.028742 1.1814282 12.970703 1.2402344 C 13.007732 1.2293953 13.046371 1.2214218 13.083984 1.2148438 C 13.080438 1.2233476 13.077539 1.2316081 13.074219 1.2402344 C 13.072642 1.2443324 13.070811 1.2506028 13.070312 1.2539062 C 13.07026 1.2549234 13.070254 1.2588304 13.070312 1.2597656 L 13.070312 1.2617188 C 13.070585 1.2624965 13.071891 1.2668759 13.072266 1.2675781 L 13.074219 1.2675781 L 13.076172 1.2695312 L 13.078125 1.2714844 L 13.080078 1.2734375 C 13.123029 1.2916173 13.279185 1.2256071 13.353516 1.21875 C 13.460431 1.2088873 13.567048 1.1987507 13.673828 1.1875 C 14.071451 1.1842266 14.468753 1.1929312 14.865234 1.2246094 C 15.413898 1.2717824 15.546418 1.2792862 16.109375 1.3457031 C 16.546327 1.3972542 16.983168 1.4627957 17.417969 1.5292969 C 17.31831 1.5219868 17.243486 1.5173448 17.212891 1.515625 C 16.947569 1.5007107 16.681545 1.4930362 16.416016 1.4824219 C 15.821769 1.4686944 15.226962 1.462775 14.632812 1.4453125 C 13.673736 1.4171245 12.718043 1.3602795 11.761719 1.2832031 C 11.447658 1.2578908 11.132278 1.2301502 10.818359 1.203125 C 10.666908 1.1986251 10.421624 1.1912252 10.158203 1.1835938 C 10.159412 1.1587377 10.159666 1.1342323 10.15625 1.1113281 C 10.693951 1.0899419 11.231748 1.0684257 11.769531 1.0488281 z M 5.1757812 1.2402344 C 5.2027194 1.2410151 5.2289157 1.2417357 5.2558594 1.2421875 C 5.2983785 1.2429831 5.3422478 1.2434786 5.3847656 1.2441406 C 5.2980552 1.2550958 5.2096818 1.2657929 5.1230469 1.2773438 C 5.1401191 1.265028 5.1584715 1.2530982 5.1757812 1.2402344 z M 6.8613281 1.6210938 L 6.7636719 1.7324219 C 6.8122359 1.7416719 6.8607419 1.7582776 6.9101562 1.7597656 C 7.0551293 1.7641256 7.1987858 1.754649 7.34375 1.75 C 9.1743478 1.69127 6.5767923 1.767605 8.6972656 1.6875 C 9.6391353 1.651919 9.4676777 1.6636672 10.400391 1.6914062 C 10.725851 1.7040302 11.051699 1.7113726 11.376953 1.7285156 C 12.646423 1.7954246 12.059771 1.7895569 13.300781 1.859375 C 14.20001 1.909965 15.102188 1.92507 16.001953 1.9648438 C 17.248482 2.0268678 18.480886 2.2276117 19.722656 2.3398438 C 20.42371 2.3885217 21.116633 2.514422 21.814453 2.5898438 C 22.217978 2.6380246 22.131681 2.696355 22.453125 2.1601562 C 22.460407 2.2204441 22.466424 2.2814073 22.472656 2.3417969 L 21.986328 2.7578125 C 22.082108 3.3204552 22.071614 3.8947924 22.105469 4.4628906 C 22.122409 4.7470173 22.180275 5.4440725 22.203125 5.7226562 C 22.328897 6.9145934 22.315117 8.1151821 22.224609 9.3085938 C 22.231309 9.6754866 22.156592 10.041747 22.201172 10.408203 C 22.204406 10.434783 22.203119 10.490516 22.212891 10.511719 L 22.212891 10.513672 L 22.214844 10.515625 L 22.216797 10.515625 L 22.216797 10.517578 L 22.21875 10.517578 L 22.220703 10.517578 L 22.222656 10.517578 L 22.224609 10.517578 L 22.226562 10.517578 L 22.228516 10.515625 C 22.300376 10.471998 22.355548 10.437995 22.396484 10.408203 C 22.384358 10.634083 22.372004 10.858684 22.359375 11.083984 C 22.284165 12.324152 22.136324 13.559446 22.052734 14.798828 C 22.049034 15.778183 21.944641 16.750908 21.818359 17.720703 C 21.713865 18.457146 21.58723 19.188008 21.492188 19.925781 C 21.432307 20.369169 21.442029 20.813994 21.474609 21.257812 C 21.052158 21.439348 20.62395 21.622218 20.164062 21.681641 C 20.080582 21.689241 19.997806 21.701378 19.914062 21.705078 C 19.411905 21.727268 18.906914 21.644651 18.404297 21.675781 C 17.78315 21.681181 17.163837 21.638663 16.542969 21.664062 C 16.058583 21.700032 15.574175 21.736516 15.089844 21.773438 C 14.498037 21.808007 13.904939 21.796474 13.314453 21.740234 C 12.693955 21.687554 12.07149 21.650859 11.457031 21.542969 C 10.786179 21.461919 10.111802 21.392757 9.4355469 21.390625 C 8.6326419 21.390437 7.8301916 21.428057 7.0273438 21.435547 C 6.0720949 21.432447 5.1172364 21.46617 4.1621094 21.4375 C 3.7226178 21.424938 3.2846714 21.399341 2.8457031 21.376953 C 2.8353612 20.881955 2.7686728 20.391636 2.7285156 19.898438 C 2.6507147 19.244277 2.5956567 18.586791 2.5097656 17.933594 C 2.3729737 16.986881 2.1982106 16.044187 2.1640625 15.085938 C 2.1511625 14.851983 2.1385298 14.616829 2.1269531 14.382812 C 2.1407285 14.249587 2.1598331 14.11822 2.1621094 13.984375 C 2.1641794 13.862847 2.1452117 13.742343 2.1367188 13.621094 C 2.0964848 13.046709 2.0806002 12.470086 2.0664062 11.894531 C 2.0505612 10.88594 2.0689367 9.8774138 1.9804688 8.8710938 C 1.9352126 7.7399619 1.9073145 6.6066192 1.8945312 5.4746094 C 1.9493711 5.0910401 1.9810943 4.7063009 2.0136719 4.3203125 C 2.0487056 3.9475008 2.0944198 3.5744522 2.0859375 3.1992188 C 2.0801726 2.9441963 2.0460216 2.6904402 2.015625 2.4375 C 2.0932717 2.4168753 2.1685274 2.3969459 2.234375 2.3789062 C 2.7498449 2.2376881 2.7062218 2.2380601 3.2597656 2.1132812 C 3.8440354 1.9815763 3.9108244 1.9788355 4.5175781 1.8730469 C 5.2942481 1.7479441 6.0769043 1.6732834 6.8613281 1.6210938 z M 3.0214844 1.6542969 C 2.7988493 1.7047283 2.5767861 1.7582771 2.3554688 1.8125 L 1.9960938 2.2617188 C 1.9778697 2.1076235 1.9516265 1.9528381 1.90625 1.8046875 C 2.2787648 1.7743099 2.6505242 1.7074195 3.0214844 1.6542969 z M 1.1699219 1.7851562 C 1.1789503 1.7923703 1.1875659 1.8008111 1.1972656 1.8085938 C 1.2324108 1.8116727 1.2676193 1.8124781 1.3027344 1.8144531 C 1.2459507 1.8822969 1.1897112 1.9697995 1.2148438 2.0429688 C 1.2169416 2.0490764 1.2206678 2.0536054 1.2246094 2.0585938 C 1.2013247 2.0704621 1.1795173 2.0810458 1.1601562 2.0917969 C 1.1622622 1.9659166 1.1642998 1.9681413 1.1699219 1.7851562 z M 12.357422 3.0820312 C 12.109997 3.0754468 11.873646 3.085837 11.640625 3.1054688 C 11.633479 3.1058296 11.626278 3.1049244 11.619141 3.1054688 C 11.607939 3.1063237 11.597109 3.1102718 11.585938 3.1113281 C 11.177879 3.1496546 10.781201 3.2259464 10.367188 3.359375 C 9.9562888 3.4917993 9.8217186 3.5615243 9.4277344 3.7324219 C 9.2842631 3.8092162 9.1356567 3.8792031 8.9960938 3.9628906 C 8.9094407 4.0148513 8.8247192 4.0680885 8.7402344 4.125 C 8.6037903 4.2011278 8.4850274 4.2706371 8.3339844 4.3789062 C 8.171027 4.4957157 8.0138986 4.6220233 7.8632812 4.7539062 C 7.7433294 4.809751 7.6259778 4.8701126 7.5117188 4.9375 C 7.2927808 5.0666248 7.2366823 5.1191001 7.0332031 5.2734375 C 6.9601385 5.3367112 6.8856043 5.3974727 6.8144531 5.4628906 C 6.7457145 5.5260903 6.6781265 5.5929677 6.6132812 5.6601562 C 6.3835131 5.8982271 5.8648987 6.3508411 5.6367188 6.7480469 C 5.5414554 6.9138773 5.4871555 7.0729739 5.4179688 7.25 C 5.3256059 7.6484289 5.2379039 8.0491282 5.1621094 8.4511719 C 5.1810094 8.4747989 5.190975 8.5094844 5.21875 8.5214844 C 5.251186 8.5354984 5.3001897 8.54543 5.3261719 8.5214844 C 5.3765249 8.4750781 5.425455 8.4266056 5.4746094 8.3789062 C 5.4108442 8.578565 5.3507266 8.779361 5.2910156 8.9804688 C 5.1510091 9.4954273 5.0324117 10.033983 5.0546875 10.572266 C 5.0655075 10.833724 5.1658767 11.404979 5.2285156 11.65625 C 5.2743876 11.840262 5.3377507 12.019627 5.3925781 12.201172 C 5.5362619 12.589542 5.7255393 12.957578 5.9628906 13.291016 L 5.6171875 13.650391 C 5.7807727 13.790457 5.9002953 13.970922 5.9960938 14.162109 C 6.0296797 14.229139 6.0539777 14.299396 6.0898438 14.365234 C 6.1278738 14.435044 6.174468 14.501068 6.2167969 14.568359 C 6.3282511 14.735959 6.463097 14.879769 6.6054688 15.017578 C 6.8665506 15.269352 7.1458691 15.503893 7.4335938 15.724609 C 7.5051568 15.770909 7.5728654 15.820334 7.6464844 15.863281 C 7.6487943 15.864629 7.6518785 15.865799 7.6542969 15.867188 C 7.7357411 15.931078 7.7838386 15.967016 7.9335938 16.052734 C 8.1354721 16.168286 8.3477931 16.251464 8.5644531 16.332031 C 8.6436176 16.372381 8.7239331 16.411377 8.8046875 16.449219 C 9.2368742 16.645097 9.7051895 16.726353 10.167969 16.8125 C 10.317448 16.8179 10.670682 16.944923 10.804688 16.917969 C 10.940622 16.890624 11.09243 16.819955 11.236328 16.740234 C 11.62859 16.679916 12.015776 16.577748 12.400391 16.488281 C 12.998887 16.361298 13.576909 16.155612 14.15625 15.962891 C 14.620415 15.795721 15.069189 15.590045 15.515625 15.380859 C 15.840619 15.220584 16.123275 14.991481 16.410156 14.773438 C 16.648126 14.602849 16.861328 14.40291 17.078125 14.207031 C 17.233169 13.895404 17.694823 13.686766 17.902344 13.349609 C 17.958238 13.332155 18.015176 13.316159 18.072266 13.304688 C 18.149977 13.347697 18.230158 13.384386 18.318359 13.398438 C 18.698706 13.459038 19.234458 12.993896 19.117188 12.617188 C 19.087077 12.595947 19.062344 12.566207 19.027344 12.554688 C 18.933234 12.523718 18.784743 12.548999 18.697266 12.568359 C 18.677506 12.572742 18.658088 12.579032 18.638672 12.583984 C 18.611694 12.572433 18.584901 12.559065 18.554688 12.546875 C 18.295643 12.414465 18.045931 12.277047 17.808594 12.109375 C 17.864234 11.986008 17.892275 11.860514 17.835938 11.761719 C 17.8012 11.75615 17.757677 11.727174 17.726562 11.734375 C 17.724317 11.735117 17.718914 11.739038 17.716797 11.740234 C 17.715773 11.740956 17.713878 11.741337 17.712891 11.742188 C 17.653084 11.793694 17.594491 11.846249 17.537109 11.900391 L 17.535156 11.898438 C 17.475486 11.847748 17.418177 11.792975 17.355469 11.746094 C 17.315489 11.716204 17.269274 11.693809 17.226562 11.667969 C 17.188813 11.657109 17.1524 11.638256 17.113281 11.634766 C 17.074441 11.631266 17.004936 11.673613 16.976562 11.689453 C 16.839832 11.765762 16.709248 11.853056 16.580078 11.941406 C 16.529934 11.954035 16.467977 11.978277 16.421875 11.998047 L 16.503906 11.916016 C 16.541017 11.878811 16.487005 11.927386 16.408203 12.001953 C 16.398646 12.006222 16.390185 12.009959 16.382812 12.013672 C 16.277362 12.066792 16.201685 12.16423 16.111328 12.240234 C 16.048579 12.293017 15.986109 12.345102 15.923828 12.398438 C 15.561438 12.661959 15.217194 12.949563 14.886719 13.251953 C 14.879526 13.254469 14.871678 13.258804 14.867188 13.261719 L 14.865234 13.261719 L 14.863281 13.263672 L 14.863281 13.265625 L 14.861328 13.265625 L 14.861328 13.267578 L 14.861328 13.269531 L 14.863281 13.271484 L 14.865234 13.273438 C 14.712967 13.41365 14.556993 13.549686 14.414062 13.701172 C 14.405961 13.705414 14.39872 13.708768 14.390625 13.712891 C 14.485973 13.580398 14.591197 13.453572 14.681641 13.318359 C 14.764852 13.21448 14.848126 13.111615 14.933594 13.009766 C 14.892119 13.037351 14.849603 13.065407 14.808594 13.09375 C 14.809592 13.091541 14.811515 13.088154 14.8125 13.085938 C 14.81467 13.081056 14.815835 13.075312 14.816406 13.072266 L 14.816406 13.070312 L 14.816406 13.068359 L 14.814453 13.068359 L 14.814453 13.066406 L 14.8125 13.066406 L 14.810547 13.066406 L 14.808594 13.066406 C 14.774331 13.075722 14.649976 13.185978 14.591797 13.21875 C 14.492237 13.27484 14.393863 13.331051 14.291016 13.380859 C 13.81867 13.60961 13.402733 13.717832 12.896484 13.845703 C 11.912489 14.073605 10.907908 14.191417 9.8984375 14.181641 C 9.8141759 14.190179 9.6638181 14.165018 9.515625 14.154297 C 9.4913576 14.065889 9.4636215 13.97777 9.4160156 13.900391 C 9.2516615 13.633246 8.9292524 13.462767 8.6953125 13.275391 C 8.5738547 13.178108 8.4560306 13.076495 8.34375 12.96875 C 8.237752 12.867034 8.1421522 12.754988 8.0410156 12.648438 C 7.8020951 12.352298 7.806601 12.360795 7.5878906 12.078125 C 7.5412086 12.017795 7.4940546 11.958202 7.4492188 11.896484 C 7.4281436 11.867476 7.4133778 11.799844 7.3925781 11.775391 C 7.3916404 11.774489 7.3876927 11.770258 7.3867188 11.769531 L 7.3847656 11.769531 L 7.3828125 11.769531 L 7.3808594 11.769531 L 7.3808594 11.767578 L 7.3789062 11.767578 L 7.3769531 11.767578 L 7.375 11.767578 L 7.3730469 11.769531 L 7.3710938 11.769531 L 7.3691406 11.769531 C 7.3678902 11.770118 7.3665408 11.772587 7.3652344 11.773438 C 7.3574476 11.778508 7.3494975 11.781921 7.3417969 11.787109 C 7.3418425 11.78277 7.3423279 11.778216 7.3417969 11.775391 L 7.3417969 11.773438 L 7.3398438 11.773438 L 7.3398438 11.771484 L 7.3378906 11.771484 C 7.3699626 11.656646 7.3967935 11.540378 7.4023438 11.421875 C 7.4078337 11.304559 7.3308312 11.200334 7.2910156 11.089844 C 7.1180248 10.609782 7.1783235 10.798401 7.1972656 10.855469 C 7.1877492 10.827124 7.1623089 10.751477 7.1074219 10.589844 C 7.0915004 10.536477 7.0756288 10.483226 7.0605469 10.429688 C 7.0991686 9.9204863 7.1195273 9.4080455 7.1640625 8.9003906 C 7.1846487 8.4964648 7.2091279 8.0935272 7.2265625 7.6894531 L 7.2265625 7.6875 C 7.4788826 7.2575062 7.7937308 6.8684775 8.125 6.4960938 L 7.7167969 6.8925781 C 7.7295951 6.8796257 7.7409613 6.8660509 7.7519531 6.8515625 C 7.7667761 6.8320255 7.7771062 6.8083203 7.7851562 6.7851562 C 7.7861212 6.7823768 7.7880078 6.7684997 7.7890625 6.7578125 C 7.894863 6.6531726 7.9996705 6.5499519 8.1054688 6.4453125 C 8.1525643 6.4127515 8.2004254 6.3794485 8.2480469 6.3476562 L 7.859375 6.8828125 C 8.0705649 6.6632563 8.2927245 6.4531649 8.4941406 6.2246094 C 8.5036095 6.2138647 8.5066095 6.1980599 8.5058594 6.1816406 C 8.8151417 5.987997 9.1346725 5.8098268 9.4628906 5.6503906 C 9.4848089 5.6455265 9.5073623 5.6415037 9.5292969 5.6367188 L 9.2929688 5.9296875 C 9.3490788 5.9264975 9.4055541 5.9294683 9.4609375 5.9199219 C 9.5568225 5.9033899 9.651038 5.8723395 9.7460938 5.8515625 C 10.184792 5.7556735 10.628695 5.6801866 11.072266 5.6113281 C 11.186735 5.5972021 11.301492 5.5839875 11.416016 5.5703125 C 11.971707 5.5039565 11.54577 5.5598826 12.101562 5.4785156 C 12.388782 5.4364666 12.509862 5.4113319 12.794922 5.4042969 C 12.891812 5.4019069 12.989047 5.4097394 13.085938 5.4121094 C 13.420001 5.4437244 13.756809 5.4984931 14.070312 5.6230469 C 14.077541 5.6261994 14.084585 5.6295818 14.091797 5.6328125 C 14.094601 5.6340158 14.098553 5.6373492 14.101562 5.6386719 C 14.158086 5.6651486 14.267093 5.7149499 14.324219 5.7480469 C 14.325212 5.7486225 14.329086 5.7511941 14.330078 5.7519531 C 14.338986 5.7601132 14.349156 5.775618 14.357422 5.78125 L 14.359375 5.78125 L 14.361328 5.78125 L 14.363281 5.78125 L 14.365234 5.78125 L 14.367188 5.78125 L 14.369141 5.78125 L 14.369141 5.7792969 L 14.371094 5.7773438 C 14.452358 5.8387988 14.48577 5.8868228 14.507812 5.8964844 C 14.508826 5.896779 14.512686 5.8963596 14.513672 5.8964844 L 14.515625 5.8964844 L 14.517578 5.8964844 L 14.519531 5.8964844 L 14.519531 5.8945312 C 14.520487 5.8941202 14.524427 5.8931765 14.525391 5.8925781 C 14.526372 5.8917881 14.530243 5.8877049 14.53125 5.8867188 C 14.566654 5.8463758 14.62556 5.6885214 14.880859 5.328125 C 14.8918 5.3190583 14.901628 5.3093767 14.912109 5.3007812 C 15.037072 5.3467489 15.161699 5.3975079 15.283203 5.4511719 C 15.301924 5.5857138 15.309054 5.6708799 15.232422 5.8339844 C 15.219503 5.861487 15.175521 5.9082355 15.146484 5.9375 C 15.198625 5.8873333 15.246054 5.8423054 15.289062 5.8007812 C 15.262201 5.8550033 15.231062 5.9148157 15.232422 5.9335938 L 15.232422 5.9355469 L 15.232422 5.9375 L 15.234375 5.9375 L 15.234375 5.9394531 L 15.236328 5.9394531 L 15.238281 5.9394531 L 15.240234 5.9375 C 15.242947 5.9367658 15.245776 5.9362266 15.25 5.9335938 C 15.263837 5.9249685 15.339712 5.8732845 15.439453 5.7988281 C 15.434771 5.8082154 15.431981 5.8170154 15.427734 5.8242188 C 15.229683 6.0246157 15.032414 6.2260494 14.835938 6.4277344 C 14.873357 6.4647854 14.896561 6.5388564 14.949219 6.5390625 C 15.007859 6.539292 15.043924 6.4705989 15.085938 6.4296875 C 15.151783 6.3655635 15.498915 6.0435357 15.808594 5.7207031 C 15.924335 5.7895328 16.03878 5.862511 16.148438 5.9433594 C 16.162205 5.931772 16.17564 5.9216912 16.189453 5.9101562 C 16.199369 5.922913 16.208593 5.9353029 16.216797 5.9492188 C 16.282109 5.8712268 16.353261 5.7991976 16.417969 5.7207031 C 16.610252 5.5634615 16.803338 5.4060994 16.986328 5.2382812 L 16.988281 5.2363281 L 16.988281 5.234375 L 16.988281 5.2324219 L 16.986328 5.2324219 L 16.984375 5.2304688 C 16.974506 5.2258582 16.949209 5.2229651 16.939453 5.2167969 C 16.888473 5.1845809 16.840886 5.1491413 16.791016 5.1152344 C 16.684432 5.0427735 16.576644 4.970777 16.46875 4.9003906 L 16.626953 4.6875 C 16.557154 4.7475627 16.4885 4.807747 16.419922 4.8691406 C 16.382164 4.8446365 16.344519 4.8192403 16.306641 4.7949219 C 16.313395 4.7627688 16.318271 4.7380622 16.320312 4.7285156 C 16.320041 4.59533 16.328939 4.4720514 16.287109 4.3417969 C 16.209005 4.0985182 16.027402 3.7994341 15.841797 3.625 C 15.770442 3.5579397 15.686974 3.5050363 15.609375 3.4453125 C 15.319407 3.2561584 14.988551 3.1042822 14.634766 3.1445312 C 14.612885 3.1780662 14.590109 3.2114781 14.566406 3.2441406 C 14.525653 3.2393793 14.473017 3.233365 14.404297 3.2246094 C 13.964224 3.1685404 13.91476 3.1503516 13.447266 3.1171875 C 13.007996 3.0860255 12.796194 3.0888943 12.357422 3.0820312 z M 0.6875 3.1738281 C 0.68336384 3.8527046 0.69762272 4.530554 0.71679688 5.2089844 C 0.68169661 4.9033583 0.65115171 4.5962 0.62890625 4.2890625 C 0.63320508 4.158705 0.63940786 4.0363614 0.64257812 3.9375 C 0.65751135 3.6824764 0.67177153 3.428829 0.6875 3.1738281 z M 12.121094 3.703125 L 12.123047 3.703125 C 12.20398 3.702747 12.286294 3.704728 12.367188 3.7070312 C 12.558573 3.7124776 12.713585 3.7192642 12.867188 3.7324219 C 12.38578 3.8225819 12.243098 3.8367459 11.761719 3.9882812 C 11.740291 3.9950266 11.718618 4.0008627 11.697266 4.0078125 C 11.590139 4.0233176 11.483288 4.0425832 11.376953 4.0625 C 11.321338 4.0671965 11.266514 4.0718676 11.210938 4.078125 C 11.192602 4.0801895 11.173534 4.0819434 11.15625 4.0839844 C 11.247815 4.010739 11.326313 3.9494107 11.398438 3.8886719 C 11.426631 3.8949186 11.45885 3.9035731 11.5 3.9160156 C 11.54409 3.9293466 11.583469 3.9723868 11.628906 3.9648438 C 11.695186 3.9538407 12.036598 3.7615098 12.09375 3.7304688 L 12.121094 3.703125 z M 10.029297 4.0722656 C 9.7833072 4.218577 9.5383622 4.3679048 9.296875 4.5214844 C 9.2667729 4.5406286 9.2372394 4.5591105 9.2070312 4.578125 C 9.2130416 4.5072177 9.2011018 4.4519699 9.1660156 4.4199219 C 9.1489889 4.4043695 9.1275409 4.3927371 9.1054688 4.3847656 C 9.3667617 4.2753809 9.6337735 4.1813589 9.9082031 4.1054688 C 9.9481294 4.0944317 9.9893282 4.0831554 10.029297 4.0722656 z M 9.4804688 5.0351562 C 9.4550854 5.0489219 9.4296523 5.0624068 9.4042969 5.0761719 C 9.3398314 5.1148581 9.2808115 5.1493884 9.2265625 5.1816406 C 9.1498579 5.2012645 9.0747137 5.2232728 9 5.2480469 C 9.1566568 5.1705623 9.3168092 5.1000892 9.4804688 5.0351562 z M 8.1640625 5.1855469 C 7.9094345 5.4015034 7.6670992 5.6330355 7.4628906 5.9101562 C 7.4349971 5.9440316 7.4103336 5.972066 7.3886719 5.9980469 C 7.3639966 6.0187383 7.3391265 6.0398531 7.3144531 6.0605469 L 7.2910156 6.0917969 C 7.3096374 6.0777964 7.3266805 6.0656054 7.34375 6.0527344 C 7.294103 6.1142304 7.2533445 6.1697814 7.1933594 6.2695312 C 7.183955 6.2851699 7.1750224 6.3025209 7.1660156 6.3183594 C 7.1558328 6.328053 7.1449479 6.3379635 7.1347656 6.3476562 C 7.082387 6.3975165 6.8863731 6.5548451 6.90625 6.6972656 C 6.8681316 6.7402469 6.8307145 6.7829073 6.7929688 6.8261719 C 6.6327654 7.0097989 6.5101625 7.2250899 6.3691406 7.4238281 C 6.3304211 7.4917973 6.2930794 7.559984 6.2558594 7.6289062 C 6.51752 6.8975048 6.8685966 6.2031249 7.3515625 5.5898438 C 7.358601 5.5817193 7.3677937 5.5749177 7.3769531 5.5664062 C 7.4210434 5.5518151 7.4577807 5.5165262 7.4921875 5.4746094 C 7.5619814 5.4237521 7.6332092 5.3734732 7.6621094 5.3300781 C 7.7634799 5.2934266 7.8667352 5.2593745 7.9707031 5.2304688 C 8.034992 5.2154977 8.0992362 5.1979787 8.1640625 5.1855469 z M 22.769531 5.3691406 L 22.771484 5.3691406 L 22.773438 5.3691406 L 22.775391 5.3691406 L 22.777344 5.3691406 L 22.779297 5.3691406 L 22.78125 5.3710938 L 22.783203 5.3730469 L 22.783203 5.375 C 22.802453 5.4187287 22.739061 5.6676961 22.699219 5.8632812 C 22.689618 5.7462443 22.680003 5.628668 22.669922 5.5117188 C 22.718817 5.425662 22.751595 5.3804104 22.769531 5.3691406 z M 0.72265625 5.4277344 C 0.72338102 5.4522486 0.72387648 5.4774389 0.72460938 5.5019531 C 0.72289064 5.5033364 0.72242045 5.5044744 0.72070312 5.5058594 L 0.72070312 5.5078125 C 0.71188741 5.5154897 0.70218207 5.5216282 0.69335938 5.5292969 L 0.69335938 5.5273438 C 0.65881251 5.5555273 0.62359333 5.5841368 0.58984375 5.6132812 C 0.60567971 5.5907243 0.62275508 5.5693665 0.63867188 5.546875 C 0.6552228 5.5365296 0.67059603 5.5254035 0.6875 5.515625 C 0.6841873 5.5069542 0.68266346 5.4975717 0.6796875 5.4882812 C 0.69426627 5.4679814 0.70785873 5.447857 0.72265625 5.4277344 z M 0.6875 5.515625 C 0.68904374 5.5196657 0.69173943 5.5234546 0.69335938 5.5273438 C 0.70230649 5.5200446 0.71171452 5.5131085 0.72070312 5.5058594 L 0.71875 5.5039062 L 0.71679688 5.5039062 L 0.71679688 5.5019531 L 0.71484375 5.5019531 L 0.71289062 5.5019531 L 0.7109375 5.5019531 C 0.70307778 5.506316 0.69527556 5.511127 0.6875 5.515625 z M 6.9296875 5.6855469 C 6.8483626 5.7734331 6.7682162 5.8614283 6.6875 5.9492188 C 6.5199771 6.151162 6.3550481 6.3540828 6.2011719 6.5664062 C 6.2602333 6.4206731 6.2906086 6.3447567 6.3945312 6.1777344 C 6.43125 6.1187208 6.55163 5.9842112 6.5585938 5.9628906 L 6.5585938 5.9609375 C 6.6873737 5.8581751 6.7714382 5.785315 6.9296875 5.6855469 z M 22.900391 5.9492188 C 22.985534 5.9511733 23.05984 5.9521271 23.126953 5.9511719 C 23.081944 6.4448491 23.035076 6.9381165 22.988281 7.4316406 C 22.984983 7.4340126 22.981807 7.4370715 22.978516 7.4394531 L 22.976562 7.4394531 L 22.976562 7.4414062 L 22.976562 7.4433594 L 22.976562 7.4453125 L 22.976562 7.4472656 L 22.978516 7.4472656 L 22.980469 7.4492188 C 22.982121 7.4502937 22.984123 7.4520114 22.986328 7.453125 C 22.953521 7.7993206 22.921273 8.1438714 22.890625 8.4902344 C 22.905291 7.8543361 22.912696 7.2202007 22.910156 6.5839844 L 22.757812 6.7167969 C 22.747698 6.5082866 22.732681 6.3000345 22.716797 6.0917969 C 22.779043 6.0468116 22.840985 5.9988492 22.900391 5.9492188 z M 7.8847656 6.4824219 L 7.8867188 6.4824219 L 7.8867188 6.484375 C 7.8856631 6.4873373 7.8840999 6.493426 7.8789062 6.5019531 C 7.8160866 6.6050917 7.7233879 6.6881388 7.6464844 6.78125 C 7.640641 6.7873413 7.6347503 6.7927375 7.6289062 6.7988281 C 7.6425718 6.7802772 7.6557769 6.7622847 7.6699219 6.7441406 C 7.7231239 6.6758976 7.8635667 6.4977558 7.8847656 6.4824219 z M 7.6113281 6.5996094 C 7.568805 6.6382351 7.5276799 6.6758545 7.4863281 6.7148438 C 7.4878141 6.710446 7.488745 6.7055683 7.4902344 6.7011719 C 7.5310828 6.6673024 7.5709864 6.6341856 7.6113281 6.5996094 z M 1.1933594 7.4335938 C 1.1553243 7.7426497 1.1218111 8.0512109 1.0917969 8.3613281 C 1.1028828 8.070479 1.1140287 7.7811435 1.1230469 7.4902344 C 1.1343897 7.4790454 1.1459686 7.4672779 1.1582031 7.4550781 C 1.1704936 7.4478169 1.1817067 7.4404342 1.1933594 7.4335938 z M 1.4941406 7.9785156 C 1.501989 8.4067299 1.5133977 8.8335607 1.5253906 9.2617188 C 1.5345803 9.4143831 1.540614 9.567993 1.546875 9.7207031 L 1.4785156 9.78125 C 1.4810526 9.5722761 1.4858059 9.2049081 1.484375 9.1640625 C 1.4820201 9.0964611 1.469813 9.030178 1.4628906 8.9628906 L 1.3925781 9.0234375 C 1.4171613 8.7132614 1.4454311 8.4030248 1.4804688 8.09375 C 1.4849921 8.0538232 1.4896992 8.0159359 1.4941406 7.9785156 z M 1.4785156 9.8378906 C 1.499161 10.490973 1.5058065 11.143234 1.5 11.796875 C 1.4981126 11.762971 1.4953632 11.734784 1.4941406 11.712891 C 1.4807666 11.116511 1.4730935 10.52232 1.4765625 9.9257812 C 1.4765664 9.9251132 1.4778582 9.8910653 1.4785156 9.8378906 z M 23.171875 11.876953 C 23.175571 12.042502 23.178922 12.207566 23.183594 12.373047 C 23.188782 12.616121 23.191776 12.858496 23.197266 13.101562 C 23.051339 13.215381 22.909736 13.332026 22.779297 13.462891 C 22.745207 13.497101 22.783556 13.559147 22.785156 13.607422 C 22.788556 13.713055 22.792969 13.820093 22.792969 13.925781 C 22.793004 14.237632 22.78814 14.551211 22.78125 14.863281 L 22.619141 15 C 22.61975 14.93977 22.621578 14.880516 22.623047 14.820312 C 22.627247 14.648181 22.631899 14.47485 22.636719 14.302734 C 22.658584 13.720648 22.650201 13.827715 22.695312 13.25 C 22.742655 13.201467 22.790815 13.154184 22.837891 13.105469 C 22.926027 13.03678 23.013525 12.93378 23.101562 12.884766 C 23.072713 12.875255 23.05505 12.86956 23.046875 12.863281 L 23.044922 12.861328 C 23.071607 12.823403 23.097278 12.785349 23.119141 12.744141 C 23.190001 12.610573 23.137084 12.441925 23.146484 12.291016 C 23.155085 12.152904 23.163061 12.015051 23.171875 11.876953 z M 16.773438 12.494141 C 16.778385 12.49704 16.784151 12.500988 16.789062 12.503906 C 16.779986 12.51075 16.770725 12.516725 16.761719 12.523438 C 16.765903 12.513665 16.769299 12.503833 16.773438 12.494141 z M 16.828125 12.527344 C 16.849345 12.540379 16.869765 12.553075 16.890625 12.566406 C 16.873974 12.583962 16.858509 12.601657 16.841797 12.619141 C 16.793627 12.669531 16.756716 12.729428 16.714844 12.785156 C 16.6859 12.823672 16.657771 12.863767 16.628906 12.902344 C 16.577989 12.931728 16.527169 12.960317 16.476562 12.990234 C 16.506057 12.953611 16.533323 12.915754 16.5625 12.878906 C 16.585918 12.852233 16.607073 12.824 16.626953 12.792969 C 16.695093 12.704962 16.765342 12.619148 16.828125 12.527344 z M 16.208984 12.699219 L 16.210938 12.699219 L 16.210938 12.701172 C 16.210955 12.703266 16.209257 12.707835 16.208984 12.710938 C 16.209024 12.707846 16.208914 12.704473 16.208984 12.701172 L 16.208984 12.699219 z M 16.150391 12.841797 C 16.14398 12.85643 16.146717 12.852825 16.128906 12.886719 C 16.060884 12.924319 15.992177 12.961081 15.923828 12.998047 C 15.984094 12.954124 16.044345 12.911897 16.105469 12.869141 C 16.123445 12.85773 16.13801 12.848725 16.150391 12.841797 z M 17.326172 12.84375 C 17.429447 12.907691 17.533519 12.971109 17.636719 13.035156 C 17.514364 13.101486 17.391412 13.168994 17.269531 13.236328 C 17.298075 13.194031 17.326591 13.15074 17.353516 13.107422 C 17.35837 13.099612 17.360431 13.093673 17.361328 13.089844 L 17.361328 13.087891 L 17.361328 13.085938 L 17.361328 13.083984 L 17.359375 13.083984 L 17.357422 13.083984 L 17.355469 13.085938 C 17.35232 13.086761 17.348812 13.087098 17.34375 13.089844 C 17.344365 13.088361 17.345325 13.085188 17.345703 13.083984 L 17.345703 13.082031 L 17.345703 13.080078 L 17.34375 13.078125 L 17.341797 13.078125 L 17.339844 13.078125 C 17.318268 13.084509 17.241108 13.158593 17.171875 13.21875 L 17.169922 13.21875 C 17.089877 13.216066 17.017235 13.233337 16.949219 13.261719 C 17.082226 13.127666 17.208595 12.987254 17.326172 12.84375 z M 18.328125 13.279297 C 18.258429 13.295368 18.214126 13.30482 18.197266 13.304688 L 18.195312 13.304688 L 18.193359 13.304688 L 18.191406 13.302734 L 18.191406 13.300781 L 18.191406 13.298828 L 18.193359 13.296875 L 18.195312 13.294922 C 18.197609 13.292164 18.200461 13.289152 18.205078 13.285156 C 18.245894 13.28118 18.286652 13.278931 18.328125 13.279297 z M 17.257812 13.660156 L 17.259766 13.660156 C 17.25951 13.674196 17.25345 13.687552 17.25 13.701172 C 17.234195 13.758277 17.20229 13.820513 17.166016 13.878906 C 17.093946 13.940379 17.021053 13.999587 16.945312 14.056641 C 16.749084 14.205285 16.558521 14.36106 16.355469 14.5 C 16.421699 14.423452 16.497979 14.33201 16.589844 14.220703 L 16.591797 14.21875 C 16.592313 14.217983 16.593342 14.213663 16.59375 14.212891 L 16.59375 14.210938 L 16.595703 14.208984 L 16.595703 14.207031 C 16.595714 14.206245 16.59383 14.20196 16.59375 14.201172 L 16.59375 14.199219 L 16.59375 14.197266 C 16.586485 14.179926 16.559695 14.16126 16.533203 14.148438 C 16.62009 14.097488 16.702024 14.036829 16.785156 13.982422 C 16.882466 13.913822 16.976876 13.843028 17.076172 13.777344 C 17.116272 13.750814 17.157983 13.725892 17.199219 13.701172 C 17.215999 13.691112 17.23394 13.683045 17.25 13.671875 L 17.251953 13.671875 L 17.251953 13.669922 L 17.253906 13.667969 C 17.25503 13.666225 17.256869 13.661884 17.257812 13.660156 z M 15.242188 13.695312 C 15.079372 13.780198 14.91494 13.861775 14.746094 13.935547 C 14.623022 13.995036 14.500365 14.053932 14.378906 14.117188 C 14.357647 14.122088 14.335739 14.128037 14.314453 14.132812 C 14.364624 14.102415 14.414585 14.072262 14.464844 14.042969 C 14.512392 14.011699 14.559671 13.980185 14.607422 13.949219 C 14.817905 13.862071 15.030223 13.778861 15.242188 13.695312 z M 17.066406 14.019531 C 17.020105 14.077885 16.981269 14.118127 16.972656 14.125 C 16.979652 14.115263 17.007795 14.081624 17.066406 14.019531 z M 16.308594 14.130859 C 16.307413 14.152809 16.317282 14.173502 16.345703 14.197266 C 16.186055 14.263067 16.022927 14.32367 15.859375 14.378906 C 16.00916 14.296211 16.158355 14.212715 16.308594 14.130859 z M 6.8671875 14.21875 C 6.8982505 14.242253 6.9280087 14.263053 6.9570312 14.283203 C 7.015353 14.347327 7.0666413 14.403811 7.1152344 14.457031 C 7.0266823 14.383233 6.9422771 14.306212 6.8671875 14.21875 z M 1.1992188 14.277344 C 1.2037487 14.333632 1.2087235 14.39094 1.2128906 14.447266 L 1.1953125 14.460938 C 1.1970017 14.399503 1.1976023 14.33878 1.1992188 14.277344 z M 12.896484 14.335938 C 12.863582 14.348517 12.82983 14.360612 12.796875 14.373047 C 12.768018 14.375901 12.739811 14.378179 12.710938 14.380859 C 12.772844 14.365826 12.834818 14.35153 12.896484 14.335938 z M 13.013672 15.0625 C 12.96158 15.097939 12.90898 15.132865 12.855469 15.166016 C 12.414036 15.272972 11.962634 15.332539 11.501953 15.320312 C 11.417464 15.318071 11.341887 15.315506 11.269531 15.310547 C 11.385664 15.26924 11.499789 15.226711 11.615234 15.183594 C 11.822383 15.183297 12.031153 15.169633 12.238281 15.164062 C 12.496838 15.136745 12.755364 15.104983 13.013672 15.0625 z M 10.558594 15.115234 C 10.79271 15.142712 11.027643 15.162975 11.263672 15.173828 L 11.162109 15.300781 C 10.847711 15.271811 10.613089 15.216216 10.234375 15.144531 C 10.194854 15.135649 10.156476 15.126763 10.117188 15.117188 C 10.295275 15.119145 10.431625 15.11777 10.558594 15.115234 z M 12.126953 16.037109 C 12.072459 16.048155 12.017549 16.060375 11.962891 16.070312 C 11.973746 16.065481 11.985295 16.059629 11.996094 16.054688 C 12.039875 16.049286 12.083239 16.042965 12.126953 16.037109 z M 1.703125 16.71875 C 1.7621403 17.297753 1.8472071 17.873886 1.9199219 18.451172 C 1.9929339 19.117774 2.0231898 19.787666 2.0878906 20.455078 C 2.1009076 20.540508 2.1134841 20.625577 2.1269531 20.710938 C 2.1402841 20.795427 2.1588949 20.880023 2.1699219 20.964844 C 2.1864923 21.092311 2.1963005 21.221335 2.2050781 21.349609 C 2.1502858 21.347665 2.0958274 21.345324 2.0410156 21.34375 C 1.9830016 20.855223 1.9569845 20.363026 1.9277344 19.871094 C 1.8598767 18.819711 1.731612 17.772639 1.703125 16.71875 z M 6.703125 17.9375 L 6.1933594 18.535156 C 6.0685413 18.587387 6.0498922 18.744684 5.7265625 19.330078 C 5.7250501 19.332816 5.7232653 19.337319 5.7226562 19.339844 L 5.7226562 19.341797 L 5.7226562 19.34375 L 5.7226562 19.345703 L 5.7226562 19.347656 L 5.7226562 19.349609 L 5.7246094 19.351562 C 5.7255688 19.353708 5.726891 19.355442 5.7285156 19.357422 C 5.7392575 19.338573 5.7565176 19.309678 5.78125 19.267578 C 5.792541 19.266556 5.8031613 19.266561 5.8144531 19.265625 C 5.7773092 19.310284 5.7509863 19.343125 5.734375 19.363281 C 5.7618003 19.386056 5.8315578 19.398395 5.8671875 19.414062 C 5.9416755 19.446813 6.0182249 19.476491 6.0976562 19.494141 C 6.2520362 19.528461 6.8817867 19.600789 6.9980469 19.615234 C 8.0585588 19.707644 9.1092725 19.883281 10.167969 19.992188 C 10.873363 20.064747 11.581265 20.123363 12.287109 20.191406 C 12.529257 20.206584 12.769549 20.224002 13.011719 20.242188 C 13.256329 20.27787 13.503516 20.308815 13.748047 20.339844 C 14.011251 20.367254 14.256013 20.402255 14.521484 20.390625 C 14.618816 20.386362 14.720337 20.37615 14.822266 20.361328 C 14.9466 20.366279 15.070901 20.368498 15.195312 20.371094 C 15.957866 20.387004 16.71956 20.345154 17.480469 20.302734 C 18.030272 20.325154 18.506927 20.089348 18.998047 19.882812 L 19.023438 19.851562 C 18.576723 19.644054 18.505245 19.634293 17.960938 19.730469 C 17.413145 19.788969 17.216214 19.816652 16.765625 19.841797 C 16.881857 19.688189 16.995678 19.532969 17.111328 19.378906 C 17.131289 19.357329 17.151891 19.336009 17.171875 19.314453 C 17.167029 19.316286 17.161253 19.316973 17.15625 19.318359 C 17.160939 19.31216 17.167178 19.305022 17.171875 19.298828 C 16.903898 19.264917 16.637529 19.22924 16.371094 19.195312 C 16.385599 19.184536 16.399481 19.172795 16.414062 19.162109 L 16.414062 19.164062 L 16.414062 19.166016 L 16.414062 19.167969 L 16.414062 19.169922 L 16.414062 19.171875 L 16.414062 19.173828 L 16.416016 19.175781 C 16.41664 19.176617 16.419168 19.180829 16.419922 19.181641 C 16.439164 19.198909 16.488496 19.210395 16.511719 19.199219 C 16.51267 19.19862 16.51674 19.196005 16.517578 19.195312 L 16.519531 19.195312 L 16.519531 19.193359 L 16.521484 19.191406 L 16.521484 19.189453 L 16.521484 19.1875 L 16.521484 19.185547 L 16.521484 19.183594 L 16.519531 19.181641 C 16.508258 19.170695 16.472784 19.160702 16.447266 19.154297 C 16.438238 19.155562 16.430903 19.156937 16.421875 19.158203 C 16.420315 19.159344 16.417575 19.159014 16.416016 19.160156 L 16.416016 19.158203 C 16.417476 19.157998 16.420415 19.158408 16.421875 19.158203 C 16.425447 19.155591 16.428065 19.152998 16.431641 19.150391 C 16.436411 19.151565 16.441256 19.152788 16.447266 19.154297 C 16.512884 19.145102 16.578871 19.135817 16.644531 19.126953 C 17.407788 19.032713 17.146543 19.060184 17.863281 18.990234 C 18.587474 18.919554 18.039433 18.9809 18.582031 18.90625 C 18.644291 18.89765 18.722124 18.924072 18.769531 18.882812 C 18.789418 18.865502 18.810789 18.848005 18.830078 18.830078 C 19.049643 18.62585 19.231562 18.384357 19.435547 18.164062 C 19.401871 18.164744 19.369616 18.165469 19.335938 18.166016 C 19.33624 18.164915 19.335828 18.163039 19.335938 18.162109 L 19.335938 18.160156 L 19.335938 18.158203 L 19.333984 18.158203 L 19.333984 18.15625 L 19.332031 18.15625 L 19.332031 18.154297 L 19.330078 18.154297 L 19.328125 18.154297 L 19.326172 18.154297 C 19.317852 18.154978 19.304415 18.159225 19.289062 18.166016 C 18.327969 18.179924 17.365248 18.142388 16.404297 18.142578 C 15.047412 18.110158 15.740533 18.129897 14.328125 18.085938 C 13.236954 18.058528 12.143715 18.053661 11.052734 18.019531 C 10.733161 18.009531 10.415125 17.990572 10.095703 17.976562 C 9.3112211 17.957293 8.5269261 17.948589 7.7421875 17.949219 C 7.7199875 17.949236 6.9618279 17.956425 6.8535156 17.953125 C 6.8035376 17.951625 6.7528624 17.94263 6.703125 17.9375 z M 17.171875 19.314453 C 17.174952 19.313289 17.178644 19.311935 17.181641 19.310547 L 17.181641 19.308594 L 17.183594 19.308594 C 17.192418 19.300869 17.204729 19.282721 17.207031 19.277344 L 17.205078 19.277344 C 17.193759 19.289536 17.183186 19.302253 17.171875 19.314453 z M 5.734375 19.363281 C 5.7321956 19.361471 5.730122 19.359379 5.7285156 19.357422 C 5.7212191 19.370225 5.7160264 19.379478 5.7148438 19.382812 L 5.7167969 19.382812 C 5.7195369 19.3804 5.7259811 19.373467 5.734375 19.363281 z M 13.441406 19.472656 C 13.496431 19.512751 13.550484 19.552395 13.609375 19.585938 C 13.452547 19.562004 13.297596 19.534211 13.142578 19.501953 C 13.234495 19.492983 13.336749 19.482925 13.441406 19.472656 z M 11.751953 19.587891 L 11.689453 19.65625 C 11.664652 19.653437 11.640021 19.65138 11.615234 19.648438 C 11.481039 19.632508 11.341215 19.613579 11.197266 19.59375 C 11.382234 19.594435 11.566891 19.592594 11.751953 19.587891 z M 0.96484375 21.130859 C 0.98317681 21.216902 1.0053313 21.311609 1.0351562 21.419922 C 1.0788282 21.578522 1.1576231 21.726181 1.21875 21.878906 L 1.25 21.851562 C 1.3098414 21.576951 1.3627043 21.355805 1.40625 21.136719 C 1.4085501 21.367238 1.4156666 21.598075 1.4335938 21.828125 C 1.4375044 21.878307 1.4414045 21.933023 1.4472656 21.990234 L 1.4003906 22.042969 C 1.4182017 22.045786 1.4373348 22.049247 1.4550781 22.052734 C 1.4579608 22.079551 1.4598857 22.105982 1.4628906 22.132812 C 1.3942804 22.127198 1.3265148 22.121494 1.2578125 22.117188 C 1.2023195 22.113688 1.1309666 22.075821 1.0898438 22.113281 C 1.0056187 22.189927 0.92927417 22.258811 0.859375 22.322266 C 0.86893457 22.246103 0.88581822 22.171147 0.87695312 22.09375 C 0.882703 21.770998 0.923408 21.450417 0.96484375 21.130859 z M 2.1640625 22.056641 C 2.1648536 22.058731 2.1673206 22.062939 2.1679688 22.064453 L 2.1679688 22.066406 L 2.1699219 22.066406 L 2.1699219 22.064453 C 2.1700808 22.062165 2.1699594 22.058903 2.1699219 22.056641 C 2.1876872 22.056382 2.2048925 22.056688 2.2226562 22.056641 C 2.2359977 22.056603 2.2503347 22.056629 2.2636719 22.056641 C 2.26845 22.089776 2.2736584 22.126686 2.2792969 22.166016 C 2.20388 22.164875 2.1281446 22.163992 2.0527344 22.162109 C 2.0773229 22.127914 2.1005149 22.094143 2.1230469 22.058594 C 2.1365979 22.058286 2.1505121 22.056853 2.1640625 22.056641 z M 2.8261719 22.068359 C 3.0794139 22.078491 3.332354 22.094351 3.5859375 22.107422 C 4.5363962 22.139542 5.4884784 22.11151 6.4394531 22.125 C 7.2286722 22.1349 8.0175503 22.109863 8.8066406 22.126953 C 9.1503966 22.134556 9.4935507 22.153001 9.8359375 22.181641 C 8.9729072 22.165389 8.1085057 22.171341 7.2460938 22.21875 C 7.1871231 22.221683 7.129291 22.225724 7.0703125 22.228516 C 6.9720754 22.222546 6.8736637 22.216273 6.7753906 22.210938 C 5.8045946 22.195307 4.8322546 22.171229 3.8613281 22.167969 C 3.498156 22.166738 3.1346796 22.170203 2.7714844 22.169922 C 2.790873 22.138885 2.8093206 22.107696 2.8242188 22.074219 C 2.8249273 22.072627 2.8254936 22.069975 2.8261719 22.068359 z M 8.3144531 22.78125 C 8.3756443 22.785787 8.4368675 22.790191 8.4980469 22.794922 C 7.6893799 22.86586 6.8806964 22.938236 6.0703125 22.986328 C 5.9930886 22.99091 5.9151585 22.996265 5.8378906 23 C 5.7496789 22.998522 5.6624311 22.995598 5.5742188 22.994141 C 5.6221732 22.989539 5.6688572 22.985249 5.7167969 22.980469 C 6.5821803 22.906898 7.4485576 22.841527 8.3144531 22.78125 z M 12.716797 22.845703 C 13.504036 22.843233 14.291071 22.83543 15.078125 22.859375 L 15.060547 22.878906 C 15.2527 22.906936 15.450389 22.915381 15.638672 22.962891 C 15.77796 22.998042 15.88283 23.027403 15.962891 23.052734 C 15.154724 23.053547 14.345277 23.039802 13.537109 23.037109 C 13.229598 23.033213 12.922738 23.031148 12.615234 23.029297 C 12.637665 22.984887 12.663697 22.92979 12.693359 22.865234 C 12.701307 22.858498 12.709107 22.852248 12.716797 22.845703 z " />
</svg>
