<?xml version="1.0" encoding="UTF-8" standalone="no"?>
<svg
   viewBox="0 0 50 50"
   width="40"
   height="40"
   version="1.1"
   id="svg1"
   sodipodi:docname="close.svg"
   inkscape:version="1.4.1-rc (d9e8dc1fe0, 2025-03-10)"
   xmlns:inkscape="http://www.inkscape.org/namespaces/inkscape"
   xmlns:sodipodi="http://sodipodi.sourceforge.net/DTD/sodipodi-0.dtd"
   xmlns="http://www.w3.org/2000/svg"
   xmlns:svg="http://www.w3.org/2000/svg">
  <sodipodi:namedview
     id="namedview1"
     pagecolor="#505050"
     bordercolor="#eeeeee"
     borderopacity="1"
     inkscape:showpageshadow="0"
     inkscape:pageopacity="0"
     inkscape:pagecheckerboard="0"
     inkscape:deskcolor="#505050"
     inkscape:zoom="2.6339869"
     inkscape:cx="78.01861"
     inkscape:cy="75.171216"
     inkscape:window-width="1920"
     inkscape:window-height="1011"
     inkscape:window-x="0"
     inkscape:window-y="32"
     inkscape:window-maximized="1"
     inkscape:current-layer="svg1" />
  <defs
     id="defs1" />
  <path
     id="path1"
     style="fill:#1a1a1a;stroke-width:3.75;stroke-linejoin:round"
     d="M 3.0444336 -0.17089844 L 2.0849609 0.7421875 C 2.0898282 0.78861917 2.0823579 0.83767071 2.097168 0.88134766 L 1.574707 1.3793945 C 1.578407 1.4152685 1.5732871 1.4534252 1.5869141 1.4868164 C 1.6300234 1.5924746 1.6878334 1.6752343 1.7553711 1.7529297 L 1.1401367 2.3168945 C 1.2268282 2.4802606 1.3384762 2.6287805 1.4624023 2.7661133 L 1.0522461 3.1762695 C 1.0127228 3.1411297 0.97127218 3.1079423 0.93017578 3.0761719 C 0.88121906 3.0383248 0.82271706 3.014192 0.76904297 2.9833984 L -0.30761719 4.1333008 C -0.28074359 4.1724628 -0.25786958 4.2143481 -0.22705078 4.2504883 C -0.16401668 4.3244043 -0.092734079 4.3914982 -0.026855469 4.4628906 C 0.066907321 4.5645006 0.15765534 4.6689405 0.25146484 4.7705078 C 0.37197046 4.9009788 0.49428227 5.0286342 0.61523438 5.1586914 C 0.76376267 5.3184007 0.90641726 5.4843684 1.0595703 5.6396484 C 1.2544372 5.8372217 1.4603535 6.0232398 1.6601562 6.2158203 C 2.4326575 6.9383896 2.2662471 6.8431266 2.5024414 6.9213867 L 2.1557617 7.3144531 C 2.6489533 7.3525191 3.0452102 7.6853543 3.425293 7.96875 C 4.1083818 8.478072 3.9490359 8.3640415 4.6118164 8.9526367 C 5.2446114 9.5363786 5.8136332 10.18299 6.4038086 10.808105 C 6.6132114 11.029905 6.828647 11.245982 7.0385742 11.467285 C 7.3442869 11.789565 7.9883998 12.488058 8.2910156 12.814941 C 8.4976181 13.038649 8.6947181 13.272098 8.9111328 13.486328 C 9.1711979 13.743767 9.4527631 13.977718 9.7192383 14.228516 C 10.006514 14.498891 10.289138 14.773109 10.571289 15.048828 C 10.861118 15.33205 11.149624 15.618597 11.435547 15.905762 C 11.723225 16.19469 12.000426 16.492839 12.29248 16.777344 C 12.639636 17.115526 12.998826 17.441598 13.352051 17.773438 C 13.729711 18.127339 14.102261 18.486894 14.484863 18.835449 C 14.915862 19.228093 15.362028 19.605387 15.793457 19.997559 C 15.892009 20.087144 15.983308 20.167955 16.066895 20.244141 C 16.341443 20.592112 16.611115 20.944692 16.877441 21.298828 C 17.883461 22.608255 16.851041 21.238727 17.807617 22.580566 C 17.974026 22.813998 18.153052 23.038662 18.320312 23.271484 C 18.487696 23.504475 18.646304 23.74462 18.811035 23.979492 C 19.342512 24.737268 19.220778 24.561201 19.758301 25.290527 C 19.825987 25.374683 19.892917 25.4581 19.960938 25.541992 C 19.667362 25.820247 19.372599 26.095961 19.074707 26.369629 C 18.895698 26.208171 18.711369 26.053046 18.520508 25.905762 C 18.519146 25.904711 18.514488 25.90164 18.513184 25.900879 L 18.510742 25.900879 L 18.508301 25.898438 L 18.505859 25.898438 L 18.503418 25.898438 L 18.500977 25.900879 L 18.498535 25.900879 L 18.496094 25.90332 L 18.493652 25.905762 C 18.492668 25.90666 18.487278 25.909562 18.486328 25.910645 C 18.466148 25.938245 18.454961 26.006715 18.435059 26.044922 C 18.426228 26.037238 18.417015 26.028211 18.408203 26.020508 C 18.411669 26.034608 18.41739 26.050423 18.422852 26.064453 C 18.062444 26.581412 17.651192 27.061664 17.290039 27.578125 C 17.282348 27.588089 17.275761 27.599902 17.268066 27.609863 C 17.240592 27.634562 17.212957 27.658985 17.185059 27.683105 C 16.515142 28.262296 15.854766 28.851521 15.183105 29.428711 C 14.824319 29.732194 14.461753 30.031806 14.106445 30.339355 C 12.312925 31.891797 10.596824 33.533911 8.762207 35.039062 C 8.4234259 35.330396 8.0833043 35.619377 7.746582 35.913086 C 6.3659163 37.117384 7.2469438 36.378937 5.8642578 37.568359 C 5.5631245 37.827402 5.2536997 38.074359 4.9560547 38.337402 C 4.3158543 38.903179 4.1199902 39.084549 4.0942383 39.116211 L 4.0942383 39.118652 L 4.0942383 39.121094 C 4.1316256 39.106246 4.6985819 38.620097 3.3862305 39.724121 C 2.7887759 40.266018 2.1925774 40.816591 1.550293 41.306152 C 1.1836026 41.58565 1.0795629 41.638229 0.72998047 41.865234 C 0.67713377 41.899544 0.62372637 41.935272 0.57128906 41.970215 L 1.4575195 42.854004 C 1.2184316 43.02423 0.976415 43.193352 0.73242188 43.356934 C 0.66279048 43.400573 0.52637637 43.479092 0.41748047 43.544922 L 0.33447266 43.579102 C 0.30926867 43.591662 0.12488008 43.713991 0.095214844 43.757324 L 0.095214844 43.759766 L 0.095214844 43.762207 L 0.095214844 43.764648 C 0.10821629 43.829448 0.14415181 43.953819 0.20507812 43.928223 C 0.52890314 43.792177 0.76446257 43.691523 0.94726562 43.603516 C 0.88079048 43.65533 0.81247995 43.704706 0.74707031 43.752441 C 0.54739757 43.898161 0.32078162 44.002877 0.1171875 44.143066 C 0.03956558 44.196516 -0.022496948 44.268262 -0.092773438 44.331055 L 0.93017578 45.354004 L 0.93017578 45.356445 C 0.92813358 45.386933 0.9330595 45.420829 0.94726562 45.458984 C 1.0886556 45.838737 1.2851153 45.97213 1.3208008 46.015625 L 1.3232422 46.018066 L 1.3232422 46.020508 L 1.3256836 46.020508 L 1.3256836 46.022949 L 1.3256836 46.025391 L 1.3232422 46.027832 L 1.3208008 46.027832 L 1.3208008 46.030273 C 1.3198935 46.030645 1.3146385 46.029969 1.3134766 46.030273 C 1.2935503 46.033669 1.2478692 46.031612 1.1669922 46.030273 L 1.2158203 46.088867 C 1.323902 46.089242 1.3699069 46.088184 1.3891602 46.09375 L 1.3916016 46.096191 L 1.394043 46.096191 L 1.3964844 46.098633 L 1.3989258 46.101074 L 1.3989258 46.103516 L 1.4013672 46.105957 L 1.4013672 46.108398 C 1.4138789 46.145075 1.4012022 46.251737 1.9897461 46.564941 C 2.0844241 46.615331 2.2037429 46.621404 2.3095703 46.604004 C 2.3470651 46.59784 2.3800044 46.581543 2.4121094 46.560059 C 2.3515574 46.611059 2.290508 46.659482 2.2265625 46.706543 L 3.2446289 47.724609 L 3.2446289 47.727051 C 3.1607428 47.860089 3.107129 47.996352 3.1347656 48.112793 C 3.4217744 48.723621 3.3575698 48.455002 3.4277344 48.894043 L 3.4790039 48.947754 C 3.9037913 48.997254 3.6445347 48.9434 4.2382812 49.20166 C 4.4752229 49.2458 4.8526121 48.803688 5.0170898 48.657227 C 5.332187 48.376928 5.6257633 48.074967 5.9228516 47.775879 C 6.1782482 47.513903 6.4250173 47.240413 6.6870117 46.984863 C 7.0679169 46.613328 7.4681863 46.263069 7.8344727 45.876465 C 8.3764809 45.35754 8.1143846 45.623991 8.6181641 45.085449 C 8.7499435 44.944576 8.8841067 44.808173 9.0112305 44.663086 C 9.4195784 44.197034 9.7822353 43.688782 10.227051 43.254395 C 10.375004 43.107215 10.529723 42.965743 10.671387 42.8125 C 10.796586 42.677067 10.908349 42.530639 11.027832 42.390137 C 11.376703 41.979893 11.727478 41.569382 12.08252 41.164551 C 12.535394 40.888701 12.999431 40.633813 13.47168 40.395508 C 14.576744 39.736447 15.665958 39.05343 16.767578 38.388672 C 16.987906 38.263117 17.211739 38.140715 17.429199 38.010254 C 17.828194 37.770884 18.214205 37.510382 18.608398 37.263184 C 19.157045 36.919127 19.705137 36.576683 20.212402 36.171875 C 20.66304 35.841958 20.824157 35.716642 21.291504 35.402832 C 21.48128 35.275404 21.676177 35.15412 21.867676 35.029297 C 22.053413 34.908226 22.235898 34.782383 22.424316 34.665527 C 22.609115 34.550916 22.800802 34.450164 22.98584 34.335938 C 23.151487 34.233683 23.311032 34.122399 23.474121 34.016113 C 23.529531 33.979403 24.389318 33.411191 24.443359 33.374023 C 25.111113 32.914757 25.762597 32.430946 26.442871 31.989746 C 26.534005 31.927614 26.623062 31.864384 26.713867 31.801758 C 26.772705 31.850205 26.83303 31.900042 26.89209 31.948242 C 27.084946 32.111862 27.27801 32.275154 27.470703 32.438965 C 27.654561 32.595265 27.831159 32.757498 28.02002 32.907715 C 28.223081 33.069226 28.436998 33.216509 28.64502 33.371582 C 28.862247 33.53701 29.083226 33.699604 29.296875 33.869629 C 29.803495 34.272805 30.035892 34.489873 30.517578 34.916992 C 30.869786 35.254758 31.265932 35.637479 31.623535 35.969238 C 31.827003 36.158001 32.038268 36.338853 32.23877 36.530762 C 32.441785 36.725077 32.635006 36.92851 32.834473 37.126465 C 33.057224 37.347529 33.284791 37.562945 33.503418 37.788086 C 33.724594 38.01585 33.936911 38.253578 34.152832 38.486328 C 34.349242 38.7169 34.548431 38.94363 34.741211 39.177246 C 34.746011 39.182946 35.737115 40.425871 35.761719 40.456543 C 36.189191 40.989458 36.62123 41.516225 37.055664 42.043457 C 37.670064 42.73191 38.266141 43.440275 38.930664 44.082031 C 39.051077 44.198318 39.174109 44.307583 39.296875 44.421387 C 39.899855 45.009236 40.564545 45.533781 41.14502 46.14502 C 41.262633 46.26887 41.372835 46.401127 41.486816 46.52832 C 41.986561 47.113906 42.430257 47.742697 42.912598 48.342285 C 43.08692 48.531242 43.06622 48.524377 43.278809 48.686523 C 43.349739 48.740623 43.409355 48.838073 43.498535 48.840332 C 43.511554 48.840661 43.95663 48.716042 44.233398 48.637695 C 44.295568 48.700499 44.356829 48.76285 44.418945 48.825684 C 44.538182 48.942734 44.659788 49.058989 44.777832 49.177246 C 44.862842 49.264806 44.946731 49.350916 45.031738 49.438477 C 45.048622 49.454191 45.065952 49.469328 45.083008 49.484863 C 45.099812 49.474569 45.119012 49.46543 45.13916 49.453125 C 45.142198 49.456693 45.144024 49.459857 45.146484 49.462891 C 45.174614 49.497581 45.197168 49.535766 45.222168 49.572754 C 45.20785 49.573809 45.193725 49.574236 45.180664 49.575195 C 45.192738 49.58668 45.205471 49.600062 45.217285 49.611816 C 45.23877 49.633198 45.25855 49.685677 45.27832 49.707031 L 45.280762 49.709473 L 45.283203 49.711914 L 45.285645 49.714355 L 45.288086 49.714355 L 45.290527 49.714355 L 45.292969 49.714355 L 45.29541 49.714355 L 45.297852 49.714355 L 45.300293 49.711914 C 45.301348 49.711292 45.304097 49.710329 45.305176 49.709473 C 45.728168 49.373901 46.060148 49.153903 46.311035 49.001465 C 46.606263 49.245656 46.89784 49.495724 47.189941 49.743652 C 47.262061 49.804862 47.33485 49.866433 47.409668 49.924316 C 47.43933 49.947266 47.476697 50.002965 47.507324 50.014648 C 47.508585 50.014977 47.513404 50.016931 47.514648 50.01709 C 47.515876 50.017068 47.520764 50.014861 47.521973 50.014648 C 47.523161 50.014233 47.528131 50.012837 47.529297 50.012207 C 47.53044 50.011353 47.533061 50.008415 47.53418 50.007324 C 48.02978 49.524366 48.453419 48.973873 48.913574 48.457031 C 48.841824 48.363161 48.773529 48.267729 48.69873 48.17627 C 48.608541 48.065993 48.515443 47.957395 48.422852 47.849121 C 48.84379 47.37479 49.180425 46.62353 49.182129 46.621094 C 49.240629 46.537434 49.090171 46.436863 49.040527 46.347656 C 48.857355 46.018526 48.831076 45.984192 48.679199 45.783691 C 49.042418 45.370539 49.375951 44.933245 49.724121 44.506836 C 49.698834 44.509883 49.669954 44.498872 49.643555 44.487305 C 49.683427 44.452305 49.72289 44.416852 49.763184 44.382324 L 49.765625 44.382324 L 49.768066 44.379883 L 49.770508 44.379883 L 49.772949 44.379883 L 49.775391 44.379883 L 49.775391 44.382324 L 49.777832 44.382324 L 49.777832 44.384766 C 49.778277 44.385813 49.779931 44.390802 49.780273 44.39209 C 49.782211 44.40411 49.781705 44.422652 49.777832 44.440918 C 49.799278 44.414843 49.819734 44.388755 49.841309 44.362793 C 49.518902 43.942567 49.187902 43.531005 48.828125 43.14209 C 48.839999 43.137562 48.850431 43.131969 48.862305 43.127441 L 48.916016 43.076172 C 48.964976 42.951347 49.013551 42.825026 49.0625 42.700195 C 49.1001 42.55382 49.193071 42.410762 49.174805 42.260742 C 49.161505 42.151505 48.72334 41.818066 48.686523 41.787109 C 48.292447 41.455751 47.905948 41.116232 47.51709 40.778809 C 46.86971 40.211258 47.197713 40.502698 46.533203 39.902344 C 45.711073 39.175875 44.876179 38.464256 44.038086 37.756348 C 43.789109 37.543774 43.54309 37.328031 43.291016 37.119141 C 42.440935 36.414689 41.56194 35.743577 40.717773 35.031738 C 40.398385 34.762418 40.085793 34.485537 39.770508 34.211426 C 39.447909 33.930959 39.12579 33.650205 38.803711 33.369141 C 38.48247 33.065136 38.163856 32.759194 37.841797 32.456055 C 37.525671 32.158501 37.201609 31.866859 36.889648 31.564941 C 36.351921 31.044524 35.594123 30.259487 35.063477 29.724121 C 34.786476 29.444657 34.504368 29.169756 34.228516 28.88916 C 33.952803 28.608706 33.681462 28.324837 33.408203 28.041992 C 33.182761 27.812769 32.959143 27.583294 32.734375 27.353516 C 33.369113 26.845192 33.999247 26.332062 34.631348 25.820312 C 34.902051 25.593522 34.961526 25.547259 35.002441 25.512695 C 34.999473 25.515513 34.998701 25.518658 34.997559 25.52002 C 35.007673 25.515426 35.103363 25.439972 35.43457 25.17334 C 35.557086 25.07472 35.67408 24.970092 35.795898 24.870605 C 36.172291 24.563207 36.560977 24.271955 36.943359 23.972168 C 37.027289 23.903998 37.595746 23.441298 37.675781 23.374023 C 38.186257 22.944935 38.686457 22.505953 39.213867 22.097168 C 39.341562 21.999698 39.469469 21.901669 39.597168 21.804199 C 39.71965 21.720069 39.846365 21.63868 39.96582 21.550293 C 40.380117 21.243749 40.7547 20.886589 41.162109 20.571289 C 41.790799 20.063008 42.406625 19.537163 43.007812 18.996582 C 43.56953 18.468382 44.115989 17.91952 44.736328 17.458496 C 45.270054 17.070396 45.816024 16.701485 46.342773 16.303711 C 46.686386 16.043556 47.037393 15.784435 47.353516 15.490723 C 47.440426 15.409973 47.5197 15.321734 47.60498 15.239258 C 47.69065 15.156398 47.779559 15.076964 47.866211 14.995117 C 48.382268 14.484362 48.888511 13.961311 49.438477 13.486328 C 49.529347 13.406598 49.797377 13.168279 49.899902 13.093262 C 50.096464 12.949446 50.318252 12.841473 50.534668 12.731934 L 49.541016 11.560059 C 49.436292 11.676191 49.304171 11.76084 49.187012 11.862793 C 49.122802 11.918663 49.063761 11.980877 48.999023 12.036133 C 48.843281 12.169064 48.68155 12.294317 48.525391 12.426758 C 48.254853 12.644785 48.016241 12.900102 47.76123 13.134766 C 47.66684 13.221636 47.567145 13.301644 47.470703 13.38623 C 47.281107 13.552517 47.093048 13.721913 46.904297 13.88916 C 46.402756 14.327477 45.837347 14.684794 45.302734 15.080566 C 44.763205 15.460921 44.242492 15.862392 43.73291 16.281738 C 43.124202 16.763937 42.561177 17.299439 41.994629 17.82959 C 41.408924 18.383609 40.765498 18.871199 40.151367 19.39209 C 39.847446 19.639963 39.535504 19.879502 39.223633 20.117188 C 39.126003 20.191588 39.023855 20.261892 38.930664 20.341797 C 38.817879 20.438507 38.715922 20.547065 38.605957 20.646973 C 38.486935 20.755118 38.365386 20.858146 38.244629 20.964355 C 37.507022 21.612894 36.731116 22.214918 35.961914 22.824707 C 35.589277 23.135553 35.20756 23.436126 34.821777 23.730469 C 34.696264 23.826229 34.56663 23.917491 34.443359 24.016113 C 34.311432 24.12166 34.187668 24.23542 34.057617 24.343262 C 33.922591 24.455234 33.786144 24.564811 33.649902 24.675293 C 33.02384 25.242466 32.361917 25.767567 31.694336 26.28418 C 31.455778 26.036986 31.218459 25.788352 30.981445 25.539551 C 30.702364 25.246589 30.422339 24.95435 30.144043 24.660645 C 30.023301 24.533218 29.904815 24.403372 29.785156 24.274902 C 30.598184 23.506065 31.380166 22.703361 32.097168 21.843262 C 32.566067 21.307876 33.043952 20.782384 33.520508 20.253906 C 34.066602 19.648314 34.600591 19.032827 35.166016 18.444824 C 35.515965 18.073546 35.715171 17.862413 35.817871 17.753906 C 35.626784 17.954082 35.290007 18.299782 36.328125 17.165527 C 36.53343 16.941209 36.751891 16.72992 36.958008 16.506348 C 37.58402 15.827323 38.1721 15.111446 38.820801 14.453125 C 40.399114 12.867747 38.601403 14.680086 40.114746 13.137207 C 40.965011 12.270348 41.841875 11.432177 42.670898 10.544434 C 43.136462 10.084132 43.575071 9.6476073 44.04541 9.1918945 C 44.277021 8.9674858 44.515109 8.7504833 44.743652 8.5229492 C 44.962897 8.30467 45.170045 8.0758313 45.388184 7.8564453 C 45.989242 7.2519488 46.103525 7.1579499 46.728516 6.5844727 C 46.946684 6.4056902 47.16722 6.2292399 47.382812 6.0473633 C 47.557542 5.8999609 47.725392 5.7452259 47.900391 5.5981445 C 48.176793 5.3658368 48.580354 5.042407 48.886719 4.8413086 C 49.020828 4.7532796 49.164991 4.6858893 49.301758 4.6020508 C 49.377208 4.5558048 49.448159 4.502664 49.521484 4.453125 L 48.491211 3.4082031 C 48.646264 3.2906875 48.805272 3.1770463 48.967285 3.0688477 L 48.212891 2.3486328 L 48.212891 2.3461914 C 48.222432 2.325582 48.229114 2.3049952 48.239746 2.2851562 L 47.094727 1.1401367 C 47.056687 1.1650567 47.01227 1.1813669 46.97998 1.2133789 C 46.92778 1.2651339 46.887405 1.3279374 46.843262 1.3867188 C 46.811723 1.4287119 46.780761 1.4707568 46.750488 1.5136719 L 45.776367 0.56396484 C 45.737755 0.64131059 45.706134 0.7217889 45.661621 0.79589844 C 45.613437 0.87613307 45.561224 0.95335979 45.507812 1.0302734 L 44.663086 0.21972656 C 44.638116 0.28836906 44.621694 0.35907463 44.589844 0.42480469 C 44.542434 0.52263039 44.483113 0.61534435 44.42627 0.70800781 C 44.211852 1.0575493 44.061484 1.2794978 43.796387 1.6088867 C 43.575537 1.8832977 42.995775 2.530734 42.780762 2.7734375 C 42.580879 2.979837 42.383052 3.1900964 42.180176 3.3935547 C 41.776875 3.7980139 41.360975 4.1909081 40.957031 4.5947266 C 40.399298 5.1522868 39.855741 5.719227 39.32373 6.3012695 C 39.153381 6.4844149 38.978491 6.6647923 38.811035 6.8505859 C 38.629647 7.051837 38.458985 7.2608018 38.276367 7.4609375 C 38.091232 7.6638305 37.899121 7.8599379 37.709961 8.059082 C 37.157162 8.6410558 36.599487 9.2024895 36.027832 9.765625 C 35.522076 10.310449 34.985653 10.826983 34.472656 11.364746 C 34.293171 11.552896 34.119836 11.745512 33.942871 11.936035 C 33.75458 12.138753 33.562262 12.336751 33.378906 12.543945 C 33.164991 12.785673 32.96028 13.037545 32.751465 13.283691 C 32.523812 13.532898 32.293974 13.780147 32.067871 14.030762 C 31.816583 14.30929 31.573745 14.59583 31.318359 14.870605 C 30.825732 15.40063 30.273617 15.941798 29.758301 16.450195 C 29.511044 16.694134 29.256491 16.931818 29.013672 17.180176 C 28.755464 17.444272 28.507565 17.719352 28.254395 17.988281 C 28.00152 18.245117 27.744201 18.494497 27.497559 18.757324 C 26.006585 20.346135 27.406495 18.948886 25.927734 20.446777 C 25.802336 20.315375 25.676102 20.183766 25.549316 20.053711 C 24.560204 19.039085 23.559462 18.038334 22.592773 17.001953 C 21.666704 16.169823 20.74382 15.333489 19.851074 14.465332 C 17.783032 12.454246 20.062304 14.645049 18.005371 12.602539 C 17.702191 12.301486 17.388521 12.011969 17.080078 11.716309 C 16.757995 11.41304 16.437526 11.106621 16.113281 10.805664 C 15.224934 9.9811225 14.964025 9.7893628 14.118652 8.9111328 C 14.065516 8.8559315 14.014384 8.8002724 13.962402 8.7451172 C 14.137385 8.8046194 14.424281 8.9111279 14.936523 9.128418 C 15.283753 9.2757108 15.617329 9.457675 15.957031 9.621582 L 16.008301 9.5654297 C 15.709797 9.3585896 15.38978 9.1796109 15.112305 8.9453125 C 14.327805 8.2828848 14.08883 8.0478857 14.072266 7.9980469 L 14.072266 7.9956055 L 14.072266 7.9931641 L 14.074707 7.9907227 L 14.077148 7.9907227 L 14.07959 7.9907227 C 14.113529 7.9906186 14.254524 8.0801895 14.343262 8.1396484 C 14.207771 8.0449266 13.863966 7.8028354 13.137207 7.277832 C 12.762617 7.0053212 12.383472 6.7395836 12.01416 6.4599609 C 11.930585 6.3966823 11.841713 6.3278828 11.750488 6.2573242 C 11.71785 6.220739 11.685431 6.1840813 11.652832 6.1474609 C 11.445835 5.8932238 11.241705 5.6383438 11.032715 5.3857422 C 10.875923 5.1962311 10.709456 5.0145097 10.556641 4.8217773 C 10.255482 4.4419521 10.060211 4.0273715 9.6264648 3.7841797 L 9.2480469 4.1699219 C 9.0817318 4.0164453 8.9152277 3.8625935 8.7451172 3.7133789 C 7.1984145 2.3566697 7.7301405 2.8470257 7.9516602 3.0493164 C 7.8358902 2.9443057 7.5739672 2.7071336 7.0605469 2.2436523 C 6.4241492 1.6317437 6.4002394 1.6286628 5.8447266 1.0327148 C 5.6181673 0.7896643 5.5556405 0.70120407 5.3466797 0.46875 C 5.2929572 0.40898763 5.246892 0.3418454 5.1831055 0.29296875 C 5.1376786 0.25816016 5.0791087 0.24551013 5.0268555 0.22216797 L 4.2114258 1.1083984 C 3.9534619 0.81505703 3.6972355 0.52245733 3.4472656 0.22216797 C 3.3910361 0.15461931 3.3335121 0.085880184 3.2788086 0.017089844 C 3.2396211 -0.032188896 3.2129538 -0.092166717 3.1640625 -0.13183594 C 3.1315188 -0.15824093 3.0843136 -0.15801482 3.0444336 -0.17089844 z M 49.777832 44.440918 C 49.760219 44.462332 49.741659 44.485356 49.724121 44.506836 C 49.732823 44.505787 49.740816 44.501775 49.748535 44.49707 L 49.750977 44.49707 L 49.753418 44.494629 L 49.755859 44.492188 C 49.764374 44.480989 49.773989 44.459043 49.777832 44.440918 z M 45.180664 49.575195 C 45.148582 49.544681 45.115753 49.514691 45.083008 49.484863 C 45.022806 49.521742 44.984438 49.547563 44.970703 49.562988 L 44.968262 49.56543 L 44.96582 49.567871 L 44.96582 49.570312 L 44.96582 49.572754 L 44.96582 49.575195 L 44.96582 49.577637 L 44.968262 49.577637 L 44.968262 49.580078 L 44.970703 49.580078 L 44.973145 49.580078 C 44.996989 49.586842 45.065561 49.583652 45.180664 49.575195 z M 5.3735352 2.4121094 C 5.7371301 2.6817735 6.1608119 2.9921489 6.2548828 3.0615234 L 7.1337891 3.7182617 C 7.4385619 3.9542291 7.7409564 4.1950096 8.0493164 4.4262695 C 8.4191423 4.7036268 8.7985914 4.9655387 9.1674805 5.2441406 C 10.092887 5.9430507 10.536426 6.3231546 11.442871 7.043457 C 11.786051 7.3161639 12.130702 7.5858938 12.475586 7.8564453 C 12.942779 8.2852118 13.398818 8.6975352 13.87207 9.1552734 C 14.827713 10.079588 14.881514 10.172441 15.795898 11.125488 C 16.10206 11.444596 16.411042 11.760021 16.71875 12.077637 C 17.014997 12.38535 17.306779 12.699511 17.607422 13.00293 C 17.91602 13.314376 18.233835 13.61438 18.544922 13.92334 C 18.853867 14.230172 19.1597 14.540921 19.467773 14.848633 C 20.348209 15.728039 21.23693 16.598032 22.124023 17.470703 C 23.097553 18.358856 23.249969 18.471325 24.182129 19.421387 C 24.512265 19.757865 24.828626 20.107953 25.153809 20.449219 C 25.280032 20.581684 25.406148 20.714573 25.532227 20.847168 C 25.524934 20.854517 25.517315 20.862029 25.510254 20.869141 C 25.297374 20.684215 24.925144 20.355523 24.301758 19.804688 C 22.965639 18.674437 22.619495 18.402085 21.30127 17.209473 C 20.800502 16.756423 20.311905 16.289208 19.814453 15.83252 C 19.338453 15.395529 18.853316 14.967708 18.381348 14.526367 C 17.914656 14.089959 17.47588 13.624076 16.999512 13.198242 C 16.570229 12.814499 16.110782 12.465883 15.666504 12.099609 C 15.023311 11.570312 13.657737 10.459579 13.032227 9.8950195 C 12.652482 9.5522771 12.301078 9.1760539 11.923828 8.8305664 C 11.702598 8.6279625 11.476311 8.4315714 11.247559 8.2373047 C 11.203966 8.1785166 11.161998 8.1194333 11.120605 8.059082 C 11.042795 7.9456353 10.979476 7.8245238 10.90332 7.7099609 C 10.861382 7.6468727 10.812194 7.5873561 10.766602 7.5268555 L 10.598145 7.6904297 C 10.573871 7.6699968 10.549146 7.6498604 10.524902 7.6293945 C 10.41171 7.4630684 10.306126 7.2921724 10.185547 7.1313477 C 9.9720815 6.8466358 9.7664328 6.5519239 9.5239258 6.2915039 C 9.3571656 6.1124257 8.1942854 5.1082513 8.0029297 4.9414062 C 7.5485765 4.5428989 6.9581457 4.0332889 6.5209961 3.6132812 C 6.12069 3.2286722 5.7445375 2.8244938 5.3735352 2.4121094 z M 45.869141 2.6708984 C 45.696222 2.8731426 45.527911 3.066465 45.441895 3.1665039 C 45.389361 3.2232159 45.333935 3.2812628 45.280762 3.3374023 L 45.185547 3.2373047 C 45.410145 3.0445969 45.638296 2.855766 45.869141 2.6708984 z M 4.597168 3.3569336 C 4.9619193 3.6750479 5.7054349 4.3209649 5.7666016 4.375 C 6.092298 4.6627224 6.4955039 5.0270414 6.8603516 5.3588867 L 6.5551758 5.690918 C 6.4629028 5.5946505 6.2972859 5.4102561 5.9375 5.0024414 C 5.2475299 4.2203652 5.2734028 4.2077593 4.6386719 3.4106445 C 4.6246592 3.393047 4.611229 3.3744922 4.597168 3.3569336 z M 47.849121 3.9257812 C 47.426039 4.3629677 46.948223 4.7451666 46.52832 5.1855469 C 46.333605 5.3897586 46.151921 5.6070738 45.964355 5.8178711 C 45.432025 6.3756554 45.22973 6.6014405 44.667969 7.1337891 C 44.443338 7.3466596 44.207631 7.5470484 43.981934 7.7587891 C 43.278509 8.4187174 42.5923 9.0997249 41.89209 9.7631836 C 40.771789 10.784303 39.682148 11.838222 38.642578 12.941895 C 38.426178 13.17164 38.216068 13.40736 38.00293 13.640137 C 37.38638 14.328124 36.734458 14.984805 36.103516 15.65918 C 35.895706 15.881296 35.69704 16.111782 35.488281 16.333008 C 35.291679 16.541352 35.0881 16.743552 34.887695 16.948242 L 34.299316 17.583008 C 33.233415 18.673698 32.179186 19.77583 31.103516 20.856934 C 30.53792 21.414608 30.004597 22.003983 29.433594 22.556152 C 29.21361 22.768879 28.964411 23.000779 28.73291 23.215332 C 28.668501 23.154131 28.604288 23.091149 28.540039 23.029785 C 28.558221 23.013285 28.575693 22.997599 28.59375 22.980957 C 29.358765 22.275883 30.044059 21.48698 30.822754 20.795898 C 31.186863 20.40977 31.550817 20.023305 31.916504 19.638672 C 32.307959 19.226938 32.706911 18.822453 33.095703 18.408203 C 33.498103 17.979455 33.889888 17.540676 34.289551 17.109375 C 35.555891 15.742785 36.837768 14.38895 38.212891 13.129883 C 39.39064 11.92438 40.56459 10.714087 41.777344 9.543457 C 42.160684 9.1734331 42.554003 8.8150901 42.939453 8.4472656 C 43.649123 7.7700466 44.345396 7.0774621 45.056152 6.4013672 C 46.433359 5.1271155 45.627583 5.8536457 46.960449 4.6972656 C 47.256003 4.4408465 47.549675 4.1789416 47.849121 3.9257812 z M 3.371582 4.5556641 C 3.5990219 4.7713093 3.821026 4.995149 4.0600586 5.1977539 C 4.4201717 5.5029873 4.8069005 5.7736287 5.1708984 6.0742188 C 5.8311304 6.6194395 6.8740747 7.5448971 7.5 8.1298828 C 7.5611977 8.1870778 7.622476 8.2454297 7.6831055 8.3032227 C 7.5164034 8.423287 7.3654004 8.5934006 7.253418 8.7719727 C 7.1676371 8.6844696 7.0804705 8.5981885 6.9946289 8.5107422 C 6.189241 7.6503504 5.3670574 6.8047413 4.5849609 5.9228516 C 4.3962589 5.7100717 4.2173671 5.4883524 4.0283203 5.2758789 C 3.8534375 5.0793242 3.6717124 4.8885052 3.4936523 4.6948242 C 3.4482298 4.6439219 3.4085091 4.5969976 3.371582 4.5556641 z M 45.615234 4.6166992 C 45.304106 4.9794602 45.283453 4.9818444 44.472656 5.8154297 C 43.923329 6.3551594 42.912922 7.3415902 42.380371 7.8881836 C 42.008473 8.2698861 41.649587 8.662149 41.279297 9.0454102 C 40.107957 10.257781 38.908339 11.441496 37.709961 12.626953 C 36.719815 13.69948 35.729956 14.774616 34.719238 15.827637 C 34.819745 15.704433 34.947509 15.549349 35.107422 15.354004 C 35.847785 14.4882 36.161741 14.096813 36.960449 13.266602 C 37.29594 12.917879 37.655177 12.592323 37.990723 12.243652 C 38.303275 11.918873 38.598064 11.578753 38.903809 11.247559 C 39.977307 10.084711 39.76907 10.312905 40.878906 9.1552734 C 41.101156 8.9321102 42.684943 7.3403268 42.924805 7.1044922 C 43.251515 6.7832677 43.583589 6.4677613 43.913574 6.1499023 C 44.206431 5.8678072 44.490152 5.577095 44.79248 5.3051758 C 45.058462 5.0659485 45.345067 4.8511656 45.615234 4.6166992 z M 4.8535156 5.1733398 C 5.0021795 5.3271722 5.1505144 5.4821228 5.2978516 5.637207 C 5.5482536 5.9007754 5.7985142 6.1631876 6.0473633 6.4282227 C 6.2903138 6.6869756 6.5205682 6.9569751 6.7724609 7.2070312 C 7.0160505 7.4488451 7.2785854 7.671049 7.5317383 7.902832 C 7.8002077 8.016908 7.9798281 8.0858244 8.1079102 8.1347656 C 7.9845785 8.1398535 7.8604918 8.1889804 7.7416992 8.2641602 C 7.6786271 8.2024552 7.6161428 8.1385287 7.5537109 8.0761719 C 7.09676 7.6197704 5.8433278 6.3127459 5.4125977 5.8325195 C 5.2202441 5.6180623 5.0383615 5.3943704 4.8535156 5.1733398 z M 43.029785 5.8544922 C 42.81213 6.0892838 42.595772 6.3252966 42.375488 6.5576172 C 41.711092 7.2583187 41.036566 7.9501109 40.368652 8.6474609 C 39.141569 9.8990636 39.570741 9.47595 38.33252 10.678711 C 38.009412 10.992566 37.672958 11.293865 37.36084 11.618652 C 37.024852 11.968278 36.719543 12.34301 36.391602 12.700195 C 35.957068 13.173479 34.92896 14.249263 34.475098 14.726562 C 34.310782 14.897879 34.179021 15.033473 34.074707 15.141602 L 33.864746 14.934082 C 34.035097 14.746984 34.206837 14.559416 34.377441 14.372559 C 36.052148 12.538307 35.437418 13.192133 37.226562 11.428223 C 37.502626 11.157967 39.543272 9.155359 39.875488 8.8354492 C 41.674349 7.103222 40.31782 8.4317501 42.021484 6.8237305 C 42.272304 6.5869917 42.515894 6.3458778 42.763672 6.105957 L 43.029785 5.8544922 z M 8.1274414 7.3608398 C 8.2304702 7.4390973 8.3479667 7.5313871 8.4985352 7.644043 C 9.1890498 8.1328013 9.8402801 8.6790793 10.515137 9.1918945 C 10.548345 9.224752 10.575836 9.2523765 10.595703 9.2724609 C 10.655639 9.3203753 10.835644 9.4747087 11.279297 9.8706055 C 11.964815 10.482333 12.275252 10.801249 12.956543 11.464844 C 13.044203 11.550773 13.132221 11.635598 13.220215 11.721191 L 12.902832 12.03125 C 13.020294 12.143949 13.032998 12.324516 13.137207 12.443848 C 13.259419 12.583795 13.423251 12.68162 13.562012 12.805176 C 13.74474 12.96788 13.930872 13.127932 14.101562 13.303223 C 14.304273 13.511397 14.48684 13.738169 14.680176 13.955078 C 14.899439 14.201073 15.120034 14.446441 15.339355 14.692383 C 16.650736 16.284665 17.896263 17.92888 19.191895 19.533691 C 18.434789 18.916841 17.690004 18.283287 16.958008 17.636719 C 16.862837 17.529739 16.760959 17.415368 16.650391 17.29248 C 16.213329 16.806724 15.75624 16.338843 15.314941 15.856934 C 15.192416 15.723133 15.070311 15.588761 14.94873 15.454102 C 14.941054 15.445147 14.928672 15.433203 14.914551 15.41748 C 14.674798 15.151694 14.438515 14.885341 14.199219 14.619141 C 14.177765 14.579623 14.151666 14.536499 14.128418 14.526367 L 14.125977 14.526367 L 14.123535 14.526367 L 14.121094 14.526367 L 14.118652 14.526367 L 14.116211 14.526367 C 14.096631 14.50462 14.077211 14.482183 14.057617 14.460449 C 13.04694 13.344671 12.021439 12.242285 11.044922 11.096191 C 10.798331 10.806779 10.554537 10.515401 10.3125 10.222168 C 10.111928 9.97917 9.9214719 9.7268577 9.7167969 9.4873047 C 9.5651028 9.3097606 9.4005952 9.142204 9.2431641 8.9697266 C 9.2017446 8.9288345 9.1053943 8.839754 9.0405273 8.7744141 C 8.2723931 8.0108078 8.5912716 8.4595413 8.1274414 7.3608398 z M 10.595703 9.2724609 C 10.582222 9.2616841 10.574292 9.2544058 10.571289 9.2529297 L 10.568848 9.2529297 L 10.568848 9.2553711 L 10.571289 9.2553711 L 10.571289 9.2578125 C 10.585972 9.2745267 10.636983 9.3218015 10.649414 9.3310547 C 10.648529 9.3284826 10.636939 9.314147 10.595703 9.2724609 z M 39.863281 7.9516602 C 39.725637 8.1048396 39.58679 8.2582886 39.448242 8.4106445 C 38.616182 9.325629 37.774782 10.23168 36.940918 11.14502 C 34.886851 13.415829 36.231211 11.966547 34.135742 14.135742 C 33.95975 14.317926 33.785837 14.499476 33.61084 14.682617 L 33.510742 14.584961 C 33.417063 14.772496 33.308326 14.950699 33.190918 15.12207 C 33.054433 15.264702 32.917964 15.407375 32.780762 15.549316 C 32.614727 15.721087 32.446602 15.8904 32.277832 16.05957 C 32.223615 16.087529 32.168739 16.115061 32.114258 16.142578 C 32.359662 15.834054 32.599038 15.519983 32.851562 15.217285 C 33.191716 14.809546 34.692667 13.097574 35.036621 12.727051 C 35.432691 12.300387 35.847361 11.890287 36.252441 11.472168 C 36.642931 11.069108 37.033821 10.666727 37.424316 10.263672 C 37.829538 9.8670405 38.228525 9.4647027 38.640137 9.074707 C 39.041868 8.6940741 39.455265 8.3255514 39.863281 7.9516602 z M 7.6269531 8.7890625 C 7.5768489 8.8500931 7.5216706 8.9152823 7.4633789 8.9868164 C 7.4516719 8.9748406 7.4409098 8.9646092 7.4291992 8.9526367 L 7.6269531 8.7890625 z M 8.3032227 9.8583984 C 8.3169116 9.8677004 8.3327387 9.8755608 8.347168 9.8852539 C 9.4613676 10.674747 10.461621 11.607327 11.42334 12.573242 C 11.769299 12.920711 12.103876 13.279408 12.446289 13.630371 C 12.847939 14.042051 13.251792 14.450473 13.654785 14.86084 C 13.669827 14.87615 13.686125 14.891921 13.701172 14.907227 C 13.535377 15.073455 13.375898 15.245517 13.217773 15.419922 C 12.647655 14.77262 12.06986 14.129971 11.474609 13.505859 C 11.364691 13.392361 11.255749 13.279208 11.14502 13.166504 L 11.176758 13.134766 C 9.7921083 11.828787 11.092333 13.151591 9.8217773 11.525879 C 9.5881253 11.226915 9.3199899 10.957202 9.0649414 10.67627 C 8.8146357 10.400561 8.5598468 10.128074 8.3032227 9.8583984 z M 14.553223 12.099609 C 14.753994 12.25981 14.960696 12.424989 15.178223 12.597656 C 16.078881 13.416012 17.070308 14.126899 17.988281 14.924316 C 18.282201 15.179636 18.564208 15.448317 18.847656 15.715332 L 18.525391 16.037598 C 18.307917 15.833332 18.061874 15.597463 17.749023 15.292969 C 17.354027 14.908523 16.974967 14.510085 16.582031 14.123535 C 15.969976 13.52143 15.343624 12.931566 14.73877 12.321777 C 14.676434 12.248263 14.614189 12.174279 14.553223 12.099609 z M 19.655762 16.452637 C 20.371015 17.078158 22.400307 18.847642 22.480469 18.918457 C 22.960015 19.342081 23.434183 19.77365 23.911133 20.200195 C 24.547447 20.738601 24.886502 21.027651 25.061035 21.179199 C 24.809083 21.188782 24.55272 21.262278 24.299316 21.306152 C 23.298973 20.384702 22.369573 19.391655 21.418457 18.42041 C 21.019103 18.012177 20.577184 17.569808 20.202637 17.13623 C 20.036557 16.943975 19.87823 16.744946 19.724121 16.542969 C 19.70122 16.512953 19.678342 16.483477 19.655762 16.452637 z M 28.947754 18.496094 C 28.902357 18.557509 28.854435 18.624094 28.803711 18.693848 C 28.722472 18.763944 28.650996 18.826884 28.583984 18.884277 C 28.675504 18.785406 28.765014 18.686878 28.857422 18.588867 C 28.887315 18.55855 28.917765 18.526318 28.947754 18.496094 z M 29.870605 19.880371 C 29.690015 20.066776 29.489767 20.270317 29.240723 20.527344 C 28.197028 21.60365 28.701986 20.986615 27.924805 22.13623 C 27.883903 22.196733 27.837645 22.256163 27.792969 22.314453 C 27.706552 22.231303 27.621945 22.147972 27.536621 22.06543 C 27.63844 21.972215 27.751357 21.869865 27.878418 21.75293 C 29.431447 20.323629 28.287647 21.306788 29.819336 19.926758 C 29.836177 19.911584 29.85369 19.895462 29.870605 19.880371 z M 27.824707 20.407715 C 27.813708 20.437641 27.80177 20.465794 27.790527 20.495605 C 27.739378 20.517313 27.6897 20.540959 27.63916 20.563965 C 27.705658 20.507967 27.767153 20.456191 27.824707 20.407715 z M 18.818359 20.471191 C 18.864188 20.506307 18.904328 20.537232 18.935547 20.561523 C 19.272008 20.823327 19.600667 21.091749 19.934082 21.357422 C 20.371993 21.699476 20.810399 22.042061 21.242676 22.390137 C 21.446205 22.592302 21.652801 22.796646 21.848145 22.990723 C 21.924134 23.097026 21.999507 23.203368 22.077637 23.308105 C 22.237162 23.521959 22.403947 23.73029 22.568359 23.94043 C 22.532168 23.970819 22.494808 24.000515 22.458496 24.030762 C 22.383698 24.093065 22.309577 24.155075 22.233887 24.216309 C 22.0567 24.051561 21.880418 23.8865 21.708984 23.71582 C 21.601297 23.608608 20.162018 22.09091 20.031738 21.943359 C 19.783448 21.662153 19.552371 21.366293 19.313965 21.07666 C 19.058599 20.766424 18.922259 20.599352 18.818359 20.471191 z M 25.458984 20.859375 L 25.461426 20.859375 L 25.463867 20.859375 C 25.471589 20.860901 25.484432 20.868787 25.500488 20.878906 C 25.492174 20.887277 25.484066 20.89528 25.476074 20.90332 C 25.464195 20.886449 25.458212 20.873529 25.456543 20.866699 L 25.456543 20.864258 L 25.456543 20.861816 L 25.458984 20.859375 z M 26.604004 21.975098 C 26.61427 21.985929 26.623035 21.996005 26.633301 22.006836 C 26.615558 22.026382 26.597346 22.045897 26.57959 22.06543 C 26.564104 22.050462 26.550878 22.034283 26.535645 22.019043 C 26.558707 22.003753 26.581356 21.990365 26.604004 21.975098 z M 26.442871 22.080078 C 26.447382 22.083272 26.452976 22.086625 26.45752 22.089844 C 26.478097 22.104419 26.498235 22.118875 26.518555 22.133789 C 26.502079 22.15186 26.486231 22.169456 26.469727 22.1875 C 26.453056 22.174066 26.434816 22.16225 26.418457 22.148438 C 26.406956 22.138727 26.395684 22.128959 26.384277 22.119141 C 26.403999 22.106417 26.423602 22.092625 26.442871 22.080078 z M 22.929688 22.119141 C 23.04724 22.238281 23.165392 22.357195 23.283691 22.475586 C 23.393456 22.585435 23.48924 22.679721 23.57666 22.766113 C 23.558567 22.784741 23.541067 22.803663 23.522949 22.822266 C 23.38077 22.652643 23.239187 22.482972 23.095703 22.314453 C 23.040217 22.249288 22.985342 22.184164 22.929688 22.119141 z M 27.08252 22.480469 C 27.107071 22.506376 27.131209 22.532687 27.155762 22.558594 C 27.127749 22.535802 27.100789 22.513002 27.072754 22.490234 C 27.076204 22.487125 27.07901 22.483633 27.08252 22.480469 z M 27.019043 22.536621 C 27.123575 22.6255 27.227632 22.716253 27.333984 22.802734 L 27.36084 22.773438 C 27.368336 22.781345 27.375316 22.789944 27.382812 22.797852 L 27.302246 22.880859 C 27.226824 22.811498 27.11767 22.715983 26.967773 22.583008 C 26.983552 22.568901 27.001559 22.55232 27.019043 22.536621 z M 19.621582 23.605957 C 19.729093 23.705366 19.83689 23.803808 19.943848 23.903809 C 20.233636 24.174748 20.52195 24.447029 20.810547 24.719238 C 20.767422 24.762278 20.724619 24.805938 20.681152 24.848633 C 20.668521 24.86104 20.657176 24.87286 20.644531 24.885254 C 20.575028 24.800045 20.505029 24.715343 20.437012 24.628906 C 20.075749 24.184693 19.907774 23.988139 19.621582 23.605957 z M 22.961426 24.450684 C 23.012815 24.517437 23.054076 24.57208 23.088379 24.616699 L 22.883301 24.821777 C 22.823404 24.767873 22.763866 24.713474 22.705078 24.658203 C 22.72731 24.636885 22.748767 24.613606 22.770996 24.592285 C 22.835214 24.544362 22.897849 24.497503 22.961426 24.450684 z M 21.071777 24.96582 C 21.110271 25.002119 21.14802 25.036954 21.186523 25.073242 C 21.112347 25.138464 21.039719 25.204372 20.966797 25.270996 C 20.937528 25.236746 20.907979 25.202873 20.878906 25.168457 C 20.930132 25.114131 20.975886 25.065351 21.015625 25.021973 C 21.033176 25.002813 21.052859 24.984193 21.071777 24.96582 z M 21.730957 25.588379 C 21.859109 25.709868 21.974435 25.820141 22.080078 25.92041 C 22.014989 25.997335 21.950995 26.074024 21.884766 26.149902 C 21.861793 26.174534 21.839466 26.198599 21.816406 26.223145 C 21.699301 26.096055 21.580482 25.968304 21.464844 25.839844 C 21.553132 25.75579 21.642749 25.672517 21.730957 25.588379 z M 21.569824 25.629883 C 21.517532 25.680651 21.4659 25.732959 21.413574 25.783691 C 21.410693 25.780476 21.40913 25.777142 21.40625 25.773926 C 21.46159 25.726564 21.514802 25.677611 21.569824 25.629883 z M 20.214844 25.854492 C 20.233164 25.876864 20.252652 25.900499 20.270996 25.922852 C 20.242465 25.949391 20.214192 25.974564 20.185547 26.000977 C 19.930635 26.23087 19.675475 26.461026 19.421387 26.691895 C 19.413193 26.684143 19.405174 26.677665 19.396973 26.669922 C 19.603423 26.466217 19.809241 26.261887 20.014648 26.057129 C 20.07007 26.001882 20.138505 25.931971 20.214844 25.854492 z M 20.666504 26.398926 C 20.68285 26.41854 20.698968 26.437921 20.715332 26.45752 C 20.460477 26.703011 20.20458 26.947931 19.94873 27.192383 C 19.916554 27.162197 19.883125 27.132386 19.851074 27.102051 C 20.106856 26.881852 20.361885 26.660617 20.617676 26.44043 C 20.633511 26.426916 20.650651 26.412419 20.666504 26.398926 z M 20.759277 26.51123 C 20.879146 26.654545 20.999768 26.798433 21.120605 26.940918 C 20.260516 27.802306 19.358979 28.622264 18.476562 29.460449 C 18.038809 29.876261 17.611648 30.303218 17.17041 30.715332 C 16.744018 31.11358 16.304528 31.498291 15.874023 31.89209 C 15.461544 32.269399 15.052167 32.648484 14.641113 33.027344 C 14.251873 33.36831 13.861624 33.707355 13.474121 34.050293 C 13.414827 34.102768 13.357798 34.15317 13.303223 34.20166 C 13.643236 33.837168 13.985445 33.476127 14.326172 33.112793 C 14.567522 32.860625 14.817254 32.614944 15.05127 32.355957 C 15.302893 32.077486 15.534824 31.7824 15.783691 31.501465 C 16.007634 31.248665 16.232889 30.997181 16.462402 30.749512 C 17.201392 30.123844 17.525768 29.852206 17.644043 29.753418 C 17.584765 29.802067 17.499638 29.870844 17.48291 29.87793 L 17.480469 29.87793 L 17.480469 29.875488 C 17.494156 29.851471 17.700799 29.65649 18.425293 29.008789 C 18.676366 28.784327 18.939491 28.574247 19.196777 28.356934 C 19.36318 28.203921 19.530759 28.050848 19.697266 27.897949 C 20.079997 27.546498 19.913345 27.719811 20.187988 27.414551 C 20.122481 27.355245 20.057319 27.294225 19.992676 27.233887 C 20.248783 26.993559 20.504163 26.752623 20.759277 26.51123 z M 26.760254 26.643066 C 27.354856 27.150861 27.887242 27.60139 28.474121 28.122559 C 28.618868 28.251099 28.73973 28.357299 28.840332 28.447266 C 28.688005 28.554131 28.685052 28.556749 28.491211 28.69873 C 28.426353 28.634306 28.367139 28.575044 28.31543 28.522949 C 28.073508 28.279227 27.836817 28.029565 27.600098 27.780762 L 27.614746 27.766113 C 27.583261 27.743143 27.551194 27.720495 27.519531 27.697754 C 27.443054 27.617393 27.366768 27.538611 27.290039 27.458496 C 27.222366 27.351837 27.084407 27.140244 26.799316 26.704102 C 26.786256 26.684121 26.773565 26.66289 26.760254 26.643066 z M 28.640137 27.180176 C 28.741356 27.253461 28.884451 27.348066 29.291992 27.631836 C 29.46288 27.719939 29.587402 27.786984 29.677734 27.836914 C 29.611565 27.886849 29.54643 27.936295 29.47998 27.98584 C 29.200433 27.716613 28.920029 27.448973 28.640137 27.180176 z M 26.416016 27.932129 C 26.818454 28.366822 27.155597 28.675946 27.705078 29.213867 C 27.71389 29.223175 27.720691 29.231405 27.729492 29.240723 C 27.671841 29.281268 27.616208 29.3222 27.558594 29.362793 C 27.253421 29.094701 26.946871 28.826721 26.643066 28.557129 C 26.592448 28.512211 26.541344 28.467001 26.489258 28.42041 L 26.491699 28.417969 L 26.491699 28.415527 C 26.492056 28.414692 26.493871 28.409058 26.494141 28.408203 L 26.494141 28.405762 L 26.494141 28.40332 L 26.494141 28.400879 L 26.494141 28.398438 C 26.478007 28.285433 25.919385 28.062387 26.777344 28.452148 L 26.828613 28.398438 C 26.524939 28.260654 26.410086 28.218415 26.379395 28.200684 L 26.376953 28.198242 L 26.374512 28.198242 L 26.374512 28.195801 L 26.37207 28.195801 L 26.37207 28.193359 L 26.37207 28.190918 L 26.374512 28.190918 L 26.374512 28.188477 L 26.376953 28.188477 L 26.379395 28.186035 C 26.403544 28.169212 26.4855 28.134755 26.416016 27.932129 z M 31.608887 28.22998 C 32.537043 29.09161 33.46702 29.94886 34.401855 30.803223 C 35.994911 32.1495 37.524218 33.577778 38.942871 35.107422 C 38.455796 34.667116 38.277136 34.524814 37.202148 33.601074 C 34.912149 31.572683 36.644202 33.124458 34.379883 31.047363 C 33.40382 30.152005 32.41368 29.265378 31.479492 28.325195 C 31.522589 28.292712 31.565667 28.262303 31.608887 28.22998 z M 24.545898 28.308105 C 24.971928 28.664479 25.380987 29.035521 25.800781 29.406738 C 26.193819 29.754296 26.418248 29.953491 26.5625 30.080566 C 26.547038 30.092112 26.53155 30.103165 26.516113 30.114746 C 26.437033 30.174074 26.357692 30.235163 26.279297 30.29541 C 25.575852 29.771977 24.876138 29.242944 24.216309 28.666992 C 24.32614 28.546999 24.435807 28.427863 24.545898 28.308105 z M 20.742188 28.574219 C 20.547593 28.799923 20.352861 29.024419 20.158691 29.250488 C 19.641956 29.715125 19.288642 30.014887 18.549805 30.625 C 18.234242 30.885583 17.91381 31.142049 17.595215 31.398926 C 17.638979 31.357597 17.682931 31.317809 17.727051 31.276855 C 18.170066 30.86563 18.631458 30.473731 19.082031 30.070801 C 19.637472 29.574091 20.187097 29.071561 20.742188 28.574219 z M 30.957031 28.725586 C 31.944946 29.6544 32.91881 30.597812 33.920898 31.51123 C 34.391913 31.940566 34.875393 32.356862 35.349121 32.783203 C 35.818533 33.205661 36.283351 33.632646 36.750488 34.057617 C 38.829265 35.979647 37.34907 34.630322 39.49707 36.533203 C 39.951216 36.935524 40.373549 37.376712 40.854492 37.746582 C 41.147383 37.971829 41.473999 38.151447 41.789551 38.344727 C 42.229602 38.820985 42.757729 39.389109 42.890625 39.519043 C 43.133105 39.756117 43.370223 40.007139 43.652344 40.195312 C 44.409559 40.700373 44.684988 40.855614 44.733887 40.854492 L 44.736328 40.854492 L 44.73877 40.852051 L 44.741211 40.852051 L 44.741211 40.849609 L 44.741211 40.847168 L 44.741211 40.844727 L 44.741211 40.842285 C 44.724234 40.792644 44.488916 40.595841 44.370117 40.498047 C 44.448027 40.560571 44.598903 40.679712 44.86084 40.88623 L 44.914551 40.834961 C 44.453552 40.118791 44.677341 40.536939 44.301758 39.550781 C 44.287662 39.526482 44.272731 39.501307 44.257812 39.477539 C 44.710442 39.92631 45.158511 40.380406 45.605469 40.834961 C 45.647948 40.878163 45.685571 40.917059 45.720215 40.952148 C 45.555493 40.926196 45.389092 40.906135 45.227051 40.871582 L 45.17334 40.925293 C 45.210505 41.079212 45.235514 41.236977 45.263672 41.394043 C 44.78873 41.066992 44.300824 40.759499 43.833008 40.422363 C 43.47555 40.16476 43.136885 39.881028 42.780762 39.621582 C 42.368624 39.321327 41.938344 39.045809 41.52832 38.742676 C 40.517889 37.995659 40.100242 37.62002 39.145508 36.816406 C 38.440932 36.207082 37.763955 35.566692 37.060547 34.956055 C 36.702667 34.645373 36.331756 34.349051 35.974121 34.038086 C 35.626874 33.736155 35.292928 33.420303 34.946289 33.117676 C 34.576928 32.795212 34.192044 32.488954 33.825684 32.163086 C 33.465391 31.842614 33.119457 31.507317 32.766113 31.179199 L 31.777344 30.222168 C 31.470049 29.916745 31.16471 29.606653 30.854492 29.304199 C 30.759229 29.211321 30.662606 29.120229 30.566406 29.02832 C 30.695928 28.927435 30.827065 28.825891 30.957031 28.725586 z M 23.640137 29.301758 C 24.733061 30.159185 23.767582 29.3737 24.978027 30.358887 C 25.16509 30.511138 25.351892 30.665998 25.537109 30.820312 C 25.52004 30.831841 25.502862 30.842895 25.48584 30.854492 C 24.488578 31.51846 23.497681 32.19196 22.497559 32.851562 C 22.334768 32.95769 22.169391 33.058814 22.009277 33.168945 C 21.832127 33.290793 21.660206 33.42362 21.484375 33.547363 C 20.754013 34.061359 20.009004 34.553555 19.272461 35.058594 C 18.729707 35.407547 18.221163 35.805906 17.69043 36.171875 C 17.15515 36.540978 17.066119 36.57008 16.520996 36.923828 C 16.310832 37.06021 16.104484 37.202379 15.895996 37.341309 C 15.709249 37.450683 15.522309 37.563426 15.334473 37.670898 C 15.397401 37.605371 15.46887 37.53262 15.546875 37.451172 C 15.749128 37.239991 15.943803 37.021101 16.142578 36.806641 C 17.664286 35.194226 15.848902 37.10913 17.412109 35.490723 C 18.313763 34.557229 19.18401 33.59065 20.102539 32.67334 C 20.34249 32.444282 20.586924 32.220605 20.822754 31.987305 C 21.893306 30.928233 20.997616 31.746861 22.106934 30.708008 C 22.320959 30.507579 22.536674 30.31141 22.756348 30.117188 C 22.949065 29.9468 23.15789 29.791074 23.344727 29.614258 C 23.44926 29.515331 23.544229 29.409237 23.640137 29.301758 z M 29.96582 29.494629 C 30.065763 29.588127 30.186079 29.698604 30.32959 29.831543 C 30.985157 30.438821 31.653853 31.030625 32.304688 31.643066 C 32.660269 31.96936 33.018338 32.293244 33.371582 32.62207 C 33.72982 32.955545 34.076768 33.303362 34.440918 33.630371 C 34.783844 33.938322 35.145998 34.223206 35.493164 34.526367 C 35.849504 34.83754 36.193487 35.162996 36.550293 35.473633 C 37.500517 36.300903 37.724788 36.460317 38.718262 37.250977 C 39.26488 37.683533 40.588983 38.724356 41.113281 39.169922 C 41.262593 39.296813 41.407222 39.426858 41.552734 39.558105 C 41.320283 39.380218 41.089003 39.201816 40.856934 39.023438 C 38.657214 37.332636 36.451293 35.648653 34.311523 33.881836 C 33.159541 32.942646 32.166873 32.159055 31.062012 31.164551 C 30.749302 30.883076 30.1675 30.328082 29.599609 29.780273 C 29.722443 29.685407 29.84337 29.590006 29.96582 29.494629 z M 15.57373 29.716797 C 15.331856 30.002934 15.086492 30.28457 14.836426 30.563965 C 14.662958 30.757777 14.48214 30.94552 14.304199 31.135254 C 14.223813 31.200805 14.136224 31.271337 14.042969 31.347656 C 13.612192 31.700203 13.18594 32.055678 12.756348 32.409668 C 12.252529 32.822872 11.193232 33.695206 10.500488 34.25293 C 10.52825 34.224658 10.555696 34.195714 10.583496 34.16748 C 11.129284 33.629713 11.683882 33.100903 12.243652 32.578125 C 13.332897 31.639477 14.427805 30.709188 15.512695 29.765625 C 15.532921 29.749041 15.553959 29.733022 15.57373 29.716797 z M 29.245605 30.053711 C 29.260689 30.06599 29.274447 30.078077 29.289551 30.090332 C 29.814118 30.515975 30.347712 30.931497 30.874023 31.35498 C 31.423216 31.796874 31.969479 32.241693 32.51709 32.685547 L 34.177246 34.020996 C 36.337638 35.748455 38.481301 37.50038 40.549316 39.338379 C 40.98718 39.72754 41.413617 40.127137 41.848145 40.52002 C 42.055967 40.707925 42.264502 40.894547 42.473145 41.081543 C 42.428508 41.13491 42.383564 41.189359 42.338867 41.242676 C 42.102946 41.419969 41.867643 41.595105 41.635742 41.777344 C 41.226052 41.434121 40.816482 41.090379 40.41748 40.734863 C 40.093409 40.44611 39.786602 40.140231 39.462891 39.851074 C 39.109009 39.534965 38.744438 39.229656 38.38623 38.918457 C 38.01236 38.593651 37.638909 38.269818 37.265625 37.944336 C 35.59039 36.444097 36.681644 37.417349 35 35.92041 C 34.627175 35.588535 34.260426 35.249597 33.881836 34.924316 C 33.837524 34.886244 33.792216 34.849674 33.747559 34.812012 C 33.114524 34.210994 32.490787 33.601427 31.879883 32.978516 C 30.960331 32.040889 30.074271 31.070377 29.228516 30.065918 C 29.233881 30.061869 29.240236 30.057754 29.245605 30.053711 z M 28.813477 30.385742 C 28.817932 30.390226 28.821222 30.39347 28.825684 30.397949 C 29.499568 31.074538 30.15287 31.675552 30.822754 32.297363 C 30.71825 32.203169 30.6036 32.099741 30.478516 31.987305 C 29.915353 31.455874 29.341217 30.938629 28.762207 30.424805 C 28.779066 30.411775 28.796626 30.398782 28.813477 30.385742 z M 27.753906 31.147461 C 27.789357 31.179386 27.825219 31.21285 27.86377 31.247559 C 28.484456 31.783603 29.091052 32.333701 29.6875 32.895508 C 29.579406 32.808376 29.470858 32.721453 29.362793 32.634277 C 29.16205 32.472341 28.966139 32.306334 28.762207 32.148438 C 28.37045 31.845114 27.957273 31.569346 27.568359 31.262207 C 27.625664 31.227626 27.686915 31.190094 27.753906 31.147461 z M 29.6875 32.124023 C 29.808724 32.2236 29.928593 32.324038 30.05127 32.421875 C 30.904257 33.132361 31.475544 33.598575 32.314453 34.333496 C 32.698716 34.670127 33.073358 35.019141 33.457031 35.356445 C 34.577725 36.341697 35.722625 37.299329 36.833496 38.295898 C 38.045794 39.547196 39.234524 40.820798 40.415039 42.102051 C 40.704713 42.416444 40.988645 42.735667 41.281738 43.046875 C 41.376808 43.147819 41.473281 43.247632 41.569824 43.347168 C 41.365675 43.55059 41.170839 43.764022 40.979004 43.979492 C 40.896603 43.891929 40.813733 43.801898 40.732422 43.713379 C 40.413031 43.335717 40.093761 42.957021 39.772949 42.580566 C 39.464694 42.218846 39.15019 41.863512 38.845215 41.499023 C 38.53603 41.129503 38.247708 40.742493 37.932129 40.378418 C 37.637719 40.038766 37.323685 39.717888 37.016602 39.389648 C 36.130518 38.442514 35.917176 38.2314 35.004883 37.287598 C 34.033011 36.301127 33.80734 36.055765 32.797852 35.100098 C 32.425093 34.747215 32.040607 34.405229 31.66748 34.052734 C 30.997367 33.419676 30.339985 32.775347 29.6875 32.124023 z M 17.912598 32.973633 C 17.629675 33.262449 17.343331 33.548973 17.055664 33.833008 C 16.837663 34.048257 16.612878 34.258233 16.396484 34.475098 C 15.965247 34.907276 15.546815 35.349951 15.119629 35.786133 C 14.916315 35.996619 14.710396 36.205873 14.509277 36.418457 C 14.305547 36.633802 14.108278 36.855669 13.903809 37.070312 C 13.72603 37.256938 13.545321 37.443459 13.364258 37.626953 L 13.10791 37.365723 L 13.110352 37.365723 C 13.215646 37.265575 13.32004 37.165606 13.425293 37.06543 C 13.700086 36.803892 13.979165 36.546665 14.255371 36.286621 C 14.712994 35.874903 14.977203 35.635536 15.119629 35.507812 C 14.876712 35.723975 14.515694 36.039893 15.76416 34.890137 C 16.355599 34.345461 16.671575 34.094368 17.270508 33.55957 C 17.486395 33.366801 17.698528 33.168422 17.912598 32.973633 z M 12.231445 33.544922 C 12.19569 33.587168 12.159798 33.629646 12.124023 33.671875 C 11.970059 33.820929 11.526391 34.278847 11.340332 34.465332 C 11.153951 34.652138 11.61512 34.198795 12.006836 33.811035 C 11.943037 33.88624 11.877871 33.960534 11.813965 34.035645 C 11.298203 34.590515 10.911283 34.912851 10.871582 34.963379 L 10.871582 34.96582 L 10.874023 34.96582 C 10.895079 34.959112 10.988876 34.901719 11.171875 34.787598 C 11.164483 34.796145 11.157297 34.803467 11.149902 34.812012 C 10.504319 35.557979 10.313395 35.763415 9.7460938 36.381836 C 9.6124712 36.496616 9.4796732 36.611703 9.3457031 36.726074 C 8.737977 37.207664 8.1240663 37.681148 7.5097656 38.154297 C 7.6502114 38.004103 7.7920182 37.855718 7.9345703 37.70752 C 8.98959 36.61071 10.282688 35.344361 11.38916 34.313965 C 11.614086 34.104504 11.905851 33.839515 12.231445 33.544922 z M 10.74707 33.879395 C 10.295052 34.323808 10.019468 34.594001 9.8364258 34.772949 C 9.6733095 34.895272 9.5083859 35.01389 9.3457031 35.136719 C 9.8082362 34.712586 10.276601 34.294509 10.74707 33.879395 z M 9.0478516 37.143555 C 8.9686745 37.229532 8.890162 37.313879 8.8110352 37.399902 C 8.2921853 37.932396 8.0437494 38.202832 7.5097656 38.693848 C 7.3443657 38.845938 7.1725726 38.991973 7.0019531 39.138184 C 6.8859131 39.237624 6.7719992 39.338604 6.6503906 39.431152 C 6.5827898 39.482598 6.4137313 39.513921 6.3745117 39.56543 L 6.3720703 39.567871 C 6.3714976 39.568941 6.3700904 39.574104 6.3696289 39.575195 L 6.3696289 39.577637 C 6.3694009 39.578772 6.3697348 39.583803 6.3696289 39.584961 C 6.3696488 39.586143 6.3694795 39.591078 6.3696289 39.592285 C 6.3699113 39.593518 6.3716512 39.59835 6.3720703 39.599609 C 6.3737487 39.603468 6.3763877 39.607701 6.3793945 39.611816 C 6.4392661 39.693765 6.5019593 39.773843 6.5673828 39.851074 C 6.4758337 39.943579 6.3848563 40.036262 6.2939453 40.129395 C 6.0492447 40.380075 5.7167945 40.572284 5.5664062 40.888672 C 5.4123197 41.212842 5.4720113 41.599757 5.4248047 41.955566 L 5.4785156 42.009277 C 5.6931516 41.963872 5.9263608 41.962908 6.1425781 41.921387 C 6.109315 41.9459 6.0760025 41.970467 6.0424805 41.994629 C 5.9334055 42.073259 4.7760349 42.867489 4.6533203 42.95166 C 3.7441291 43.542047 2.8192457 44.11116 1.8920898 44.672852 C 2.2511227 44.145328 2.8221072 43.451057 3.1884766 43.015137 C 3.4786399 42.669889 3.7822976 42.335534 4.074707 41.992188 C 4.4499916 41.551527 4.8202103 41.106944 5.1928711 40.664062 C 5.5849349 40.239218 5.9769032 39.811441 6.3696289 39.387207 L 7.1606445 38.693848 C 7.4285629 38.459675 7.6960376 38.224997 7.9638672 37.990723 C 8.3240744 37.706341 8.6851504 37.424733 9.0478516 37.143555 z M 7.3681641 40.654297 C 7.4352537 40.716165 7.5040059 40.777725 7.5708008 40.839844 C 7.5212816 40.881325 7.4700421 40.924204 7.4194336 40.964355 C 7.2384905 41.107911 7.0513307 41.240089 6.8652344 41.376953 C 6.9549308 41.236348 7.0370343 41.089221 7.1362305 40.959473 C 7.223346 40.845525 7.2998744 40.743869 7.3681641 40.654297 z M 44.016113 41.774902 C 44.375369 42.121153 44.743555 42.476513 44.84375 42.573242 C 44.903692 42.636477 44.9618 42.698084 45.021973 42.76123 C 44.306461 42.176599 44.401778 42.292536 44.016113 41.774902 z M 43.571777 41.867676 C 44.509295 42.356197 44.118459 42.105702 45.229492 43.027344 L 45.253906 43.00293 C 45.313247 43.065237 45.372949 43.12841 45.432129 43.190918 C 45.699563 43.709234 45.971369 44.224094 46.259766 44.731445 C 46.346468 44.883972 46.428381 45.022178 46.506348 45.15625 C 46.208722 44.860274 45.921647 44.550952 45.639648 44.240723 C 45.091659 43.603164 44.53879 42.970807 43.984375 42.338867 C 43.917706 42.262875 43.74834 42.071178 43.571777 41.867676 z M 2.2338867 42.180176 L 2.2949219 42.241211 C 2.2135728 42.302351 2.1300992 42.363729 2.0483398 42.424316 C 2.1077725 42.341459 2.1700986 42.260524 2.2338867 42.180176 z M 1.5356445 42.949219 L 1.5380859 42.949219 C 1.539252 42.949049 1.5418858 42.949218 1.5429688 42.949219 L 1.5454102 42.949219 L 1.5478516 42.949219 L 1.550293 42.949219 L 1.550293 42.95166 L 1.5527344 42.95166 L 1.5551758 42.954102 L 1.5576172 42.956543 L 1.5600586 42.958984 C 1.5606539 42.959989 1.5619609 42.965188 1.5625 42.966309 C 1.572227 42.990892 1.5719035 43.037334 1.574707 43.076172 C 1.570764 43.079675 1.5664457 43.082438 1.5625 43.085938 L 0.53955078 43.496094 C 0.86701014 43.305835 1.1795856 43.091148 1.5307617 42.95166 C 1.5321043 42.951127 1.5343919 42.949567 1.5356445 42.949219 z M 44.985352 45.900879 C 45.176708 46.126264 45.364779 46.355917 45.549316 46.586914 C 45.704377 46.775904 45.858434 46.962749 46.010742 47.15332 C 45.829237 47.019778 45.644443 46.874818 45.390625 46.660156 C 45.18138 46.483191 44.979085 46.298729 44.782715 46.11084 C 44.850367 46.04098 44.918137 45.971049 44.985352 45.900879 z M 49.047852 46.635742 C 49.041104 46.645115 48.998283 46.688208 48.959961 46.713867 C 48.986888 46.688628 49.013324 46.66551 49.040527 46.640625 C 49.043571 46.63784 49.04662 46.636622 49.047852 46.635742 z " />
</svg>
