<svg xmlns="http://www.w3.org/2000/svg" viewBox="0 0 50 50"><path d="m3.044-.17-.959.912c.005.047-.003.096.012.14l-.522.497c.003.036-.002.074.012.108.043.105.1.188.168.266l-.615.564c.087.163.198.312.322.45l-.41.41a2 2 0 0 0-.122-.1C.881 3.037.823 3.013.77 2.982l-1.077 1.15c.027.04.05.081.08.117.064.074.135.141.201.213q.14.154.278.308l.364.388c.149.16.291.325.445.48.194.198.4.384.6.577.773.722.606.627.842.705l-.346.393c.493.039.89.371 1.27.655.682.51.523.395 1.186.984.633.583 1.202 1.23 1.792 1.855.21.222.425.438.635.66.305.322.95 1.02 1.252 1.347.207.224.404.457.62.671.26.258.542.492.808.743q.43.406.852.82.435.425.865.857c.287.289.564.587.856.871.348.339.707.665 1.06.996.378.354.75.714 1.133 1.062.43.393.877.77 1.308 1.163l.274.246q.411.522.81 1.055c1.006 1.31-.026-.06.93 1.282.167.233.346.458.513.69.168.233.326.474.491.708.532.758.41.582.947 1.312l.203.251q-.44.417-.886.828a9 9 0 0 0-.562-.47h-.002l-.003-.002h-.005l-.002.003h-.002l-.003.002-.002.003-.008.005c-.02.027-.031.096-.05.134l-.028-.024.015.043c-.36.517-.772.998-1.133 1.514l-.022.032-.083.073c-.67.58-1.33 1.169-2.002 1.746-.359.303-.721.603-1.077.91-1.793 1.553-3.51 3.195-5.344 4.7q-.51.435-1.015.874c-1.381 1.204-.5.466-1.883 1.655-.3.26-.61.506-.908.77-.64.565-.836.747-.862.778v.005c.038-.015.605-.5-.708.603-.597.542-1.193 1.093-1.836 1.582-.366.28-.47.332-.82.56l-.159.104.887.884q-.36.257-.726.503c-.07.044-.206.122-.315.188l-.083.034c-.025.013-.21.135-.239.178v.008c.013.064.05.189.11.163.324-.136.56-.236.742-.324q-.1.076-.2.148c-.2.146-.426.25-.63.391-.077.054-.14.125-.21.188L.93 45.354v.002a.25.25 0 0 0 .017.103c.142.38.338.513.374.557l.002.002v.003h.003v.004l-.003.003h-.002v.002h-.008c-.02.004-.065.002-.146 0l.049.059c.108 0 .154 0 .173.005l.003.002h.002l.002.003.003.002v.003l.002.002v.002c.013.037 0 .144.589.457.094.05.214.056.32.039a.3.3 0 0 0 .102-.044q-.09.077-.185.147l1.018 1.018v.002c-.084.133-.138.27-.11.386.287.61.223.342.293.781l.051.054c.425.05.166-.005.76.254.236.044.614-.398.778-.545.315-.28.609-.582.906-.881.255-.262.502-.536.764-.791.38-.372.781-.722 1.147-1.109.542-.518.28-.252.784-.79.132-.141.266-.278.393-.423.409-.466.771-.974 1.216-1.409.148-.147.303-.288.444-.441.126-.136.237-.282.357-.423q.523-.616 1.055-1.225.679-.413 1.389-.77c1.105-.659 2.194-1.342 3.296-2.006.22-.126.444-.248.661-.379.4-.24.785-.5 1.18-.747.548-.344 1.096-.686 1.603-1.091.451-.33.612-.455 1.08-.77.19-.127.384-.248.576-.373.185-.12.368-.247.556-.363.185-.115.377-.216.562-.33.165-.102.325-.214.488-.32l.97-.642c.667-.46 1.319-.943 1.999-1.384q.136-.094.27-.188l.18.146.578.491c.184.156.36.318.549.469.203.161.417.309.625.464.217.165.438.328.652.498.506.403.739.62 1.22 1.047.353.338.749.72 1.107 1.052.203.189.414.37.615.562.203.194.396.398.595.595.223.222.45.437.67.662.22.228.433.466.649.698.196.23.395.458.588.691l1.02 1.28q.642.798 1.295 1.586c.614.689 1.21 1.397 1.875 2.039.12.116.243.226.366.34.603.587 1.268 1.112 1.848 1.723.118.124.228.256.342.383.5.586.943 1.215 1.426 1.814.174.19.153.182.366.345.07.054.13.151.22.153.013 0 .458-.124.734-.202q.094.093.186.188.18.175.359.351l.254.261.051.047.056-.032.007.01c.029.035.051.073.076.11l-.041.002.036.037c.022.021.042.074.061.095l.003.002.002.003.003.002h.012l.002-.002.005-.003a10 10 0 0 1 1.006-.708q.442.37.879.743.108.091.22.18c.03.023.067.079.097.09l.008.003.007-.002.007-.003.005-.005c.496-.483.92-1.033 1.38-1.55-.072-.094-.14-.19-.215-.28q-.136-.166-.276-.328c.42-.474.757-1.225.76-1.228.058-.084-.093-.184-.142-.273-.184-.33-.21-.364-.362-.564.363-.413.697-.85 1.045-1.277a.2.2 0 0 1-.08-.02l.12-.105h.002l.002-.002h.007v.002h.003v.003l.002.007a.1.1 0 0 1-.002.049l.063-.078c-.322-.42-.653-.832-1.013-1.22l.034-.016.054-.05.147-.377c.037-.146.13-.29.112-.44-.013-.108-.452-.442-.488-.473-.395-.331-.781-.67-1.17-1.008-.647-.568-.32-.276-.984-.877a148 148 0 0 0-2.495-2.146c-.249-.212-.495-.428-.747-.637-.85-.704-1.73-1.375-2.573-2.087-.32-.27-.632-.546-.947-.82l-.967-.843q-.481-.457-.962-.913c-.316-.297-.64-.59-.952-.891-.538-.52-1.296-1.306-1.827-1.84-.277-.28-.559-.555-.834-.836q-.413-.421-.82-.847l-.675-.688q.95-.765 1.897-1.534c.271-.226.33-.273.371-.307q-.003.005-.004.007c.01-.005.105-.08.437-.347.122-.098.24-.203.36-.302.377-.308.766-.599 1.148-.899.084-.068.653-.53.733-.598.51-.43 1.01-.868 1.538-1.277l.383-.293c.123-.084.25-.165.369-.254.414-.306.789-.663 1.196-.979a46 46 0 0 0 1.846-1.574c.562-.529 1.108-1.077 1.728-1.539.534-.388 1.08-.757 1.607-1.154.343-.26.694-.52 1.01-.813.087-.081.167-.17.252-.252q.13-.123.261-.244c.516-.51 1.023-1.034 1.572-1.509.091-.08.36-.318.462-.393.196-.144.418-.252.635-.361l-.994-1.172c-.105.116-.237.2-.354.303-.064.056-.123.118-.188.173-.156.133-.317.258-.474.39-.27.219-.509.474-.764.709-.094.087-.194.167-.29.251q-.284.252-.567.503c-.501.438-1.067.796-1.601 1.192a27 27 0 0 0-1.57 1.2c-.609.483-1.172 1.018-1.738 1.549-.586.554-1.23 1.041-1.844 1.562q-.458.37-.927.725c-.098.075-.2.145-.293.225-.113.097-.215.205-.325.305-.12.108-.24.211-.361.317-.738.649-1.514 1.25-2.283 1.86q-.56.466-1.14.906c-.126.096-.255.187-.379.286-.132.106-.255.22-.385.327q-.203.167-.408.332a33 33 0 0 1-1.956 1.61l-.713-.745q-.42-.44-.837-.88-.18-.192-.359-.385a28 28 0 0 0 2.312-2.432c.47-.535.947-1.06 1.424-1.59.546-.605 1.08-1.22 1.645-1.808l.652-.691c-.191.2-.528.546.51-.588.205-.225.424-.436.63-.66.626-.679 1.214-1.395 1.863-2.053 1.578-1.585-.22.227 1.294-1.316.85-.867 1.727-1.705 2.556-2.593.465-.46.904-.896 1.374-1.352.232-.225.47-.442.699-.67.219-.217.426-.446.644-.666.601-.604.716-.698 1.34-1.272q.33-.266.655-.537c.175-.147.342-.302.517-.449.277-.232.68-.556.987-.757.134-.088.278-.155.415-.239.075-.046.146-.1.22-.149l-1.03-1.045q.232-.176.475-.34l-.754-.72v-.002c.01-.02.016-.041.027-.06L47.095 1.14c-.038.025-.083.041-.115.073-.052.052-.093.115-.137.174l-.093.127-.974-.95c-.038.077-.07.158-.114.232q-.073.12-.154.234l-.845-.81c-.025.068-.041.14-.073.205-.048.098-.107.19-.164.283-.214.35-.365.571-.63.9-.22.275-.8.923-1.015 1.165-.2.207-.398.417-.6.62-.404.405-.82.798-1.224 1.202A52 52 0 0 0 39.324 6.3c-.17.183-.346.364-.513.55-.181.2-.352.41-.535.61-.185.203-.377.399-.566.598a72 72 0 0 1-1.682 1.707c-.506.544-1.042 1.061-1.555 1.599-.18.188-.353.38-.53.571-.188.203-.38.4-.564.608-.214.242-.419.494-.628.74q-.342.372-.683.747c-.251.278-.494.565-.75.84-.492.53-1.044 1.07-1.56 1.58-.247.243-.502.48-.744.73-.259.263-.506.538-.76.807-.252.257-.51.506-.756.77-1.491 1.588-.092.19-1.57 1.689l-.379-.393c-.989-1.015-1.99-2.016-2.956-3.052a95 95 0 0 1-2.742-2.537c-2.068-2.01.211.18-1.846-1.862-.303-.302-.616-.591-.925-.887-.322-.303-.642-.61-.967-.91-.888-.825-1.149-1.017-1.994-1.895l-.157-.166c.175.06.462.166.975.383.347.148.68.33 1.02.494l.051-.057c-.298-.206-.618-.385-.896-.62-.784-.662-1.023-.897-1.04-.947v-.005l.003-.002h.005c.034 0 .175.09.263.149-.135-.095-.479-.337-1.206-.862-.374-.273-.754-.538-1.123-.818l-.264-.203-.097-.11q-.308-.382-.62-.761c-.157-.19-.324-.371-.476-.564-.302-.38-.497-.795-.93-1.038l-.379.386Q9 3.939 8.745 3.713c-1.547-1.356-1.015-.866-.793-.664l-.891-.805c-.637-.612-.66-.615-1.216-1.211C5.618.79 5.555.7 5.347.469c-.054-.06-.1-.127-.164-.176-.045-.035-.104-.047-.156-.07l-.816.885a43 43 0 0 1-.764-.886Q3.362.121 3.28.017c-.04-.05-.066-.11-.115-.149-.032-.026-.08-.026-.12-.039m46.734 44.61-.054.067a.1.1 0 0 0 .025-.01h.002l.002-.002.003-.003a.2.2 0 0 0 .022-.051m-4.597 5.135-.098-.09a.7.7 0 0 0-.112.078l-.003.002-.002.003v.01h.002v.002h.005a1 1 0 0 0 .208-.005M5.374 2.412c.363.27.787.58.88.65l.88.656c.305.236.607.477.915.708.37.278.75.54 1.118.818.926.7 1.37 1.08 2.276 1.8q.515.407 1.033.812c.467.43.923.842 1.396 1.3.956.924 1.01 1.016 1.924 1.97q.46.477.923.952c.296.307.588.622.888.925.309.311.627.611.938.92q.462.462.923.926c.88.879 1.769 1.749 2.656 2.622.974.888 1.126 1 2.058 1.95.33.337.647.687.972 1.028l.378.398-.022.022c-.213-.185-.585-.513-1.208-1.064-1.336-1.13-1.683-1.403-3-2.596-.501-.453-.99-.92-1.488-1.376-.476-.437-.96-.865-1.433-1.307-.466-.436-.905-.902-1.381-1.328-.43-.384-.89-.732-1.333-1.098-.644-.53-2.01-1.64-2.635-2.205-.38-.343-.73-.719-1.108-1.064a24 24 0 0 0-.676-.594 6 6 0 0 1-.127-.178c-.078-.113-.142-.234-.218-.349-.042-.063-.09-.123-.136-.183l-.169.163-.073-.06c-.113-.167-.219-.338-.34-.499-.213-.284-.419-.58-.661-.84-.167-.179-1.33-1.183-1.521-1.35-.454-.398-1.045-.908-1.482-1.328a23 23 0 0 1-1.147-1.2m40.495.259-.427.496-.161.17-.095-.1q.336-.288.683-.566m-41.272.686 1.17 1.018c.325.288.729.652 1.093.984l-.305.332c-.092-.096-.258-.28-.617-.689-.69-.782-.665-.794-1.3-1.591zm43.252.569c-.423.437-.9.82-1.32 1.26-.195.204-.377.421-.565.632-.532.558-.734.783-1.296 1.316-.225.213-.46.413-.686.625-.703.66-1.39 1.34-2.09 2.004a60 60 0 0 0-3.25 3.179c-.216.23-.426.465-.64.698-.616.688-1.268 1.345-1.898 2.02-.208.221-.407.452-.616.673-.196.208-.4.41-.6.615l-.589.635c-1.066 1.09-2.12 2.193-3.195 3.274-.566.558-1.1 1.147-1.67 1.7-.22.212-.47.444-.701.658l-.193-.185.054-.049c.765-.705 1.45-1.494 2.229-2.185q.546-.58 1.094-1.157c.391-.412.79-.817 1.179-1.23.402-.43.794-.868 1.194-1.3 1.266-1.366 2.548-2.72 3.923-3.98 1.178-1.205 2.352-2.415 3.564-3.586.384-.37.777-.728 1.162-1.096.71-.677 1.406-1.37 2.117-2.046 1.377-1.274.572-.547 1.904-1.704.296-.256.59-.518.89-.771m-44.477.63c.227.215.449.44.688.642.36.305.747.576 1.11.876a61 61 0 0 1 2.513 2.23c-.167.12-.318.29-.43.468q-.129-.131-.258-.261c-.806-.86-1.628-1.706-2.41-2.588-.189-.213-.368-.435-.557-.647-.175-.197-.356-.387-.534-.581q-.068-.077-.122-.14m42.243.06c-.31.363-.332.366-1.142 1.2-.55.54-1.56 1.526-2.093 2.072-.372.382-.73.774-1.1 1.157-1.172 1.213-2.372 2.396-3.57 3.582-.99 1.072-1.98 2.148-2.99 3.2l.387-.473c.74-.866 1.055-1.257 1.853-2.087.336-.35.695-.675 1.03-1.023.313-.325.608-.665.914-.996 1.073-1.163.865-.935 1.975-2.093.222-.223 1.806-1.815 2.046-2.05.327-.322.659-.637.989-.955.292-.282.576-.573.878-.845.266-.24.553-.454.823-.688m-40.761.557.444.464.75.791c.242.259.473.529.724.779.244.242.507.464.76.696.268.114.448.183.576.232a.76.76 0 0 0-.366.13l-.188-.189a91 91 0 0 1-2.141-2.243c-.193-.215-.375-.439-.56-.66m38.176.681q-.325.354-.655.704c-.664.7-1.338 1.392-2.006 2.09-1.227 1.251-.798.828-2.036 2.03-.324.315-.66.616-.972.94-.336.35-.641.725-.97 1.082-.434.473-1.462 1.55-1.916 2.027l-.4.415-.21-.208.512-.561c1.675-1.835 1.06-1.18 2.85-2.945.276-.27 2.316-2.273 2.648-2.593 1.8-1.732.443-.403 2.146-2.011.251-.237.495-.478.743-.718zM8.127 7.361c.103.078.221.17.372.283.69.489 1.341 1.035 2.016 1.548l.08.08c.06.048.24.203.684.599.686.611.996.93 1.678 1.594l.263.256-.317.31c.117.113.13.294.234.413.122.14.286.238.425.361.183.163.369.323.54.498.202.208.385.435.578.652l.66.737c1.31 1.593 2.556 3.237 3.852 4.842a74 74 0 0 1-2.234-1.897l-.308-.345c-.437-.485-.894-.953-1.335-1.435l-.366-.403q-.012-.012-.034-.037-.358-.398-.716-.798c-.021-.04-.047-.083-.07-.093h-.013q-.03-.032-.058-.066c-1.011-1.115-2.037-2.218-3.013-3.364q-.37-.434-.732-.874c-.201-.243-.392-.495-.596-.735-.152-.177-.316-.345-.474-.517-.041-.041-.138-.13-.202-.196-.769-.763-.45-.314-.914-1.413m2.469 1.911-.025-.02h-.002v.003h.002v.003a1 1 0 0 0 .078.073 1 1 0 0 0-.053-.059m29.267-1.32-.415.459c-.832.915-1.673 1.82-2.507 2.734-2.054 2.27-.71.822-2.805 2.99l-.525.548-.1-.098a5 5 0 0 1-.32.537l-.41.427a45 45 0 0 1-.503.51q-.082.043-.164.084c.246-.309.485-.623.738-.926.34-.407 1.84-2.12 2.185-2.49.396-.427.81-.837 1.215-1.255l1.172-1.208c.406-.397.805-.8 1.216-1.19.402-.38.815-.748 1.223-1.122m-32.236.837-.164.198-.034-.034zm.676 1.07.044.026c1.114.79 2.115 1.722 3.076 2.688.346.348.68.706 1.023 1.057q.604.616 1.209 1.23l.046.047q-.247.25-.483.513a65 65 0 0 0-1.743-1.914l-.33-.34.032-.031c-1.385-1.306-.085.017-1.355-1.61-.234-.298-.502-.568-.757-.849q-.376-.413-.762-.818m6.25 2.24.625.499c.9.818 1.892 1.529 2.81 2.326.294.256.576.524.86.791l-.323.323c-.217-.205-.463-.44-.776-.745-.395-.384-.774-.783-1.167-1.17-.612-.602-1.238-1.191-1.843-1.801zm5.103 4.354 2.824 2.465c.48.424.954.856 1.431 1.282.636.539.976.828 1.15.98-.252.009-.508.082-.762.126-1-.921-1.93-1.914-2.88-2.886-.4-.408-.842-.85-1.216-1.284a13 13 0 0 1-.479-.593zm9.292 2.043-.144.198-.22.19.273-.295zm.923 1.384-.63.647c-1.044 1.077-.539.46-1.316 1.61q-.063.09-.132.177l-.256-.249.341-.312c1.553-1.43.41-.446 1.941-1.826zm-2.046.528-.034.088q-.077.033-.152.068zm-9.007.063.118.09c.336.262.665.53.998.796q.658.512 1.309 1.033l.605.6q.113.16.23.318c.16.214.326.422.49.632l-.11.09q-.11.095-.224.186a21 21 0 0 1-.525-.5 175 175 0 0 1-1.677-1.773c-.249-.28-.48-.577-.718-.866zm6.641.388h.005q.012.004.036.02l-.024.024a.1.1 0 0 1-.02-.036v-.005zm1.145 1.116.03.032-.054.058q-.023-.022-.044-.046zm-.161.105.015.01.06.044-.048.053q-.026-.019-.052-.039l-.034-.029zm-3.513.04.354.356.293.29-.054.056-.427-.508zm4.153.36.073.079-.083-.069zm-.064.057c.105.088.209.18.315.266l.027-.03.022.025-.08.083c-.076-.07-.185-.165-.335-.298zm-7.397 1.069.322.298q.434.406.867.815l-.13.13-.036.036q-.105-.127-.208-.256c-.361-.444-.53-.64-.815-1.023m3.34.845.126.166-.205.205q-.09-.081-.178-.164l.066-.066zm-1.89.515.115.107q-.111.098-.22.198l-.088-.103.137-.146q.026-.03.056-.056m.659.622q.19.182.35.332l-.196.23-.069.073q-.177-.19-.351-.383.133-.125.266-.252m-.161.042-.156.154-.008-.01q.083-.071.164-.144m-1.355.224.056.069-.085.078-.765.69-.024-.021.618-.613zm.452.545.048.059-.766.734-.098-.09.767-.662zm.092.112q.18.216.362.43c-.86.861-1.762 1.681-2.644 2.52-.438.415-.865.842-1.307 1.254-.426.399-.865.783-1.296 1.177q-.617.566-1.233 1.135-.586.51-1.167 1.023l-.17.152q.51-.546 1.022-1.09c.242-.251.491-.497.725-.756.252-.279.484-.574.733-.855q.335-.38.678-.751c.74-.626 1.064-.898 1.182-.997-.06.05-.144.118-.161.125h-.003v-.003c.014-.024.22-.219.945-.866.251-.225.514-.435.772-.652l.5-.46c.383-.35.216-.177.491-.482l-.195-.181q.384-.36.766-.723m6.001.132c.595.508 1.127.958 1.714 1.48q.217.19.366.324c-.152.107-.155.11-.349.252l-.176-.176q-.36-.367-.715-.742l.015-.015-.095-.068-.23-.24a93 93 0 0 0-.49-.754q-.02-.03-.04-.06m1.88.537c.101.073.244.168.652.452.17.088.295.155.386.205l-.198.149zm-2.224.752c.402.435.74.744 1.29 1.282l.023.027-.17.122q-.46-.401-.916-.806l-.154-.137.003-.002v-.002l.002-.008v-.01c-.016-.113-.575-.336.283.054l.052-.054c-.304-.137-.419-.18-.45-.197l-.002-.003h-.002v-.002h-.003v-.005h.003v-.003h.002l.002-.002c.025-.017.106-.051.037-.254m5.193.298q1.391 1.292 2.793 2.573a52 52 0 0 1 4.54 4.304c-.486-.44-.665-.582-1.74-1.506-2.29-2.028-.558-.477-2.822-2.554-.976-.895-1.966-1.782-2.9-2.722zm-7.063.078c.426.356.835.728 1.255 1.099l.762.674-.047.034-.237.18c-.703-.523-1.403-1.052-2.063-1.628zm-3.804.266q-.292.338-.583.676c-.517.465-.87.765-1.61 1.375q-.474.39-.954.774l.132-.122c.443-.411.904-.803 1.355-1.206.555-.497 1.105-1 1.66-1.497m10.215.152c.988.928 1.962 1.872 2.964 2.785.47.43.954.846 1.428 1.272.47.423.934.85 1.401 1.275 2.08 1.922.6.572 2.747 2.475.454.403.877.844 1.357 1.214.293.225.62.404.936.598.44.476.968 1.044 1.1 1.174.243.237.48.488.762.676.758.505 1.033.66 1.082.66h.002l.003-.003h.002v-.01c-.017-.05-.252-.246-.37-.344.077.063.228.182.49.388l.054-.051c-.461-.716-.238-.298-.613-1.284l-.044-.073q.677.673 1.347 1.357l.115.117c-.165-.026-.33-.046-.493-.08l-.054.053c.038.154.063.312.09.469-.474-.327-.962-.635-1.43-.972-.357-.257-.696-.541-1.052-.8-.412-.3-.843-.576-1.253-.88-1.01-.746-1.428-1.122-2.382-1.926-.705-.609-1.382-1.25-2.085-1.86-.358-.31-.73-.607-1.087-.918-.347-.302-.681-.618-1.028-.92-.37-.323-.754-.629-1.12-.955-.36-.32-.707-.656-1.06-.984l-.989-.957c-.307-.305-.612-.615-.923-.918q-.142-.139-.288-.276zm-7.317.576c1.093.857.128.072 1.338 1.057q.28.229.56.461l-.052.034c-.997.664-1.988 1.338-2.988 1.998-.163.106-.329.207-.489.317-.177.122-.349.255-.525.378-.73.514-1.475 1.007-2.212 1.512-.542.349-1.05.747-1.582 1.113-.535.369-.624.398-1.169.752-.21.136-.417.278-.625.417q-.28.166-.562.33l.213-.22c.202-.211.397-.43.596-.644 1.521-1.613-.294.302 1.27-1.316.9-.934 1.771-1.9 2.69-2.818.24-.229.484-.452.72-.686 1.07-1.059.175-.24 1.284-1.279q.32-.3.65-.59c.192-.171.4-.327.588-.504q.154-.15.295-.312m6.326.193.364.337c.655.607 1.324 1.199 1.975 1.811q.534.487 1.067.98c.358.333.705.68 1.069 1.007.343.308.705.593 1.052.896.357.312.7.637 1.057.948.95.827 1.175.986 2.168 1.777.547.433 1.871 1.473 2.395 1.919q.223.191.44.388l-.696-.535c-2.2-1.69-4.406-3.374-6.545-5.141-1.152-.94-2.145-1.723-3.25-2.717A74 74 0 0 1 29.6 29.78zm-14.392.222q-.363.429-.738.847c-.173.194-.354.382-.532.571l-.261.213q-.643.53-1.287 1.062c-.503.413-1.563 1.285-2.256 1.843l.083-.086q.82-.805 1.66-1.589c1.09-.939 2.185-1.869 3.27-2.812zm13.672.337.044.036c.524.426 1.058.841 1.584 1.265q.823.664 1.643 1.33l1.66 1.336c2.16 1.727 4.304 3.48 6.372 5.317.438.39.865.79 1.3 1.182q.311.282.624.562l-.134.16c-.236.178-.471.353-.703.535-.41-.343-.82-.687-1.219-1.042-.324-.289-.63-.595-.954-.884-.354-.316-.719-.621-1.077-.933q-.56-.486-1.12-.974c-1.676-1.5-.584-.527-2.266-2.024-.373-.331-.74-.67-1.118-.996l-.134-.112a73 73 0 0 1-1.868-1.833 52 52 0 0 1-2.651-2.913zm-.433.332.013.012c.674.677 1.327 1.278 1.997 1.9l-.344-.31a76 76 0 0 0-1.717-1.563q.026-.02.051-.04m-1.06.761.11.1q.93.806 1.825 1.649l-.325-.262c-.2-.162-.397-.328-.6-.486-.393-.303-.806-.579-1.195-.886zm1.935.977q.18.15.363.298c.853.71 1.425 1.177 2.263 1.911.385.337.76.686 1.143 1.023 1.12.986 2.266 1.943 3.376 2.94a209 209 0 0 1 3.582 3.806c.29.314.574.634.867.945l.288.3q-.305.308-.591.632l-.247-.266q-.478-.567-.96-1.132c-.307-.362-.622-.717-.927-1.082-.309-.37-.597-.757-.913-1.12-.294-.34-.608-.661-.915-.99-.886-.946-1.1-1.158-2.012-2.101-.972-.987-1.198-1.232-2.207-2.188-.373-.353-.757-.695-1.13-1.047q-1.003-.951-1.98-1.929m-11.775.85q-.426.432-.857.859c-.218.215-.443.425-.66.642-.43.432-.85.875-1.276 1.311-.204.21-.41.42-.61.632-.204.216-.402.438-.606.652q-.268.28-.54.557l-.256-.261h.002l.315-.3q.414-.392.83-.78l.865-.778c-.243.216-.604.532.644-.618.592-.545.908-.796 1.507-1.33.215-.193.428-.392.642-.586m-5.682.57-.107.128c-.154.149-.598.607-.784.793s.275-.266.667-.654q-.097.113-.193.225c-.516.555-.903.877-.942.927v.003h.002a4 4 0 0 0 .298-.178l-.022.024c-.646.746-.837.951-1.404 1.57l-.4.344c-.608.482-1.222.955-1.836 1.428q.21-.225.425-.446a94 94 0 0 1 3.454-3.394c.225-.21.517-.474.842-.77m-1.484.335-.91.894c-.164.122-.329.24-.491.364q.694-.635 1.401-1.258m-1.7 3.265-.236.256c-.519.532-.767.803-1.301 1.294q-.25.227-.508.444c-.116.1-.23.2-.352.293-.067.052-.236.083-.275.134l-.003.003-.002.007v.017l.002.008.007.012q.09.123.188.24l-.273.277c-.245.251-.577.443-.728.76-.154.324-.094.71-.141 1.067l.054.053c.214-.045.447-.046.664-.088l-.1.074c-.11.078-1.267.872-1.39.957-.909.59-1.834 1.16-2.76 1.72.358-.527.93-1.22 1.295-1.657.29-.345.594-.68.887-1.023.375-.44.745-.885 1.118-1.328q.588-.64 1.177-1.277l.79-.693.804-.703q.54-.426 1.084-.847m-1.679 3.51.203.186q-.075.063-.152.124c-.18.144-.368.276-.554.413.09-.14.172-.288.271-.418zm36.648 1.12.828.8.178.187c-.716-.584-.62-.468-1.006-.986m-.444.094c.937.488.546.238 1.657 1.16l.025-.025.178.188c.268.518.54 1.033.828 1.54.086.153.168.291.246.425a25 25 0 0 1-.866-.915q-.823-.956-1.656-1.902c-.066-.076-.236-.268-.412-.471m-41.338.312.06.061q-.122.092-.246.183.09-.123.186-.244m-.698.77h.014v.002h.003l.002.002.003.003.002.002.002.007c.01.025.01.071.013.11q-.007.005-.012.01l-1.023.41c.327-.19.64-.405.99-.544zm43.45 2.95q.286.34.563.687.233.282.462.566a13.373 13.373 0 0 1-1.228-1.042zm4.062.736a.5.5 0 0 1-.088.078l.08-.073z" style="fill:currentColor;stroke-width:3.75;stroke-linejoin:round"/></svg>