<?xml version="1.0" encoding="UTF-8" standalone="no"?>
<!-- Created with Inkscape (http://www.inkscape.org/) -->

<svg
   width="32"
   height="32"
   viewBox="0 0 32 32"
   version="1.1"
   id="svg1"
   inkscape:version="1.4.1-rc (d9e8dc1fe0, 2025-03-10)"
   sodipodi:docname="favicon.svg"
   xmlns:inkscape="http://www.inkscape.org/namespaces/inkscape"
   xmlns:sodipodi="http://sodipodi.sourceforge.net/DTD/sodipodi-0.dtd"
   xmlns="http://www.w3.org/2000/svg"
   xmlns:svg="http://www.w3.org/2000/svg">
  <sodipodi:namedview
     id="namedview1"
     pagecolor="#505050"
     bordercolor="#eeeeee"
     borderopacity="1"
     inkscape:showpageshadow="0"
     inkscape:pageopacity="0"
     inkscape:pagecheckerboard="0"
     inkscape:deskcolor="#505050"
     inkscape:document-units="mm"
     showguides="false"
     inkscape:zoom="1"
     inkscape:cx="26.5"
     inkscape:cy="15"
     inkscape:window-width="1920"
     inkscape:window-height="1011"
     inkscape:window-x="0"
     inkscape:window-y="32"
     inkscape:window-maximized="1"
     inkscape:current-layer="layer1" />
  <defs
     id="defs1" />
  <g
     inkscape:label="Layer 1"
     inkscape:groupmode="layer"
     id="layer1">
    <circle
       style="fill:#f2f2f2;stroke-width:1.05969;stroke-linecap:round;stroke-linejoin:round;stroke-dasharray:1.05969, 2.11941, 1.05969, 4.23881;fill-opacity:1"
       id="path1"
       cx="16"
       cy="16"
       r="16" />
    <path
       id="text1"
       style="font-weight:bold;font-size:35.11px;line-height:58.5168px;font-family:Helvetica;-inkscape-font-specification:'Helvetica, Bold';text-align:center;letter-spacing:0px;text-anchor:middle;stroke-width:2.92583;stroke-linecap:round"
       d="m 15.582874,2.6584736 c -0.977581,0 -1.882281,0.072169 -2.714844,0.2128906 v 4.5468746 c 0.663509,-0.2445466 1.445461,-0.3710934 2.353516,-0.3710934 1.222904,0 2.247424,0.2118926 3.070312,0.6347654 0.653628,0.338919 1.145468,0.802955 1.478516,1.388672 V 3.3576923 C 18.504017,2.892278 17.108395,2.6584736 15.582874,2.6584736 Z M 12.86803,12.574489 v 5.138672 c 0.319899,0.08058 0.651593,0.159511 1,0.238282 l 2.673828,0.599609 c 1.419481,0.310835 2.494515,0.665068 3.228516,1.060547 v -5.283203 c -0.05953,-0.01479 -0.115307,-0.03044 -0.175781,-0.04492 l -4.355469,-1.046875 c -1.009816,-0.240433 -1.782432,-0.458838 -2.371094,-0.66211 z m 6.902344,11.595704 c -0.260612,0.168161 -0.558213,0.31297 -0.896484,0.433593 -0.777174,0.274297 -1.789394,0.410156 -3.035157,0.410157 -1.194285,-1e-6 -2.179551,-0.17668 -2.970703,-0.519532 v 4.548828 c 0.974821,0.181139 2.032837,0.273438 3.177735,0.273438 1.375068,0 2.615823,-0.139492 3.724609,-0.416016 z" />
    <path
       id="path2"
       style="font-weight:bold;font-size:35.11px;line-height:58.5168px;font-family:Helvetica;-inkscape-font-specification:'Helvetica, Bold';text-align:center;letter-spacing:0px;text-anchor:middle;stroke-width:2.92583;stroke-linecap:round"
       d="M 10.80151,5.0029871 C 9.5598455,5.3771286 8.5163708,5.9440253 7.6765098,6.7080653 c -1.645779,1.4972028 -2.46875,3.3776777 -2.46875,5.6406247 0,2.480099 0.851763,4.30299 2.554688,5.46875 0.660381,0.457765 1.6789947,0.89127 3.0390622,1.304688 v -5.480469 c -0.469484,-0.423384 -0.707031,-0.978261 -0.707031,-1.669922 0,-0.748111 0.236938,-1.370676 0.707031,-1.867187 z M 4.7976038,22.669003 c 0,2.628676 0.942336,4.696447 2.828125,6.205078 0.89846,0.713322 1.9582227,1.255437 3.1757812,1.628906 v -5.222656 c -0.0068,-0.0081 -0.01476,-0.01528 -0.02148,-0.02344 C 10.31144,24.685439 9.9966756,23.823331 9.8366706,22.669 Z" />
  </g>
</svg>
