<?xml version="1.0" encoding="UTF-8" standalone="no"?>
<!-- Created with Inkscape (http://www.inkscape.org/) -->

<svg
   width="32"
   height="32"
   viewBox="0 0 32 32"
   version="1.1"
   id="svg1"
   inkscape:version="1.4.1-rc (d9e8dc1fe0, 2025-03-10)"
   sodipodi:docname="favicon.svg"
   xmlns:inkscape="http://www.inkscape.org/namespaces/inkscape"
   xmlns:sodipodi="http://sodipodi.sourceforge.net/DTD/sodipodi-0.dtd"
   xmlns="http://www.w3.org/2000/svg"
   xmlns:svg="http://www.w3.org/2000/svg">
  <sodipodi:namedview
     id="namedview1"
     pagecolor="#505050"
     bordercolor="#eeeeee"
     borderopacity="1"
     inkscape:showpageshadow="0"
     inkscape:pageopacity="0"
     inkscape:pagecheckerboard="0"
     inkscape:deskcolor="#505050"
     inkscape:document-units="mm"
     showguides="false"
     inkscape:zoom="16"
     inkscape:cx="18.34375"
     inkscape:cy="11.3125"
     inkscape:window-width="1920"
     inkscape:window-height="1011"
     inkscape:window-x="0"
     inkscape:window-y="32"
     inkscape:window-maximized="1"
     inkscape:current-layer="layer1" />
  <defs
     id="defs1" />
  <g
     inkscape:label="Layer 1"
     inkscape:groupmode="layer"
     id="layer1">
    <circle
       style="fill:#f2f2f2;stroke-width:1.05969;stroke-linecap:round;stroke-linejoin:round;stroke-dasharray:1.05969, 2.11941, 1.05969, 4.23881;fill-opacity:1"
       id="path1"
       cx="16"
       cy="16"
       r="16" />
    <path
       d="m 16.004269,19.23831 c 4.211056,0 6.671449,-2.117357 6.671449,-5.216505 0,-3.07549 -2.566852,-4.435803 -5.181019,-5.0627299 L 15.850495,8.533238 C 14.419209,8.1783737 12.845977,7.5869333 12.845977,6.1083321 c 0,-1.3366554 1.206539,-2.3184465 3.193779,-2.3184465 1.904438,0 3.181949,0.8753318 3.335724,2.3775906 h 3.063661 c -0.0828,-2.9453735 -2.590509,-5.0627303 -6.35207,-5.0627303 -3.690588,0 -6.4348721,2.0818704 -6.4348721,5.1928472 0,2.4840499 1.7388351,3.9744799 4.6842081,4.7315239 l 1.999069,0.520467 c 1.904438,0.49681 3.18195,1.076422 3.18195,2.448564 0,1.514087 -1.454944,2.543194 -3.536814,2.543194 -1.98724,0 -3.560472,-0.89899 -3.702417,-2.756113 H 9.1672177 c 0.1419457,3.47767 2.7324553,5.453081 6.8370513,5.453081 z"
       id="text1"
       style="font-weight:600;font-size:24.2254px;line-height:1.2;font-family:Inter;-inkscape-font-specification:'Inter, Semi-Bold';fill:#333333;stroke-width:0.719009;stroke-linecap:round;stroke-linejoin:round;stroke-dasharray:0.719009, 1.438, 0.719009, 2.87603"
       aria-label="S" />
    <path
       d="m 9.1665614,30.095863 h 2.9655706 v -8.068096 c 0,-0.904935 -0.09813,-2.616679 -0.207154,-4.6228 1.090283,2.115149 1.700842,3.270849 2.551263,4.633703 l 5.069817,8.057193 h 3.303558 v -16.24522 h -2.954668 v 8.526015 c 0,0.992158 0.06542,2.638486 0.174446,4.208493 -0.708684,-1.624522 -1.417369,-2.856542 -1.995219,-3.783282 L 12.459217,13.850643 H 9.1665614 Z"
       id="text2"
       style="font-weight:600;font-size:22.329px;line-height:1.2;font-family:Inter;-inkscape-font-specification:'Inter, Semi-Bold';fill:#333333;stroke-width:0.613216;stroke-linecap:round;stroke-linejoin:round;stroke-dasharray:0.613216, 1.22642, 0.613216, 2.45286"
       aria-label="N" />
    <g
       id="path3"
       style="opacity:1"
       transform="matrix(1,0,0,2.5841594,1.1875,-24.848407)">
      <path
         style="baseline-shift:baseline;display:inline;overflow:visible;vector-effect:none;fill:#333333;stroke-linejoin:round;enable-background:accumulate;stop-color:#000000;stop-opacity:1"
         d="m 25.047223,15.686067 h 4.30742"
         id="path4" />
      <path
         style="baseline-shift:baseline;display:inline;overflow:visible;vector-effect:none;fill:#333333;stroke-linejoin:round;enable-background:accumulate;stop-color:#000000;stop-opacity:1"
         d="m 25.046875,15.291016 v 0.789062 h 4.308594 v -0.789062 z"
         id="path5" />
    </g>
    <g
       id="path2"
       style="opacity:1"
       transform="matrix(1,0,0,2.5841594,-0.8125,-24.848407)">
      <path
         style="baseline-shift:baseline;display:inline;overflow:visible;vector-effect:none;fill:#333333;stroke-linejoin:round;enable-background:accumulate;stop-color:#000000;stop-opacity:1"
         d="m 2.297223,15.686067 h 4.30742"
         id="path6" />
      <path
         style="baseline-shift:baseline;display:inline;overflow:visible;vector-effect:none;fill:#333333;stroke-linejoin:round;enable-background:accumulate;stop-color:#000000;stop-opacity:1"
         d="m 2.296875,15.291016 v 0.789062 h 4.3085937 v -0.789062 z"
         id="path7" />
    </g>
  </g>
</svg>
