<?xml version="1.0" encoding="UTF-8" standalone="no"?>
<svg
   viewBox="0 0 24 24"
   version="1.1"
   id="svg2"
   sodipodi:docname="GitHub_gezeichnet.svg"
   width="24"
   height="24"
   inkscape:version="1.4.1-rc (06eac75fbf, 2025-03-29)"
   xml:space="preserve"
   xmlns:inkscape="http://www.inkscape.org/namespaces/inkscape"
   xmlns:sodipodi="http://sodipodi.sourceforge.net/DTD/sodipodi-0.dtd"
   xmlns="http://www.w3.org/2000/svg"
   xmlns:svg="http://www.w3.org/2000/svg"><defs
     id="defs2" /><sodipodi:namedview
     id="namedview2"
     pagecolor="#505050"
     bordercolor="#eeeeee"
     borderopacity="1"
     inkscape:showpageshadow="0"
     inkscape:pageopacity="0"
     inkscape:pagecheckerboard="0"
     inkscape:deskcolor="#505050"
     inkscape:zoom="16"
     inkscape:cx="14.84375"
     inkscape:cy="20.875"
     inkscape:window-width="1920"
     inkscape:window-height="1011"
     inkscape:window-x="0"
     inkscape:window-y="32"
     inkscape:window-maximized="1"
     inkscape:current-layer="svg2" /><path
     id="path19"
     style="fill:#1a1a1a;stroke-width:3;stroke-linejoin:round"
     d="M 10.380859 -0.017578125 C 10.367858 -0.0094865472 10.354433 -0.0010337299 10.339844 0.005859375 C 10.341992 0.0027964467 10.343562 -0.0008382014 10.345703 -0.00390625 L 10.347656 -0.005859375 L 10.349609 -0.0078125 L 10.349609 -0.009765625 L 10.349609 -0.01171875 L 10.349609 -0.013671875 L 10.347656 -0.013671875 L 10.345703 -0.013671875 L 10.34375 -0.015625 L 10.341797 -0.015625 C 10.320935 -0.014406777 10.265624 0.0078449031 10.240234 0.01171875 C 10.191784 0.01911235 10.144266 0.026575275 10.095703 0.033203125 C 9.8948445 0.060616015 9.6932497 0.0910667 9.4921875 0.1171875 C 8.8653878 0.21046199 8.2462134 0.33553606 7.6269531 0.46875 C 7.0843984 0.57942486 6.5543489 0.74879922 6.0351562 0.93945312 C 5.6587963 1.0782095 5.3297673 1.3045472 5.015625 1.5488281 C 4.7061367 1.7906835 4.4044622 2.0435591 4.109375 2.3027344 C 3.7785353 2.6104297 3.4432355 2.910109 3.1132812 3.21875 C 2.5361515 3.7511196 2.0234706 4.3442152 1.4902344 4.9179688 C 1.2973253 5.1274167 1.0934764 5.3298905 0.93554688 5.5683594 C 0.84621806 5.7032433 0.82763599 5.7493654 0.75585938 5.8925781 C 0.57526581 6.3126842 0.45135345 6.7514846 0.33789062 7.1933594 C 0.20403738 7.7159653 0.13305397 8.2503071 0.12304688 8.7890625 C 0.12737845 8.9237803 0.07476466 9.1364074 0.2734375 9.1914062 C 0.28303916 9.1940643 0.29301131 9.1957247 0.30273438 9.1972656 C 0.25092446 9.470117 0.20424025 9.7439382 0.14648438 10.015625 C 0.039266705 10.483939 -0.01221395 10.962299 -0.078125 11.4375 C -0.13133244 11.784392 -0.1384387 12.136692 -0.0859375 12.484375 C -0.07064321 12.585659 -0.071682315 12.695733 -0.025390625 12.787109 C 0.017862295 12.872489 0.1059229 12.924784 0.171875 12.994141 C 0.21340248 13.002221 0.25534752 13.011452 0.296875 13.019531 C 0.28711238 13.16491 0.294287 13.310317 0.27734375 13.455078 C 0.27612743 13.46547 0.27442023 13.475065 0.2734375 13.482422 C 0.26227681 13.508948 0.24752835 13.53669 0.23046875 13.564453 C 0.24167177 13.554256 0.2538854 13.54383 0.265625 13.533203 C 0.2656905 13.538755 0.26552959 13.547504 0.265625 13.5625 C 0.33778886 13.499717 0.4113598 13.43685 0.484375 13.375 C 0.47687005 13.442161 0.4681148 13.509232 0.45898438 13.576172 C 0.41107017 13.839436 0.39357917 14.106237 0.38085938 14.373047 C 0.34528047 14.69165 0.38630763 15.014413 0.43164062 15.330078 C 0.46219763 15.659936 0.50549047 15.987203 0.55664062 16.314453 C 0.58784696 16.533631 0.65205117 16.742358 0.72851562 16.947266 L 0.46289062 17.189453 C 0.50533183 17.389216 0.61980165 17.563818 0.71679688 17.740234 C 0.81986852 17.927701 0.80143883 17.898539 0.90039062 18.099609 C 1.0606526 18.388741 1.2762565 18.642002 1.4648438 18.912109 C 1.5909772 19.092766 1.6263265 19.158732 1.7421875 19.347656 C 1.9365055 19.653753 2.086549 19.984215 2.2832031 20.289062 C 2.3660291 20.417458 2.4967818 20.58989 2.5878906 20.712891 C 2.6379776 20.778131 2.6882955 20.842885 2.7382812 20.908203 C 2.8728511 21.084049 2.89081 21.118164 3.0410156 21.283203 C 3.2093974 21.468213 3.3935121 21.637734 3.5722656 21.8125 C 4.0019884 22.17778 4.3819342 22.595537 4.7734375 23 C 5.0080791 23.241242 5.2714652 23.447883 5.5390625 23.650391 C 5.7980017 23.846347 5.9138362 23.990423 6.2851562 23.980469 C 6.5259193 23.973969 6.7560803 23.885452 6.9921875 23.837891 L 7.0332031 23.794922 C 7.015788 23.612234 7.0458979 23.41828 6.9824219 23.246094 C 6.9379426 23.125438 6.8622177 23.043976 6.7734375 22.978516 C 6.8099139 22.992621 6.8465186 23.00694 6.8828125 23.021484 C 7.2459773 23.158128 7.5973557 23.319729 7.9570312 23.464844 C 8.2368461 23.557424 8.5037696 23.683925 8.7792969 23.787109 C 9.0078579 23.862029 9.2367963 23.934333 9.46875 23.998047 C 9.7163551 24.051297 9.9714521 24.048042 10.222656 24.076172 C 10.543808 24.069972 10.864925 24.090263 11.185547 24.064453 C 11.467276 24.041773 11.585238 24.019636 11.869141 23.978516 C 12.114851 23.909474 12.20508 23.88902 12.251953 23.871094 C 12.253848 23.873784 12.255864 23.876123 12.257812 23.878906 C 12.314723 23.889136 12.369949 23.908076 12.427734 23.910156 C 12.509874 23.913156 12.713784 23.874258 12.792969 23.861328 C 12.994382 23.828448 13.196183 23.795021 13.394531 23.746094 C 13.905777 23.615737 14.422328 23.50626 14.941406 23.412109 C 15.487093 23.320709 14.86665 23.425878 15.412109 23.330078 C 15.489279 23.316518 15.566315 23.308996 15.642578 23.291016 C 15.801991 23.25344 15.95811 23.195138 16.115234 23.146484 C 15.9005 23.343273 15.808945 23.549723 16.056641 23.71875 L 16.058594 23.71875 L 16.060547 23.71875 C 16.067177 23.717909 16.080153 23.712716 16.095703 23.707031 C 16.072839 23.726399 16.058311 23.740006 16.054688 23.744141 C 16.059529 23.742378 16.083664 23.726758 16.132812 23.693359 C 16.171072 23.678173 16.213495 23.66077 16.224609 23.658203 L 16.226562 23.658203 C 16.495067 23.588253 16.754702 23.487972 17.025391 23.425781 C 17.342304 23.324665 17.58123 23.220388 17.822266 22.980469 C 18.160878 22.691041 18.502389 22.404058 18.863281 22.142578 C 19.183263 21.910218 19.484466 21.653405 19.761719 21.371094 C 20.018844 21.12143 20.278225 20.87311 20.53125 20.619141 C 20.280279 20.962715 19.993482 21.279599 19.699219 21.587891 C 19.505764 21.785748 19.521004 21.770356 19.328125 21.962891 C 19.25547 22.03611 19.254002 22.036203 19.197266 22.09375 C 19.189416 22.10144 19.142689 22.148591 19.15625 22.134766 C 19.133429 22.15778 19.106501 22.182397 19.087891 22.201172 C 19.077498 22.209329 18.964048 22.321081 18.919922 22.361328 C 18.870682 22.406238 18.821499 22.450091 18.771484 22.494141 C 18.737574 22.524001 18.473936 22.751484 18.451172 22.775391 C 18.318439 22.914777 18.194528 23.063395 18.066406 23.207031 L 18.03125 23.253906 C 17.99757 23.328106 17.914262 23.396546 17.929688 23.476562 C 17.929991 23.478142 17.931209 23.481142 17.931641 23.482422 L 17.933594 23.484375 L 17.933594 23.486328 L 17.935547 23.488281 L 17.9375 23.488281 L 17.9375 23.490234 L 17.939453 23.490234 L 17.941406 23.490234 L 17.943359 23.490234 L 17.945312 23.490234 C 17.94638 23.490015 17.950021 23.488702 17.951172 23.488281 C 17.979432 23.474329 18.02759 23.411564 18.056641 23.388672 C 18.236432 23.246943 18.40401 23.080826 18.566406 22.919922 C 18.825864 22.662849 19.083496 22.402767 19.341797 22.144531 C 19.654971 21.826743 19.571272 21.912353 19.082031 22.394531 C 19.502301 21.963119 19.936753 21.548153 20.351562 21.111328 C 20.735402 20.701255 21.112921 20.28273 21.400391 19.796875 C 21.568087 19.541443 21.733441 19.284556 21.898438 19.027344 C 21.989289 18.907388 22.078479 18.786388 22.166016 18.664062 C 22.242696 18.548013 22.287801 18.486313 22.353516 18.363281 C 22.393123 18.289127 22.426491 18.212158 22.458984 18.134766 C 22.762242 17.630987 23.064708 17.125595 23.304688 16.587891 C 23.385368 16.38299 23.469434 16.179572 23.554688 15.976562 C 23.569427 15.941472 23.657105 15.732611 23.669922 15.685547 C 23.677322 15.658387 23.674834 15.629562 23.677734 15.601562 L 23.509766 15.740234 C 23.567234 15.587786 23.623238 15.434115 23.695312 15.287109 L 23.197266 15.673828 C 23.216508 15.638074 23.23505 15.602389 23.253906 15.566406 C 23.460519 15.146854 23.664612 14.715206 23.722656 14.246094 C 23.764256 13.79001 23.755829 13.329684 23.792969 12.873047 C 23.788269 12.415947 23.76966 11.959122 23.78125 11.501953 C 23.78015 11.057621 23.785034 10.612733 23.740234 10.169922 C 23.711603 9.9863015 23.679796 9.8032751 23.642578 9.6210938 C 23.703146 9.4990072 23.766942 9.3779632 23.806641 9.2480469 C 23.866969 9.050618 23.774532 8.8611084 23.734375 8.6738281 C 23.664642 8.3475573 23.592091 8.0220017 23.5 7.7011719 C 23.413415 7.3232508 23.401054 6.9340814 23.308594 6.5566406 C 23.246235 6.2933571 23.185369 6.024757 23.035156 5.7949219 C 22.961793 5.6668644 22.877739 5.5475326 22.800781 5.421875 C 22.725564 5.2990589 22.663847 5.168343 22.558594 5.0664062 C 22.347324 4.8338018 22.125785 4.6114164 21.898438 4.3945312 C 21.686948 4.2170939 21.492249 4.0176126 21.269531 3.8535156 C 21.048353 3.6748642 20.825152 3.4987961 20.619141 3.3027344 C 20.439022 3.1290937 20.255999 2.9585347 20.09375 2.7675781 C 19.961352 2.6162376 19.816707 2.475199 19.669922 2.3378906 C 19.481031 2.1822704 19.308425 2.0089186 19.109375 1.8652344 C 18.914246 1.717018 18.728005 1.5547464 18.523438 1.4199219 C 18.339742 1.2905163 18.131354 1.2042349 17.925781 1.1152344 C 17.665504 0.99425401 17.397895 0.88908652 17.125 0.80078125 C 16.860746 0.69932898 16.593413 0.60426921 16.316406 0.54296875 C 16.009552 0.45506485 16.33763 0.5448031 16.027344 0.46875 C 15.839929 0.4228129 15.655038 0.36699537 15.458984 0.38085938 C 15.24013 0.39035237 15.019805 0.38479045 14.802734 0.41796875 L 14.736328 0.49804688 C 14.54675 0.4260575 14.35508 0.35635768 14.15625 0.31640625 C 13.813773 0.25363225 13.47079 0.20627475 13.121094 0.22460938 C 12.84705 0.22860638 12.575184 0.25604782 12.300781 0.25195312 L 11.554688 1.1230469 C 11.82637 1.1390699 12.097656 1.115878 12.369141 1.109375 C 12.703656 1.095084 13.031259 1.1388248 13.355469 1.2167969 C 13.608455 1.2984009 13.856591 1.3950813 14.101562 1.4980469 C 14.45201 1.6400294 14.793272 1.8024974 15.142578 1.9472656 C 15.506095 2.0782245 15.867385 2.2152512 16.222656 2.3671875 C 16.450293 2.471056 16.692917 2.5372364 16.919922 2.6425781 C 17.007372 2.6831601 17.223249 2.8049357 17.304688 2.8496094 C 17.658112 3.0680249 17.996437 3.3111066 18.316406 3.5761719 C 18.359886 3.6200859 18.40575 3.6612564 18.447266 3.7070312 C 18.583805 3.8575668 18.53924 3.8266157 18.660156 3.984375 C 18.780539 4.1414374 18.917753 4.2875463 19.048828 4.4355469 C 19.331965 4.7789793 19.650771 5.0868252 19.980469 5.3847656 C 20.381183 5.7322371 20.751149 6.1109167 21.119141 6.4921875 C 21.30949 6.7212908 21.506245 6.9493418 21.658203 7.2070312 C 21.732273 7.3326313 21.78057 7.4495268 21.839844 7.5820312 C 22.010052 7.9465611 22.133803 8.3267521 22.25 8.7109375 C 22.355248 9.071912 22.469529 9.4307634 22.570312 9.7929688 C 22.68462 10.187589 22.753098 10.591944 22.794922 11 C 22.837572 11.431809 22.843756 11.867116 22.847656 12.300781 C 22.861496 12.765057 22.839964 13.229155 22.833984 13.693359 C 22.829684 14.149351 22.81779 14.603285 22.75 15.054688 C 22.68499 15.507573 22.487133 15.922909 22.277344 16.324219 C 22.130093 16.60706 21.948617 16.871372 21.794922 17.150391 C 21.757102 17.219041 21.633742 17.467018 21.597656 17.539062 C 21.381442 17.960835 21.162257 18.384257 20.896484 18.777344 C 20.726821 19.034897 20.559137 19.293915 20.361328 19.53125 C 20.350979 19.543666 20.288334 19.613529 20.220703 19.689453 C 20.12709 19.775685 20.033423 19.861408 19.939453 19.947266 C 19.670985 20.198428 19.40995 20.456549 19.150391 20.716797 C 18.88615 20.965766 18.602666 21.193136 18.304688 21.400391 C 17.941723 21.643948 17.549995 21.834848 17.142578 21.990234 C 16.732632 22.127065 16.307272 22.209764 15.880859 22.275391 C 15.85349 22.278207 15.82614 22.281981 15.798828 22.285156 C 15.812379 22.271532 15.826462 22.257935 15.839844 22.244141 C 15.880794 22.201931 15.916752 22.152995 15.941406 22.099609 L 15.943359 22.099609 L 15.943359 22.097656 C 15.945494 22.072455 15.920663 21.958958 15.919922 21.955078 C 15.860102 21.649807 15.859822 21.336978 15.816406 21.029297 C 15.753086 20.418408 15.71631 19.806364 15.679688 19.193359 C 15.612377 18.597198 15.541987 17.999139 15.40625 17.414062 C 15.32833 17.138511 15.221634 16.880148 15.083984 16.628906 L 13.949219 17.693359 C 13.52954 17.437171 13.098349 17.198231 12.669922 16.958984 C 12.700506 16.96064 12.731134 16.963191 12.761719 16.964844 L 12.802734 16.921875 C 12.767558 16.828977 12.732444 16.735475 12.697266 16.642578 C 12.748256 16.695132 12.796295 16.751428 12.857422 16.791016 C 12.934202 16.840736 13.025064 16.861002 13.109375 16.896484 C 13.640568 16.801634 13.376433 16.863647 13.90625 16.707031 L 13.949219 16.666016 C 13.997945 16.511293 14.027226 16.421482 14.046875 16.361328 C 14.090789 16.41279 14.136179 16.460327 14.199219 16.472656 C 14.272999 16.487088 14.347825 16.475159 14.421875 16.455078 C 14.402197 16.481337 14.388621 16.500607 14.384766 16.509766 L 14.384766 16.511719 L 14.384766 16.513672 L 14.384766 16.515625 L 14.386719 16.515625 L 14.388672 16.515625 C 14.402473 16.512465 14.44682 16.480294 14.525391 16.423828 C 14.56594 16.411678 14.605973 16.399847 14.646484 16.392578 L 15.0625 16.265625 L 15.105469 16.224609 C 15.118766 16.187406 15.131233 16.148531 15.144531 16.111328 C 15.248168 16.058482 15.34711 15.999581 15.431641 15.917969 C 15.545847 15.825009 15.666789 15.740432 15.775391 15.640625 C 16.263317 15.15539 16.755427 14.744727 17.15625 14.208984 C 17.284012 14.025354 17.409236 13.834718 17.501953 13.630859 C 17.580853 13.403828 17.624677 13.169981 17.638672 12.929688 C 17.647472 12.720989 17.652652 12.510946 17.632812 12.302734 C 17.608383 12.030354 17.572325 11.759892 17.505859 11.494141 C 17.431099 11.201396 17.298427 10.928569 17.146484 10.667969 C 17.047217 10.525034 16.955835 10.378768 16.863281 10.232422 C 17.367307 9.8257684 17.587777 9.6947954 17.246094 9.46875 C 17.535556 9.1965718 17.800757 8.4869269 18.033203 8.1894531 C 18.025307 8.1821118 18.018975 8.1739597 18.011719 8.1660156 C 17.958906 8.1461246 17.842944 8.1262446 17.833984 8.125 C 17.781685 8.1292774 17.729754 8.1382282 17.679688 8.1503906 C 17.7653 8.0067406 17.827922 7.9861502 17.978516 8.125 C 17.944357 8.0784657 17.91656 8.0263255 17.888672 7.9765625 C 17.778079 7.728054 17.688673 7.4676848 17.679688 7.1933594 C 17.685787 7.0840782 17.681535 7.0765551 17.703125 6.9824219 C 17.738785 6.8269351 17.717297 6.819461 17.589844 6.7011719 C 17.513894 6.7393759 17.440133 6.7804583 17.367188 6.8242188 C 17.230985 6.9044757 17.075375 6.9746007 16.955078 7.078125 C 16.919308 7.108908 16.891512 7.1490101 16.857422 7.1816406 C 16.819872 7.2175756 16.779015 7.2505568 16.740234 7.2851562 C 16.322207 7.6515388 15.910448 8.0218425 15.511719 8.4082031 C 15.119539 8.368709 14.736349 8.2827229 14.349609 8.2089844 C 13.818897 8.1814334 13.287116 8.1866696 12.755859 8.1816406 C 12.204755 8.1891506 11.653929 8.2272323 11.103516 8.2539062 C 10.898536 8.2614963 10.667491 8.2609587 10.472656 8.2929688 C 10.47835 8.2955311 10.483293 8.3004981 10.486328 8.3027344 L 10.488281 8.3046875 L 10.490234 8.3046875 L 10.490234 8.3066406 L 10.492188 8.3085938 L 10.492188 8.3105469 L 10.490234 8.3105469 L 10.490234 8.3125 L 10.490234 8.3144531 L 10.488281 8.3164062 L 10.486328 8.3183594 C 10.47707 8.3260069 10.458584 8.3336836 10.445312 8.3457031 C 10.393952 8.3584751 10.351158 8.3291716 10.306641 8.3066406 C 10.285591 8.2873256 10.264711 8.2837611 10.244141 8.2675781 C 10.208321 8.2393941 10.179388 8.2000016 10.134766 8.1816406 C 9.9570572 8.0276896 9.7869894 7.8672508 9.6113281 7.7109375 C 9.2974727 7.4593674 8.9664154 7.2304676 8.6289062 7.0117188 C 8.3232575 6.8189708 8.0161911 6.6269421 7.71875 6.421875 C 7.2502369 6.0626199 7.6055301 6.2983038 6.6015625 7.2832031 C 6.5115012 7.3376059 6.4606209 7.3704977 6.4550781 7.3964844 L 6.4550781 7.3984375 L 6.4550781 7.4003906 L 6.4550781 7.4023438 L 6.4570312 7.4042969 L 6.4570312 7.40625 C 6.4604577 7.4171689 6.4733986 7.4272912 6.4941406 7.4394531 L 6.4941406 7.4414062 L 6.4960938 7.4414062 C 6.5198318 7.5020207 6.5241351 7.5685519 6.5488281 7.6289062 C 6.6517244 7.979616 6.8063681 8.3146334 6.9023438 8.6679688 C 7.0303033 9.0291942 7.1536112 9.3974761 7.3378906 9.734375 L 7.8867188 9.1972656 C 7.9674349 9.2874813 8.0521075 9.3726001 8.1386719 9.4570312 C 7.6570464 9.8859486 7.1895363 10.336119 6.8183594 10.863281 C 6.5665434 11.197427 6.4096604 11.583193 6.2890625 11.980469 C 6.1599207 12.422223 6.1078768 12.879088 6.0996094 13.337891 C 6.1253114 13.83175 6.2283509 14.318773 6.3574219 14.794922 C 6.4639215 15.232296 6.6946917 15.611611 6.9570312 15.970703 C 7.1858875 16.269332 7.3948765 16.582318 7.6210938 16.882812 C 7.6781977 16.954123 7.7250518 17.031094 7.7714844 17.109375 L 7.7734375 17.111328 C 7.7774553 17.119741 7.7827395 17.134604 7.7871094 17.142578 L 7.7871094 17.144531 L 7.7890625 17.146484 L 7.7910156 17.148438 L 7.7929688 17.148438 L 7.7949219 17.148438 L 7.796875 17.148438 C 7.83662 17.141738 7.8722199 17.114681 7.9023438 17.087891 C 7.9803234 17.018543 8.0556848 16.947397 8.1308594 16.875 C 8.462799 17.079709 8.8419397 17.193096 9.2109375 17.316406 C 9.217581 17.318455 9.3701547 17.365171 9.4765625 17.398438 C 9.4792942 17.431279 9.4800835 17.463138 9.4804688 17.496094 C 9.4825188 17.672444 9.4686526 17.849191 9.4628906 18.025391 C 9.4500926 18.4775 9.3123195 18.909177 9.2011719 19.34375 C 9.080742 19.818013 8.9448354 20.287834 8.8085938 20.757812 C 8.5927727 20.544126 8.4024399 20.30355 8.2265625 20.056641 C 8.0157851 19.742422 7.78182 19.444536 7.5488281 19.146484 C 7.3738923 18.980593 7.191768 18.831229 7.0078125 18.675781 C 6.9629308 18.637854 6.6456244 18.358778 6.6035156 18.324219 C 6.5334206 18.266693 6.4605746 18.213453 6.3886719 18.158203 C 6.3053258 18.116195 6.2208665 18.075469 6.1386719 18.03125 C 5.9617445 17.936067 5.7966732 17.81528 5.6152344 17.728516 C 5.5739604 17.708776 5.5299384 17.696654 5.4882812 17.677734 C 5.4610972 17.665394 5.4364463 17.648916 5.4101562 17.634766 L 4.6113281 18.486328 C 4.6388991 18.499108 4.6686705 18.510771 4.6953125 18.525391 C 4.7334845 18.546341 4.7695016 18.57102 4.8066406 18.59375 C 4.8522616 18.61961 4.8971807 18.645072 4.9433594 18.669922 C 5.0274584 18.715172 5.259202 18.829788 5.3320312 18.882812 C 5.4018632 18.933653 5.461099 18.997 5.5253906 19.054688 C 5.9276842 19.350514 6.2919436 19.694721 6.5996094 20.087891 C 6.7085305 20.244489 6.8159093 20.406201 6.9101562 20.572266 C 6.9423642 20.629016 6.9655249 20.689522 6.9980469 20.746094 C 7.0577139 20.849887 7.1278879 20.947346 7.1914062 21.048828 C 7.3681205 21.320906 7.547863 21.590343 7.7714844 21.826172 C 7.9560717 21.991075 8.1923696 22.187193 8.4277344 22.273438 C 8.4820414 22.293337 8.5396419 22.302176 8.5957031 22.316406 C 8.621658 22.313557 8.6445846 22.310794 8.6660156 22.308594 C 8.673236 22.378256 8.6803261 22.420904 8.6933594 22.439453 C 8.3802877 22.326814 8.0747707 22.194287 7.7714844 22.056641 C 7.4631052 21.92955 7.1682814 21.774615 6.8554688 21.658203 C 6.6030305 21.556196 6.3601889 21.432969 6.1191406 21.306641 C 5.8534279 21.164146 5.6175136 20.976328 5.3691406 20.806641 C 5.1265341 20.640324 4.8893072 20.466263 4.6894531 20.248047 C 4.4683717 20.028066 4.2440382 19.810284 4.046875 19.568359 C 3.8217251 19.324405 3.5830574 19.09393 3.3710938 18.837891 C 3.1669327 18.592822 2.9688193 18.342849 2.8046875 18.068359 C 2.6126711 17.802786 2.4391276 17.524759 2.2460938 17.259766 C 2.0518104 16.975511 1.8430095 16.69831 1.6894531 16.388672 C 1.5700869 16.119648 1.4794773 15.841246 1.4121094 15.554688 C 1.3380962 15.242145 1.2903706 14.925544 1.2617188 14.605469 C 1.2367678 14.288005 1.1971954 13.968085 1.2402344 13.650391 C 1.2712194 13.388694 1.279194 13.124959 1.3125 12.863281 C 1.320004 12.78578 1.3279808 12.708257 1.3359375 12.630859 C 1.3395106 12.627455 1.3440896 12.624505 1.3476562 12.621094 L 1.3496094 12.619141 L 1.3496094 12.617188 L 1.3515625 12.615234 L 1.3515625 12.613281 L 1.3515625 12.611328 L 1.3515625 12.609375 L 1.3515625 12.607422 L 1.3515625 12.605469 C 1.3499776 12.599575 1.346273 12.592556 1.3417969 12.585938 C 1.3668708 12.347228 1.3948784 12.109425 1.4394531 11.873047 C 1.5096021 11.522156 1.5882437 11.172107 1.671875 10.824219 C 1.7399295 10.499031 1.7848803 10.169261 1.8515625 9.84375 C 1.8819802 9.618287 1.9200237 9.3949351 1.9648438 9.171875 C 2.0978002 8.8105585 2.2354744 8.4513046 2.3730469 8.0917969 C 2.5570096 7.6651358 2.7522796 7.241938 2.9433594 6.8183594 C 3.0800335 6.4565732 3.2436786 6.1084744 3.4394531 5.7753906 C 3.5250735 5.6374195 3.607053 5.4983171 3.6875 5.3574219 C 3.7152852 5.3250275 3.7450605 5.2936849 3.7734375 5.2617188 C 3.9799682 5.010418 4.1904491 4.7618578 4.4140625 4.5253906 C 4.6381633 4.3042951 4.8616029 4.0821346 5.0820312 3.8574219 C 5.1578408 3.7841664 5.228868 3.7188666 5.28125 3.6699219 C 5.3664083 3.5889233 5.447878 3.5025379 5.5351562 3.4238281 C 5.7163823 3.2603933 5.9214644 3.1255432 6.1210938 2.9863281 C 6.4139976 2.8066986 6.7062101 2.6259289 7.0019531 2.4511719 C 7.2727715 2.2897971 7.5516854 2.1398767 7.8417969 2.015625 C 8.1415419 1.8853542 8.4405897 1.7563535 8.7597656 1.6796875 C 9.0320467 1.6067552 9.3061189 1.5207568 9.5878906 1.4960938 C 9.8022259 1.5010637 10.021166 1.5169371 10.212891 1.6230469 L 10.740234 1.0605469 C 10.903803 1.0542516 11.067293 1.0473021 11.230469 1.0351562 L 11.929688 0.21484375 C 11.708879 0.25051885 11.486901 0.27454588 11.263672 0.28710938 C 10.985856 0.31027728 10.707535 0.33081755 10.431641 0.37109375 C 10.288577 0.39047834 10.145712 0.41337961 10.003906 0.44140625 C 10.074242 0.35533312 10.143749 0.26810816 10.210938 0.1796875 C 10.267234 0.11326972 10.323631 0.047983542 10.380859 -0.017578125 z M 17.978516 8.125 C 17.989015 8.1393031 17.999806 8.1529746 18.011719 8.1660156 C 18.018295 8.1684923 18.023038 8.1714088 18.027344 8.1738281 C 18.009621 8.1559242 17.994174 8.1394369 17.978516 8.125 z M 18.033203 8.1894531 C 18.041439 8.1971099 18.051518 8.2040494 18.060547 8.2109375 C 18.062497 8.2118975 18.067056 8.2143619 18.068359 8.2148438 C 18.058232 8.2041521 18.046605 8.1952695 18.037109 8.1855469 L 18.035156 8.1875 L 18.033203 8.1894531 z M 0.23046875 13.564453 C -0.064438546 13.832875 -0.17480971 13.952409 -0.18554688 13.980469 L -0.18554688 13.982422 L -0.18554688 13.984375 L -0.18554688 13.986328 L -0.18359375 13.986328 L -0.18164062 13.986328 C -0.13673314 13.971441 0.11000879 13.760492 0.23046875 13.564453 z M 6.2050781 1.8164062 C 6.130949 1.8811403 6.0580744 1.9479386 5.9863281 2.015625 C 5.4563181 2.4976469 4.9714279 3.027794 4.4550781 3.5234375 C 4.1681312 3.8196675 3.8887999 4.1281882 3.6660156 4.4765625 C 3.5968082 4.5930028 3.5299359 4.709488 3.4648438 4.828125 C 3.1942795 5.1630181 2.9552056 5.5218728 2.7265625 5.8867188 C 2.5890924 6.1255399 2.4556111 6.3664862 2.3261719 6.609375 C 2.2755525 6.6844231 2.2265984 6.7621506 2.1796875 6.8398438 C 1.9787371 7.1574054 1.8172125 7.4935059 1.6777344 7.8417969 C 1.5683658 8.2048538 1.44662 8.5618959 1.3007812 8.9121094 C 1.1670068 9.2176208 1.0926838 9.5426024 1.0136719 9.8652344 C 0.95940142 10.084134 0.8884856 10.297302 0.82617188 10.513672 C 0.88307108 10.104905 0.93617957 9.6962495 1.0253906 9.2929688 C 1.1135745 8.8027548 1.1797276 8.3077998 1.3183594 7.828125 C 1.4575543 7.3792581 1.6217386 6.9375706 1.8027344 6.5039062 C 1.9645366 6.1605389 2.1395366 5.8240958 2.3007812 5.4804688 C 2.5024748 5.1125527 2.7344579 4.7638567 3.0039062 4.4414062 C 3.2700482 4.1221036 3.5402829 3.806399 3.8007812 3.4824219 C 3.9049234 3.358247 4.0129593 3.2376682 4.1230469 3.1191406 C 4.3058239 2.9519521 4.527577 2.7550036 4.6582031 2.671875 C 5.121572 2.3544405 5.6065942 2.0668939 6.125 1.8476562 C 6.1518616 1.8374254 6.1781481 1.8267606 6.2050781 1.8164062 z M 5.296875 1.8378906 C 5.2925675 1.8407037 5.2894611 1.8428867 5.2851562 1.8457031 C 4.6541267 2.2692588 4.1486539 2.8365229 3.6132812 3.3710938 C 3.3642798 3.6118452 3.137917 3.8713559 2.9160156 4.1367188 C 2.6598588 4.4668149 2.3811814 4.7775194 2.1152344 5.0996094 C 1.8431373 5.4329686 1.6052338 5.7887603 1.40625 6.1699219 C 1.3253897 6.3556769 1.2310566 6.5368596 1.1386719 6.7167969 C 1.1551731 6.6435832 1.1739171 6.5704233 1.1953125 6.4980469 C 1.3212334 6.0507177 1.4588539 5.6021672 1.6679688 5.1855469 C 1.7400045 5.0547609 1.7636824 5.0051714 1.8496094 4.8828125 C 2.0111672 4.6527564 2.2114175 4.4530089 2.4023438 4.2480469 C 2.5172275 4.1240162 2.7431418 3.8809229 2.9101562 3.6972656 C 3.0842368 3.5372658 3.2580965 3.3791978 3.4335938 3.2207031 C 3.726192 2.9583286 4.0297381 2.7091786 4.3359375 2.4628906 C 4.633746 2.2213771 4.9471646 1.9983683 5.296875 1.8378906 z M 6.1503906 2.5664062 C 6.086198 2.62228 6.0229281 2.6795764 5.9609375 2.7382812 C 5.4878825 3.180588 5.0345456 3.6423143 4.5800781 4.1035156 L 4.578125 4.1054688 C 4.5766764 4.1070597 4.5743188 4.1091785 4.5703125 4.1132812 C 4.5448347 4.136921 4.4577555 4.2219111 4.421875 4.2578125 C 4.3279499 4.3517922 4.2342742 4.4448079 4.140625 4.5390625 C 4.2127845 4.405657 4.2839523 4.27326 4.3574219 4.140625 C 4.4076119 4.0813482 4.4593841 4.0223475 4.5117188 3.9648438 C 4.5458014 3.9284988 4.5769675 3.8936132 4.6054688 3.8632812 C 4.7585916 3.7168806 4.9138194 3.5742052 5.0742188 3.4355469 C 5.4153142 3.1257197 5.7735142 2.8318821 6.1503906 2.5664062 z M 7.6640625 6.4160156 L 7.6660156 6.4160156 L 7.6679688 6.4160156 L 7.6699219 6.4160156 L 7.6699219 6.4179688 L 7.6699219 6.4199219 C 7.6598462 6.4303659 7.6486392 6.4409643 7.6386719 6.4511719 C 7.6389422 6.4421626 7.641683 6.4342612 7.6445312 6.4277344 L 7.6445312 6.4257812 L 7.6445312 6.4238281 L 7.6464844 6.4238281 L 7.6484375 6.421875 L 7.6503906 6.421875 C 7.6549616 6.4195037 7.6598205 6.4165128 7.6640625 6.4160156 z M 16.373047 8.1542969 C 16.378473 8.2001138 16.388343 8.2363514 16.400391 8.3007812 C 16.402491 8.3121383 16.404045 8.3226517 16.40625 8.3339844 C 16.053748 8.692696 15.688135 9.0415759 15.359375 9.421875 C 15.333325 9.4459555 15.302554 9.4738031 15.263672 9.5097656 C 15.150656 9.4978273 15.037514 9.4831026 14.925781 9.4628906 C 15.263549 9.1700967 15.590136 8.8636725 15.925781 8.5683594 C 15.909216 8.5496898 15.893169 8.5307196 15.876953 8.5117188 C 16.017355 8.3874512 16.162821 8.2708076 16.328125 8.1777344 C 16.343592 8.1703145 16.357806 8.1624386 16.373047 8.1542969 z M 15.882812 8.4238281 C 15.867821 8.4385326 15.854438 8.4524811 15.839844 8.4667969 C 15.837742 8.4644764 15.834152 8.4632399 15.832031 8.4609375 C 15.845967 8.4537275 15.863633 8.4400893 15.882812 8.4238281 z M 11.734375 9.3847656 C 11.792555 9.3855302 11.850009 9.387491 11.908203 9.3886719 C 11.758944 9.4993767 11.627506 9.5950389 11.509766 9.6777344 C 11.430678 9.6486923 11.350305 9.6175375 11.271484 9.5878906 C 11.020585 9.4952292 10.921426 9.4596035 10.876953 9.4433594 C 11.162737 9.4197049 11.447622 9.3987943 11.734375 9.3847656 z M 8.2089844 9.5234375 C 8.2460448 9.5585616 8.2825439 9.5945074 8.3203125 9.6289062 C 8.1860414 9.766131 7.9501378 10.005718 7.5683594 10.386719 L 8.2089844 9.5234375 z M 17.316406 9.5429688 C 17.315285 9.5566948 17.316342 9.5695548 17.314453 9.5761719 L 17.3125 9.5761719 L 17.3125 9.578125 L 17.310547 9.5800781 L 17.308594 9.5800781 L 17.306641 9.5800781 L 17.304688 9.5800781 C 17.300205 9.5797036 17.294214 9.5786702 17.285156 9.5742188 L 17.316406 9.5429688 z M 14.802734 9.578125 C 14.801185 9.5941228 14.800603 9.6105868 14.798828 9.6289062 C 14.789432 9.6303196 14.778897 9.6329278 14.769531 9.6347656 C 14.778586 9.619141 14.789459 9.6019478 14.798828 9.5859375 C 14.799825 9.5842336 14.80011 9.5816835 14.800781 9.5800781 L 14.802734 9.578125 z M 8.3222656 9.6308594 C 8.4371873 9.7354589 8.5550848 9.8371136 8.6738281 9.9375 L 8.4003906 10.220703 C 8.3174391 10.140484 8.2328525 10.06089 8.1582031 9.9726562 L 7.8105469 10.316406 C 7.8860945 10.184172 7.9698045 10.054249 8.0625 9.9316406 C 8.1449193 9.8280183 8.2426868 9.7180387 8.3222656 9.6308594 z M 15.496094 10.076172 C 15.520979 10.128294 15.559233 10.1695 15.615234 10.152344 L 15.617188 10.152344 L 15.619141 10.152344 C 15.627163 10.147626 15.644249 10.130563 15.666016 10.111328 C 15.685611 10.14154 15.705939 10.173204 15.724609 10.203125 C 15.732477 10.215778 15.746655 10.239108 15.765625 10.269531 C 15.618377 10.408217 15.571561 10.484993 15.800781 10.572266 C 15.84148 10.590858 15.885174 10.60935 15.925781 10.630859 L 15.855469 10.697266 C 15.839254 10.685164 15.823376 10.673983 15.808594 10.660156 C 15.716394 10.573916 15.534195 10.345647 15.466797 10.242188 C 15.453841 10.2223 15.444034 10.193258 15.435547 10.162109 C 15.455182 10.134037 15.47552 10.105356 15.496094 10.076172 z M 12.865234 10.673828 C 12.940415 10.690891 13.015186 10.707338 13.089844 10.726562 C 13.047451 10.779278 13.002132 10.836731 12.951172 10.896484 C 12.894622 10.852002 12.837723 10.806346 12.78125 10.761719 C 12.809482 10.732023 12.837133 10.703669 12.865234 10.673828 z M 7.4589844 11.128906 C 7.4970366 11.176229 7.5418104 11.226507 7.5976562 11.285156 C 7.6366815 11.326141 7.6755009 11.3656 7.7167969 11.404297 L 7.3300781 11.742188 C 7.3579777 11.535095 7.4000307 11.329997 7.4589844 11.128906 z M 15.890625 11.359375 C 15.951177 11.469712 16.013539 11.580873 16.070312 11.693359 C 16.157652 11.840518 16.220451 11.996058 16.273438 12.15625 C 16.244893 12.141615 16.211193 12.123148 16.169922 12.101562 C 15.95984 11.991686 15.755987 11.864846 15.535156 11.777344 C 15.634796 11.674059 15.710092 11.576005 15.740234 11.548828 L 15.78125 11.505859 C 15.816863 11.45687 15.853615 11.407438 15.890625 11.359375 z M 14.806641 11.941406 C 14.808304 11.943235 14.80888 11.945439 14.810547 11.947266 C 14.852307 11.980676 14.888433 12.02157 14.935547 12.046875 C 14.943041 12.050901 14.951346 12.055478 14.958984 12.058594 L 14.849609 12.175781 L 14.847656 12.173828 C 14.845944 12.172668 14.845477 12.173016 14.84375 12.171875 C 14.821174 12.156952 14.796584 12.145065 14.771484 12.134766 C 14.74742 12.11776 14.711759 12.099717 14.666016 12.080078 C 14.712764 12.033584 14.759859 11.987871 14.806641 11.941406 z M 7.2929688 12.130859 C 7.3494985 12.241664 7.429324 12.341881 7.515625 12.435547 L 7.3554688 12.572266 C 7.4557517 12.937784 7.6258938 13.265697 7.8339844 13.572266 L 7.5273438 13.826172 C 7.5203307 13.803189 7.5140116 13.781199 7.5078125 13.757812 C 7.3762476 13.292892 7.2854027 12.815087 7.2851562 12.330078 C 7.2868524 12.264204 7.2891246 12.196629 7.2929688 12.130859 z M 16.429688 12.832031 C 16.443957 12.961326 16.451578 13.090575 16.455078 13.220703 C 16.259301 13.009101 16.277693 13.057602 16.429688 12.832031 z M 16.162109 13.177734 C 16.214556 13.17069 16.275596 13.211549 16.443359 13.296875 L 16.457031 13.283203 C 16.457251 13.294536 16.45685 13.30703 16.457031 13.318359 C 16.453957 13.413863 16.455944 13.50994 16.457031 13.605469 C 16.452836 13.590773 16.447723 13.574629 16.441406 13.560547 C 16.399066 13.466167 16.289441 13.423093 16.212891 13.353516 C 16.166717 13.312162 16.118633 13.269652 16.072266 13.228516 C 16.108903 13.198362 16.134638 13.181424 16.162109 13.177734 z M 16.230469 14.671875 C 16.194288 14.72957 16.156763 14.787123 16.119141 14.84375 C 16.06346 14.879853 16.006497 14.913385 15.947266 14.945312 C 15.812064 15.014363 15.674605 15.08073 15.535156 15.140625 C 15.447161 15.181739 15.377905 15.230633 15.316406 15.287109 C 15.266019 15.20382 15.135923 15.178121 15.052734 15.119141 C 14.949938 15.046257 14.847188 14.973789 14.742188 14.904297 C 14.862395 14.854703 14.978709 14.788115 15.097656 14.728516 C 15.124496 14.762202 15.152921 14.792502 15.191406 14.810547 C 15.296447 14.859797 15.423081 14.842544 15.539062 14.839844 C 15.85505 14.832519 15.938972 14.776374 16.230469 14.671875 z M 9.8828125 15.751953 C 9.9892607 15.838842 10.0959 15.924031 10.205078 16.007812 L 9.9375 16.285156 C 9.924835 16.28169 9.9130658 16.276954 9.9003906 16.273438 L 9.9257812 16.248047 C 9.9076884 16.083558 9.9121367 15.914301 9.8828125 15.751953 z M 22.818359 16.353516 C 22.781988 16.443168 22.74214 16.530858 22.697266 16.617188 C 22.544945 16.88618 22.424155 17.168676 22.304688 17.453125 C 22.144047 17.766816 21.967819 18.072382 21.824219 18.394531 C 21.723563 18.587937 21.65963 18.796888 21.550781 18.986328 C 21.477631 19.113633 21.440074 19.159541 21.351562 19.279297 C 21.338239 19.297146 21.323971 19.314266 21.310547 19.332031 C 21.301486 19.338508 21.290813 19.345551 21.279297 19.353516 C 20.874319 19.728029 20.486017 20.122902 20.03125 20.439453 C 19.628905 20.744239 19.236568 21.060925 18.833984 21.365234 C 18.912698 21.285125 19.026098 21.170863 19.208984 20.986328 C 19.86003 20.379972 20.502013 19.761639 21.107422 19.109375 C 21.420416 18.752961 21.709409 18.378151 21.957031 17.972656 C 22.201906 17.584447 22.40905 17.176089 22.601562 16.759766 C 22.670928 16.622355 22.743755 16.487908 22.818359 16.353516 z M 10.318359 18.501953 C 10.414288 18.559104 10.51049 18.61642 10.607422 18.671875 L 10.132812 19.166016 C 10.194695 18.944776 10.257467 18.723496 10.318359 18.501953 z M 9.9902344 19.689453 C 10.037148 19.717983 10.084984 19.744552 10.132812 19.771484 L 9.9179688 19.966797 C 9.9413651 19.873847 9.9656402 19.782074 9.9902344 19.689453 z M 20.257812 20.619141 C 20.253459 20.624 20.250456 20.627961 20.246094 20.632812 C 20.019534 20.846031 19.784506 21.050654 19.539062 21.242188 C 19.196185 21.495694 18.863744 21.762898 18.529297 22.027344 C 18.395347 22.151873 18.24698 22.252111 18.089844 22.335938 C 18.506728 22.022798 18.911297 21.692289 19.328125 21.378906 C 19.65544 21.146776 19.96032 20.887484 20.257812 20.619141 z M 9.8144531 20.96875 C 9.8389081 21.001787 9.8642041 21.034534 9.890625 21.066406 L 9.8261719 21.128906 C 9.8201259 21.075488 9.8172872 21.022305 9.8144531 20.96875 z M 13.128906 21.712891 C 13.262102 21.813442 13.396299 21.917338 13.548828 22.041016 C 13.662344 22.133056 13.765398 22.237202 13.882812 22.324219 C 13.975043 22.392569 14.06348 22.529651 14.175781 22.505859 C 14.350503 22.468843 14.499192 22.364286 14.648438 22.259766 C 14.650021 22.33006 14.65319 22.398544 14.65625 22.46875 C 14.574924 22.481953 14.493759 22.49464 14.412109 22.505859 C 14.119184 22.574469 13.809307 22.548177 13.515625 22.607422 C 13.433455 22.624002 13.354536 22.648702 13.273438 22.669922 C 12.875858 22.840839 12.941264 22.799306 12.732422 22.957031 C 12.727655 22.957123 12.721693 22.956945 12.716797 22.957031 C 12.351231 23.002026 11.983932 23.044021 11.615234 23.060547 C 11.682633 23.043864 11.750586 23.02618 11.818359 23.013672 L 11.859375 22.970703 C 11.867053 22.866104 11.887872 22.761197 11.902344 22.65625 C 12.344447 22.757435 12.561345 22.573501 12.978516 22.398438 L 13.019531 22.355469 C 13.061031 22.181529 13.150762 22.012699 13.144531 21.833984 C 13.143002 21.790113 13.137351 21.749289 13.128906 21.712891 z M 9.1015625 22.09375 C 9.1392243 22.130327 9.1778581 22.166361 9.21875 22.199219 C 9.3463691 22.301766 9.4821287 22.395752 9.6171875 22.488281 C 9.9897673 22.743535 10.155675 22.86089 10.587891 23.009766 C 10.62715 23.023289 10.665455 23.038687 10.705078 23.052734 C 10.589633 23.042069 10.475062 23.024615 10.361328 23.003906 C 10.130451 22.952966 9.8964706 22.909901 9.6816406 22.806641 C 9.4052829 22.699379 9.1393303 22.563819 8.8496094 22.494141 C 8.8066395 22.479752 8.7633436 22.464382 8.7207031 22.449219 C 8.7698542 22.435413 8.8692552 22.304779 9.1015625 22.09375 z " /></svg>
