<svg xmlns="http://www.w3.org/2000/svg" xml:space="preserve" viewBox="0 0 24 24">
  <path d="M10.38-.018q-.019.014-.04.024l.006-.01.002-.002.002-.002v-.006h-.004l-.002-.002h-.002c-.021.002-.076.024-.102.028l-.144.021q-.302.043-.604.084C8.865.21 8.246.336 7.627.47c-.543.11-1.073.28-1.592.47-.376.14-.705.366-1.02.61q-.463.364-.906.754c-.33.307-.666.607-.996.916-.577.532-1.09 1.125-1.623 1.699-.193.21-.397.412-.554.65-.09.135-.108.181-.18.325a9 9 0 0 0-.418 1.3A7 7 0 0 0 .123 8.79c.004.135-.048.347.15.402l.03.006c-.052.273-.099.547-.157.819-.107.468-.158.946-.224 1.422-.053.346-.06.699-.008 1.046.015.102.014.212.06.303.044.085.132.138.198.207l.125.026c-.01.145-.003.29-.02.435q-.001.016-.004.027a1 1 0 0 1-.043.082l.036-.03v.028l.218-.187-.025.201c-.048.263-.065.53-.078.797-.036.319.005.641.05.957q.047.494.126.984c.03.22.095.428.172.633l-.266.242c.042.2.157.375.254.551.103.188.084.159.183.36.16.289.376.542.565.812.126.18.161.247.277.436.195.306.345.636.541.941.083.128.214.3.305.424l.15.195c.135.176.153.21.303.375.168.185.353.355.531.53.43.365.81.783 1.201 1.187.235.241.498.448.766.65.259.196.375.34.746.33.24-.006.471-.095.707-.142l.041-.043c-.017-.183.013-.377-.05-.549a.57.57 0 0 0-.21-.267l.11.042c.363.137.714.299 1.074.444.28.092.547.219.822.322q.343.114.69.211c.247.053.502.05.754.078.32-.006.642.014.963-.012.281-.022.4-.044.683-.085.246-.07.336-.09.383-.108l.006.008c.057.01.112.03.17.031.082.003.286-.036.365-.049.201-.033.403-.066.602-.115q.766-.194 1.546-.334c.546-.091-.074.014.471-.082.077-.013.154-.021.23-.039.16-.038.316-.096.473-.145-.214.197-.306.404-.058.573h.004l.035-.012-.041.037a1 1 0 0 0 .078-.05c.038-.016.08-.033.092-.036h.002c.268-.07.528-.17.798-.232.317-.101.556-.206.797-.446.339-.289.68-.576 1.041-.837q.481-.35.899-.772.387-.373.77-.752c-.252.344-.539.66-.833.969-.193.198-.178.182-.37.375l-.132.13-.04.042-.07.066c-.01.008-.123.12-.167.16q-.075.068-.149.133c-.033.03-.297.257-.32.281-.133.14-.256.288-.385.432l-.035.047c-.033.074-.117.143-.101.223l.002.005.002.002v.002l.002.002h.002v.002h.007l.006-.002c.028-.014.077-.076.106-.1.18-.141.347-.307.51-.468q.387-.387.775-.775c.313-.318.23-.233-.26.25.42-.432.855-.847 1.27-1.284.383-.41.76-.828 1.048-1.314q.251-.384.498-.77.136-.18.268-.363c.077-.116.122-.178.188-.3.04-.075.072-.152.105-.23.303-.503.606-1.008.846-1.546q.12-.307.25-.611c.014-.036.102-.244.115-.291.007-.028.005-.056.008-.084l-.168.138c.057-.152.113-.306.185-.453l-.498.387.057-.108c.207-.42.41-.85.469-1.32.041-.456.033-.916.07-1.373-.005-.457-.023-.914-.012-1.371 0-.444.004-.89-.04-1.332a12 12 0 0 0-.098-.549c.06-.122.124-.243.164-.373.06-.197-.032-.387-.073-.574-.07-.326-.142-.652-.234-.973-.087-.378-.099-.767-.191-1.144-.063-.264-.124-.532-.274-.762-.073-.128-.157-.247-.234-.373-.075-.123-.137-.254-.242-.356a13 13 0 0 0-.66-.671c-.212-.178-.407-.377-.63-.541-.22-.18-.444-.355-.65-.551-.18-.174-.363-.344-.525-.535a6 6 0 0 0-.424-.43c-.189-.156-.362-.33-.56-.473-.196-.148-.382-.31-.587-.445-.183-.13-.392-.216-.597-.305a7 7 0 0 0-.801-.314 6 6 0 0 0-.809-.258c-.306-.088.022.002-.289-.074-.187-.046-.372-.102-.568-.088-.219.01-.44.004-.656.037l-.067.08a4 4 0 0 0-.58-.182 4.4 4.4 0 0 0-1.035-.091c-.274.004-.546.031-.82.027l-.746.871c.271.016.543-.007.814-.014.335-.014.662.03.986.108.253.081.502.178.747.281.35.142.691.304 1.04.45.364.13.725.267 1.08.42.228.103.47.17.698.275.087.04.303.162.385.207a9 9 0 0 1 1.011.726c.044.044.09.085.131.131.137.15.092.12.213.277.12.157.258.304.389.452.283.343.602.65.931.949.401.347.771.726 1.14 1.107.19.23.386.457.538.715.074.126.123.243.182.375.17.365.294.745.41 1.129.105.36.22.72.32 1.082.115.395.183.799.225 1.207.043.432.049.867.053 1.3.013.465-.008.93-.014 1.393-.004.456-.016.91-.084 1.362-.065.453-.263.868-.473 1.27-.147.282-.328.546-.482.825-.038.069-.161.317-.197.39-.217.42-.436.844-.702 1.237-.17.258-.337.517-.535.754-.01.013-.073.083-.14.158l-.282.258q-.401.378-.789.77a7.4 7.4 0 0 1-.845.683 5.8 5.8 0 0 1-1.162.59c-.41.137-.836.22-1.262.285l-.082.01.04-.04a.5.5 0 0 0 .102-.145h.002v-.002c.002-.026-.022-.139-.023-.143-.06-.305-.06-.618-.104-.926a42 42 0 0 1-.136-1.836c-.068-.596-.138-1.194-.274-1.779a3.7 3.7 0 0 0-.322-.785l-1.135 1.064c-.42-.256-.85-.495-1.28-.734l.093.006.04-.043-.105-.28c.051.053.1.11.16.149.077.05.168.07.252.105.532-.094.267-.032.797-.189l.043-.041.098-.305c.044.052.09.1.152.112a.5.5 0 0 0 .223-.018.4.4 0 0 0-.037.055v.006h.004q.02-.007.136-.092.06-.02.121-.031l.416-.127.043-.041.04-.114c.103-.053.202-.111.287-.193.114-.093.235-.178.343-.277.488-.486.98-.896 1.381-1.432.128-.184.253-.374.346-.578a2.6 2.6 0 0 0 .137-.701 5 5 0 0 0-.006-.627 5 5 0 0 0-.127-.809 3.3 3.3 0 0 0-.36-.826c-.099-.143-.19-.29-.283-.436.504-.406.725-.537.383-.763.29-.272.555-.982.787-1.28q-.011-.01-.021-.023a1 1 0 0 0-.178-.041 1 1 0 0 0-.154.025c.085-.143.148-.164.299-.025-.035-.047-.062-.099-.09-.148-.11-.249-.2-.51-.21-.784.007-.109.003-.116.024-.21.036-.156.014-.164-.113-.282q-.114.058-.223.123c-.136.08-.292.15-.412.254-.036.03-.063.071-.098.104q-.057.053-.117.103c-.418.367-.83.737-1.228 1.123-.392-.04-.776-.125-1.162-.199-.531-.028-1.063-.022-1.594-.027-.551.007-1.102.045-1.652.072-.205.007-.437.007-.631.039l.013.01.002.002h.002v.002l.002.002v.002h-.002v.003l-.002.002-.002.002c-.009.008-.027.016-.04.028-.052.012-.095-.017-.14-.04-.02-.019-.041-.022-.062-.038-.036-.029-.065-.068-.11-.086-.177-.154-.347-.315-.523-.471-.314-.252-.645-.48-.982-.7-.306-.192-.613-.384-.91-.59-.469-.358-.113-.123-1.117.862-.09.055-.141.087-.147.113v.006l.002.002v.002q.005.016.037.033v.002h.002c.024.061.028.128.053.188.103.35.257.686.353 1.039.128.361.252.73.436 1.066l.549-.537q.12.135.252.26c-.482.429-.95.88-1.32 1.406-.252.334-.41.72-.53 1.117-.13.442-.181.9-.19 1.358.026.494.13.98.258 1.457.107.437.338.817.6 1.176.229.298.438.611.664.912.057.071.104.148.15.226l.002.002.014.032v.002l.002.001.002.002h.006a.23.23 0 0 0 .105-.06q.117-.104.229-.213c.332.205.71.318 1.08.441l.266.082q.003.049.003.098c.003.176-.011.353-.017.53-.013.451-.15.883-.262 1.318-.12.474-.256.944-.392 1.414a5.3 5.3 0 0 1-.582-.701c-.211-.315-.445-.612-.678-.91-.175-.166-.357-.316-.541-.471-.045-.038-.362-.317-.404-.352q-.106-.084-.215-.166-.127-.062-.25-.127c-.177-.095-.342-.216-.524-.302-.041-.02-.085-.032-.127-.051-.027-.013-.052-.03-.078-.043l-.799.851q.043.018.084.04.057.032.112.068l.136.076c.084.045.316.16.389.213.07.05.13.114.193.172.403.296.767.64 1.075 1.033.109.156.216.318.31.484.032.057.056.118.088.174.06.104.13.201.193.303.177.272.357.541.58.777.185.165.421.361.657.447.054.02.112.03.168.043l.07-.007q.009.104.027.13a12 12 0 0 1-.922-.382c-.308-.127-.603-.282-.916-.399a8 8 0 0 1-.736-.351c-.266-.143-.501-.33-.75-.5a4 4 0 0 1-.68-.559c-.22-.22-.445-.438-.642-.68-.225-.244-.464-.474-.676-.73a6 6 0 0 1-.566-.77c-.192-.265-.366-.543-.559-.808-.194-.284-.403-.562-.557-.871a4.7 4.7 0 0 1-.277-.834 7 7 0 0 1-.15-.95c-.025-.317-.065-.637-.022-.955.031-.261.04-.525.073-.787l.023-.232.012-.01.002-.002v-.002l.002-.002v-.01l-.01-.02c.025-.238.053-.476.097-.712q.107-.525.233-1.049c.068-.325.113-.655.18-.98q.045-.339.113-.672.2-.54.408-1.08c.184-.427.38-.85.57-1.274q.204-.543.496-1.043.129-.207.248-.418l.086-.095c.207-.252.417-.5.641-.737q.337-.33.668-.668c.076-.073.147-.138.2-.187.084-.081.166-.167.253-.246.181-.164.386-.298.586-.438q.438-.271.881-.535c.27-.161.55-.311.84-.435.3-.13.599-.26.918-.336.272-.073.546-.16.828-.184.214.005.433.02.625.127l.527-.562q.246-.01.49-.026l.7-.82q-.332.054-.666.072c-.278.023-.556.044-.832.084q-.215.029-.428.07.106-.129.207-.261.084-.1.17-.198m7.599 8.143.033.041q.009.003.015.008zm.054.064q.013.012.028.022l.007.004-.03-.03-.003.002zM.23 13.564c-.294.269-.405.388-.416.416v.006h.004c.045-.015.292-.226.412-.422M6.205 1.816a8 8 0 0 0-.219.2c-.53.482-1.015 1.012-1.53 1.507-.288.297-.567.605-.79.954q-.104.173-.201.351c-.27.335-.51.694-.738 1.059q-.207.359-.4.722-.077.114-.147.23a6 6 0 0 0-.502 1.003c-.11.363-.231.72-.377 1.07-.134.306-.208.63-.287.953-.055.22-.126.432-.188.649.057-.41.11-.818.2-1.221.088-.49.154-.985.292-1.465q.212-.673.485-1.324c.162-.343.337-.68.498-1.024q.3-.553.703-1.039c.266-.319.536-.635.797-.959q.157-.185.322-.363c.183-.167.405-.364.535-.447a8.4 8.4 0 0 1 1.467-.824zm-.908.022-.012.008c-.63.423-1.136.99-1.672 1.525-.249.24-.475.5-.697.766-.256.33-.535.64-.8.963q-.41.499-.71 1.07c-.08.186-.175.367-.267.547a3 3 0 0 1 .056-.219c.126-.447.264-.896.473-1.312.072-.131.096-.18.182-.303.161-.23.361-.43.552-.635.115-.124.341-.367.508-.55q.26-.24.524-.477c.292-.263.596-.512.902-.758a4.6 4.6 0 0 1 .96-.625m.853.728a6 6 0 0 0-.19.172c-.472.443-.925.904-1.38 1.366l-.002.001-.008.008-.148.145-.281.281q.107-.2.216-.398.075-.09.155-.176l.093-.102q.23-.22.47-.427c.34-.31.699-.604 1.075-.87m1.514 3.85h.006v.004l-.031.031q0-.014.006-.023v-.004h.001l.002-.002h.002zm8.709 1.738c.005.046.015.082.027.147l.006.033c-.352.359-.718.708-1.047 1.088l-.095.088a5 5 0 0 1-.338-.047c.338-.293.664-.6 1-.895l-.049-.056c.14-.125.286-.241.451-.334zm-.49.27-.043.043q-.004-.004-.008-.006a.3.3 0 0 0 .05-.037m-4.149.96.174.005c-.15.11-.28.206-.398.289l-.239-.09-.394-.145q.428-.036.857-.058m-3.525.14.111.105c-.134.137-.37.377-.752.758zm9.107.019q0 .023-.002.033h-.002v.002l-.001.002h-.006a.1.1 0 0 1-.02-.006zm-2.513.035-.004.05-.03.007.03-.05.002-.005zm-6.48.053q.172.156.35.306l-.273.284c-.083-.08-.167-.16-.242-.248l-.347.343q.112-.2.252-.384a6 6 0 0 1 .26-.301m7.173.445c.025.052.063.093.12.076h.003c.008-.004.025-.021.047-.04l.059.091.04.067c-.147.138-.193.215.036.302q.062.027.125.059l-.07.066q-.026-.017-.047-.037a3 3 0 0 1-.342-.418.3.3 0 0 1-.031-.08zm-2.63.598q.112.024.224.053-.063.079-.139.17l-.17-.135zm-5.407.455a2.936 2.936 0 0 0 .258.275l-.387.338q.041-.311.129-.613m8.432.23c.06.11.123.222.18.334.087.148.15.303.202.463l-.103-.054c-.21-.11-.414-.237-.635-.325.1-.103.175-.201.205-.228l.041-.043q.054-.075.11-.147m-1.084.582.004.006c.041.034.077.075.125.1l.023.012-.11.117-.001-.002-.004-.002a.4.4 0 0 0-.073-.037.6.6 0 0 0-.105-.055zm-7.514.19c.056.11.136.21.223.305l-.16.136c.1.366.27.694.478 1l-.307.254-.02-.068a5.3 5.3 0 0 1-.222-1.428q.003-.1.008-.2m9.137.701q.02.195.025.389c-.196-.212-.177-.163-.025-.389m-.268.346c.053-.007.114.034.281.119l.014-.014v.035q-.003.144 0 .287l-.016-.044c-.042-.095-.152-.138-.228-.207l-.14-.125c.036-.03.062-.048.09-.051m.068 1.494-.11.172a3 3 0 0 1-.173.101q-.202.105-.412.196a.8.8 0 0 0-.219.146c-.05-.083-.18-.109-.263-.168a12 12 0 0 0-.31-.215c.12-.05.236-.116.355-.175a.3.3 0 0 0 .093.082c.105.049.232.032.348.029.316-.007.4-.064.691-.168m-6.347 1.08q.159.13.322.256l-.268.277-.037-.012.026-.025c-.018-.164-.014-.334-.043-.496m12.935.602a3 3 0 0 1-.12.263 8 8 0 0 0-.393.836c-.161.314-.337.62-.48.942-.101.193-.165.402-.274.591-.073.128-.11.174-.2.293l-.04.053-.032.022c-.405.374-.793.769-1.248 1.085-.402.305-.794.622-1.197.926l.375-.379a37 37 0 0 0 1.898-1.877c.313-.356.602-.73.85-1.136.245-.389.452-.797.645-1.213q.104-.206.216-.406m-12.5 2.148q.143.086.29.17l-.475.494zm-.328 1.187q.07.043.143.082l-.215.196q.035-.139.072-.278m10.268.93-.012.014q-.338.32-.707.61c-.343.253-.675.52-1.01.784a2 2 0 0 1-.44.309c.418-.313.822-.644 1.24-.957.326-.232.631-.492.929-.76m-10.444.35q.037.05.077.097l-.065.063a3 3 0 0 1-.012-.16m3.315.744c.133.1.267.204.42.328.113.092.216.196.334.283.092.069.18.206.293.182.175-.037.323-.142.472-.246l.008.209q-.121.02-.244.037c-.293.068-.603.042-.896.101-.083.017-.161.042-.243.063-.397.17-.332.13-.54.287h-.016c-.366.045-.733.087-1.102.104q.102-.027.203-.047l.041-.043c.008-.105.029-.21.043-.315.442.101.66-.082 1.077-.258l.04-.043c.042-.173.132-.342.126-.521a.6.6 0 0 0-.016-.121m-4.027.38q.056.056.117.106c.127.103.263.197.398.29.373.255.539.372.97.52l.118.044a4 4 0 0 1-.344-.05c-.23-.05-.465-.093-.68-.196-.276-.108-.542-.243-.831-.313l-.13-.045c.05-.014.15-.144.382-.355" style="fill:currentColor;stroke-width:3;stroke-linejoin:round"/></svg>