<?xml version="1.0" encoding="UTF-8" standalone="no"?>
<svg
   viewBox="0 0 24 24"
   version="1.1"
   id="svg3"
   sodipodi:docname="LinkedIn_gezeichnet.svg"
   width="24"
   height="24"
   inkscape:version="1.4.1-rc (d9e8dc1fe0, 2025-03-10)"
   xmlns:inkscape="http://www.inkscape.org/namespaces/inkscape"
   xmlns:sodipodi="http://sodipodi.sourceforge.net/DTD/sodipodi-0.dtd"
   xmlns="http://www.w3.org/2000/svg"
   xmlns:svg="http://www.w3.org/2000/svg">
  <defs
     id="defs3" />
  <sodipodi:namedview
     id="namedview3"
     pagecolor="#505050"
     bordercolor="#eeeeee"
     borderopacity="1"
     inkscape:showpageshadow="0"
     inkscape:pageopacity="0"
     inkscape:pagecheckerboard="0"
     inkscape:deskcolor="#505050"
     inkscape:zoom="6.5528455"
     inkscape:cx="9.6904467"
     inkscape:cy="9.0037221"
     inkscape:window-width="1920"
     inkscape:window-height="1011"
     inkscape:window-x="0"
     inkscape:window-y="32"
     inkscape:window-maximized="1"
     inkscape:current-layer="svg3" />
  <path
     id="path3"
     style="fill:#1a1a1a;stroke-width:3;stroke-linejoin:round"
     d="M 21.394531 0.076171875 C 18.657924 0.098422075 15.922834 0.21973429 13.189453 0.35351562 C 12.60158 0.39171305 12.012317 0.42577422 11.423828 0.46289062 C 10.883685 0.46253977 10.343045 0.4551107 9.8027344 0.44140625 C 8.8911821 0.36431131 7.9802544 0.29274303 7.0664062 0.24414062 C 6.0127176 0.21268722 5.3346156 0.18524409 4.2890625 0.1796875 C 3.5021529 0.17550546 2.6728577 0.16081912 1.890625 0.2890625 C 1.8171195 0.30111339 1.7485946 0.33216442 1.6777344 0.35546875 C 1.6153253 0.3530866 1.5526397 0.35021224 1.4902344 0.34765625 C 1.1183452 0.32795054 0.74709343 0.30443687 0.375 0.2890625 C 0.2834964 0.2852817 0.18225336 0.24374205 0.099609375 0.28320312 C 0.086637466 0.28939699 0.073288583 0.29594874 0.060546875 0.30273438 C -0.092790725 0.29341382 -0.23198822 0.33156786 -0.22460938 0.52539062 C -0.24795333 0.55108462 -0.27054757 0.57784154 -0.29101562 0.60546875 C -0.29244913 0.60740365 -0.29400278 0.61157356 -0.29492188 0.61328125 L -0.296875 0.61523438 C -0.29708752 0.61597914 -0.29678217 0.61844871 -0.296875 0.61914062 L -0.296875 0.62109375 L -0.296875 0.62304688 L -0.29492188 0.625 L -0.29492188 0.62695312 L -0.29296875 0.62695312 L -0.29296875 0.62890625 L -0.29101562 0.62890625 L -0.2890625 0.63085938 C -0.27437367 0.63674602 -0.24057828 0.63475393 -0.19921875 0.62890625 C -0.14943477 0.66675793 -0.0089899768 0.58767701 0.07421875 0.58789062 C 0.097555704 0.58795053 0.13787622 0.58859044 0.18945312 0.58984375 L 0.18945312 0.59179688 C 0.184078 0.60462552 0.1623233 0.6243921 0.12304688 0.65234375 C 0.48241012 0.70539296 0.84189493 0.76277299 1.2011719 0.81835938 L 0.96484375 1.0546875 C 1.0447628 1.0280755 1.122827 0.9947291 1.2050781 0.9765625 C 1.3478284 0.94503355 1.5091174 0.9157149 1.6757812 0.890625 C 2.6217275 1.0297148 3.5710618 1.1377756 4.5332031 1.1054688 C 4.6195363 1.105878 4.7046821 1.107202 4.7910156 1.1074219 C 3.7589348 1.1857525 2.7286949 1.2896534 1.703125 1.4316406 C 1.3342102 1.4877731 0.90516812 1.4953955 0.67773438 1.8007812 C 0.63754146 1.8105062 0.59695477 1.8209863 0.55664062 1.8300781 C 0.44079244 1.9145293 0.32127647 1.9926381 0.203125 2.0742188 C 0.22146623 2.0928531 0.23934769 2.116971 0.2578125 2.1289062 C 0.35887171 2.1035927 0.45996151 2.0743852 0.56054688 2.046875 C 0.55745437 2.0579522 0.55355559 2.0705015 0.55078125 2.0820312 C 0.47171789 2.1505849 0.3919855 2.2186335 0.31054688 2.2832031 C 0.32712521 2.2729662 0.38120948 2.2391054 0.40625 2.2304688 C 0.44012216 2.2187862 0.48397013 2.2055104 0.53125 2.1933594 C 0.52713172 2.223838 0.52364325 2.2558217 0.52148438 2.2890625 C 0.51124241 2.4467607 0.83531985 2.2706645 0.99414062 2.2617188 C 0.9738019 2.3719481 0.95454143 2.4832846 0.93554688 2.59375 C 0.71499271 2.5808949 0.49342543 2.557264 0.28320312 2.4921875 C 0.14553617 2.4495713 -0.0093304261 2.3422638 -0.001953125 2.2226562 C -0.063935502 2.269405 -0.12531787 2.3177726 -0.18359375 2.3691406 C -0.24625635 2.4243756 -0.34134349 2.5128318 -0.3046875 2.5878906 C -0.2520105 2.6957549 -0.10737697 2.7374576 0.009765625 2.7636719 C 0.26868517 2.8216139 0.53742709 2.8330075 0.80273438 2.8359375 C 0.83349484 2.8362773 0.86410894 2.8358598 0.89453125 2.8359375 C 0.87344821 2.9651279 0.85341334 3.0951438 0.83398438 3.2246094 C 0.61424799 3.3426025 0.6335819 3.4592711 0.66015625 3.6914062 C 0.6596742 3.7041789 0.66090781 3.7171927 0.6640625 3.7304688 C 0.6652235 3.7411305 0.6668465 3.7505845 0.66796875 3.7617188 C 0.6791352 3.9136628 0.68902726 4.0667172 0.69921875 4.21875 C 0.56302813 5.3447847 0.47622468 6.4774158 0.40039062 7.6074219 C 0.29232767 9.6036751 0.13682218 11.599061 0.07421875 13.597656 C 0.04188184 14.630002 0.05286765 15.155452 0.05859375 16.173828 C 0.07035735 17.056421 0.092964825 17.937945 0.11523438 18.820312 C 0.11700692 18.890545 0.12043814 18.961806 0.12304688 19.033203 C 0.10349136 19.118111 0.097840126 19.196951 0.13085938 19.261719 C 0.13520163 19.409467 0.13679654 19.557979 0.13085938 19.703125 C 0.21619537 19.566278 0.31427217 19.435354 0.40820312 19.302734 C 0.41858389 19.296807 0.42894254 19.291712 0.43945312 19.285156 C 0.42395258 19.994675 0.48513938 20.700232 0.57421875 21.404297 C 0.57108585 21.493032 0.56775998 21.584402 0.56445312 21.673828 L 0.109375 22.128906 C 0.25600956 22.108133 0.40191571 22.088691 0.54882812 22.072266 C 0.54437089 22.176737 0.54028047 22.280529 0.53515625 22.382812 C 0.52357533 22.443649 0.51100143 22.51116 0.50390625 22.574219 C 0.28559109 22.780315 0.31774249 22.909145 0.47851562 22.990234 C 0.47793512 22.994949 0.47846676 23.000706 0.47851562 23.003906 L 0.47851562 23.005859 L 0.47851562 23.007812 L 0.48046875 23.007812 L 0.48046875 23.009766 L 0.48242188 23.009766 L 0.484375 23.009766 L 0.484375 23.007812 L 0.48632812 23.007812 C 0.48747894 23.00673 0.48880006 23.003707 0.49023438 23.001953 C 0.49172141 23.000135 0.49266775 22.99985 0.49414062 22.998047 C 0.5275497 23.013529 0.56729671 23.026891 0.609375 23.039062 C 0.60532423 23.348119 0.61949543 23.686035 0.73242188 23.767578 L 0.734375 23.769531 C 0.73520223 23.769995 0.7393915 23.771136 0.74023438 23.771484 L 0.7421875 23.771484 L 0.74414062 23.771484 C 0.74502195 23.771516 0.74910869 23.771549 0.75 23.771484 C 0.77249717 23.76762 0.79808008 23.735664 0.81445312 23.716797 C 0.93463071 23.578295 1.0149844 23.490682 1.0722656 23.425781 C 1.0764682 23.423273 1.08155 23.420565 1.0859375 23.417969 L 1.0839844 23.416016 L 1.0820312 23.414062 C 1.1863389 23.295249 1.2078736 23.259849 1.2519531 23.128906 C 1.4495091 23.142144 1.6442718 23.14876 1.7988281 23.160156 C 2.3923963 23.17854 2.9808659 23.107005 3.5683594 23.035156 C 3.5661641 23.050957 3.5632933 23.06698 3.5625 23.083984 C 3.3949605 23.211728 3.2663415 23.320592 3.2519531 23.34375 L 3.2519531 23.345703 L 3.2539062 23.345703 L 3.2558594 23.345703 L 3.2578125 23.34375 C 3.2716382 23.338618 3.3068708 23.319249 3.3671875 23.279297 C 3.4365861 23.265964 3.5066785 23.254125 3.5761719 23.244141 C 3.5796625 23.263825 3.5828308 23.283707 3.5878906 23.304688 C 3.6355266 23.502212 3.9941204 23.269795 4.1972656 23.265625 C 5.4856053 23.239135 6.7789322 23.316752 8.0664062 23.351562 C 9.0086642 23.35841 9.950731 23.352835 10.892578 23.34375 C 11.237212 23.363199 11.581197 23.385907 11.925781 23.40625 C 12.835458 23.44023 13.707203 23.489809 14.619141 23.449219 C 15.123522 23.426768 15.624397 23.382649 16.125 23.326172 C 16.317428 23.329127 16.510672 23.333543 16.703125 23.337891 C 16.959607 23.294501 18.110736 23.503906 18.353516 23.330078 C 18.466481 23.249205 18.534605 23.122876 18.615234 23.007812 C 18.762554 23.000986 18.906748 22.993045 19.0625 22.982422 C 19.030715 23.023401 18.997346 23.070151 18.958984 23.125 C 18.687093 23.339497 18.577566 23.445706 18.583984 23.494141 C 18.584572 23.496375 18.586761 23.501918 18.587891 23.503906 C 18.588589 23.504841 18.592919 23.508888 18.59375 23.509766 C 18.610094 23.523727 18.646595 23.529147 18.697266 23.53125 L 18.697266 23.533203 L 18.699219 23.533203 L 18.701172 23.535156 L 18.703125 23.535156 L 18.705078 23.537109 C 18.714934 23.538875 18.73088 23.536982 18.75 23.533203 C 18.862949 23.533188 19.026246 23.522845 19.21875 23.53125 C 20.518282 23.52935 21.818531 23.469867 23.117188 23.427734 C 23.688723 23.397354 23.582142 23.446738 23.925781 23.048828 C 24.007202 22.972973 24.08399 22.895461 24.148438 22.808594 C 24.16315 22.807502 24.176746 22.806043 24.191406 22.804688 C 24.312589 22.64712 24.472808 22.508155 24.599609 22.353516 C 24.709889 22.254411 24.818585 22.154455 24.933594 22.0625 C 24.876408 22.075786 24.819768 22.085566 24.761719 22.09375 C 24.769184 22.07546 24.775244 22.058113 24.78125 22.039062 C 24.783934 22.030547 24.783932 22.019806 24.783203 22.013672 C 24.782659 22.011395 24.780326 22.005845 24.779297 22.003906 L 24.777344 22.001953 C 24.775857 22.000334 24.771449 21.99546 24.769531 21.994141 C 24.715402 21.964155 24.530423 22.025748 24.439453 22.021484 C 24.275103 22.013784 24.109639 22.00818 23.945312 22 C 23.725996 21.98909 23.50464 21.97312 23.283203 21.964844 C 23.291886 21.943295 23.301098 21.922438 23.308594 21.900391 C 23.387 21.669782 23.393327 21.395584 23.388672 21.136719 C 23.542889 20.938819 23.660101 20.802086 23.748047 20.701172 C 23.822137 20.648777 23.911457 20.587643 24.017578 20.517578 L 24.017578 20.515625 L 24.015625 20.515625 C 24.008624 20.515509 23.988268 20.516622 23.978516 20.513672 L 23.976562 20.513672 L 23.976562 20.511719 L 23.974609 20.511719 L 23.974609 20.509766 C 23.968657 20.486785 23.963325 20.462782 23.958984 20.439453 C 24.027695 20.317436 23.997211 20.215868 23.978516 19.800781 C 23.860674 18.326393 23.993852 16.847876 23.976562 15.373047 C 23.972262 15.005172 23.948264 14.637138 23.933594 14.269531 C 23.924796 13.539291 23.8935 12.811053 23.855469 12.082031 C 23.870593 11.680769 23.880853 11.278632 23.886719 10.876953 C 23.894919 8.4410948 23.85277 6.0063038 23.755859 3.5722656 C 23.742254 3.1970119 23.724655 2.8205575 23.710938 2.4453125 C 23.751937 2.2948912 23.794685 2.1429092 23.699219 2.0820312 C 23.698547 2.0556197 23.697854 2.0303203 23.697266 2.0039062 C 23.694375 1.8738526 23.805361 1.6847591 23.710938 1.6074219 C 23.724131 1.5559967 23.73059 1.5122268 23.728516 1.4921875 C 23.728339 1.4912005 23.728755 1.4871857 23.728516 1.4863281 L 23.726562 1.484375 L 23.726562 1.4824219 L 23.724609 1.4824219 L 23.722656 1.4824219 L 23.722656 1.4804688 L 23.720703 1.4804688 L 23.71875 1.4804688 L 23.716797 1.4824219 L 23.714844 1.4824219 C 23.712219 1.4837622 23.70842 1.4854692 23.705078 1.4882812 C 23.674763 1.5137914 23.646346 1.538117 23.621094 1.5605469 C 23.465047 1.5096627 23.409192 1.6621437 23.392578 1.84375 C 23.374691 1.8956053 23.370016 1.9489432 23.373047 2.0136719 C 23.103276 2.0419285 23.002121 2.3345454 22.96875 2.6523438 C 22.970963 2.5804758 22.958064 2.5144758 22.916016 2.4570312 C 22.887695 2.4183559 22.862672 2.389051 22.837891 2.3691406 C 22.839132 2.3627459 22.840545 2.3560027 22.841797 2.3496094 C 22.855357 2.3196566 22.890543 2.2455841 22.898438 2.2265625 C 22.897729 2.2276869 22.895599 2.2286516 22.894531 2.2304688 C 22.869903 2.2723815 22.843813 2.3125964 22.816406 2.3535156 C 22.688515 2.2720917 22.609692 2.4232525 22.566406 2.5449219 C 22.596291 2.3429279 22.628208 2.1424279 22.664062 1.9414062 C 22.891756 1.882156 23.104339 1.7915239 23.289062 1.6425781 C 23.31037 1.6274655 23.331274 1.6102836 23.349609 1.5917969 C 23.42931 1.519014 23.503894 1.4355911 23.570312 1.3339844 C 23.571257 1.3325393 23.571604 1.327568 23.572266 1.3261719 L 23.574219 1.3242188 L 23.574219 1.3222656 L 23.574219 1.3203125 L 23.574219 1.3183594 L 23.574219 1.3164062 L 23.574219 1.3144531 L 23.574219 1.3125 L 23.574219 1.3105469 L 23.572266 1.3105469 C 23.557961 1.2796877 23.473239 1.2595789 23.4375 1.2324219 C 23.217682 1.1973757 22.998098 1.1680009 22.777344 1.1425781 C 22.788678 1.1209367 22.798913 1.0995623 22.810547 1.078125 C 22.961514 1.0147567 23.137045 0.76308575 23.203125 0.68164062 C 23.343408 0.55641942 23.489994 0.43753493 23.623047 0.3046875 L 23.623047 0.30273438 L 23.623047 0.30078125 L 23.621094 0.29882812 C 23.61398 0.29527391 23.595756 0.2933112 23.587891 0.29492188 C 23.520551 0.30871397 23.456831 0.333077 23.390625 0.3515625 C 23.039616 0.4495675 22.687094 0.54337596 22.330078 0.6171875 C 21.900984 0.6991309 21.552396 0.77383142 21.113281 0.8203125 C 20.396166 0.89622022 19.674166 0.88349353 18.953125 0.87890625 C 18.45723 0.86015779 17.961218 0.84733655 17.464844 0.84375 C 17.488082 0.81948563 17.510838 0.79639727 17.533203 0.77148438 C 17.601019 0.70440173 17.668413 0.63673567 17.738281 0.57226562 C 18.947291 0.56065293 20.156552 0.52273683 21.365234 0.48828125 C 21.505485 0.49090525 21.644973 0.49100675 21.785156 0.49609375 C 21.940018 0.501713 22.431672 0.62089605 22.449219 0.29882812 C 22.470325 0.27605692 22.492674 0.25078524 22.517578 0.22265625 C 22.518932 0.22112748 22.520636 0.21807774 22.521484 0.21679688 L 22.523438 0.21484375 L 22.523438 0.21289062 L 22.523438 0.2109375 L 22.523438 0.20898438 L 22.521484 0.20898438 L 22.519531 0.20703125 L 22.517578 0.20703125 C 22.505267 0.20435043 22.474785 0.20860585 22.443359 0.21484375 C 22.441507 0.20272977 22.440393 0.19078195 22.4375 0.17773438 C 22.41484 0.075535565 22.235041 0.11762337 22.130859 0.10742188 C 21.886694 0.083512985 21.639633 0.086816585 21.394531 0.076171875 z M -0.001953125 2.2226562 C 0.065137821 2.1720545 0.13382566 2.1220682 0.203125 2.0742188 C 0.18114859 2.0518911 0.15935562 2.0353531 0.13671875 2.0488281 C 0.041577137 2.1054631 0.0015388629 2.166041 -0.001953125 2.2226562 z M 6.578125 0.73046875 C 6.9570036 0.74995514 7.3367284 0.77612119 7.7148438 0.8046875 C 7.7059753 0.80592527 7.6963675 0.8053945 7.6875 0.80664062 C 7.6587045 0.83523055 7.6223057 0.87074424 7.5996094 0.90820312 C 7.4715586 0.91539159 7.3429245 0.9219028 7.2148438 0.9296875 C 6.3816211 0.93128795 5.5483143 0.9319606 4.7148438 0.921875 C 4.0468157 0.93431873 3.3881231 0.87148871 2.7324219 0.77539062 C 4.0155776 0.68190646 5.2923639 0.70169337 6.578125 0.73046875 z M 22.800781 1.0820312 L 22.802734 1.0820312 L 22.755859 1.140625 C 22.7012 1.1343936 22.646503 1.1288275 22.591797 1.1230469 C 22.603555 1.1207264 22.615191 1.1175333 22.626953 1.1152344 C 22.685113 1.1038674 22.745135 1.1024153 22.800781 1.0820312 z M 10.302734 1.1855469 C 10.31243 1.1857713 10.322568 1.1853276 10.332031 1.1855469 C 10.313423 1.1871243 10.293686 1.1896896 10.273438 1.1914062 C 10.259189 1.191347 10.244718 1.1914879 10.230469 1.1914062 C 10.25458 1.1896066 10.278623 1.1873465 10.302734 1.1855469 z M 21.605469 1.3164062 C 21.730834 1.3294651 21.855521 1.3440536 21.980469 1.359375 C 21.78334 1.4994334 21.632843 1.7116564 21.464844 1.8964844 C 20.976249 1.9608818 20.544899 1.9960942 19.943359 2.0566406 C 19.89783 2.0600797 19.852173 2.0630266 19.806641 2.0664062 C 19.810294 2.0615949 19.813534 2.0566264 19.816406 2.0507812 C 19.827503 2.0282024 19.839801 2.0038618 19.849609 1.9765625 C 19.897376 1.9723761 19.944421 1.9670507 19.992188 1.9628906 C 20.278463 1.9301143 20.531186 1.837527 20.660156 1.5625 L 20.744141 1.5546875 L 20.757812 1.5390625 C 20.730788 1.5339355 20.702805 1.5285645 20.675781 1.5234375 C 20.684581 1.5016831 20.693829 1.4789674 20.701172 1.4550781 C 21.003419 1.4152274 21.304694 1.3665355 21.605469 1.3164062 z M 22.232422 1.390625 C 22.327932 1.4039525 22.424334 1.4200201 22.519531 1.4355469 L 22.505859 1.4511719 C 22.394268 1.5306888 22.312648 1.5886743 22.25 1.6445312 C 22.249384 1.6406937 22.248673 1.6366485 22.248047 1.6328125 C 22.238103 1.5718366 22.240258 1.4717288 22.232422 1.390625 z M 7.4433594 1.4316406 C 7.2967517 1.4652826 7.1672473 1.5329734 7.1347656 1.6757812 C 6.240736 1.6598848 5.3471335 1.6460295 4.453125 1.6289062 C 5.0336008 1.5757201 5.6156946 1.5324233 6.1972656 1.4921875 C 6.2963996 1.4848095 6.395007 1.4761314 6.4941406 1.46875 C 6.8100625 1.4550921 7.1273103 1.4427855 7.4433594 1.4316406 z M 22.753906 1.4765625 C 22.875626 1.4992106 22.998041 1.523134 23.119141 1.5507812 C 23.06608 1.5797598 23.012173 1.608656 22.957031 1.6230469 C 22.875904 1.6442193 22.794692 1.6631337 22.712891 1.6816406 C 22.72634 1.6127329 22.73945 1.5453053 22.753906 1.4765625 z M 11.865234 1.7148438 C 12.556174 1.7155715 13.247223 1.7315626 13.9375 1.7597656 C 12.934101 1.7765007 11.929311 1.7792728 10.925781 1.7636719 C 11.23853 1.7447435 11.552236 1.7286832 11.865234 1.7148438 z M 19.402344 2.015625 C 19.465718 2.0417005 19.530084 2.0668526 19.587891 2.0839844 C 18.987988 2.1272534 18.385529 2.1051644 17.785156 2.1386719 C 18.127291 2.1116849 18.470579 2.0961982 18.8125 2.0664062 C 18.870574 2.0704587 18.928257 2.0760641 18.986328 2.0800781 C 18.983653 2.0707391 18.980489 2.0612195 18.978516 2.0527344 C 19.119581 2.0403564 19.261294 2.0280921 19.402344 2.015625 z M 21.298828 2.15625 C 20.999861 2.9818582 21.127104 3.886919 21.130859 4.75 C 21.137559 5.288767 21.101649 5.8526548 21.193359 6.3867188 C 21.205266 6.4560438 21.196583 6.5995127 21.230469 6.640625 C 21.231183 6.6413653 21.235577 6.6438758 21.236328 6.6445312 L 21.238281 6.6464844 L 21.240234 6.6484375 C 21.241104 6.6488221 21.245183 6.6501019 21.246094 6.6503906 C 21.247048 6.6505807 21.250955 6.650302 21.251953 6.6503906 C 21.252996 6.6503751 21.256724 6.6505131 21.257812 6.6503906 C 21.261219 6.6496941 21.265683 6.6482183 21.269531 6.6464844 C 21.318843 6.6242634 21.366187 6.5985292 21.412109 6.5703125 C 21.396788 6.6002737 21.384972 6.6263738 21.382812 6.6386719 L 21.382812 6.640625 L 21.382812 6.6425781 L 21.384766 6.6425781 L 21.384766 6.6445312 L 21.386719 6.6445312 L 21.388672 6.6445312 L 21.390625 6.6445312 C 21.394484 6.6428772 21.400958 6.639011 21.408203 6.6328125 C 21.499878 6.5543848 21.58783 6.4690363 21.667969 6.3769531 C 21.674458 6.37117 21.681061 6.3652294 21.6875 6.359375 C 21.689491 6.3860256 21.692319 6.4128825 21.695312 6.4394531 C 21.700703 6.4873664 21.700978 6.5917724 21.724609 6.6171875 L 21.726562 6.6191406 L 21.728516 6.6191406 L 21.730469 6.6210938 L 21.732422 6.6210938 L 21.734375 6.6210938 L 21.736328 6.6210938 L 21.738281 6.6210938 L 21.740234 6.6210938 C 21.740915 6.6208732 21.74539 6.6194458 21.746094 6.6191406 C 21.747549 6.6183569 21.748447 6.6163777 21.75 6.6152344 C 21.801662 6.5772019 21.847999 6.5418903 21.888672 6.5058594 C 21.910845 6.8553737 21.932242 7.1777537 21.943359 7.3652344 C 21.979319 7.9718348 22.017458 8.5785936 22.046875 9.1855469 C 22.085627 9.9851191 22.110376 10.58159 22.130859 11.146484 C 22.119583 11.314006 22.106647 11.491724 22.09375 11.681641 C 21.91261 15.122472 21.796765 18.588243 22.169922 22.019531 C 22.077226 22.032309 21.985076 22.046107 21.892578 22.060547 C 21.876631 22.05014 21.858117 22.040853 21.837891 22.03125 C 21.592876 21.914925 21.29461 22.021095 21.023438 22.015625 C 20.654551 22.009608 20.287922 22.012097 19.919922 22.023438 C 19.121918 21.967965 18.323865 21.903912 17.525391 21.847656 C 18.26516 21.788737 19.00212 21.705232 19.736328 21.591797 C 19.956798 21.557737 20.176478 21.51545 20.396484 21.478516 C 20.487824 21.463176 20.593444 21.487797 20.669922 21.435547 C 20.71009 21.40811 20.744106 21.371055 20.773438 21.332031 C 20.861618 21.282033 20.941977 21.227754 20.966797 21.136719 C 20.969062 21.128409 20.969724 21.120317 20.96875 21.115234 L 20.96875 21.113281 L 20.966797 21.111328 L 20.966797 21.109375 L 20.964844 21.109375 L 20.964844 21.107422 L 20.962891 21.107422 C 20.962132 21.106965 20.957893 21.105823 20.957031 21.105469 C 20.956071 21.105212 20.952229 21.103677 20.951172 21.103516 C 20.930485 21.102261 20.893849 21.114874 20.853516 21.132812 C 18.523285 21.426687 16.166504 21.387596 13.822266 21.443359 C 13.292262 21.450756 12.762438 21.460164 12.232422 21.470703 C 11.426303 21.419036 10.618416 21.375994 9.8105469 21.357422 C 7.9846217 21.315442 8.4876249 21.359676 6.7460938 21.378906 C 6.2976223 21.383906 5.8488893 21.377262 5.4003906 21.376953 C 4.4350194 21.356603 3.4637213 21.312425 2.4960938 21.337891 C 2.4830233 21.219199 2.4715199 21.101177 2.4589844 20.982422 C 2.3741184 19.847237 2.321457 18.701137 2.4375 17.566406 L 2.2441406 17.757812 C 2.245474 17.538157 2.2483044 17.319274 2.2539062 17.099609 C 2.2900012 13.940322 2.3547224 10.780281 2.2714844 7.6210938 C 2.2546889 6.4384448 2.2330313 5.2564999 2.203125 4.0742188 C 2.2108061 3.9554759 2.2186039 3.8355218 2.2265625 3.7167969 C 2.2711584 3.0515202 2.4361513 2.8967611 2.3652344 2.75 C 2.7575233 2.7086205 3.1549115 2.6592487 3.5878906 2.6113281 C 3.8773656 2.5687761 4.1659796 2.5246567 4.4511719 2.4824219 C 4.7933654 2.5519593 5.1350548 2.5615609 5.4863281 2.5742188 C 6.5834518 2.6137537 7.6815846 2.6226329 8.7792969 2.6074219 C 12.419484 2.5751026 16.059541 2.4959001 19.695312 2.3066406 C 20.365108 2.2476198 20.773066 2.2203819 21.298828 2.15625 z M 4.6289062 2.2148438 C 4.594612 2.2492299 4.5570012 2.2844361 4.5351562 2.3144531 C 4.5290435 2.320226 4.5236925 2.3262609 4.5175781 2.3320312 C 4.2487045 2.3687791 3.9950537 2.4023953 3.765625 2.4335938 C 3.2465926 2.4825387 2.7707808 2.5411917 2.2929688 2.5761719 L 2.3125 2.4121094 C 2.3167433 2.4022673 2.3255099 2.3823454 2.3320312 2.3671875 C 2.3001434 2.4392146 2.2625108 2.5092483 2.2265625 2.5800781 C 2.2163276 2.5807813 2.2055521 2.5813498 2.1953125 2.5820312 C 2.1841207 2.5738735 2.1725577 2.5653768 2.1601562 2.5566406 C 2.1564754 2.4464957 2.1523427 2.3367024 2.1484375 2.2265625 C 2.9754526 2.2183109 3.8018562 2.2145717 4.6289062 2.2148438 z M 5.3378906 2.2148438 C 5.3483488 2.2148769 5.3586824 2.2167625 5.3691406 2.2167969 C 5.321729 2.2231942 5.2736915 2.2279954 5.2265625 2.234375 C 5.2633605 2.2278326 5.3010497 2.2211484 5.3378906 2.2148438 z M 6.2832031 2.2207031 C 7.0693866 2.2261108 7.8545273 2.2356433 8.640625 2.2480469 C 10.259823 2.3140768 11.878965 2.2820101 13.498047 2.2675781 C 11.992342 2.3018488 10.488628 2.4094144 8.9824219 2.4042969 C 7.9078529 2.4069359 6.8336514 2.3741089 5.7617188 2.2988281 C 5.7516765 2.2981229 5.7404934 2.2975681 5.7304688 2.296875 C 5.9142247 2.270918 6.0987975 2.2456353 6.2832031 2.2207031 z M 22.898438 2.2226562 L 22.898438 2.2246094 L 22.900391 2.2246094 L 22.900391 2.2226562 L 22.898438 2.2226562 z M 1.9082031 2.2285156 C 1.9172991 2.3511464 1.9271361 2.4749821 1.9355469 2.5976562 C 1.8934219 2.5995957 1.8509645 2.6000925 1.8085938 2.6015625 C 1.8451523 2.4868576 1.8801533 2.3715298 1.9023438 2.2539062 C 1.903012 2.2503643 1.9024463 2.2481339 1.9023438 2.2460938 L 1.9023438 2.2441406 L 1.9023438 2.2421875 L 1.9003906 2.2421875 L 1.8984375 2.2421875 L 1.8964844 2.2421875 C 1.8760763 2.255884 1.8163624 2.3544438 1.8066406 2.3984375 C 1.7916861 2.4661108 1.7792967 2.5348978 1.7695312 2.6035156 C 1.7370339 2.604525 1.7045593 2.6047623 1.671875 2.6054688 C 1.6515447 2.5846323 1.6304762 2.563531 1.6113281 2.5429688 L 1.609375 2.5410156 L 1.6074219 2.5410156 L 1.6054688 2.5410156 L 1.6035156 2.5410156 L 1.6015625 2.5410156 L 1.5996094 2.5429688 L 1.5996094 2.5449219 C 1.5917977 2.555958 1.5862427 2.5856897 1.5839844 2.6074219 C 1.4995579 2.60851 1.4142728 2.6086474 1.328125 2.6074219 C 1.3523089 2.4858297 1.3779914 2.3633336 1.4042969 2.2421875 C 1.4904001 2.2384407 1.576013 2.2363126 1.6621094 2.2324219 C 1.7440301 2.2314339 1.8262816 2.229417 1.9082031 2.2285156 z M 22.960938 2.7285156 C 22.959578 2.747453 22.959938 2.7662267 22.958984 2.7851562 C 22.951583 2.81522 22.942918 2.8468832 22.935547 2.8769531 C 22.944687 2.8277759 22.95443 2.7768596 22.960938 2.7285156 z M 1.9472656 2.7910156 C 1.9843775 3.355489 2.0153678 3.9211906 2.0410156 4.4863281 C 2.0205176 4.8873057 2.0036436 5.2881729 1.9960938 5.6894531 C 1.9937311 5.8150304 1.9915645 5.9408195 1.9902344 6.0664062 C 1.9681598 6.4739088 1.9456143 6.8795925 1.9238281 7.2871094 C 1.8896201 7.9301213 1.8487958 8.5739647 1.8066406 9.2167969 C 1.8327364 7.6166821 1.8579681 6.0162115 1.8789062 4.4160156 C 1.8882562 3.933478 1.974362 3.4465476 1.90625 2.96875 C 1.8975298 2.9075797 1.8721321 2.8509155 1.8378906 2.7988281 C 1.8743498 2.7960302 1.9109267 2.7940657 1.9472656 2.7910156 z M 1.5722656 2.8183594 C 1.5715741 2.8357714 1.570906 2.8517228 1.5703125 2.8691406 C 1.5412282 2.9088862 1.515539 2.947747 1.4941406 2.9863281 C 1.4619566 2.9871423 1.4323251 2.9972952 1.4121094 3.0136719 C 1.3631579 3.053327 1.3742744 3.1195024 1.4101562 3.1972656 C 1.3588931 3.3875042 1.3700987 3.5796828 1.375 3.8125 C 1.3954295 3.7095124 1.4477452 3.5352186 1.5019531 3.359375 C 1.5177443 3.3848368 1.5337019 3.4103477 1.5488281 3.4355469 C 1.5446247 3.5277727 1.5424175 3.61123 1.5390625 3.6835938 C 1.5195765 3.7176076 1.5020883 3.7457986 1.4863281 3.7714844 C 1.4703782 3.7729394 1.4525019 3.7752445 1.4335938 3.7753906 C 1.4333201 3.8016104 1.4319271 3.8272956 1.4316406 3.8535156 C 1.4093286 3.8845108 1.3914443 3.9013961 1.3808594 3.90625 L 1.3789062 3.9082031 L 1.3769531 3.9082031 C 1.3770932 3.9279303 1.377068 3.9464646 1.3769531 3.9667969 C 1.3723931 4.7743108 1.3849541 5.6982329 1.3925781 6.4960938 C 1.3778946 7.3158362 1.3992667 8.1353596 1.3925781 8.9550781 C 1.3922553 9.0293073 1.3908427 9.0711191 1.390625 9.1503906 C 1.3902117 9.3008613 1.3924875 9.4510878 1.3925781 9.6015625 C 1.3898215 10.522159 1.3637926 11.443018 1.3925781 12.363281 C 1.3711064 11.741468 1.3980868 11.119905 1.3964844 10.498047 C 1.3981078 10.800963 1.3980869 11.103326 1.4003906 11.40625 C 1.3985849 11.725236 1.3947541 12.044295 1.3925781 12.363281 C 1.3946139 12.428364 1.3903359 12.493514 1.3925781 12.558594 C 1.3887171 13.112601 1.3847424 13.666693 1.3808594 14.220703 C 1.377246 14.153319 1.3731196 14.083177 1.3691406 14.007812 C 1.3455516 13.561014 1.3223685 13.112818 1.2988281 12.666016 C 1.2702087 11.957388 1.2265823 10.97682 1.2070312 10.171875 C 1.2373325 9.7579678 1.2620183 9.3428153 1.2773438 8.9277344 C 1.307309 8.1161413 1.2929431 7.7254748 1.2832031 6.921875 C 1.2807389 6.7512887 1.2770076 6.5807405 1.2734375 6.4101562 C 1.2986389 5.7685284 1.3232308 5.1263532 1.3359375 4.484375 C 1.321003 3.7742514 1.3391516 3.9209256 1.2832031 3.3378906 C 1.2763849 3.2668393 1.3135384 3.1224429 1.2890625 3.0761719 L 1.2871094 3.0742188 L 1.2851562 3.0722656 L 1.2832031 3.0703125 L 1.28125 3.0683594 L 1.2792969 3.0664062 L 1.2773438 3.0664062 C 1.2764586 3.0660856 1.2724329 3.0646767 1.2714844 3.0644531 C 1.2694568 3.0642056 1.2640174 3.0642853 1.2617188 3.0644531 C 1.2592793 3.0648367 1.2566377 3.0655752 1.2539062 3.0664062 C 1.2501543 3.0675478 1.245895 3.0691777 1.2421875 3.0703125 C 1.2564012 2.9904402 1.2701326 2.909788 1.2851562 2.8300781 C 1.3818347 2.8268986 1.4776995 2.8237443 1.5722656 2.8183594 z M 1.3769531 3.9082031 C 1.3767237 3.8759105 1.3756486 3.8433099 1.375 3.8125 C 1.3663601 3.8560545 1.364042 3.8872634 1.3691406 3.9003906 L 1.3691406 3.9023438 L 1.3710938 3.9023438 L 1.3710938 3.9042969 L 1.3730469 3.90625 L 1.375 3.90625 L 1.3769531 3.9082031 z M 1.6113281 3.5527344 C 1.620849 3.5742732 1.6299839 3.5957746 1.6347656 3.6152344 C 1.6349049 3.6407926 1.6342818 3.6658348 1.6347656 3.6914062 C 1.6283375 3.7113822 1.6152106 3.728848 1.59375 3.7421875 C 1.5958673 3.6795884 1.6027108 3.615822 1.6113281 3.5527344 z M 22.611328 3.84375 C 22.613262 3.9778709 22.615637 4.1119696 22.617188 4.2460938 C 22.62031 4.5165349 22.622935 4.7415016 22.625 4.9277344 C 22.593921 5.2095153 22.565018 5.4911024 22.539062 5.7734375 C 22.517684 5.5653186 22.498431 5.3733631 22.480469 5.234375 C 22.472498 5.1726995 22.461269 5.0863678 22.447266 4.9921875 C 22.511552 4.6103095 22.560688 4.2276257 22.611328 3.84375 z M 1.6484375 4.0292969 C 1.6589892 4.2262124 1.6721321 4.4224895 1.6757812 4.6191406 C 1.6949638 7.1220876 1.6641729 9.6244362 1.6210938 12.126953 C 1.5829898 12.799413 1.5502034 13.473369 1.5292969 14.146484 C 1.5250985 14.281654 1.5225918 14.415568 1.5195312 14.550781 C 1.5184389 11.806462 1.5618893 9.0629982 1.5703125 6.3183594 C 1.5716326 6.0982041 1.573134 5.6687094 1.5761719 5.2109375 C 1.5959482 4.8717425 1.6216243 4.4399297 1.6484375 4.0292969 z M 23.003906 4.1660156 C 23.032456 5.0474885 23.040754 5.9296638 22.970703 6.8066406 C 22.960562 6.2550807 22.951052 5.7039213 22.945312 5.1523438 C 22.945009 5.1230206 22.943709 5.093779 22.943359 5.0644531 C 22.963433 4.7647635 22.984556 4.4657589 23.003906 4.1660156 z M 6.8203125 4.4277344 C 6.703736 4.4279052 6.583386 4.4548466 6.4589844 4.5117188 C 6.3749341 4.5501436 6.3119529 4.6219366 6.2382812 4.6777344 C 6.1961571 4.7320913 6.1502291 4.785294 6.1054688 4.8378906 C 6.1246453 4.8244914 6.1447083 4.8125945 6.1660156 4.8027344 C 6.1954344 4.7891206 6.2264597 4.7782486 6.2578125 4.7695312 C 6.1850932 4.8193699 6.1123492 4.8766493 6.0410156 4.9394531 C 6.0317682 4.9421768 6.0218508 4.9471559 6.0117188 4.9511719 C 5.9930702 4.9735124 5.9751403 4.9948773 5.9570312 5.0175781 C 5.6683286 5.2966448 5.4375383 5.6562262 5.4785156 5.9433594 C 5.4861856 5.9970724 5.5280064 6.0395955 5.5527344 6.0878906 C 5.6097324 6.0718026 5.6715295 6.0689565 5.7226562 6.0390625 C 5.7335222 6.0327094 5.7457973 6.0272794 5.7578125 6.0195312 C 5.814792 6.3078051 5.9183177 6.5919333 6.0019531 6.7675781 C 6.0577741 6.88481 6.1338402 6.9913328 6.1992188 7.1035156 C 6.2766127 7.1868856 6.3392079 7.284567 6.4296875 7.3535156 C 6.6382341 7.5124353 6.8380616 7.5274646 7.0234375 7.4589844 C 7.063746 7.4684845 7.1050254 7.4737617 7.1464844 7.4726562 C 7.2665532 7.4694547 7.3956763 7.4339141 7.4882812 7.3574219 C 7.9253383 6.9964109 8.0969082 6.7903791 8.1074219 6.265625 C 8.1087648 6.1985967 8.1063736 6.1342094 8.1015625 6.0742188 C 8.0857006 6.0824659 8.0689825 6.0923287 8.0507812 6.1015625 C 8.0505813 6.0996132 8.0509952 6.0976454 8.0507812 6.0957031 C 8.0670414 6.0768795 8.0836007 6.0581211 8.0996094 6.0390625 C 8.0976789 6.0199335 8.0942803 6.0010343 8.0917969 5.9824219 C 8.1126075 5.9775788 8.1354277 5.9720839 8.1582031 5.9667969 C 8.2438136 5.8624302 8.3282007 5.7566039 8.4160156 5.6542969 C 8.4147156 5.5603329 8.4530094 5.4556986 8.4121094 5.3710938 C 8.3325612 5.2065492 8.1684562 5.1682192 7.9785156 5.1953125 C 7.9811433 5.1917437 7.9837693 5.1870055 7.9863281 5.1835938 C 7.9350681 5.1242424 7.8980505 5.0481872 7.8320312 5.0058594 C 7.7905764 4.9792809 7.7460965 4.9580352 7.6992188 4.9414062 C 7.4787181 4.6547725 7.170042 4.4272219 6.8203125 4.4277344 z M 8.1582031 5.9667969 C 8.1383508 5.9909986 8.1197286 6.0151102 8.0996094 6.0390625 C 8.1008246 6.0511042 8.1005782 6.0619449 8.1015625 6.0742188 C 8.2268568 6.009074 8.2815215 5.9737391 8.2929688 5.9570312 L 8.2949219 5.9550781 L 8.2949219 5.953125 L 8.2949219 5.9511719 L 8.2949219 5.9492188 L 8.2929688 5.9492188 L 8.2929688 5.9472656 L 8.2910156 5.9472656 C 8.2725381 5.9426517 8.2146118 5.9537024 8.1582031 5.9667969 z M 6.0117188 4.9511719 C 6.0430676 4.9136167 6.0737302 4.8751856 6.1054688 4.8378906 C 6.0479088 4.8781096 5.999441 4.931935 5.9433594 4.9746094 C 5.962764 4.971999 5.9875411 4.9607551 6.0117188 4.9511719 z M 6.5292969 4.7324219 C 6.6938771 4.728279 6.8396929 4.7618611 6.9707031 4.8242188 C 6.9114286 4.845381 6.8566055 4.8763615 6.8144531 4.9160156 C 6.7670631 4.960597 6.7228491 5.0080274 6.6796875 5.0566406 C 6.6499477 5.0546175 6.6189975 5.0505852 6.5839844 5.0449219 C 6.5802702 5.0443211 6.5759938 5.0435974 6.5722656 5.0429688 C 6.6005428 4.9291417 6.5915962 4.8232114 6.5292969 4.734375 L 6.5292969 4.7324219 z M 5.890625 5.1035156 C 5.878599 5.120084 5.8669095 5.1373377 5.8554688 5.1542969 C 5.8460033 5.1593892 5.8347796 5.1639155 5.8300781 5.1660156 L 5.8300781 5.1679688 L 5.828125 5.1679688 L 5.828125 5.1660156 L 5.8300781 5.1660156 L 5.8300781 5.1640625 C 5.8514252 5.1417829 5.872368 5.120884 5.890625 5.1035156 z M 7.2382812 5.2421875 C 7.3222831 5.2619299 7.4036719 5.2995135 7.4824219 5.3554688 C 7.486089 5.3580744 7.4906654 5.3604736 7.4941406 5.3632812 C 7.4911857 5.3647817 7.4873187 5.3656782 7.484375 5.3671875 C 7.4042938 5.3209405 7.3217082 5.2792594 7.2382812 5.2421875 z M 6.0332031 5.3710938 C 6.0623957 5.3843752 6.0969223 5.3961346 6.1347656 5.4042969 C 6.1088947 5.4519712 6.0978358 5.5057178 6.1367188 5.5722656 L 6.1386719 5.5742188 C 6.139328 5.5750792 6.1418567 5.5793593 6.1425781 5.5800781 C 6.1433622 5.5806599 6.1475933 5.5815817 6.1484375 5.5820312 L 6.1503906 5.5820312 C 6.1523039 5.5824296 6.1580388 5.5840492 6.1601562 5.5839844 C 6.2077094 5.5779155 6.3006273 5.4706393 6.3300781 5.4550781 L 6.3320312 5.4550781 L 6.3339844 5.4550781 L 6.3359375 5.4550781 L 6.3359375 5.4570312 L 6.3378906 5.4570312 L 6.3378906 5.4589844 L 6.3378906 5.4609375 L 6.3378906 5.4628906 C 6.3376927 5.4645597 6.3365111 5.4664894 6.3359375 5.46875 C 6.3347862 5.4732876 6.333662 5.4780416 6.3320312 5.4824219 C 6.3471319 5.4633031 6.3607566 5.4432258 6.375 5.4238281 C 6.3763312 5.423811 6.3775716 5.4238486 6.3789062 5.4238281 C 6.3630286 5.4432474 6.3482096 5.4632893 6.3320312 5.4824219 C 6.3291899 5.4900503 6.3244946 5.4967413 6.3203125 5.5039062 C 6.3347607 5.5616246 6.3403598 5.6242149 6.3554688 5.6816406 C 6.2885668 5.7935529 6.3009633 5.9367385 6.2734375 6.0644531 C 6.3002121 6.1329568 6.3155501 6.2093743 6.3398438 6.2792969 C 6.3134531 6.3168456 6.2878445 6.3560229 6.2617188 6.3984375 C 6.1704162 6.2023612 6.100355 5.9999881 6.0585938 5.7753906 C 6.1254723 5.7127411 6.1940472 5.6434257 6.2578125 5.5703125 C 6.1979611 5.6145275 6.1156244 5.6473754 6.0429688 5.671875 C 6.0287638 5.5736974 6.0166594 5.4741978 6.015625 5.375 C 6.0215191 5.373813 6.0273104 5.3721907 6.0332031 5.3710938 z M 6.2578125 5.5703125 C 6.2844813 5.550611 6.3058466 5.5286896 6.3203125 5.5039062 C 6.319748 5.5016512 6.320908 5.5002882 6.3203125 5.4980469 C 6.3003888 5.5228122 6.2787969 5.5462519 6.2578125 5.5703125 z M 6.3203125 5.4980469 C 6.3244432 5.4929124 6.3279555 5.4875811 6.3320312 5.4824219 C 6.3278716 5.4873406 6.3225437 5.4911986 6.3183594 5.4960938 L 6.3203125 5.4980469 z M 6.8144531 5.4765625 C 6.9106668 5.5144197 7.0086617 5.5581356 7.1035156 5.6074219 C 7.0899134 5.6181312 7.0778841 5.6288531 7.0664062 5.6386719 C 6.9730463 5.6076281 6.8865045 5.5538008 6.8144531 5.4765625 z M 7.765625 5.5 C 7.7919117 5.5009363 7.8173845 5.5029594 7.8417969 5.5078125 C 7.8119414 5.5234822 7.7775065 5.5373738 7.7460938 5.5507812 C 7.7421486 5.5473064 7.7383717 5.5444491 7.734375 5.5410156 C 7.7448317 5.5269738 7.7554959 5.5139966 7.765625 5.5 z M 7.9980469 5.5820312 C 8.0319772 5.6120788 8.0600704 5.6518558 8.0820312 5.7011719 C 8.1154895 5.7763055 8.0934562 5.8635756 8.0878906 5.9472656 C 8.0684381 5.8202863 8.0360261 5.7029247 7.9980469 5.5820312 z M 7.1992188 5.6601562 C 7.2045878 5.6632958 7.2095104 5.6667353 7.2148438 5.6699219 C 7.2053875 5.6690006 7.1968831 5.6673038 7.1875 5.6660156 C 7.1915591 5.6639474 7.1951393 5.6622052 7.1992188 5.6601562 z M 2.0957031 5.8457031 C 2.1174719 6.4771946 2.1351214 7.1087317 2.1523438 7.7402344 C 2.2330818 10.898383 2.1904559 14.056688 2.1386719 17.214844 C 2.1372779 17.2876 2.1360216 17.358054 2.1347656 17.423828 C 2.0981973 15.035691 2.0568639 12.64612 2.03125 10.257812 C 2.033971 9.2599162 2.0094654 8.2618306 2.0058594 7.2636719 C 2.0074631 7.2427251 2.00816 7.2221182 2.0097656 7.2011719 C 2.0392587 6.7493293 2.0684253 6.2976876 2.0957031 5.8457031 z M 6.796875 6.0253906 C 6.8332934 6.0310528 6.8708329 6.0329445 6.9082031 6.0332031 C 6.8659531 6.0641043 6.8244745 6.0981235 6.7851562 6.1328125 C 6.7805086 6.1281197 6.7760279 6.1240248 6.7714844 6.1191406 C 6.7791394 6.0882132 6.7894322 6.0563153 6.796875 6.0253906 z M 7.2304688 6.0898438 C 7.2758471 6.0892369 7.3191056 6.0949943 7.359375 6.1132812 C 7.413361 6.1377973 7.4192828 6.216399 7.4492188 6.2675781 C 7.4742299 6.2556864 7.5110142 6.2317078 7.546875 6.2070312 L 7.5664062 6.21875 C 7.5788033 6.201824 7.5911808 6.1849472 7.6035156 6.1679688 C 7.6343526 6.1477037 7.6618386 6.1315652 7.6777344 6.1289062 C 7.6816842 6.1369665 7.6857701 6.1441263 7.6894531 6.1523438 L 7.6894531 6.1542969 C 7.6751824 6.2013639 7.6393055 6.2360081 7.5957031 6.2636719 C 7.5992903 6.2721214 7.6021306 6.28039 7.6054688 6.2890625 C 7.5723197 6.2977283 7.539762 6.3044683 7.5058594 6.3105469 C 7.501516 6.3126233 7.4965098 6.3143434 7.4921875 6.3164062 C 7.4933406 6.3148963 7.4949426 6.3140116 7.4960938 6.3125 C 7.261257 6.3527441 7.0150862 6.326903 6.8320312 6.1757812 C 6.9027769 6.1412157 6.9972137 6.123957 7.0957031 6.1054688 C 7.1391711 6.0973093 7.1850904 6.0904506 7.2304688 6.0898438 z M 7.4960938 6.3125 C 7.4992783 6.3119543 7.5026793 6.3111171 7.5058594 6.3105469 C 7.5368748 6.2957192 7.5676828 6.2814495 7.5957031 6.2636719 C 7.5901012 6.2504765 7.5847625 6.2368771 7.578125 6.2246094 L 7.5664062 6.21875 C 7.5431907 6.2504469 7.5198723 6.2812777 7.4960938 6.3125 z M 7.6738281 6.4433594 C 7.6878496 6.4646231 7.7052691 6.4832972 7.7265625 6.4980469 L 7.7285156 6.5 C 7.7360427 6.5041471 7.7456314 6.5060666 7.7558594 6.5058594 C 7.7556344 6.5125639 7.7562373 6.5186097 7.7558594 6.5253906 C 7.7534554 6.5685505 7.7430796 6.6108227 7.7304688 6.6523438 C 7.5743343 6.7244791 7.3746555 6.7596197 7.2910156 6.7617188 C 7.209436 6.7637661 7.1285423 6.7416055 7.0488281 6.7207031 C 7.0919319 6.6986153 7.1356247 6.6744549 7.1757812 6.6464844 C 7.3529859 6.6125333 7.5273877 6.5373631 7.6738281 6.4433594 z M 7.8339844 6.5390625 C 7.8334381 6.5586531 7.8323429 6.5782692 7.8300781 6.5976562 C 7.8029821 6.6167368 7.7711416 6.632787 7.7382812 6.6484375 C 7.7702538 6.6124081 7.8036103 6.5762437 7.8339844 6.5390625 z M 7.7265625 6.6621094 C 7.7098585 6.7154916 7.6902379 6.7685225 7.6757812 6.8222656 C 7.6977729 6.8180372 7.7361234 6.8008982 7.765625 6.7910156 C 7.7773814 6.7758892 7.7893539 6.7609252 7.8007812 6.7460938 C 7.7975767 6.7588223 7.7943603 6.7704876 7.7910156 6.7832031 C 7.7942399 6.7826727 7.7984732 6.783044 7.8007812 6.7832031 L 7.8027344 6.7832031 L 7.8027344 6.7851562 L 7.8046875 6.7851562 L 7.8046875 6.7871094 L 7.8066406 6.7871094 L 7.8066406 6.7890625 L 7.8066406 6.7910156 L 7.8046875 6.7929688 C 7.804287 6.7942181 7.8035159 6.7953389 7.8027344 6.796875 C 7.7941881 6.8136735 7.7845355 6.8312588 7.7734375 6.8476562 C 7.7573745 6.9094078 7.7426124 6.9701345 7.7363281 7.0332031 L 7.7363281 7.0351562 L 7.7382812 7.0371094 L 7.7382812 7.0390625 L 7.7402344 7.0410156 L 7.7421875 7.0429688 C 7.7519171 7.0504274 7.7751675 7.0546147 7.7832031 7.0585938 L 7.7832031 7.0605469 L 7.7832031 7.0625 L 7.78125 7.0625 C 7.595284 7.1539934 7.5126411 7.1845426 7.4277344 7.1796875 C 7.4673733 7.1409983 7.5054803 7.1002863 7.5429688 7.0585938 C 7.4757289 7.1009844 7.4025841 7.1370569 7.328125 7.1621094 C 7.2710724 7.1466507 7.2021143 7.1230888 7.0996094 7.0957031 C 7.2907588 7.0614156 7.4652102 6.965042 7.6152344 6.7890625 C 7.651545 6.7464698 7.6885241 6.7048316 7.7265625 6.6621094 z M 7.5429688 7.0585938 C 7.6375192 6.9989855 7.7197759 6.9269419 7.7734375 6.8476562 C 7.7788893 6.8266977 7.7855077 6.8041428 7.7910156 6.7832031 C 7.7842368 6.7843183 7.7751718 6.7878176 7.765625 6.7910156 C 7.6970491 6.8792492 7.6220181 6.9706797 7.5429688 7.0585938 z M 14.402344 6.9179688 C 14.347556 6.9695844 14.301238 7.0146864 14.255859 7.0605469 C 14.157426 7.0735901 14.054139 7.0734827 13.960938 7.0976562 C 13.800187 7.1138296 13.638762 7.1309116 13.476562 7.1386719 C 13.502894 7.0931733 13.535201 7.0346195 13.578125 6.9609375 L 13.398438 7.140625 C 13.297462 7.1436029 13.196421 7.1437566 13.095703 7.1367188 C 12.992972 7.1295388 12.892978 7.108207 12.791016 7.09375 C 12.713036 7.082692 12.628517 7.0263827 12.556641 7.0585938 C 12.509137 7.0798822 12.464435 7.1070166 12.421875 7.1367188 C 12.426739 7.10865 12.434648 7.0812388 12.443359 7.0546875 C 12.393314 7.1297675 12.309275 7.1954498 12.255859 7.2695312 C 12.200554 7.3172725 12.145839 7.3649607 12.087891 7.4082031 C 12.044351 7.5899738 12.098118 7.8198806 12.111328 8.0019531 C 12.152618 8.5707049 12.181443 9.1388818 12.195312 9.7089844 C 12.211 10.937057 12.169878 12.164743 12.154297 13.392578 C 12.067094 13.481632 12.07541 13.545944 12.060547 13.789062 C 12.042587 14.858094 12.000661 15.926678 11.994141 16.996094 C 12.024206 17.360061 12.030349 17.825196 12.091797 18.257812 C 12.07428 18.280285 12.056354 18.301147 12.041016 18.320312 C 11.981265 18.374211 11.901658 18.444884 11.785156 18.537109 L 11.783203 18.537109 L 11.783203 18.539062 L 11.783203 18.541016 L 11.785156 18.542969 C 11.792517 18.545979 11.812186 18.546346 11.820312 18.548828 C 11.891243 18.570538 11.961511 18.594241 12.033203 18.613281 C 12.086358 18.627399 12.130224 18.639127 12.167969 18.648438 C 12.202567 18.7803 12.245248 18.902895 12.300781 19.013672 C 12.332271 19.041682 12.356041 19.080476 12.394531 19.097656 C 12.545757 19.16515 12.841035 18.910641 13.027344 18.742188 C 13.427847 18.740415 13.76597 18.686471 14.076172 18.46875 C 14.049949 18.499997 14.034955 18.522044 14.029297 18.53125 L 14.027344 18.533203 L 14.027344 18.535156 L 14.029297 18.535156 L 14.03125 18.533203 C 14.045136 18.524268 14.09433 18.47705 14.146484 18.417969 C 14.265521 18.323499 14.379073 18.20195 14.492188 18.048828 C 14.483046 17.890217 14.465686 17.732867 14.441406 17.574219 C 14.537997 17.487298 14.597089 17.434214 14.607422 17.410156 L 14.607422 17.408203 L 14.607422 17.40625 L 14.607422 17.404297 L 14.607422 17.402344 L 14.605469 17.400391 L 14.605469 17.398438 L 14.603516 17.398438 L 14.601562 17.396484 C 14.60078 17.396166 14.596627 17.394788 14.595703 17.394531 C 14.572243 17.390236 14.51417 17.400659 14.416016 17.419922 C 14.339164 16.969703 14.23317 16.520244 14.208984 16.068359 C 14.179626 15.756734 14.159573 15.44448 14.146484 15.132812 C 14.196473 14.649143 14.270398 14.169339 14.414062 13.701172 C 14.542503 13.23255 14.647804 12.75816 14.773438 12.289062 C 14.914063 11.995165 15.057369 11.701866 15.224609 11.421875 C 15.37614 11.17513 15.527133 10.929692 15.679688 10.683594 C 15.817063 10.524383 15.950662 10.360139 16.083984 10.197266 C 16.238649 10.190352 16.387791 10.249714 16.511719 10.347656 C 16.935677 10.703216 17.268762 11.176189 17.548828 11.648438 C 17.897894 12.57806 18.058116 13.575498 18.167969 14.558594 C 18.177069 15.598762 18.067188 16.62586 17.863281 17.646484 C 17.794951 18.070014 17.749381 18.492437 17.882812 18.908203 C 17.883014 18.910312 17.882588 18.911955 17.882812 18.914062 C 17.84466 18.918753 17.808744 18.921919 17.779297 18.921875 C 17.533539 18.956375 17.403152 18.971017 17.283203 19.033203 C 17.272267 19.032128 17.260931 19.032371 17.25 19.03125 C 17.240695 19.044978 17.23071 19.057284 17.220703 19.070312 C 17.136877 19.126858 17.049788 19.212664 16.923828 19.349609 C 16.906566 19.36359 16.892932 19.376864 16.886719 19.384766 L 16.884766 19.386719 L 16.884766 19.388672 L 16.884766 19.390625 L 16.884766 19.392578 L 16.884766 19.394531 C 16.875421 19.404813 16.865238 19.414971 16.855469 19.425781 C 17.201223 19.431532 17.546212 19.46154 17.890625 19.492188 C 17.861367 19.610692 17.830642 19.729323 17.800781 19.847656 C 17.982892 20.10738 18.196048 19.923798 18.402344 19.552734 C 18.607666 19.581608 18.812146 19.615684 19.011719 19.671875 C 19.076519 19.690115 19.141147 19.712021 19.203125 19.738281 C 19.228328 19.748961 19.254169 19.788028 19.277344 19.794922 C 19.27827 19.795097 19.282277 19.794855 19.283203 19.794922 L 19.285156 19.794922 C 19.286082 19.794751 19.29009 19.79327 19.291016 19.792969 C 19.291942 19.792531 19.293995 19.791598 19.294922 19.791016 C 19.340529 19.762363 19.382314 19.731454 19.423828 19.697266 C 19.404923 19.728151 19.384494 19.75733 19.361328 19.785156 C 19.422773 19.715553 19.489676 19.650506 19.552734 19.582031 C 19.620962 19.517728 19.689115 19.451652 19.759766 19.390625 C 19.884762 19.250018 19.938201 19.033324 19.990234 18.822266 C 19.993866 18.831379 19.998661 18.840974 20.003906 18.849609 C 19.996639 18.920229 19.988687 18.989841 19.982422 19.060547 C 19.982001 19.065297 19.982222 19.07658 19.982422 19.082031 L 19.982422 19.083984 L 19.984375 19.083984 C 20.045574 18.994656 20.096127 18.923638 20.138672 18.865234 C 20.201321 18.828979 20.272298 18.763915 20.330078 18.738281 L 20.328125 18.736328 C 20.325975 18.736129 20.320343 18.736772 20.316406 18.736328 L 20.314453 18.736328 L 20.3125 18.736328 L 20.3125 18.734375 L 20.310547 18.734375 L 20.310547 18.732422 C 20.309201 18.691697 20.31292 18.651995 20.316406 18.611328 C 20.364577 18.517039 20.348116 18.445314 20.353516 18.144531 C 20.361025 18.078399 20.371385 17.993206 20.390625 17.826172 C 20.459575 17.39873 20.5546 16.984729 20.658203 16.564453 C 20.685283 16.454588 20.717741 16.345651 20.738281 16.234375 C 20.745031 16.19761 20.769655 16.114624 20.763672 16.087891 L 20.763672 16.085938 L 20.761719 16.085938 L 20.761719 16.083984 L 20.759766 16.083984 L 20.759766 16.082031 L 20.757812 16.082031 L 20.755859 16.082031 L 20.753906 16.082031 L 20.751953 16.082031 L 20.75 16.083984 C 20.748846 16.084531 20.747405 16.085097 20.746094 16.085938 C 20.725952 16.098856 20.706257 16.112305 20.6875 16.126953 C 20.757067 15.676911 20.796361 15.221273 20.792969 14.759766 C 20.793275 14.219392 20.806452 13.685834 20.757812 13.146484 C 20.674512 12.222913 20.458031 11.310755 20.066406 10.46875 C 19.707412 9.8377858 19.3094 9.184423 18.716797 8.7402344 C 18.443854 8.5356478 18.208512 8.4666421 17.896484 8.34375 C 17.856768 8.3370845 17.818465 8.3320011 17.779297 8.3261719 C 17.767161 8.3197237 17.754716 8.3124738 17.742188 8.3066406 C 17.621501 8.2504511 17.519462 8.2614324 17.412109 8.2851562 C 16.799235 8.2412189 16.245839 8.3417269 15.697266 8.7421875 C 15.596366 8.8344671 15.495074 8.9267859 15.394531 9.0195312 C 15.386858 9.036332 15.378718 9.0553413 15.375 9.0664062 C 15.681328 8.8518065 15.979862 8.7267379 16.287109 8.6679688 C 16.13947 8.8099321 15.995851 8.9559625 15.857422 9.1054688 C 15.857118 9.0929076 15.854234 9.0809249 15.851562 9.0742188 L 15.851562 9.0722656 L 15.849609 9.0722656 L 15.849609 9.0703125 L 15.847656 9.0703125 L 15.847656 9.0683594 L 15.845703 9.0683594 L 15.84375 9.0683594 L 15.841797 9.0683594 C 15.825136 9.0740602 15.806894 9.0832021 15.787109 9.09375 C 15.813557 9.0570061 15.834291 9.0195979 15.835938 8.9960938 C 15.835889 8.9937392 15.834501 8.9884296 15.833984 8.9863281 C 15.833603 8.9853441 15.830587 8.9813838 15.830078 8.9804688 L 15.828125 8.9785156 C 15.826571 8.9769756 15.822436 8.9738877 15.820312 8.9726562 C 15.816682 8.9710508 15.811685 8.9695885 15.806641 8.96875 C 15.797036 8.9671534 15.788309 8.9661593 15.779297 8.9667969 C 15.79063 8.9467882 15.80107 8.9262052 15.8125 8.90625 C 15.794375 8.9277291 15.776673 8.9497703 15.757812 8.9707031 C 15.661225 8.9960806 15.596695 9.1398203 15.511719 9.2089844 C 15.480559 9.2651565 15.448353 9.3223224 15.417969 9.3789062 C 15.174048 9.60083 14.901211 9.8910037 14.712891 10.095703 C 14.708515 10.099581 14.705386 10.103664 14.701172 10.107422 C 14.69978 10.108727 14.698627 10.110053 14.697266 10.111328 C 14.654399 10.158018 14.615447 10.199526 14.583984 10.234375 C 14.453623 10.361546 14.32624 10.493483 14.207031 10.628906 C 14.20793 9.8670363 14.209477 9.1054178 14.228516 8.34375 C 14.237457 8.1224356 14.243406 7.926781 14.255859 7.7207031 C 14.344074 7.6276253 14.408948 7.5387869 14.431641 7.4667969 C 14.529097 7.3833468 14.576259 7.3410041 14.585938 7.328125 L 14.585938 7.3261719 L 14.585938 7.3242188 L 14.583984 7.3242188 C 14.570868 7.3273745 14.514799 7.3611268 14.439453 7.4023438 C 14.43386 7.348712 14.389365 7.3136252 14.291016 7.3066406 C 14.291515 7.3024345 14.290503 7.2991264 14.291016 7.2949219 C 14.493276 7.206754 14.610497 7.0814058 14.402344 6.9179688 z M 15.394531 9.0195312 C 15.399815 9.0079612 15.404505 8.996671 15.40625 8.9902344 L 15.40625 8.9882812 L 15.40625 8.9863281 L 15.40625 8.984375 L 15.404297 8.984375 L 15.402344 8.9863281 L 15.400391 8.9863281 C 15.275138 9.089211 15.163532 9.2090603 15.0625 9.3378906 C 15.170089 9.2293705 15.281493 9.1238021 15.394531 9.0195312 z M 15.0625 9.3378906 C 14.709582 9.6938631 14.400953 10.083298 14.228516 10.574219 L 14.535156 10.267578 C 14.674046 9.9493787 14.841844 9.6192583 15.0625 9.3378906 z M 13.990234 7.390625 C 13.980895 7.4047255 13.970689 7.4184162 13.960938 7.4335938 C 13.947302 7.454817 13.936494 7.5051304 13.927734 7.5722656 C 13.752046 7.603553 13.644828 7.6240245 13.554688 7.6640625 C 13.561147 7.582101 13.567536 7.5032284 13.570312 7.4550781 C 13.582805 7.4541188 13.594886 7.4521929 13.607422 7.4511719 C 13.643096 7.4535899 13.809711 7.433631 13.990234 7.390625 z M 12.416016 7.4375 C 12.426866 7.4370152 12.438123 7.4364007 12.447266 7.4375 C 12.657369 7.4627627 12.861754 7.4744988 13.066406 7.4746094 L 12.865234 7.6757812 C 12.875368 7.6948181 12.882648 7.7100667 12.888672 7.7226562 C 12.879559 7.7386176 12.871739 7.7542909 12.863281 7.7695312 L 12.681641 7.9492188 C 12.659802 7.9525793 12.639233 7.9577749 12.621094 7.9667969 C 12.583838 7.9853264 12.569489 8.0182044 12.570312 8.0605469 L 12.488281 8.1425781 C 12.488612 8.1598839 12.489982 8.1799606 12.490234 8.1972656 L 12.453125 8.2324219 C 12.447644 8.0477234 12.442759 7.8623757 12.435547 7.6777344 C 12.432564 7.6016183 12.422181 7.5205721 12.416016 7.4375 z M 1.9921875 7.4433594 C 2.0007054 8.3863973 2.01954 9.3306394 2.0175781 10.273438 C 2.0447841 12.810153 2.1039646 15.346118 2.1191406 17.882812 C 2.1191445 17.883463 2.1191367 17.884115 2.1191406 17.884766 L 1.8476562 18.154297 C 1.807955 17.982081 1.761738 17.758223 1.6796875 17.607422 C 1.6809276 17.477682 1.682238 17.346546 1.6835938 17.216797 C 1.7134668 14.904143 1.7509308 12.591821 1.7890625 10.279297 C 1.8498364 9.3335372 1.9201175 8.388319 1.9921875 7.4433594 z M 13.257812 7.4921875 C 13.228993 7.5433013 13.218398 7.6041112 13.207031 7.6875 C 13.196926 7.7800879 13.190606 7.8726121 13.189453 7.9648438 C 13.161642 7.9935725 13.132392 8.0244776 13.099609 8.0585938 C 13.109836 7.9324849 13.119941 7.8076018 13.130859 7.6816406 C 13.186931 7.5965238 13.226243 7.5396855 13.257812 7.4921875 z M 1.4023438 7.6699219 C 1.4025541 7.7061718 1.4041043 7.743047 1.4042969 7.7792969 C 1.4029695 7.8574651 1.40347 7.9728227 1.4023438 8.0546875 C 1.4056926 7.9264202 1.3985901 7.7981851 1.4023438 7.6699219 z M 23.640625 7.9453125 C 23.643618 8.105363 23.646049 8.2657216 23.648438 8.4257812 C 23.647295 8.4269687 23.645672 8.4284984 23.644531 8.4296875 C 23.64289 8.2684445 23.642073 8.1065563 23.640625 7.9453125 z M 6.8085938 8.2207031 C 6.7626321 8.3005706 6.6965392 8.374381 6.640625 8.4511719 C 6.5794966 8.4927167 6.5203362 8.5403519 6.4570312 8.5722656 C 6.4987283 8.6982564 6.4853966 8.8510952 6.4785156 8.9785156 C 6.4666493 9.1982406 6.4485326 9.4193027 6.4296875 9.6386719 C 6.4236149 9.619212 6.4164549 9.6004396 6.40625 9.5820312 C 6.3805434 9.535666 6.3552392 9.5010499 6.3320312 9.4765625 C 6.3424413 9.4341474 6.3541717 9.3911822 6.3671875 9.3496094 C 6.348424 9.3843822 6.3285845 9.4188139 6.3085938 9.453125 C 6.1047358 9.2943392 6.0039028 9.9172625 6.0078125 9.9238281 L 6.1289062 9.8046875 C 6.1202356 9.8297225 6.1117061 9.8549406 6.1054688 9.8808594 C 6.0616838 10.062804 6.1192019 10.254307 6.1230469 10.441406 C 6.1286269 10.712924 6.1308286 10.986266 6.1347656 11.257812 C 6.1467486 11.843154 6.1548649 12.428395 6.1582031 13.013672 C 6.1440902 13.023603 6.129288 13.032952 6.1152344 13.042969 C 6.0392254 13.097149 6.0750901 13.225627 6.0644531 13.318359 C 6.0043361 13.842503 5.9600934 14.368115 5.9257812 14.894531 C 5.9140403 15.476606 5.9464163 16.042212 5.9726562 16.623047 C 5.9799162 16.78373 5.9864973 16.944632 5.9882812 17.105469 C 5.989373 17.203843 5.9117127 17.402362 5.9394531 17.462891 C 5.9400822 17.463972 5.9426424 17.467777 5.9433594 17.46875 C 5.9449751 17.470471 5.9491755 17.475312 5.9511719 17.476562 C 5.9588557 17.480081 5.9692988 17.479743 5.9824219 17.476562 L 5.984375 17.476562 C 5.9822126 17.528093 5.9823675 17.579158 5.9824219 17.630859 C 6.024268 17.579446 6.0668555 17.530107 6.1113281 17.480469 C 6.1064267 17.680807 6.1012551 17.879746 6.0957031 18.080078 C 5.8876319 18.036057 5.6783086 17.997022 5.46875 17.962891 C 5.4485179 17.95462 5.4266059 17.950851 5.4101562 17.958984 C 5.4090153 17.959699 5.4073551 17.962035 5.40625 17.962891 C 5.3459065 18.009617 5.2958484 18.065022 5.2480469 18.125 C 5.1758145 18.1815 5.1063564 18.240938 5.0527344 18.314453 C 5.0519952 18.315466 5.0493474 18.319401 5.0488281 18.320312 L 5.0488281 18.322266 L 5.0488281 18.324219 L 5.0488281 18.326172 L 5.0507812 18.328125 L 5.0507812 18.330078 L 5.0527344 18.330078 L 5.0546875 18.330078 L 5.0566406 18.332031 L 5.0585938 18.332031 C 5.0647731 18.333306 5.0741868 18.334218 5.0839844 18.333984 L 5.0820312 18.335938 C 5.1289962 18.338099 5.1759889 18.339967 5.2226562 18.34375 C 5.5447383 18.442343 5.8193297 18.645924 6.0996094 18.830078 C 6.1067982 18.862229 6.119686 18.886631 6.1328125 18.898438 L 6.1347656 18.900391 C 6.1357009 18.900964 6.139659 18.903834 6.140625 18.904297 C 6.1416222 18.904648 6.1454556 18.906013 6.1464844 18.90625 C 6.1496669 18.906614 6.1566776 18.905012 6.1601562 18.904297 C 6.1685096 18.901763 6.1793594 18.895699 6.1894531 18.886719 C 6.2334912 18.914675 6.2774774 18.942749 6.3222656 18.96875 C 6.4348983 19.04103 6.9945846 19.456133 7.1621094 19.345703 C 7.2329816 19.298985 7.2954021 19.253783 7.3496094 19.210938 C 7.3985218 19.216796 7.4654291 19.147995 7.4980469 19.078125 C 7.5633734 19.009859 7.6090397 18.944612 7.640625 18.876953 C 7.6704068 18.882633 7.7006106 18.887341 7.7304688 18.892578 L 8.015625 18.800781 L 8.03125 18.787109 C 8.018845 18.734579 8.0065456 18.681443 7.9941406 18.628906 C 7.8192215 18.536399 7.7586074 18.500544 7.6992188 18.476562 C 7.6916574 18.335586 7.6692617 18.173092 7.6523438 17.970703 C 7.643734 17.891798 7.6351028 17.811373 7.6269531 17.732422 C 7.6292129 17.732113 7.6305769 17.732735 7.6328125 17.732422 C 7.632686 17.835718 7.6464133 17.933186 7.7089844 18.009766 C 7.7318626 18.037766 7.7618175 18.051382 7.796875 18.054688 C 7.7917765 18.116617 7.7874428 18.166596 7.7832031 18.197266 C 7.7784331 18.231781 7.7455802 18.313213 7.7382812 18.333984 C 7.7390067 18.332646 7.740762 18.333001 7.7421875 18.330078 C 7.789166 18.233734 7.8449313 18.140519 7.8964844 18.044922 C 7.9654038 18.028039 8.0389997 17.995616 8.0976562 17.974609 L 8.0996094 17.972656 C 8.1005979 17.972174 8.104578 17.969319 8.1054688 17.96875 L 8.1074219 17.966797 L 8.109375 17.964844 L 8.1113281 17.962891 C 8.1118729 17.962019 8.1147648 17.957968 8.1152344 17.957031 C 8.1248074 17.933083 8.1138604 17.89106 8.1152344 17.863281 C 8.1328654 17.506828 8.1034751 17.148821 8.1425781 16.792969 C 8.1817288 15.863665 8.2186477 14.929192 8.2910156 13.998047 C 8.2801415 14.398166 8.2722863 14.799086 8.2734375 15.199219 C 8.2746575 15.622625 8.2980729 16.045527 8.3105469 16.46875 L 8.3242188 16.455078 C 8.3815988 15.961994 8.4523098 15.469085 8.4960938 14.974609 C 8.6052581 13.741757 8.6440947 12.503548 8.6464844 11.265625 C 8.6916037 11.037752 8.7419344 10.810065 8.796875 10.583984 C 8.8641125 10.397906 8.971995 10.221523 8.9980469 10.025391 L 8.9980469 10.023438 L 8.9980469 10.021484 L 8.9980469 10.019531 C 8.99789 10.01883 8.9963321 10.014338 8.9960938 10.013672 L 8.9941406 10.011719 L 8.9921875 10.009766 L 8.9902344 10.007812 L 8.9902344 10.005859 C 8.9758374 9.9952087 8.9463782 9.9918392 8.921875 9.9863281 C 8.8044977 10.145272 8.7102797 10.286039 8.6738281 10.349609 C 8.663157 10.368219 8.6517711 10.38892 8.6425781 10.408203 C 8.6462018 10.240601 8.6737603 10.067626 8.6757812 9.9003906 C 8.7416536 9.9235898 8.8101592 9.9471097 8.8808594 9.96875 L 8.8808594 9.9667969 L 8.8808594 9.9648438 L 8.8789062 9.9648438 L 8.8789062 9.9628906 L 8.8789062 9.9609375 L 8.8789062 9.9589844 L 8.8789062 9.9570312 C 8.8790967 9.9563146 8.8805746 9.9538779 8.8808594 9.953125 C 8.9088062 9.8792248 9.0207483 9.7701424 9.1484375 9.6953125 C 9.0707708 9.7876607 8.9932176 9.8886037 8.9238281 9.9824219 C 9.1351472 10.043637 9.3444499 10.076006 9.4511719 9.9902344 C 9.4884877 9.960244 9.5231992 9.9325471 9.5546875 9.9082031 C 9.5575466 9.9586505 9.567821 10.009092 9.5839844 10.027344 L 9.5859375 10.029297 L 9.5878906 10.029297 L 9.5898438 10.03125 L 9.5917969 10.03125 C 9.5926361 10.031462 9.5967818 10.033112 9.5976562 10.033203 C 9.5985666 10.033169 9.6025687 10.031412 9.6035156 10.03125 C 9.6044999 10.030956 9.6083528 10.029727 9.609375 10.029297 C 9.6401414 10.012776 9.6877252 9.9365826 9.7597656 9.7558594 C 9.9256973 9.6330887 9.9089589 9.6308267 9.9121094 9.3945312 C 9.8890772 9.3553966 9.8844595 9.2974619 9.84375 9.2773438 C 9.7256782 9.2189939 9.5283125 9.3323536 9.453125 9.3886719 C 9.3786738 9.4444387 9.2914637 9.5321387 9.203125 9.6328125 C 9.0294941 9.582436 8.8583684 9.5137098 8.6914062 9.4804688 C 8.6105109 9.4491647 8.5301828 9.4176997 8.4511719 9.3847656 C 8.4552205 9.3590209 8.4597058 9.3322039 8.4648438 9.3066406 C 8.455035 9.3314223 8.446541 9.3564007 8.4375 9.3789062 C 8.1363422 9.2527316 7.848943 9.1115774 7.5703125 8.9375 C 7.578984 8.9058343 7.5868513 8.8734194 7.5957031 8.8417969 L 7.5273438 8.9101562 C 7.4909367 8.8868879 7.4540692 8.8643306 7.4179688 8.8398438 C 7.3021114 8.7612578 7.1894775 8.6779694 7.0839844 8.5859375 C 7.0067503 8.5185588 6.9755151 8.3655797 6.8730469 8.3632812 C 6.8551979 8.3628809 6.8373595 8.3640392 6.8203125 8.3671875 C 6.8198523 8.3174786 6.8166889 8.2679113 6.8085938 8.2207031 z M 8.9238281 9.9824219 C 8.9095079 9.9782735 8.8951676 9.9731295 8.8808594 9.96875 L 8.8828125 9.9707031 C 8.8902449 9.9771667 8.9061678 9.9827954 8.921875 9.9863281 C 8.9228907 9.9849528 8.9228091 9.9837997 8.9238281 9.9824219 z M 6.3671875 9.3496094 C 6.3800041 9.3258575 6.3907111 9.3015346 6.4023438 9.2773438 C 6.396414 9.2847888 6.3791034 9.3087791 6.375 9.3203125 C 6.3716059 9.3298563 6.3702124 9.3399479 6.3671875 9.3496094 z M 0.66601562 8.2519531 C 0.67851716 9.1596535 0.6875675 10.066735 0.65039062 10.974609 C 0.62746793 11.292408 0.61064205 11.612349 0.58203125 11.929688 C 0.58129951 11.937804 0.57901477 11.945008 0.578125 11.953125 C 0.5614917 11.643726 0.56119539 11.329939 0.55273438 11.064453 C 0.55011528 10.730035 0.54845001 10.395784 0.54882812 10.060547 C 0.58282376 9.4576882 0.62242623 8.8541683 0.66601562 8.2519531 z M 23.160156 8.5507812 C 23.161154 8.5949576 23.163063 8.6394174 23.164062 8.6835938 C 23.065474 8.8081711 23.061694 9.0244194 23.083984 9.2226562 C 23.071888 9.2491691 23.059775 9.2757514 23.048828 9.3027344 C 22.979178 9.4744001 23.083257 9.6723631 23.091797 9.8574219 C 23.113237 10.321972 23.117857 11.206787 23.123047 11.638672 C 23.116818 12.469706 23.096278 13.300488 23.068359 14.130859 C 23.057113 12.672486 23.032764 11.213539 23.021484 9.7558594 C 23.017876 9.4587683 23.012803 9.1623207 23.007812 8.8652344 C 23.018801 8.8531452 23.031526 8.8408705 23.042969 8.828125 C 23.043957 8.8270238 23.046156 8.8232456 23.046875 8.8222656 L 23.046875 8.8203125 L 23.046875 8.8183594 L 23.046875 8.8164062 L 23.046875 8.8144531 L 23.044922 8.8125 L 23.042969 8.8125 C 23.042125 8.8121889 23.03813 8.810788 23.037109 8.8105469 C 23.029992 8.8094809 23.019435 8.8081822 23.007812 8.8085938 C 23.007647 8.7988622 23.007979 8.7909816 23.007812 8.78125 C 23.061676 8.7066917 23.111958 8.6289354 23.160156 8.5507812 z M 16.832031 8.6269531 C 16.709608 8.7246221 16.591907 8.8273457 16.476562 8.9335938 C 16.465748 8.9377138 16.454158 8.9410241 16.443359 8.9453125 C 16.419191 8.9511198 16.394841 8.9592357 16.371094 8.9667969 C 16.388838 8.9429424 16.40814 8.9184604 16.425781 8.8945312 L 16.425781 8.8925781 C 16.455993 8.8515908 16.485741 8.8107568 16.515625 8.7695312 L 16.513672 8.7675781 C 16.509247 8.7578876 16.506506 8.7397409 16.501953 8.7304688 L 16.5 8.7285156 L 16.498047 8.7265625 L 16.496094 8.7246094 L 16.494141 8.7246094 L 16.492188 8.7246094 L 16.490234 8.7246094 C 16.463923 8.7350447 16.44016 8.7516596 16.417969 8.7695312 C 16.44154 8.7264868 16.464155 8.6823883 16.486328 8.6386719 C 16.599619 8.6271046 16.714641 8.6240275 16.832031 8.6269531 z M 6.7714844 8.9277344 C 6.817482 8.9638042 6.8629042 8.9991134 6.9101562 9.0332031 L 6.7363281 9.2070312 C 6.7480809 9.1138692 6.7604064 9.0209556 6.7714844 8.9277344 z M 22.859375 9.0234375 C 22.866368 9.316584 22.871935 9.6090843 22.875 9.9023438 C 22.89611 11.694754 22.916382 13.486718 22.914062 15.279297 C 22.913991 15.333819 22.91413 15.390869 22.914062 15.447266 C 22.768904 15.752209 22.786764 16.128944 22.751953 16.474609 C 22.7359 16.749177 22.720017 17.023912 22.705078 17.298828 C 22.71135 16.983009 22.722404 16.562502 22.740234 15.710938 C 22.757034 15.101223 22.775366 14.492558 22.791016 13.882812 C 22.824586 12.575321 22.845755 12.001524 22.828125 10.71875 C 22.82069 10.178852 22.803479 9.6400703 22.779297 9.1015625 C 22.803771 9.0784678 22.830664 9.052618 22.859375 9.0234375 z M 6.9453125 9.0585938 C 7.0307399 9.1190026 7.1181227 9.1757598 7.2070312 9.2304688 L 6.9804688 9.4570312 C 6.9270129 9.6696382 6.8781169 9.8835661 6.8320312 10.097656 C 6.8525947 9.7674508 6.8765755 9.4502273 6.9003906 9.2539062 C 6.908445 9.1875089 6.9270149 9.1231344 6.9453125 9.0585938 z M 8.5410156 9.1113281 C 8.5334775 9.1239588 8.485771 9.2337915 8.4707031 9.2910156 C 8.491029 9.2395097 8.513403 9.1852289 8.5371094 9.1230469 C 8.5400163 9.115422 8.5410444 9.112134 8.5410156 9.1113281 z M 18.392578 9.1328125 C 18.510648 9.224991 18.62091 9.3266744 18.724609 9.4335938 C 18.70387 9.4624863 18.681665 9.4940548 18.658203 9.5273438 C 18.634884 9.5502229 18.611452 9.5744775 18.587891 9.5996094 C 18.576933 9.5728446 18.564154 9.5461746 18.552734 9.5195312 C 18.502382 9.4020201 18.451533 9.2676917 18.392578 9.1328125 z M 22.203125 9.3242188 C 22.212256 9.3591052 22.221886 9.3938715 22.234375 9.4277344 C 22.23703 9.4349337 22.241458 9.4429305 22.246094 9.4511719 C 22.236283 9.5900054 22.226493 9.7279217 22.216797 9.8691406 C 22.211497 9.6633496 22.207176 9.4785586 22.203125 9.3242188 z M 22.519531 9.3515625 C 22.505741 10.192858 22.497142 11.033804 22.478516 11.875 L 22.492188 11.861328 C 22.532764 11.156372 22.578681 10.45065 22.625 9.7460938 C 22.717895 11.765561 22.699746 13.790591 22.638672 15.8125 C 22.616624 16.788691 22.604814 17.767055 22.585938 18.744141 C 22.539877 18.270884 22.510235 17.832785 22.505859 17.773438 C 22.372669 15.967012 22.379796 15.574706 22.314453 13.683594 C 22.303788 13.261726 22.274688 12.155979 22.248047 11.107422 C 22.289845 10.543537 22.329353 10.020593 22.369141 9.5019531 C 22.420439 9.4525499 22.469574 9.402652 22.519531 9.3515625 z M 7.4550781 9.375 C 7.6192762 9.4649335 7.7882104 9.5477695 7.9589844 9.625 L 7.9453125 9.6386719 C 7.8623584 9.7936162 7.7548988 9.9387796 7.6855469 10.099609 C 7.7024559 10.018687 7.7407131 9.9028996 7.7285156 9.8671875 L 7.7265625 9.8652344 L 7.7265625 9.8632812 L 7.7246094 9.8613281 L 7.7226562 9.859375 L 7.7207031 9.859375 L 7.71875 9.8574219 L 7.7167969 9.8574219 L 7.7148438 9.8574219 L 7.7128906 9.8574219 C 7.7088271 9.8580547 7.7028573 9.8602663 7.6972656 9.8632812 C 7.668159 9.8789752 7.640006 9.8937043 7.6132812 9.9082031 C 7.6144469 9.9045224 7.6160156 9.9021168 7.6171875 9.8984375 C 7.630575 9.8727935 7.6705678 9.8098487 7.6777344 9.7929688 L 7.6777344 9.7910156 L 7.6757812 9.7910156 C 7.6747907 9.7918456 7.6735244 9.7931638 7.671875 9.7949219 C 7.6171147 9.8532927 7.5599529 9.9112153 7.5039062 9.96875 C 7.4212367 10.014342 7.3516849 10.05426 7.2929688 10.089844 C 7.3426197 9.8508477 7.3965005 9.6120554 7.4550781 9.375 z M 16.726562 9.4648438 C 16.695987 9.4966366 16.667204 9.5271537 16.638672 9.5566406 C 16.641313 9.5570578 16.643841 9.5581625 16.646484 9.5585938 C 16.641751 9.5642017 16.635551 9.5685336 16.630859 9.5742188 C 16.629772 9.5714011 16.62996 9.5692436 16.628906 9.5664062 C 16.627513 9.562648 16.626367 9.5584614 16.625 9.5546875 C 16.629327 9.5553321 16.632386 9.5559583 16.636719 9.5566406 C 16.666174 9.5257327 16.696398 9.4951093 16.726562 9.4648438 z M 18.8125 9.5273438 C 18.941181 9.6694193 19.054999 9.8230736 19.166016 9.9804688 C 19.152928 9.9680408 19.136511 9.9624969 19.117188 9.96875 C 19.065769 9.985389 19.018191 10.011084 18.974609 10.044922 C 18.965726 10.0483 18.957773 10.053368 18.949219 10.058594 C 18.950053 10.053316 18.950351 10.048249 18.951172 10.042969 C 18.958516 9.9959164 19.003636 9.8947653 18.996094 9.8652344 L 18.994141 9.8632812 L 18.992188 9.8613281 L 18.990234 9.859375 L 18.988281 9.859375 L 18.986328 9.859375 L 18.984375 9.859375 L 18.982422 9.859375 L 18.980469 9.859375 C 18.97896 9.8598043 18.976359 9.8605761 18.974609 9.8613281 C 18.948986 9.8723389 18.925713 9.8841912 18.902344 9.8964844 C 18.875792 9.9241373 18.84378 9.9570261 18.810547 9.9921875 C 18.809039 9.9896195 18.806197 9.9869415 18.804688 9.984375 C 18.808494 9.9796187 18.812502 9.9756366 18.816406 9.9707031 C 18.817518 9.9692985 18.819711 9.9676816 18.820312 9.9667969 L 18.820312 9.9648438 L 18.818359 9.9648438 C 18.815404 9.9665436 18.809094 9.9721644 18.800781 9.9785156 C 18.798434 9.9745304 18.797273 9.9707787 18.794922 9.9667969 C 18.799425 9.9622984 18.804044 9.9575702 18.808594 9.953125 C 18.803405 9.9565974 18.797997 9.9593928 18.792969 9.9628906 C 18.751711 9.8930449 18.70895 9.8230961 18.667969 9.7539062 C 18.699878 9.6744147 18.778034 9.603357 18.8125 9.5273438 z M 18.808594 9.953125 C 18.837529 9.9337618 18.868519 9.9142775 18.902344 9.8964844 C 18.936082 9.8613464 18.959461 9.8351503 18.964844 9.8261719 L 18.966797 9.8261719 L 18.966797 9.8242188 L 18.966797 9.8222656 L 18.964844 9.8222656 L 18.964844 9.8242188 C 18.961093 9.8256554 18.952904 9.8299643 18.939453 9.8398438 C 18.892869 9.8740581 18.849846 9.9128179 18.808594 9.953125 z M 16.333984 9.5390625 C 16.337613 9.5785059 16.310516 9.6165589 16.304688 9.65625 C 16.296488 9.711914 16.295676 9.7681491 16.291016 9.8242188 C 16.29554 9.8418899 16.299794 9.8578332 16.304688 9.8730469 C 16.170805 9.9292549 16.05206 10.046654 15.927734 10.183594 C 16.062815 9.9762183 16.191769 9.7662702 16.294922 9.5410156 C 16.30746 9.5402557 16.3214 9.5395302 16.333984 9.5390625 z M 9.3789062 9.6132812 C 9.4191714 9.6102965 9.4568923 9.616041 9.4882812 9.6328125 C 9.5107027 9.6447924 9.5215863 9.6682664 9.53125 9.6933594 C 9.437603 9.6891342 9.34473 9.6714002 9.2519531 9.6464844 C 9.2957587 9.6290118 9.3386411 9.616266 9.3789062 9.6132812 z M 17.171875 9.7226562 C 17.234508 9.75169 17.293457 9.7849585 17.351562 9.8203125 C 17.344192 9.8276632 17.337397 9.8343026 17.330078 9.8417969 C 17.320964 9.846557 17.312147 9.8500346 17.304688 9.8515625 C 17.265657 9.8595625 17.221873 9.8289639 17.201172 9.7949219 C 17.187205 9.7719562 17.177758 9.7468306 17.171875 9.7226562 z M 16.888672 9.7636719 C 16.870232 9.8408555 16.858487 9.9151345 16.855469 9.9804688 C 16.794199 9.93764 16.737909 9.9057983 16.683594 9.8828125 C 16.699759 9.8660297 16.714401 9.8492679 16.730469 9.8320312 C 16.763056 9.8167958 16.803938 9.7998037 16.888672 9.7636719 z M 15.126953 9.8398438 C 15.122902 9.8717142 15.103457 9.9025996 15.09375 9.9335938 C 15.074743 9.9632722 15.056127 9.991804 15.037109 10.021484 C 14.960213 10.097479 14.925543 10.135084 14.921875 10.142578 C 14.826901 10.237729 14.734507 10.333604 14.638672 10.427734 C 14.494745 10.574392 14.346579 10.726911 14.207031 10.886719 C 14.207073 10.855019 14.206993 10.822715 14.207031 10.791016 L 14.207031 10.789062 C 14.291619 10.703825 14.392046 10.605095 14.507812 10.488281 C 14.511151 10.480381 14.515046 10.471738 14.519531 10.462891 C 14.672134 10.297668 14.81949 10.127879 14.958984 9.9492188 C 15.01178 9.9119441 15.068668 9.8740874 15.126953 9.8398438 z M 17.484375 9.9082031 C 17.520754 9.9353118 17.555543 9.9638551 17.589844 9.9941406 C 17.576012 9.9983764 17.56271 10.001579 17.550781 10.001953 C 17.490795 10.003835 17.454786 9.9961688 17.439453 9.9863281 L 17.4375 9.984375 L 17.435547 9.984375 L 17.435547 9.9824219 L 17.433594 9.9804688 L 17.433594 9.9785156 L 17.431641 9.9765625 L 17.431641 9.9746094 L 17.431641 9.9726562 L 17.431641 9.9707031 C 17.433082 9.9541627 17.455246 9.9319382 17.484375 9.9082031 z M 17.244141 9.9550781 C 17.227685 9.9831975 17.214154 10.013723 17.205078 10.046875 C 17.178233 10.093018 17.152019 10.139947 17.130859 10.189453 C 17.118919 10.193417 17.107498 10.19851 17.095703 10.203125 C 17.079475 10.186424 17.063415 10.170642 17.046875 10.154297 C 17.069445 10.135525 17.091283 10.111559 17.111328 10.091797 C 17.156791 10.046977 17.200485 10.001651 17.244141 9.9550781 z M 19.183594 10.003906 C 19.359871 10.256417 19.521786 10.521619 19.671875 10.785156 C 19.507908 10.820363 19.604526 10.972853 19.677734 11.068359 C 19.668251 11.089707 19.659566 11.110666 19.652344 11.132812 C 19.621684 11.226833 19.712224 11.321172 19.740234 11.416016 C 19.76309 11.493422 19.786547 11.572748 19.808594 11.650391 C 19.692183 11.338943 19.578411 11.025262 19.464844 10.712891 C 19.392204 10.533611 19.329891 10.351053 19.248047 10.175781 C 19.226566 10.129775 19.210738 10.050504 19.183594 10.003906 z M 17.644531 10.044922 C 17.680415 10.079619 17.714643 10.117556 17.748047 10.15625 C 17.747965 10.189395 17.750788 10.218985 17.761719 10.240234 C 17.785302 10.2861 17.819493 10.302233 17.859375 10.298828 C 17.884177 10.334283 17.908526 10.371795 17.931641 10.410156 C 17.939544 10.423449 17.947265 10.435905 17.955078 10.449219 C 18.01332 10.602791 18.065162 10.757264 18.111328 10.914062 C 18.155194 11.129081 18.202656 11.344339 18.253906 11.558594 C 18.068145 11.283846 17.932193 11.08085 17.685547 10.685547 C 17.594266 10.539251 17.563421 10.33176 17.435547 10.224609 C 17.509062 10.168679 17.586026 10.098657 17.644531 10.044922 z M 14.998047 10.083984 C 14.899768 10.237215 14.799186 10.392715 14.699219 10.544922 C 14.697954 10.546247 14.696575 10.547499 14.695312 10.548828 C 14.62366 10.616449 14.556866 10.680613 14.509766 10.726562 C 14.503662 10.737005 14.496197 10.747277 14.490234 10.757812 C 14.557689 10.688738 14.627456 10.619512 14.695312 10.550781 C 14.627001 10.622774 14.56339 10.699333 14.488281 10.763672 C 14.489447 10.761599 14.489063 10.759881 14.490234 10.757812 C 14.484365 10.763823 14.478523 10.769378 14.472656 10.775391 C 14.47107 10.776692 14.470346 10.778007 14.46875 10.779297 C 14.4535 10.791616 14.44225 10.799883 14.4375 10.802734 L 14.435547 10.802734 L 14.435547 10.800781 C 14.440472 10.79314 14.468829 10.766499 14.509766 10.726562 C 14.645065 10.495083 14.813104 10.28446 14.994141 10.085938 C 14.994945 10.085259 14.997231 10.084673 14.998047 10.083984 z M 12.644531 10.107422 C 12.661806 10.695007 12.684489 11.281786 12.708984 11.869141 C 12.715469 12.281393 12.72329 12.695182 12.730469 13.107422 C 12.727782 13.08831 12.723601 13.067914 12.720703 13.048828 C 12.719627 13.041771 12.720686 13.03374 12.720703 13.023438 C 12.724543 13.005347 12.725403 12.986852 12.724609 12.976562 C 12.724465 12.975643 12.724822 12.971508 12.724609 12.970703 L 12.722656 12.970703 L 12.722656 12.96875 L 12.722656 12.966797 L 12.720703 12.966797 C 12.720321 12.959098 12.718261 12.950027 12.716797 12.945312 L 12.716797 12.943359 L 12.714844 12.943359 L 12.714844 12.941406 L 12.712891 12.941406 L 12.712891 12.939453 L 12.710938 12.939453 L 12.708984 12.939453 L 12.707031 12.941406 L 12.705078 12.941406 L 12.703125 12.943359 C 12.651072 12.987742 12.604227 13.028583 12.560547 13.064453 C 12.571962 12.100128 12.584642 11.134197 12.578125 10.169922 C 12.600652 10.149481 12.622764 10.128757 12.644531 10.107422 z M 16.076172 10.197266 C 16.041229 10.212814 16.00469 10.222896 15.966797 10.224609 C 15.964735 10.226678 15.963101 10.228276 15.960938 10.230469 C 15.962972 10.227205 15.964762 10.223966 15.966797 10.220703 C 15.969561 10.218247 15.973568 10.215577 15.976562 10.212891 C 16.010151 10.204386 16.042733 10.199182 16.076172 10.197266 z M 14.574219 10.734375 C 14.454493 10.913341 14.331208 11.091191 14.205078 11.265625 C 14.205213 11.212398 14.206932 11.158697 14.207031 11.105469 L 14.207031 11.103516 C 14.300526 11.010812 14.394062 10.918144 14.486328 10.824219 C 14.509029 10.801109 14.539928 10.769981 14.574219 10.734375 z M 14.660156 10.921875 C 14.639099 10.966299 14.616833 11.010307 14.595703 11.054688 C 14.524795 11.137185 14.476497 11.196049 14.470703 11.208984 L 14.470703 11.210938 L 14.46875 11.210938 C 14.458421 11.223596 14.431793 11.253619 14.423828 11.263672 C 14.447821 11.239953 14.472628 11.21668 14.496094 11.193359 C 14.436719 11.300224 14.367921 11.403087 14.320312 11.515625 C 14.218615 11.756022 14.203271 12.025436 14.173828 12.287109 C 14.183811 12.049743 14.194278 11.811706 14.205078 11.574219 C 14.205394 11.503227 14.204862 11.432321 14.205078 11.361328 C 14.220175 11.345368 14.236046 11.329296 14.251953 11.3125 C 14.392818 11.187288 14.533661 11.060821 14.660156 10.921875 z M 6.5546875 11.039062 C 6.5502053 11.222039 6.5456804 11.380868 6.5429688 11.490234 C 6.5412883 11.558007 6.54071 11.627543 6.5390625 11.695312 C 6.5155231 11.841198 6.4914031 11.98677 6.46875 12.132812 C 6.4936893 11.768447 6.5238945 11.403025 6.5546875 11.039062 z M 15.285156 11.107422 C 15.182335 11.274365 15.079043 11.442209 14.976562 11.609375 C 14.981631 11.594486 14.987027 11.579316 14.992188 11.564453 C 15.024146 11.472224 15.057141 11.379088 15.089844 11.287109 C 15.157016 11.22883 15.221843 11.169194 15.285156 11.107422 z M 14.558594 11.132812 C 14.553303 11.143884 14.548267 11.154948 14.542969 11.166016 C 14.536845 11.166055 14.530972 11.164669 14.525391 11.164062 C 14.536238 11.153257 14.547852 11.143542 14.558594 11.132812 z M 14.658203 11.921875 C 14.590454 12.120852 14.532097 12.322963 14.476562 12.525391 C 14.467676 12.543396 14.458079 12.560106 14.449219 12.578125 C 14.456424 12.46111 14.473908 12.343794 14.486328 12.232422 C 14.479721 12.200985 14.48289 12.147311 14.492188 12.080078 C 14.506875 12.064076 14.522434 12.047263 14.537109 12.03125 C 14.577969 11.994701 14.617498 11.958593 14.658203 11.921875 z M 18.164062 12.212891 C 18.267342 12.385013 18.368855 12.557566 18.470703 12.730469 C 18.482256 12.810339 18.494453 12.890882 18.505859 12.970703 C 18.508614 12.994208 18.510928 13.017492 18.513672 13.041016 C 18.497687 13.324305 18.489326 13.607258 18.474609 13.890625 C 18.472546 13.930374 18.470849 13.970018 18.46875 14.009766 C 18.396683 13.408526 18.305661 12.80381 18.164062 12.212891 z M 22.167969 12.306641 C 22.181065 12.73528 22.195007 13.206447 22.212891 13.783203 C 22.268911 15.638289 22.316028 17.49623 22.455078 19.347656 C 22.475768 19.623189 22.483942 19.901119 22.539062 20.171875 C 22.539229 20.172697 22.540768 20.17691 22.541016 20.177734 C 22.542958 20.182683 22.546582 20.186731 22.550781 20.191406 C 22.543399 20.436728 22.534884 20.682567 22.525391 20.927734 C 22.455337 21.237912 22.379724 21.547061 22.302734 21.855469 C 22.18589 20.993822 22.08664 19.495823 22.058594 18.767578 C 21.975603 16.612721 22.042018 14.458106 22.167969 12.306641 z M 7.53125 12.628906 C 7.482286 13.022897 7.4376004 13.417955 7.3925781 13.8125 C 7.3863656 13.758391 7.3804518 13.704583 7.375 13.650391 C 7.3715791 13.52879 7.3681261 13.406751 7.3652344 13.285156 C 7.3770735 13.216715 7.3895149 13.143442 7.3789062 13.117188 L 7.3789062 13.115234 L 7.3769531 13.113281 L 7.375 13.111328 L 7.3730469 13.109375 L 7.3710938 13.109375 L 7.3691406 13.109375 L 7.3671875 13.109375 L 7.3652344 13.109375 L 7.3632812 13.109375 C 7.3592924 13.110276 7.3529664 13.112021 7.3476562 13.115234 C 7.2890196 13.150717 7.244631 13.202242 7.2070312 13.259766 C 7.210663 13.144468 7.2151889 13.029365 7.21875 12.914062 C 7.239579 12.894313 7.2600775 12.875338 7.2792969 12.857422 C 7.3085854 12.831958 7.3371364 12.804542 7.3652344 12.777344 C 7.4313942 12.717219 7.4853645 12.669123 7.53125 12.628906 z M 0.62695312 12.765625 C 0.63412227 12.765854 0.64142247 12.766098 0.6484375 12.765625 C 0.60092981 13.291303 0.55293282 13.817476 0.51367188 14.34375 C 0.48314105 14.737957 0.45530644 15.131183 0.42773438 15.525391 C 0.41249078 14.692144 0.41433517 13.860322 0.43164062 13.027344 C 0.51385599 12.932018 0.57776897 12.84555 0.62695312 12.765625 z M 14.347656 13.021484 C 14.274776 13.314419 14.203687 13.608453 14.126953 13.900391 C 14.128888 13.66623 14.1342 13.431503 14.140625 13.197266 L 14.142578 13.195312 C 14.178045 13.165543 14.211182 13.134187 14.244141 13.101562 C 14.285084 13.069475 14.320015 13.044041 14.347656 13.021484 z M 0.94140625 13.234375 C 0.97287357 13.775937 0.99391148 14.317622 1.0078125 14.859375 C 1.0063183 14.86462 1.0053544 14.869741 1.0039062 14.875 C 1.0054282 14.87216 1.0062701 14.870078 1.0078125 14.867188 C 1.008262 14.88479 1.0093317 14.902319 1.0097656 14.919922 C 1.0041438 14.919255 0.99803069 14.918168 0.9921875 14.917969 C 0.99579194 14.903619 0.99997999 14.889259 1.0039062 14.875 C 0.99588922 14.88996 0.9879298 14.904366 0.98046875 14.917969 C 0.93549682 14.918754 0.88563141 14.933018 0.84375 14.955078 C 0.84402617 14.868783 0.84528075 14.781606 0.84570312 14.695312 C 0.85951274 14.453375 0.87233686 14.21263 0.88671875 13.970703 C 0.90255636 13.725473 0.92172538 13.479288 0.94140625 13.234375 z M 20.410156 14.042969 C 20.414443 14.079544 20.41876 14.115579 20.419922 14.152344 C 20.428017 14.139329 20.435689 14.127287 20.443359 14.115234 C 20.451917 14.439602 20.446256 14.753595 20.445312 15.109375 C 20.444277 15.391864 20.427021 15.673036 20.398438 15.951172 C 20.391257 15.784579 20.374416 15.617628 20.363281 15.451172 C 20.365569 15.438074 20.367867 15.424466 20.367188 15.417969 L 20.367188 15.416016 L 20.365234 15.416016 L 20.365234 15.414062 L 20.363281 15.414062 L 20.363281 15.416016 L 20.361328 15.416016 C 20.346556 15.200171 20.336685 14.983195 20.316406 14.767578 C 20.340664 14.528035 20.36461 14.288385 20.388672 14.048828 C 20.395113 14.047947 20.401233 14.047005 20.410156 14.042969 z M 20.414062 14.167969 C 20.408886 14.176356 20.399879 14.182618 20.394531 14.191406 L 20.394531 14.193359 C 20.39837 14.1898 20.4084 14.178441 20.414062 14.167969 z M 6.9277344 14.191406 C 6.9118713 14.738228 6.8951592 15.285224 6.8847656 15.832031 C 6.8854908 16.012154 6.8812241 16.191142 6.875 16.371094 C 6.8400484 16.04616 6.8112359 15.745324 6.7929688 15.382812 C 6.8083428 15.320459 6.8106046 15.269476 6.796875 15.236328 C 6.8353862 14.887393 6.8808593 14.539275 6.9277344 14.191406 z M 19.380859 14.462891 C 19.409593 14.583862 19.436009 14.704851 19.457031 14.828125 C 19.502598 15.109086 19.549249 15.392495 19.591797 15.675781 C 19.397875 15.844637 19.273359 15.946319 19.189453 16.025391 C 19.204618 15.780839 19.220729 15.535394 19.238281 15.291016 C 19.2681 15.091481 19.291995 14.904813 19.302734 14.769531 C 19.303468 14.760286 19.303998 14.74948 19.304688 14.740234 C 19.327372 14.651188 19.353543 14.558752 19.380859 14.462891 z M 13.556641 14.773438 C 13.579816 15.200973 13.603871 15.627561 13.632812 16.054688 C 13.635409 16.464908 13.637649 16.874924 13.636719 17.285156 C 13.636968 17.388487 13.629236 17.477337 13.626953 17.542969 C 13.60112 17.543829 13.574822 17.543152 13.548828 17.542969 C 13.514608 17.520769 13.466671 17.512443 13.447266 17.476562 C 13.392717 17.375699 13.3922 17.154266 13.412109 16.916016 C 13.428902 16.902176 13.446359 16.889166 13.462891 16.875 L 13.464844 16.873047 L 13.464844 16.871094 L 13.466797 16.869141 L 13.46875 16.867188 L 13.46875 16.865234 L 13.46875 16.863281 L 13.470703 16.861328 L 13.470703 16.859375 C 13.472559 16.842041 13.459434 16.819351 13.458984 16.800781 C 13.458159 16.765997 13.457669 16.7301 13.457031 16.695312 C 13.468133 16.68483 13.479932 16.67543 13.490234 16.664062 C 13.521274 16.629812 13.495947 16.571558 13.498047 16.525391 C 13.503947 16.400974 13.509252 16.27682 13.513672 16.152344 C 13.530023 15.69293 13.546459 15.233049 13.556641 14.773438 z M 18.650391 14.996094 C 18.648508 15.143892 18.643573 15.291847 18.632812 15.439453 C 18.628324 15.50103 18.621745 15.561969 18.615234 15.625 C 18.626632 15.414915 18.638348 15.206138 18.650391 14.996094 z M 12.578125 15.927734 C 12.642159 16.326282 12.703288 16.725696 12.744141 17.126953 C 12.71143 17.09926 12.678115 17.07129 12.644531 17.044922 C 12.621951 16.812279 12.608156 16.588815 12.587891 16.402344 C 12.58325 16.244288 12.579361 16.085622 12.578125 15.927734 z M 18.304688 16.789062 C 18.303866 16.802559 18.303555 16.814629 18.302734 16.828125 C 18.318614 17.244928 18.225244 17.655203 18.214844 18.070312 C 18.214791 18.072344 18.21492 18.075823 18.214844 18.078125 C 18.205671 18.12262 18.194937 18.166487 18.185547 18.210938 C 18.137605 17.907917 18.172044 17.601459 18.21875 17.291016 C 18.249904 17.123751 18.278726 16.956716 18.304688 16.789062 z M 1.0292969 16.867188 C 1.0290001 17.197088 1.0281998 17.525529 1.0253906 17.855469 C 1.0131389 17.866947 1.0017995 17.879843 0.99023438 17.890625 C 1.0029428 17.549571 1.0149832 17.208236 1.0292969 16.867188 z M 12.660156 17.1875 C 12.690437 17.298222 12.729122 17.439202 12.773438 17.556641 C 12.761951 17.592176 12.749322 17.631952 12.736328 17.673828 C 12.701616 17.516362 12.678712 17.351061 12.660156 17.1875 z M 13.980469 17.287109 C 13.991015 17.357613 14.001436 17.429485 14.011719 17.5 C 13.979618 17.505536 13.948202 17.50891 13.916016 17.513672 C 13.93902 17.49481 13.963545 17.475653 13.990234 17.453125 L 13.992188 17.451172 L 13.994141 17.449219 L 13.996094 17.447266 L 13.996094 17.445312 C 13.996401 17.444581 13.997825 17.440216 13.998047 17.439453 L 13.998047 17.4375 L 13.998047 17.435547 C 13.998067 17.415278 13.979206 17.387179 13.978516 17.365234 C 13.978198 17.355142 13.978721 17.346024 13.978516 17.335938 C 13.980607 17.32094 13.980366 17.304108 13.980469 17.287109 z M 7.3105469 17.771484 C 7.3241818 17.937725 7.3385882 18.103386 7.3535156 18.269531 C 7.4593254 18.308909 7.5086966 18.362315 7.5234375 18.425781 C 7.4586614 18.409961 7.3686411 18.389339 7.2382812 18.355469 C 7.1312856 18.327669 7.0253378 18.300466 6.9179688 18.273438 C 6.9329332 18.25336 6.9470455 18.231033 6.9628906 18.208984 C 7.0562022 18.112729 7.1402227 17.99387 7.2207031 17.900391 L 7.2226562 17.898438 L 7.2246094 17.896484 L 7.2246094 17.894531 L 7.2265625 17.892578 C 7.2267309 17.891821 7.2265137 17.887464 7.2265625 17.886719 L 7.2265625 17.884766 L 7.2246094 17.882812 L 7.2246094 17.880859 L 7.2226562 17.878906 L 7.2207031 17.876953 L 7.21875 17.875 C 7.2161763 17.872253 7.2146371 17.869876 7.2109375 17.867188 C 7.2444729 17.835658 7.2776277 17.8038 7.3105469 17.771484 z M 14.085938 18.146484 C 14.088337 18.183999 14.09033 18.220258 14.091797 18.257812 C 14.079154 18.263946 14.066993 18.268426 14.056641 18.271484 C 14.008613 18.285669 13.960914 18.29979 13.914062 18.310547 C 13.978817 18.261868 14.040168 18.211185 14.085938 18.146484 z M 13.535156 18.179688 C 13.542011 18.184856 13.547942 18.190031 13.554688 18.195312 C 13.533028 18.213089 13.510535 18.22919 13.488281 18.246094 C 13.344211 18.255416 13.201259 18.260422 13.056641 18.257812 C 13.188747 18.237391 13.319098 18.21483 13.451172 18.193359 C 13.478878 18.188856 13.507495 18.184465 13.535156 18.179688 z M 19.890625 18.341797 C 19.84863 18.481954 19.804248 18.62223 19.759766 18.761719 C 19.67034 18.923057 19.628277 19.124516 19.574219 19.318359 C 19.520196 19.301596 19.465271 19.286134 19.410156 19.273438 C 19.22198 19.230092 19.032107 19.200002 18.841797 19.175781 C 18.839303 19.170112 18.83576 19.164744 18.830078 19.160156 C 18.961798 19.032207 19.033663 18.958385 19.130859 18.863281 C 19.223886 18.77615 19.31586 18.685835 19.404297 18.59375 C 19.415923 18.672902 19.432443 18.742749 19.457031 18.767578 L 19.458984 18.767578 L 19.460938 18.769531 L 19.462891 18.771484 L 19.464844 18.771484 L 19.466797 18.771484 L 19.46875 18.771484 L 19.470703 18.771484 L 19.472656 18.771484 C 19.489633 18.769347 19.509462 18.749828 19.521484 18.736328 C 19.667144 18.572832 19.785814 18.447034 19.880859 18.349609 C 19.884095 18.346985 19.887408 18.344457 19.890625 18.341797 z M 6.6582031 18.636719 C 6.9000309 18.70183 7.1413865 18.76695 7.3847656 18.822266 C 7.3542704 18.877037 7.3260941 18.93174 7.3066406 18.982422 C 7.3014882 18.981864 7.2975915 18.979866 7.2929688 18.978516 C 7.1334819 18.931847 6.7863221 18.713263 6.6582031 18.636719 z M 18.626953 19.074219 C 18.62861 19.088706 18.632044 19.104044 18.634766 19.119141 C 18.626656 19.118588 18.617574 19.119632 18.609375 19.119141 C 18.615389 19.104828 18.620978 19.088712 18.626953 19.074219 z M 1.6953125 21.138672 C 1.7067809 21.210908 1.7162501 21.283068 1.7265625 21.355469 C 1.7236551 21.355195 1.7191135 21.354225 1.7167969 21.353516 L 1.7148438 21.353516 L 1.7128906 21.351562 L 1.7109375 21.351562 L 1.7089844 21.349609 L 1.7089844 21.347656 L 1.7070312 21.345703 C 1.7040322 21.341345 1.7001156 21.334062 1.6972656 21.326172 C 1.6968505 21.254013 1.6972573 21.194228 1.6953125 21.138672 z M 19.070312 21.501953 C 18.137429 21.636731 17.197955 21.720681 16.255859 21.769531 C 16.137494 21.762351 16.020616 21.75469 15.902344 21.746094 C 15.416575 21.710794 14.930659 21.66571 14.445312 21.625 C 14.331046 21.61701 14.217778 21.607724 14.103516 21.599609 C 15.759709 21.574997 17.414991 21.556613 19.070312 21.501953 z M 4.9140625 21.933594 C 4.8841748 21.936088 4.8541029 21.938818 4.8242188 21.941406 C 4.809779 21.943246 4.7952589 21.945515 4.78125 21.947266 C 4.7865508 21.943435 4.7917627 21.939261 4.796875 21.935547 C 4.8118926 21.935439 4.8267804 21.935664 4.8417969 21.935547 C 4.8656826 21.935088 4.8901764 21.934038 4.9140625 21.933594 z M 10.054688 21.970703 C 10.603718 21.972525 11.152191 21.976868 11.701172 21.980469 C 12.438037 22.033335 13.174138 22.097624 13.910156 22.160156 C 14.6606 22.215811 15.410006 22.27575 16.160156 22.335938 C 15.973594 22.357426 15.788038 22.378483 15.601562 22.400391 C 13.750571 22.298506 11.903428 22.105669 10.054688 21.970703 z M 1.6835938 21.982422 C 1.6749185 21.984165 1.6668758 21.986529 1.6582031 21.988281 C 1.6590342 21.986944 1.6593276 21.985714 1.6601562 21.984375 C 1.6679998 21.983961 1.6757498 21.982828 1.6835938 21.982422 z M 7.8554688 21.986328 C 8.3034225 22.01586 8.7511 22.048278 9.1992188 22.080078 C 9.2667996 22.084289 9.3347756 22.087382 9.4023438 22.091797 C 8.7800619 22.099278 8.1572644 22.104533 7.5351562 22.123047 C 7.2564932 22.094305 6.9784964 22.064519 6.7011719 22.025391 C 7.0857682 22.008334 7.4705232 21.994675 7.8554688 21.986328 z M 6.3144531 22.042969 C 6.3988325 22.064045 6.484098 22.085876 6.5683594 22.107422 C 6.6335761 22.124098 6.695854 22.139301 6.7539062 22.154297 C 6.6751889 22.158363 6.5962801 22.163251 6.5175781 22.167969 C 6.0963441 22.190902 5.6731759 22.213157 5.2519531 22.242188 C 5.0567587 22.210084 4.8935174 22.183011 4.7558594 22.160156 C 5.2752699 22.109436 5.7940707 22.070765 6.3144531 22.042969 z M 10.880859 22.201172 C 12.131267 22.302953 13.379875 22.421794 14.630859 22.513672 C 14.527135 22.52561 14.424024 22.537149 14.320312 22.548828 C 12.617128 22.740621 12.422801 22.760372 11.464844 22.837891 C 11.040039 22.807175 10.614768 22.779523 10.189453 22.757812 C 10.19172 22.752801 10.193253 22.74708 10.195312 22.742188 C 10.424207 22.660039 10.642753 22.539824 10.873047 22.419922 L 10.902344 22.390625 C 10.891769 22.329153 10.907188 22.255294 10.880859 22.201172 z M 17.148438 22.416016 C 17.369503 22.433822 17.589471 22.451075 17.810547 22.46875 C 17.804759 22.469297 17.80071 22.470156 17.794922 22.470703 C 17.454599 22.469362 17.113448 22.46164 16.773438 22.451172 C 16.898293 22.438485 17.023532 22.427785 17.148438 22.416016 z M 15.609375 22.580078 C 15.823134 22.592885 16.036092 22.604862 16.25 22.615234 C 15.557132 22.679761 14.864785 22.742544 14.171875 22.806641 C 13.960989 22.811295 13.749959 22.816223 13.539062 22.820312 C 14.229117 22.744617 14.919295 22.660164 15.609375 22.580078 z M 17.332031 22.654297 C 17.68634 22.663325 17.973517 22.667737 18.238281 22.667969 C 18.182122 22.676507 18.124544 22.68503 18.068359 22.693359 C 17.723054 22.706864 17.373678 22.722221 17.316406 22.724609 C 16.92655 22.735703 16.536427 22.747117 16.146484 22.757812 C 16.541294 22.723035 16.937145 22.688146 17.332031 22.654297 z M 0.95898438 23.103516 C 0.99061607 23.107172 1.0222106 23.110202 1.0546875 23.113281 C 1.0406305 23.152438 1.0264293 23.191264 1.0117188 23.230469 C 1.007224 23.243061 1.0023579 23.255915 0.99804688 23.267578 C 0.98192694 23.212377 0.96971953 23.157748 0.95898438 23.103516 z M 1.15625 23.376953 L 1.15625 23.378906 L 1.1582031 23.378906 L 1.1582031 23.376953 L 1.15625 23.376953 z M 1.15625 23.378906 L 1.1542969 23.378906 C 1.1306375 23.392265 1.1096467 23.40627 1.0898438 23.417969 C 1.0907406 23.418018 1.0927904 23.418037 1.09375 23.417969 C 1.1140359 23.414415 1.1476575 23.390514 1.15625 23.380859 L 1.15625 23.378906 z " />
</svg>
