<svg xmlns="http://www.w3.org/2000/svg" viewBox="0 0 8.467 8.467"><path d="M.41 7.555c0-.113.113-5.946-.003-6.307C.291.886.391.54.77.418 1.149.293 5.96.631 6.54.51 7.123.39 7.758.442 7.914.732c.156.29.205 6.432.044 6.82-.162.39-.282.561-.66.504-.376-.057-6.506.349-6.887-.501Z" style="fill:none;stroke:currentColor;stroke-width:.777594;stroke-linecap:round;stroke-linejoin:round;stroke-dasharray:none"/><path d="M2.342 2.773s.181 3.491.079 3.862M4.003 2.763s.178 3.582.122 3.918M4.072 3.967s.475-.8 1.144-.922c.669-.121 1.026.247 1.136.693.11.446.192 2.809.192 2.809" style="fill:none;stroke:currentColor;stroke-width:.777594;stroke-linecap:round;stroke-linejoin:round;stroke-dasharray:none"/><path d="M2.2 1.215c-.256-.03-.405.102-.422.372-.013.21.213.391.375.476 1.145.601.892-1.18.048-.848Z" style="fill:currentColor;stroke:none;stroke-width:.631505;stroke-linecap:round;stroke-linejoin:round"/></svg>