<svg xmlns="http://www.w3.org/2000/svg" width="24" height="24" viewBox="0 0 24 24"><path d="M21.395.076c-2.737.022-5.472.144-8.206.278q-.882.055-1.765.109-.81 0-1.621-.022A88 88 0 0 0 7.066.244C6.013.213 5.335.185 4.29.18 3.502.176 2.673.16 1.891.29c-.074.011-.142.042-.213.065L1.49.348C1.118.328.747.304.375.289.283.285.182.244.1.283l-.04.02c-.153-.01-.292.029-.285.222a1 1 0 0 0-.066.08l-.004.008-.002.002v.008l.002.002v.002h.002v.002h.002l.002.002A.2.2 0 0 0-.2.629c.05.038.19-.041.273-.041Q.111.588.19.59v.002Q.181.61.123.652q.54.08 1.078.166l-.236.237c.08-.027.158-.06.24-.078.143-.032.304-.061.47-.086.947.139 1.896.247 2.858.214l.258.002a50 50 0 0 0-3.088.325c-.369.056-.798.063-1.025.369l-.121.03c-.116.084-.236.162-.354.243.018.019.036.043.055.055.1-.025.202-.055.303-.082l-.01.035q-.12.104-.24.201c.016-.01.07-.044.095-.053l.125-.037-.01.096c-.01.158.314-.018.473-.027q-.03.165-.058.332a2.7 2.7 0 0 1-.653-.102c-.137-.042-.292-.15-.285-.27a3 3 0 0 0-.182.147c-.062.055-.157.144-.12.219.052.108.197.15.314.176.259.058.527.069.793.072h.092q-.033.195-.061.389c-.22.118-.2.234-.174.466q-.001.02.004.04l.004.03.031.458A64 64 0 0 0 .4 7.607C.292 9.604.137 11.6.074 13.597.042 14.63.053 15.156.06 16.175c.011.882.034 1.764.056 2.646l.008.213c-.02.085-.025.164.008.229a6 6 0 0 1 0 .441c.085-.137.183-.268.277-.4l.031-.018c-.015.71.046 1.415.135 2.12l-.01.269-.455.455q.22-.03.44-.057l-.014.31a3 3 0 0 0-.031.192c-.218.206-.186.335-.025.416v.018H.48v.002h.004v-.002h.002l.004-.006.004-.004a1 1 0 0 0 .115.041c-.004.31.01.647.123.729l.002.002.006.001h.01c.022-.003.048-.035.064-.054.12-.139.201-.226.258-.291l.014-.008-.002-.002-.002-.002a.64.64 0 0 0 .17-.285c.198.013.392.02.547.031.593.019 1.182-.053 1.77-.125q-.005.024-.006.049a3 3 0 0 0-.311.26v.002h.004l.002-.002a1 1 0 0 0 .11-.065q.104-.02.208-.035l.012.06c.048.198.406-.034.61-.038 1.288-.027 2.58.05 3.868.086.943.006 1.885 0 2.827-.008l1.033.062c.91.034 1.781.084 2.693.043a22 22 0 0 0 1.506-.123l.578.012c.257-.043 1.408.166 1.65-.008.113-.08.182-.207.262-.322.148-.007.292-.015.448-.026a4 4 0 0 0-.104.143c-.272.214-.381.32-.375.37l.004.009.006.006c.016.014.053.02.103.021v.002h.002l.002.002h.002l.002.002a.1.1 0 0 0 .045-.004c.113 0 .276-.01.469-.002 1.3-.002 2.6-.061 3.898-.103.572-.03.465.019.809-.38.081-.075.158-.153.222-.24q.022 0 .043-.003c.122-.158.282-.297.409-.451.11-.1.219-.2.334-.291a2 2 0 0 1-.172.03l.02-.054a.1.1 0 0 0 .001-.025l-.004-.01-.002-.002-.007-.008c-.055-.03-.24.032-.33.027L23.944 22c-.219-.01-.44-.027-.662-.035l.026-.065c.078-.23.084-.504.08-.763a10 10 0 0 1 .359-.436q.11-.078.27-.183v-.002h-.002c-.007 0-.028 0-.037-.002h-.002v-.002h-.002v-.002l-.016-.07c.069-.123.038-.224.02-.64-.118-1.474.015-2.952-.002-4.427-.005-.368-.029-.736-.043-1.103-.01-.73-.04-1.459-.079-2.188q.024-.602.032-1.205.013-3.653-.131-7.305-.023-.563-.045-1.127c.04-.15.084-.302-.012-.363l-.002-.078c-.003-.13.108-.32.014-.397a.4.4 0 0 0 .018-.115v-.006l-.002-.002v-.002h-.004V1.48h-.004l-.002.002h-.002q-.005.002-.01.006l-.084.073c-.156-.051-.212.101-.228.283a.4.4 0 0 0-.02.17c-.27.028-.37.32-.404.638a.3.3 0 0 0-.053-.195.5.5 0 0 0-.078-.088l.004-.02c.013-.03.049-.103.056-.122l-.003.003a3 3 0 0 1-.079.124c-.127-.082-.206.07-.25.19q.045-.302.098-.603a1.6 1.6 0 0 0 .686-.35c.08-.072.154-.155.22-.257l.002-.008.002-.002v-.013h-.002c-.014-.031-.099-.051-.134-.079q-.33-.052-.66-.09.014-.031.033-.064c.15-.063.326-.315.392-.396.14-.126.287-.244.42-.377V.3l-.002-.002a.1.1 0 0 0-.033-.004c-.067.014-.131.038-.197.057-.351.098-.704.191-1.06.265-.43.082-.779.157-1.218.203-.717.076-1.439.063-2.16.059a49 49 0 0 0-1.488-.035l.068-.073q.101-.101.205-.199c1.21-.011 2.419-.05 3.627-.084.14.003.28.003.42.008.155.006.647.125.664-.197l.069-.076.003-.006.002-.002V.209h-.002L22.52.207h-.002a.3.3 0 0 0-.075.008l-.006-.037c-.022-.102-.202-.06-.306-.07-.244-.024-.491-.021-.736-.032M-.002 2.223q.101-.075.205-.149C.181 2.052.16 2.035.137 2.05c-.095.056-.135.117-.139.174M6.578.73q.57.03 1.137.075-.014 0-.027.002c-.03.028-.066.064-.088.101L7.215.93c-.833.001-1.667.002-2.5-.008-.668.012-1.327-.05-1.983-.147C4.016.682 5.292.702 6.578.73m16.223.352h.002l-.047.059-.164-.018.035-.008c.058-.011.118-.013.174-.033m-12.498.104h.029l-.059.005h-.043zm11.302.13q.188.02.375.043c-.197.14-.347.353-.515.537-.489.065-.92.1-1.522.16l-.136.01.01-.015q.017-.034.033-.074l.142-.014c.286-.033.54-.125.668-.4l.084-.008.014-.016-.082-.016q.014-.032.025-.068.453-.061.904-.139m.627.075q.144.02.288.045l-.014.015c-.112.08-.193.138-.256.194l-.002-.012c-.01-.061-.008-.161-.016-.242m-14.789.04c-.146.034-.276.102-.308.245q-1.341-.023-2.682-.047.871-.078 1.744-.137l.297-.023q.474-.02.95-.037m15.31.046q.184.032.366.074a.7.7 0 0 1-.162.072q-.121.031-.244.059zm-10.888.238q1.036.002 2.073.045-1.507.027-3.012.004.47-.029.94-.05m7.537.3q.098.042.186.069c-.6.043-1.202.021-1.803.055.342-.027.686-.043 1.027-.073l.174.014q-.004-.015-.007-.027zm1.897.141c-.3.826-.172 1.73-.168 2.594.007.539-.03 1.103.062 1.637.012.069.004.213.037.254l.006.004.002.001.002.002.006.002h.012l.012-.004q.073-.033.142-.076a.3.3 0 0 0-.03.069v.004h.003v.002h.006l.017-.012a2.5 2.5 0 0 0 .26-.256l.02-.018q.002.04.007.08c.006.048.006.153.03.178l.002.002h.002l.001.002h.01l.006-.002q.002-.001.004-.004.078-.056.139-.11l.054.86c.036.607.074 1.214.104 1.82.039.8.063 1.397.084 1.961l-.037.536c-.181 3.44-.297 6.906.076 10.338l-.277.04a1 1 0 0 0-.055-.029c-.245-.116-.543-.01-.815-.015a23 23 0 0 0-1.103.007c-.798-.055-1.596-.12-2.395-.175q1.11-.088 2.211-.256c.22-.034.44-.077.66-.113.092-.016.197.009.274-.043a.5.5 0 0 0 .103-.104c.089-.05.169-.104.194-.195a.1.1 0 0 0 .002-.022v-.002l-.002-.002v-.002h-.002v-.002h-.002l-.006-.002-.006-.001a.3.3 0 0 0-.097.029c-2.33.294-4.687.255-7.032.31q-.795.012-1.59.028a59 59 0 0 0-2.421-.114c-1.826-.042-1.323.003-3.065.022-.448.005-.897-.002-1.346-.002-.965-.02-1.936-.065-2.904-.04l-.037-.355c-.085-1.135-.138-2.28-.022-3.416l-.193.192q.001-.33.01-.658c.036-3.16.1-6.32.017-9.479a320 320 0 0 0-.068-3.547l.024-.357c.044-.665.21-.82.138-.967.393-.041.79-.09 1.223-.139q.435-.064.863-.129c.342.07.684.08 1.035.092q1.646.059 3.293.033c3.64-.032 7.28-.111 10.916-.3.67-.06 1.078-.087 1.604-.15m-16.67.059c-.034.034-.072.07-.094.1l-.017.017-.752.102c-.52.049-.995.107-1.473.142l.02-.164.019-.045c-.032.072-.07.142-.105.213l-.032.002q-.015-.012-.035-.025l-.012-.33q1.24-.013 2.48-.012m.709 0 .031.002-.142.017zm.945.006q1.179.008 2.358.027c1.619.066 3.238.034 4.857.02-1.506.034-3.01.141-4.516.136a44 44 0 0 1-3.22-.105l-.032-.002zm16.615.002v.002h.002v-.002zm-20.99.006q.016.184.028.369l-.127.004c.036-.115.071-.23.093-.348v-.012h-.006a.45.45 0 0 0-.09.156 3 3 0 0 0-.036.206l-.098.001q-.032-.03-.06-.062l-.003-.002h-.007l-.002.002v.002a.2.2 0 0 0-.016.062q-.127.003-.256 0 .037-.183.076-.365l.258-.01zm21.053.5-.002.056-.023.092q.014-.075.025-.148M1.947 2.79q.055.847.094 1.695a37 37 0 0 0-.05 1.58l-.067 1.221q-.052.965-.117 1.93.04-2.4.072-4.801c.01-.483.095-.97.027-1.447a.4.4 0 0 0-.068-.17zm-.375.027-.002.051q-.043.06-.076.117a.14.14 0 0 0-.082.028c-.049.04-.038.106-.002.183-.051.19-.04.383-.035.615.02-.102.073-.277.127-.453l.047.077-.01.248-.053.087q-.024.003-.052.004l-.002.079a.2.2 0 0 1-.051.052l-.002.002h-.002v.059c-.005.807.008 1.731.016 2.53-.015.819.006 1.638 0 2.458l-.002.195.002.452c-.003.92-.03 1.841 0 2.761-.022-.622.005-1.243.003-1.865l.004.908q-.003.48-.007.957c.002.065-.003.13 0 .196L1.38 14.22l-.012-.213-.07-1.342c-.029-.709-.072-1.69-.092-2.494q.046-.622.07-1.244c.03-.812.016-1.203.006-2.006q-.004-.255-.01-.512c.026-.641.05-1.284.063-1.926-.015-.71.003-.563-.053-1.146-.007-.071.03-.216.006-.262l-.002-.002-.002-.002-.002-.002-.002-.002-.002-.002h-.002l-.006-.002h-.01l-.007.002-.012.004.043-.24q.146-.004.287-.012m-.195 1.09-.002-.095a.2.2 0 0 0-.006.087v.002h.002v.002l.002.002h.002zm.234-.355a.4.4 0 0 1 .024.062v.076a.1.1 0 0 1-.041.051q.004-.094.017-.19m21 .29.006.403.008.682q-.047.422-.086.845c-.021-.208-.04-.4-.059-.539-.008-.061-.019-.148-.033-.242.065-.382.114-.764.164-1.148M1.648 4.03c.011.197.024.393.028.59.019 2.503-.012 5.005-.055 7.508q-.058 1.009-.092 2.02l-.01.404c0-2.745.043-5.488.051-8.233l.006-1.107zm21.356.137c.028.881.037 1.764-.033 2.64q-.016-.825-.026-1.654l-.002-.088q.032-.449.06-.898M6.82 4.428a.9.9 0 0 0-.361.084c-.084.038-.147.11-.22.166q-.066.08-.134.16a.4.4 0 0 1 .061-.035 1 1 0 0 1 .092-.033q-.11.075-.217.17-.015.004-.03.011l-.054.067c-.289.279-.52.638-.478.925.007.054.049.097.074.145.057-.016.119-.019.17-.049l.035-.02c.057.289.16.573.244.749.056.117.132.223.197.336.078.083.14.18.23.25.21.158.41.173.594.105a.57.57 0 0 0 .465-.102c.437-.36.609-.567.62-1.091a2 2 0 0 0-.006-.192l-.051.028v-.006l.049-.057-.008-.057.066-.015q.127-.158.258-.313c-.001-.094.037-.198-.004-.283-.08-.164-.244-.203-.433-.176l.007-.011c-.05-.06-.088-.136-.154-.178a.6.6 0 0 0-.133-.065c-.22-.286-.529-.514-.879-.513m1.338 1.539-.058.072q0 .017.002.035c.125-.065.18-.1.191-.117l.002-.002V5.95h-.002v-.002h-.002a.5.5 0 0 0-.133.02M6.012 4.95l.093-.113c-.057.04-.106.094-.162.137.02-.003.045-.014.069-.024m.517-.219c.165-.004.31.03.442.092a.5.5 0 0 0-.157.092 2 2 0 0 0-.134.14 1 1 0 0 1-.096-.011l-.012-.002a.37.37 0 0 0-.043-.309zm-.638.372-.036.05-.025.012v.002h-.002v-.002h.002v-.002zm1.347.138q.127.03.244.113l.012.008-.01.004a3 3 0 0 0-.246-.125m-1.205.13q.045.019.102.032a.16.16 0 0 0 .002.168l.002.002.004.006.005.002h.002l.01.002c.048-.006.14-.113.17-.129h.006v.002h.002v.006l-.002.006-.004.013.043-.058h.004q-.023.03-.047.058-.005.012-.012.022c.015.058.02.12.035.178-.066.112-.054.255-.082.382.027.069.043.145.067.215a2 2 0 0 0-.078.12 2.6 2.6 0 0 1-.203-.624c.066-.062.135-.132.199-.205a.8.8 0 0 1-.215.102 2 2 0 0 1-.027-.297zm.225.198a.2.2 0 0 0 .062-.066v-.006q-.03.037-.062.072m.062-.072.012-.016-.014.014zm.494-.021q.146.056.29.13l-.038.032a.6.6 0 0 1-.252-.162m.952.023q.039 0 .076.008-.046.023-.096.043l-.012-.01zm.232.082q.051.045.084.12c.033.074.011.162.006.245a2.4 2.4 0 0 0-.09-.365m-.799.078.016.01-.027-.004zm-5.103.186q.032.947.056 1.894c.081 3.158.038 6.317-.013 9.475l-.004.209c-.037-2.388-.078-4.778-.104-7.166.003-.998-.022-1.996-.025-2.994L2.01 7.2zm4.7.18a1 1 0 0 0 .112.007q-.064.047-.123.1l-.014-.014zm.434.064q.07-.002.13.023c.053.025.06.103.09.155a1 1 0 0 0 .097-.061l.02.012.037-.051a.3.3 0 0 1 .074-.04l.011.024v.002a.2.2 0 0 1-.093.11l.01.025a1 1 0 0 1-.1.022l-.014.005.004-.003c-.235.04-.48.014-.664-.137.07-.035.165-.052.264-.07a1 1 0 0 1 .134-.016m.266.223.01-.002q.047-.022.09-.047-.008-.02-.018-.04l-.012-.005zm.178.13q.02.033.053.055l.002.002a.1.1 0 0 0 .027.006v.02a.5.5 0 0 1-.026.126 1.3 1.3 0 0 1-.439.11c-.082.002-.162-.02-.242-.041a1 1 0 0 0 .127-.075c.177-.033.351-.109.498-.203m.16.096q0 .03-.004.059a1 1 0 0 1-.092.05q.05-.054.096-.109m-.107.123c-.017.053-.037.107-.051.16.022-.004.06-.021.09-.031l.035-.045-.01.037h.012v.002h.002v.002h.002v.004l-.002.002-.002.004-.03.05q-.025.092-.037.186v.002l.002.002v.002l.002.002.002.002c.01.007.033.012.041.016v.004h-.002c-.186.091-.268.122-.353.117q.059-.059.115-.121-.102.064-.215.103c-.057-.015-.126-.039-.228-.066a.87.87 0 0 0 .515-.307zm-.184.397a.8.8 0 0 0 .23-.211l.018-.065q-.011.002-.025.008-.104.134-.223.268m6.86-.141-.147.143c-.099.013-.202.012-.295.037-.16.016-.322.033-.484.04l.101-.177-.18.18a3 3 0 0 1-.302-.004c-.103-.007-.203-.029-.305-.043-.078-.011-.162-.068-.234-.035a1 1 0 0 0-.135.078 1 1 0 0 1 .021-.082c-.05.075-.134.14-.187.215q-.082.072-.168.138c-.044.182.01.412.023.594q.063.853.084 1.707c.016 1.228-.025 2.456-.04 3.684-.088.089-.08.153-.094.396-.018 1.07-.06 2.138-.067 3.207.03.364.036.83.098 1.262l-.051.062c-.06.054-.14.125-.256.217h-.002v.004l.002.002c.008.003.027.003.035.006q.106.034.213.064l.135.035q.05.199.133.366c.031.028.055.066.094.084.15.067.446-.187.632-.356.4-.002.739-.056 1.05-.273a1 1 0 0 0-.048.062l-.002.002v.002h.002l.002-.002a1 1 0 0 0 .115-.115q.178-.14.346-.37a5 5 0 0 0-.05-.474c.096-.087.155-.14.165-.164v-.008l-.002-.002v-.002h-.001l-.002-.002-.006-.001a.8.8 0 0 0-.18.025c-.077-.45-.183-.9-.207-1.352q-.044-.467-.063-.935c.05-.484.124-.964.268-1.432.129-.468.234-.943.36-1.412.14-.294.283-.587.45-.867l.456-.738q.204-.241.404-.487a.65.65 0 0 1 .428.15c.424.356.757.83 1.037 1.301.349.93.51 1.927.619 2.91.01 1.04-.1 2.068-.305 3.088-.068.424-.114.846.02 1.262v.006a1 1 0 0 1-.104.008c-.245.034-.376.049-.496.111q-.016 0-.033-.002l-.03.04c-.083.056-.17.142-.296.279a.3.3 0 0 0-.037.035l-.002.002v.008l-.03.03c.346.007.691.037 1.036.067l-.09.356c.182.26.395.076.601-.295.206.029.41.063.61.119q.099.027.191.066c.025.011.051.05.074.057h.008l.006-.002.004-.002q.067-.043.129-.094a1 1 0 0 1-.063.088c.062-.07.129-.134.192-.203q.101-.098.207-.191c.125-.141.178-.358.23-.569l.014.028-.022.21v.024h.002c.062-.09.112-.16.155-.219.062-.036.133-.101.191-.127l-.002-.002h-.016v-.002h-.001v-.002q-.001-.06.005-.12c.049-.095.032-.167.038-.467l.037-.319c.069-.427.164-.841.267-1.262.027-.11.06-.218.08-.33.007-.036.032-.12.026-.146v-.002h-.002v-.002h-.002v-.002h-.008l-.002.002-.004.002-.058.041c.07-.45.108-.906.105-1.367 0-.54.013-1.074-.035-1.614-.083-.923-.3-1.835-.692-2.677-.359-.631-.757-1.285-1.35-1.729-.272-.204-.507-.273-.82-.396l-.117-.018-.037-.02a.48.48 0 0 0-.33-.02c-.613-.045-1.166.056-1.715.456l-.302.278-.02.046c.306-.214.605-.34.912-.398q-.222.213-.43.437a.1.1 0 0 0-.005-.03v-.003h-.002V9.07h-.002v-.002h-.006a.4.4 0 0 0-.055.026.24.24 0 0 0 .049-.098l-.002-.01-.004-.006-.002-.001-.008-.006-.013-.004-.028-.002.034-.06q-.027.031-.055.064c-.097.025-.161.169-.246.238q-.048.084-.094.17c-.244.222-.517.512-.705.717l-.012.011-.004.004-.113.123q-.197.192-.377.395c0-.762.002-1.524.022-2.285.008-.222.014-.417.027-.623a.8.8 0 0 0 .176-.254c.097-.084.144-.126.154-.139v-.004h-.002c-.013.003-.07.037-.145.078-.005-.053-.05-.088-.148-.095v-.012c.202-.088.32-.214.111-.377m.992 2.102.011-.03v-.006h-.002l-.002.002H15.4a2.2 2.2 0 0 0-.338.352q.163-.163.333-.318m-.332.318c-.353.356-.662.745-.834 1.236l.306-.306c.139-.319.307-.649.527-.93M13.99 7.39l-.03.043a.4.4 0 0 0-.032.138 1.7 1.7 0 0 0-.373.092c.006-.082.013-.16.015-.209q.02-.001.037-.004c.036.003.203-.017.383-.06m-1.574.046h.031q.314.038.62.038l-.202.2.024.048q-.014.023-.026.047l-.181.18a.2.2 0 0 0-.06.017q-.055.028-.052.094l-.082.082.002.054-.037.035q-.007-.277-.017-.554c-.003-.076-.014-.157-.02-.24m-10.424.006c.009.943.028 1.888.026 2.83.027 2.537.086 5.073.101 7.61v.002l-.271.27c-.04-.173-.086-.397-.168-.548q0-.195.004-.39.046-3.469.105-6.938c.06-.945.131-1.89.203-2.836m11.266.05a.5.5 0 0 0-.051.194 3 3 0 0 0-.018.278l-.09.094q.014-.19.032-.377zM1.402 7.67l.002.11c-.001.077 0 .193-.002.275.004-.129-.003-.257 0-.385m22.239.275.007.48q0 .003-.003.005zm-16.832.276c-.046.08-.112.153-.168.23-.062.042-.12.09-.184.121.042.126.028.28.022.407q-.019.33-.05.66a.521.521 0 0 0-.098-.162q.017-.065.036-.127l-.058.103c-.204-.159-.305.464-.301.47l.12-.118-.023.076c-.043.182.014.373.018.56q.008.409.012.817.018.877.023 1.756l-.043.029c-.076.054-.04.183-.05.275a32 32 0 0 0-.14 1.577c-.011.582.021 1.147.048 1.728q.011.241.015.482c.001.099-.076.297-.049.358l.004.006.008.008q.012.005.031 0h.002q-.003.076-.002.154.063-.077.13-.15l-.016.6a14 14 0 0 0-.627-.118q-.032-.014-.059-.004l-.004.004a1 1 0 0 0-.158.162 1 1 0 0 0-.2.195v.006l.003.002v.002h.004l.002.002h.002l.025.002-.002.002q.07.003.14.008c.323.098.597.302.878.486q.012.05.033.068l.002.002.006.004.005.002.014-.002a.1.1 0 0 0 .03-.017q.065.043.132.082c.113.072.673.487.84.377q.106-.07.188-.135c.049.006.115-.063.148-.133a.8.8 0 0 0 .143-.201l.09.016.285-.092.015-.014-.037-.158c-.175-.093-.235-.128-.295-.152-.007-.141-.03-.304-.047-.506l-.025-.239h.006c0 .104.013.201.076.278a.12.12 0 0 0 .088.045q-.008.095-.014.142c-.005.035-.037.116-.045.137q.002 0 .004-.004c.047-.096.103-.19.154-.285.07-.017.143-.05.202-.07l.002-.002.005-.004.002-.002.002-.002.002-.002.004-.006c.01-.024-.001-.066 0-.094.018-.356-.012-.714.028-1.07.039-.93.076-1.864.148-2.795-.01.4-.019.801-.018 1.201.002.424.025.847.038 1.27l.013-.014c.058-.493.128-.986.172-1.48a43 43 0 0 0 .15-3.71q.069-.341.15-.681c.068-.186.176-.362.202-.559v-.005l-.002-.006-.002-.002-.002-.002-.002-.002v-.002c-.014-.01-.044-.014-.068-.02-.118.16-.212.3-.248.364l-.031.058c.003-.167.03-.34.033-.508q.099.036.205.069v-.004h-.002v-.008l.002-.004c.028-.074.14-.183.267-.258a6 6 0 0 0-.224.287c.211.062.42.094.527.008l.104-.082c.003.05.013.101.029.12l.002.001h.002l.002.002h.002l.006.002.006-.002.005-.002c.031-.016.079-.092.15-.273.167-.123.15-.125.153-.361-.023-.04-.028-.098-.068-.118-.118-.058-.316.055-.39.112a2 2 0 0 0-.25.244c-.175-.05-.346-.12-.513-.153q-.12-.045-.24-.095l.014-.078-.027.072a6 6 0 0 1-.868-.441l.026-.096-.069.068-.109-.07a4 4 0 0 1-.334-.254c-.077-.067-.108-.22-.211-.223a.3.3 0 0 0-.053.004q0-.076-.011-.146m2.115 1.761L8.88 9.97l.002.002a.1.1 0 0 0 .039.015zM6.367 9.35q.019-.036.035-.073a.2.2 0 0 0-.027.043zM.666 8.252c.013.908.022 1.815-.016 2.723-.023.317-.04.637-.068.955q-.001.011-.004.023c-.017-.31-.017-.623-.025-.889a112 112 0 0 1-.004-1.003Q.6 9.156.666 8.252m22.494.299.004.133c-.099.124-.102.34-.08.539l-.035.08c-.07.171.034.37.043.554.021.465.026 1.35.031 1.782a96 96 0 0 1-.055 2.492c-.01-1.459-.035-2.917-.047-4.375q-.005-.446-.013-.89.017-.019.035-.038l.004-.006v-.008l-.002-.002h-.002l-.006-.001-.03-.002V8.78q.082-.112.153-.23m-6.328.076q-.183.147-.355.307l-.034.011q-.036.01-.072.022l.055-.072v-.002l.09-.123-.002-.002c-.005-.01-.007-.028-.012-.038L16.5 8.73l-.002-.002-.002-.002h-.006a.3.3 0 0 0-.072.045q.035-.066.068-.131a3 3 0 0 1 .346-.012m-10.06.3q.067.055.138.106l-.174.174zm16.087.096q.011.44.016.88c.021 1.792.041 3.584.04 5.376v.168c-.146.305-.128.682-.163 1.028l-.047.824.035-1.588q.026-.914.051-1.828c.034-1.308.055-1.881.037-3.164a52 52 0 0 0-.049-1.617zM6.945 9.06q.129.09.262.171l-.227.227q-.08.32-.148.64c.02-.33.045-.647.068-.843.008-.066.027-.13.045-.195m1.596.052a1.3 1.3 0 0 0-.07.18l.066-.168zm9.852.022q.177.14.332.3l-.067.094-.07.073-.035-.08c-.05-.118-.101-.252-.16-.387m3.81.191q.014.053.031.104l.012.023-.03.418zm.317.028c-.014.84-.023 1.682-.041 2.523l.013-.014q.062-1.058.133-2.115c.093 2.02.075 4.045.014 6.067-.022.976-.034 1.954-.053 2.931-.046-.473-.076-.911-.08-.97-.133-1.807-.126-2.2-.192-4.09l-.066-2.577.121-1.605zm-15.065.023q.247.135.504.25l-.014.014c-.083.155-.19.3-.26.46.017-.08.056-.196.044-.232l-.002-.002v-.002l-.002-.002-.002-.002H7.72l-.002-.002h-.006l-.016.006-.084.045.004-.01c.014-.025.054-.088.06-.105v-.002h-.001l-.004.004-.168.174a6 6 0 0 0-.211.12q.075-.358.162-.714m9.272.09-.088.092.007.002-.015.015-.002-.008-.004-.011.012.002zm2.085.062c.13.142.243.296.354.453a.05.05 0 0 0-.049-.011.5.5 0 0 0-.142.076q-.014.005-.026.014l.002-.016c.008-.047.053-.148.045-.178l-.002-.002-.002-.002-.002-.002h-.01l-.005.002-.073.035-.091.096q-.004-.003-.006-.008l.011-.013.004-.004v-.002h-.002l-.017.014-.006-.012.014-.014-.016.01-.125-.21c.032-.079.11-.15.145-.226m-.003.426q.043-.03.093-.057a1 1 0 0 0 .063-.07h.002v-.004h-.002v.002l-.026.016q-.07.052-.13.113m-2.475-.414c.004.04-.023.078-.03.117-.008.056-.008.112-.013.168l.014.049c-.134.056-.253.174-.377.31.135-.207.264-.417.367-.642zm-6.955.074a.2.2 0 0 1 .11.02c.022.012.033.035.042.06a1.3 1.3 0 0 1-.279-.047.4.4 0 0 1 .127-.033m7.793.11q.093.044.18.097l-.022.022-.025.01c-.04.008-.083-.023-.104-.057a.3.3 0 0 1-.03-.072m-.283.04q-.028.118-.034.217a1 1 0 0 0-.171-.097l.046-.051zm-1.762.077c-.004.032-.024.063-.033.094l-.057.087a1 1 0 0 0-.115.122q-.14.143-.283.285c-.144.146-.292.299-.432.459v-.098l.3-.3.013-.026q.23-.246.439-.514a2 2 0 0 1 .168-.11m2.357.068q.055.04.106.086a.2.2 0 0 1-.04.008c-.06.002-.095-.006-.11-.016l-.003-.002h-.001v-.002l-.002-.002V9.98l-.002-.002V9.97c.001-.017.023-.04.052-.063m-.24.047a.4.4 0 0 0-.039.092 1 1 0 0 0-.074.142l-.035.014-.05-.049c.023-.018.045-.042.065-.062q.069-.067.133-.137m1.94.049c.176.252.338.518.488.781-.164.035-.067.188.006.283l-.026.065c-.03.094.06.188.088.283l.069.234q-.174-.468-.344-.937c-.073-.18-.135-.362-.217-.537-.021-.046-.037-.125-.064-.172m-1.54.04q.053.054.104.112a.2.2 0 0 0 .014.084c.023.046.057.062.097.059q.038.053.073.111l.023.04q.087.229.156.464.066.322.143.645a24 24 0 0 1-.568-.873c-.092-.147-.123-.354-.25-.461.073-.056.15-.126.209-.18m-2.646.04q-.148.231-.299.46l-.004.005-.185.178-.02.03.205-.206c-.068.072-.132.148-.207.213l.002-.006-.017.017-.004.004-.031.024h-.002V10.8c.004-.008.033-.035.074-.074.135-.232.303-.443.484-.641zm-2.353.023q.027.882.064 1.762l.021 1.238q-.004-.03-.01-.058v-.026a.2.2 0 0 0 .005-.046v-.006h-.002v-.004h-.002l-.004-.022v-.002h-.002v-.002h-.002v-.002h-.004l-.002.002h-.002l-.002.002q-.078.068-.142.121c.011-.964.024-1.93.017-2.894q.034-.03.067-.063m3.431.09a.3.3 0 0 1-.11.028l-.005.005.006-.01.01-.007a.5.5 0 0 1 .1-.016m-1.502.537q-.18.27-.369.532l.002-.16v-.002l.28-.28zm.086.188q-.031.066-.064.133c-.071.082-.12.141-.125.154v.002h-.002l-.045.053.072-.07c-.06.106-.128.21-.176.322-.101.24-.117.51-.146.771l.031-.713v-.213l.047-.049c.14-.125.282-.251.408-.39m-8.105.117-.012.451-.004.205q-.036.219-.07.438.039-.548.086-1.094m8.73.068-.308.502.015-.045.098-.277a5 5 0 0 0 .195-.18m-.726.026q-.008.016-.016.033l-.018-.002zm.1.789c-.069.199-.127.401-.182.603l-.028.053c.007-.117.025-.234.037-.346a.5.5 0 0 1 .006-.152l.045-.049zm3.505.29.307.518.035.24.008.071c-.016.283-.025.566-.04.85l-.005.119a16 16 0 0 0-.305-1.797m4.004.095.045 1.476c.056 1.855.103 3.713.242 5.565.02.275.029.553.084.824l.002.006.01.013q-.012.37-.026.737-.106.466-.222.927c-.117-.861-.216-2.36-.244-3.087-.083-2.155-.017-4.31.109-6.461m-14.637.322q-.072.591-.138 1.184l-.018-.163-.01-.365a.5.5 0 0 0 .014-.168v-.002l-.002-.002-.002-.002-.002-.002h-.01l-.015.006a.45.45 0 0 0-.141.145l.012-.346.06-.057q.045-.038.086-.08zm-6.904.137h.021c-.047.525-.095 1.051-.134 1.578q-.045.59-.086 1.181a64 64 0 0 1 .004-2.498q.122-.142.195-.261m13.72.255q-.106.44-.22.88.003-.353.014-.704l.002-.002q.052-.044.101-.093.062-.048.104-.08m-13.406.213q.047.813.067 1.625l-.004.016.004-.008.002.053-.018-.002.012-.043-.024.043a.3.3 0 0 0-.136.037l.002-.26.04-.724q.026-.37.055-.737m19.47.809q.006.055.009.11l.023-.038c.009.325.003.639.002.994a9 9 0 0 1-.047.842c-.007-.166-.024-.333-.035-.5l.004-.033v-.002h-.002v-.002h-.002v.002h-.002c-.014-.216-.024-.433-.045-.648l.073-.72zm.003.125q-.01.012-.02.023v.002a.1.1 0 0 0 .02-.025m-13.486.023c-.016.547-.033 1.094-.043 1.641q0 .27-.01.54a17 17 0 0 1-.082-.99q.024-.095.004-.146.059-.523.13-1.045m12.453.272q.044.18.076.365.07.422.135.848c-.194.169-.319.27-.403.35q.023-.367.05-.735c.03-.2.053-.386.064-.521l.002-.03q.034-.133.076-.277m-5.824.31q.034.642.076 1.282.004.615.004 1.23c0 .103-.008.192-.01.258h-.078c-.034-.022-.082-.03-.102-.066-.054-.101-.055-.323-.035-.561l.05-.041.003-.002v-.002l.002-.002.002-.002v-.004l.002-.002v-.002c.002-.017-.012-.04-.012-.058l-.002-.106.033-.03c.031-.035.006-.093.008-.14l.016-.373q.025-.69.043-1.379m5.093.223a7 7 0 0 1-.017.443l-.018.186zm-6.072.932c.064.398.125.798.166 1.199l-.1-.082c-.022-.233-.036-.456-.056-.643a22 22 0 0 1-.01-.474m5.727.861-.002.04c.016.416-.078.826-.088 1.241v.008l-.03.133c-.047-.303-.013-.61.034-.92q.046-.25.086-.502m-17.276.078q.001.495-.004.988l-.035.036q.018-.512.04-1.024m11.631.32c.03.111.07.252.113.37l-.037.117a5 5 0 0 1-.076-.486m1.32.1.032.213q-.048.008-.096.014.035-.029.074-.06l.002-.003.002-.002.002-.002v-.002l.002-.006v-.003c0-.02-.019-.049-.02-.07v-.03q.003-.023.002-.049m-6.67.484.044.499c.105.039.155.092.17.156l-.286-.07-.32-.083.045-.064c.093-.096.177-.215.258-.309l.002-.002.002-.002v-.001l.002-.002v-.008l-.002-.002v-.002l-.002-.002-.002-.002-.002-.002-.008-.008zm6.776.375.006.112-.035.013q-.072.023-.143.04a.8.8 0 0 0 .172-.165m-.55.034.019.015-.067.051q-.216.015-.431.012.197-.031.394-.065zm6.355.162q-.064.21-.131.42c-.09.161-.132.363-.186.556a2 2 0 0 0-.164-.045 6 6 0 0 0-.568-.097.04.04 0 0 0-.012-.016c.132-.128.204-.202.3-.297a7 7 0 0 0 .274-.27c.012.08.028.15.053.175h.002l.002.002.002.001h.01c.017-.002.036-.021.048-.035q.218-.243.36-.386zm-13.233.295c.242.065.483.13.727.185-.03.055-.059.11-.078.16q-.008 0-.014-.003c-.16-.047-.507-.266-.635-.342m11.969.437.008.045h-.026zM1.695 21.14q.017.108.032.216l-.01-.001h-.002l-.002-.002H1.71l-.002-.002v-.002l-.002-.002-.01-.02q0-.106-.002-.187m17.375.363c-.933.135-1.872.219-2.814.268l-.354-.024c-.485-.035-.971-.08-1.457-.121l-.341-.025c1.656-.025 3.311-.043 4.966-.098m-14.156.432-.09.007-.043.006.016-.011h.045zm5.14.037q.824.003 1.647.01c.737.052 1.473.117 2.21.18q1.124.084 2.25.175l-.56.064c-1.85-.101-3.698-.294-5.546-.43m-8.37.011q-.014.004-.026.006l.002-.004zm6.171.004q.672.046 1.344.094.102.005.203.012c-.622.007-1.245.013-1.867.031a23 23 0 0 1-.834-.098q.578-.026 1.154-.039m-1.54.057.253.064.186.047-.236.014q-.634.033-1.266.074l-.496-.082q.779-.076 1.558-.117m4.566.158c1.25.102 2.499.22 3.75.313l-.31.035c-1.704.192-1.898.211-2.856.289q-.637-.046-1.276-.08.004-.007.006-.016c.23-.082.448-.202.678-.322l.03-.03c-.011-.06.004-.135-.022-.189m6.267.215.663.053-.016.002q-.511-.004-1.022-.02.188-.018.375-.035m-1.539.164q.32.02.641.035l-2.078.192q-.317.007-.633.013c.69-.075 1.38-.16 2.07-.24m1.723.074c.354.01.642.014.906.014l-.17.025-.752.032-1.17.033zm-16.373.45.096.01-.043.116-.014.038a2 2 0 0 1-.039-.164m.197.273v.002h.002v-.002zm0 .002h-.002l-.064.039h.004a.2.2 0 0 0 .062-.037z" style="fill:currentColor;stroke-width:3;stroke-linejoin:round"/></svg>