<?xml version="1.0" encoding="UTF-8" standalone="no"?>
<svg
   fill="currentColor"
   class="hamburger"
   viewBox="0 0 80 30"
   width="40"
   version="1.1"
   id="svg3"
   height="30"
   sodipodi:docname="menu.svg"
   inkscape:version="1.4.1-rc (d9e8dc1fe0, 2025-03-10)"
   xmlns:inkscape="http://www.inkscape.org/namespaces/inkscape"
   xmlns:sodipodi="http://sodipodi.sourceforge.net/DTD/sodipodi-0.dtd"
   xmlns="http://www.w3.org/2000/svg"
   xmlns:svg="http://www.w3.org/2000/svg">
  <sodipodi:namedview
     id="namedview1"
     pagecolor="#505050"
     bordercolor="#eeeeee"
     borderopacity="1"
     inkscape:showpageshadow="0"
     inkscape:pageopacity="0"
     inkscape:pagecheckerboard="0"
     inkscape:deskcolor="#505050"
     inkscape:zoom="5.7242604"
     inkscape:cx="41.140686"
     inkscape:cy="36.161877"
     inkscape:window-width="1920"
     inkscape:window-height="1011"
     inkscape:window-x="0"
     inkscape:window-y="32"
     inkscape:window-maximized="1"
     inkscape:current-layer="svg3" />
  <defs
     id="defs3" />
  <path
     id="path1"
     style="fill:#1a1a1a;stroke-width:6;stroke-linejoin:round"
     d="M 0.62109375 -15.019531 C 0.55515023 -15.012965 0.4900325 -14.978262 0.42578125 -14.960938 C 0.40898125 -14.920407 0.37796625 -14.879797 0.37890625 -14.835938 C 0.37989625 -14.789848 0.41390375 -14.752617 0.43359375 -14.710938 C 0.46421375 -14.646096 0.49960375 -14.585661 0.52734375 -14.519531 C 0.63268087 -14.268403 0.67660437 -14.004202 0.71484375 -13.738281 C 0.65042591 -13.751815 0.58788777 -13.762449 0.5234375 -13.765625 C 0.49168119 -13.736386 0.41982244 -13.709092 0.390625 -13.679688 L 0.38671875 -13.675781 L 0.3828125 -13.671875 L 0.37890625 -13.667969 L 0.37890625 -13.664062 L 0.37890625 -13.660156 L 0.375 -13.65625 L 0.37890625 -13.652344 L 0.37890625 -13.648438 L 0.37890625 -13.644531 L 0.3828125 -13.640625 L 0.3828125 -13.636719 C 0.5102928 -13.485125 0.64643313 -13.340614 0.78515625 -13.199219 C 0.80579288 -13.016074 0.81385056 -12.914066 0.82421875 -12.625 C 0.8273 -12.54007 0.77656693 -12.434829 0.8125 -12.363281 C 0.81540529 -12.358504 0.82429562 -12.348187 0.828125 -12.34375 C 0.8378792 -12.332446 0.84583735 -12.319767 0.85546875 -12.308594 C 0.78308618 -11.846111 0.6173644 -11.972603 1.4882812 -11.570312 C 1.4988314 -11.557727 1.5092367 -11.543553 1.5195312 -11.53125 C 1.2951537 -11.494635 1.0721206 -11.447792 0.85546875 -11.378906 C 0.78628732 -11.376564 0.67565127 -11.382303 0.62890625 -11.363281 C 0.62704688 -11.362311 0.61876241 -11.356551 0.6171875 -11.355469 L 0.61328125 -11.351562 L 0.61328125 -11.347656 L 0.609375 -11.347656 L 0.609375 -11.34375 L 0.609375 -11.339844 L 0.609375 -11.335938 L 0.609375 -11.332031 L 0.609375 -11.328125 L 0.609375 -11.324219 L 0.61328125 -11.320312 L 0.61328125 -11.316406 L 0.6171875 -11.3125 C 0.61851093 -11.310895 0.62362368 -11.302305 0.625 -11.300781 L 0.62890625 -11.296875 C 0.62044868 -11.293796 0.60657552 -11.287682 0.59765625 -11.285156 L 0.59375 -11.285156 L 0.58984375 -11.285156 L 0.5859375 -11.285156 L 0.58203125 -11.285156 L 0.578125 -11.285156 C 0.56997562 -11.288348 0.5550008 -11.30022 0.546875 -11.304688 L 0.54296875 -11.304688 C 0.61829093 -11.22966 0.69192915 -11.151044 0.765625 -11.074219 C 0.87136578 -10.902743 0.96275481 -10.749937 1.0429688 -10.613281 C 0.99530178 -10.53072 0.94382876 -10.443959 0.890625 -10.355469 C 0.92401547 -10.364848 0.95930624 -10.375961 0.9921875 -10.386719 C 0.9599911 -10.351643 0.92709127 -10.315982 0.89453125 -10.28125 C 0.95683112 -10.269495 1.1039207 -10.302705 1.1757812 -10.296875 C 1.192426 -10.295526 1.2099108 -10.294228 1.2265625 -10.292969 C 1.2904498 -10.178973 1.3426047 -10.083141 1.3867188 -10 C 1.0961663 -10.033063 0.80982849 -10.080146 0.52734375 -10.15625 L 1.4414062 -9.0234375 C 1.4890892 -9.0187075 1.5380175 -9.0087315 1.5859375 -9.0078125 C 1.6816585 -9.0060125 1.77926 -9.014826 1.875 -9.015625 C 2.4744901 -9.0206262 3.0729986 -9.0321312 3.671875 -9.0507812 C 3.6608086 -9.040403 3.6477912 -9.0299022 3.6367188 -9.0195312 C 3.4876252 -8.8798857 3.2593324 -8.6674593 3.1484375 -8.4335938 C 2.8747649 -8.4419715 2.6005626 -8.4540269 2.328125 -8.4765625 C 2.2944868 -8.4793449 1.8191077 -8.5352618 1.7382812 -8.53125 C 1.6686076 -8.52779 1.603571 -8.5058175 1.5351562 -8.4921875 L 0.07421875 -6.78125 C 0.11935093 -6.76761 0.15995495 -6.7447395 0.20703125 -6.7421875 C 0.29978785 -6.7371475 0.39569443 -6.7502925 0.48828125 -6.7578125 C 0.85096576 -6.7873294 0.87976595 -6.7973512 1.0703125 -6.8164062 L -0.1328125 -5.5546875 C -0.06935164 -5.5368675 -0.00723159 -5.503492 0.05859375 -5.5 C 0.28669229 -5.4879 0.85755374 -5.5677516 1.0390625 -5.5898438 C 1.1324937 -5.6012154 1.2269044 -5.6134386 1.3203125 -5.625 L 0.09765625 -4.1210938 C 0.38154809 -4.2169371 0.67461253 -4.2835824 0.96875 -4.3359375 L -0.078125 -3.078125 C 0.18279574 -3.13594 0.6160261 -3.2340785 0.84375 -3.2734375 C 1.0827782 -3.3147501 1.3224043 -3.3443335 1.5625 -3.3789062 C 2.2779747 -3.4819321 2.8714661 -3.5696686 3.5976562 -3.640625 C 3.9747522 -3.677471 4.3527079 -3.7012166 4.7304688 -3.7304688 C 6.7962261 -3.8830167 8.8741328 -3.7659484 10.929688 -3.5351562 C 11.405048 -3.4429182 11.894276 -3.4361327 12.371094 -3.3554688 C 12.589765 -3.3184767 12.799413 -3.2380235 13.019531 -3.2109375 C 13.306988 -3.1755655 13.59737 -3.1806206 13.886719 -3.1679688 C 15.482392 -3.0981907 14.152675 -3.1675572 15.738281 -3.078125 C 16.040547 -3.064485 16.34203 -3.0457245 16.644531 -3.0390625 C 17.294728 -3.0247425 17.943412 -3.03607 18.59375 -3.03125 C 19.524688 -3.02435 20.455759 -3.0075963 21.386719 -3.0039062 C 23.015857 -2.9705664 21.587822 -2.9867587 23.371094 -3.0117188 C 23.729362 -3.0167388 24.087071 -3.008985 24.445312 -3.015625 C 24.86889 -3.023465 25.291252 -3.0477175 25.714844 -3.0546875 C 26.13897 -3.0616675 26.564097 -3.0578037 26.988281 -3.0585938 C 27.450095 -3.0669937 27.909278 -3.0736213 28.371094 -3.0820312 C 28.84891 -3.0899914 29.326926 -3.0947306 29.804688 -3.1054688 C 30.312725 -3.1168886 30.823943 -3.1396375 31.332031 -3.1484375 C 33.159919 -3.1800955 34.988402 -3.1754663 36.816406 -3.1601562 C 39.403234 -3.2580602 41.988683 -3.2263835 44.574219 -3.1171875 L 45.734375 -3.0976562 C 46.099181 -3.0862162 46.463191 -3.0724704 46.828125 -3.0664062 C 47.223475 -3.0598462 47.620253 -3.06772 48.015625 -3.0625 C 48.400801 -3.0574 48.786667 -3.0366624 49.171875 -3.0351562 C 51.478437 -3.0261418 50.686198 -3.0469999 50.347656 -3.0546875 C 50.529111 -3.0511545 50.941891 -3.0450968 51.746094 -3.03125 C 53.397319 -3.0338965 55.046197 -2.9668092 56.695312 -2.90625 C 56.235298 -2.7849023 55.772959 -2.6629426 55.3125 -2.5429688 C 52.725074 -1.9985936 50.116919 -1.5764164 47.519531 -1.0820312 C 43.919523 -0.46344325 40.302291 0.10369245 36.644531 0.22265625 C 32.227623 0.33224945 27.808401 0.24442065 23.390625 0.30078125 C 18.709857 0.36348925 14.028918 0.447854 9.3476562 0.46875 C 6.9855287 0.4511042 4.6064574 0.4931237 2.2617188 0.1640625 L 3.8320312 2.0625 C 6.1252897 2.2698632 8.4392267 2.154474 10.738281 2.09375 C 15.411712 1.950992 20.086507 1.919138 24.761719 1.90625 C 29.181955 1.865262 33.603564 1.8972153 38.023438 1.8320312 C 41.708155 1.6897273 45.378957 1.1909585 49.019531 0.6171875 C 51.623565 0.1254913 54.256221 -0.2073285 56.828125 -0.8515625 C 59.445111 -1.6472908 62.092066 -2.3195217 64.769531 -2.8710938 C 65.694527 -2.8922351 66.620713 -2.9284052 67.546875 -2.9453125 C 67.786301 -2.9602725 68.026161 -2.9739712 68.265625 -2.9882812 C 68.509947 -3.0028814 68.755384 -3.022918 69 -3.03125 C 69.76881 -3.057438 70.537436 -3.0203445 71.304688 -2.9765625 C 71.979162 -2.9192745 72.655489 -2.903753 73.332031 -2.890625 C 73.890925 -2.866107 74.449258 -2.9263253 75.007812 -2.9257812 C 75.436312 -2.9441213 75.852002 -2.828328 76.277344 -2.8125 C 76.589744 -2.80892 76.326745 -2.8045954 76.695312 -2.8320312 C 76.777412 -2.8381513 76.860006 -2.8354163 76.941406 -2.8476562 C 77.036886 -2.8620162 77.152509 -2.8521045 77.226562 -2.9140625 C 77.635655 -3.2563747 77.983449 -3.6606438 78.363281 -4.0351562 L 78.441406 -4.1289062 C 78.696566 -4.5008763 79.005017 -4.8388791 79.207031 -5.2421875 L 79.210938 -5.2460938 L 79.210938 -5.25 L 79.210938 -5.2539062 L 79.210938 -5.2578125 L 79.210938 -5.2617188 L 79.210938 -5.265625 L 79.207031 -5.265625 L 79.207031 -5.2695312 L 79.203125 -5.2734375 L 79.199219 -5.2734375 L 79.195312 -5.2773438 L 79.191406 -5.28125 C 79.1537 -5.2976104 79.073628 -5.2945512 79.03125 -5.3007812 C 78.95467 -5.3120414 78.874213 -5.3017391 78.796875 -5.3046875 C 78.724402 -5.3074462 78.681322 -5.3104743 78.652344 -5.3125 C 80.333746 -6.837982 80.792945 -6.3890288 79.953125 -7.0625 C 79.939111 -7.0664108 79.92032 -7.0666135 79.90625 -7.0703125 C 79.520514 -7.1712049 79.116973 -7.1991296 78.738281 -7.328125 C 78.541941 -7.395003 78.35678 -7.4936429 78.164062 -7.5703125 C 78.142347 -7.5856293 78.117203 -7.5958691 78.09375 -7.609375 C 78.379001 -7.9164049 78.655862 -8.2318516 78.902344 -8.5703125 L 78.90625 -8.5742188 L 78.90625 -8.578125 C 78.90987 -8.586116 78.912503 -8.5954442 78.914062 -8.6015625 C 78.915113 -8.6077089 78.914459 -8.6186186 78.914062 -8.625 C 78.913449 -8.6292745 78.911511 -8.6402644 78.910156 -8.6445312 C 78.909283 -8.6466508 78.907325 -8.6502462 78.90625 -8.6523438 C 78.934491 -8.6541552 78.960041 -8.6544332 78.988281 -8.65625 C 79.347179 -8.68999 79.294668 -8.6857275 79.625 -8.7109375 C 79.696478 -8.7163975 79.768344 -8.7213625 79.839844 -8.7265625 C 79.891064 -8.7303425 79.944468 -8.7193312 79.992188 -8.7382812 C 80.019065 -8.748953 80.071942 -8.772142 80.097656 -8.7929688 L 80.101562 -8.796875 L 80.101562 -8.8007812 L 80.105469 -8.8046875 L 80.105469 -8.8085938 L 80.109375 -8.8125 L 80.109375 -8.8164062 L 80.109375 -8.8203125 L 80.109375 -8.8242188 L 80.105469 -8.828125 L 80.105469 -8.8320312 C 79.667333 -9.3813173 79.154354 -9.8686752 78.679688 -10.386719 C 78.586866 -10.40492 78.429175 -10.436315 78.28125 -10.464844 C 78.260852 -10.499673 78.240553 -10.532041 78.222656 -10.5625 C 78.305161 -10.673119 78.394482 -10.789805 78.488281 -10.917969 C 78.519185 -10.919126 78.551132 -10.920616 78.582031 -10.921875 C 78.552676 -10.935243 78.532549 -10.945772 78.523438 -10.953125 L 78.519531 -10.957031 L 78.519531 -10.960938 L 78.519531 -10.964844 L 78.523438 -10.96875 L 78.527344 -10.96875 L 78.53125 -10.972656 L 78.535156 -10.972656 C 78.612665 -10.94801 78.699614 -10.91657 78.742188 -10.914062 C 78.744095 -10.914088 78.752232 -10.91388 78.753906 -10.914062 L 78.757812 -10.914062 L 78.761719 -10.914062 L 78.765625 -10.917969 L 78.765625 -10.921875 L 78.769531 -10.921875 L 78.769531 -10.925781 L 78.769531 -10.929688 C 78.768882 -10.931468 78.766622 -10.939385 78.765625 -10.941406 L 78.761719 -10.945312 L 78.757812 -10.949219 C 78.842877 -10.939511 78.925717 -10.931632 78.957031 -10.941406 L 78.960938 -10.945312 L 78.964844 -10.945312 L 78.964844 -10.949219 L 78.96875 -10.949219 L 78.96875 -10.953125 L 78.96875 -10.957031 L 78.96875 -10.960938 L 78.964844 -10.964844 L 78.964844 -10.96875 C 78.885173 -11.059982 78.802955 -11.151165 78.722656 -11.242188 C 78.743045 -11.270153 78.764182 -11.299362 78.785156 -11.328125 L 78.789062 -11.332031 L 78.789062 -11.335938 L 78.792969 -11.339844 L 78.792969 -11.34375 L 78.792969 -11.347656 L 78.792969 -11.351562 L 78.792969 -11.355469 L 78.789062 -11.359375 L 78.789062 -11.363281 L 78.789062 -11.367188 L 78.785156 -11.371094 C 78.764563 -11.398454 78.7096 -11.426768 78.640625 -11.453125 C 79.145874 -11.936592 79.571358 -12.508683 79.847656 -12.789062 C 79.883216 -12.825152 79.880486 -12.886852 79.878906 -12.9375 C 79.877506 -12.98114 79.849277 -13.020925 79.835938 -13.0625 C 79.807536 -13.09577 79.788126 -13.136823 79.753906 -13.164062 C 79.628737 -13.263717 79.361401 -13.261195 79.148438 -13.300781 C 79.761987 -13.787138 80.249712 -14.355291 79.675781 -14.699219 C 79.514221 -14.721379 79.363313 -14.77475 79.207031 -14.820312 C 78.975409 -14.843164 78.745639 -14.905956 78.511719 -14.910156 C 78.146081 -14.921976 77.788665 -14.999601 77.421875 -14.988281 C 76.927229 -14.999071 76.434634 -14.946969 75.941406 -14.917969 C 75.479632 -14.900989 75.023006 -14.84298 74.5625 -14.808594 C 74.12702 -14.782714 73.691555 -14.770645 73.257812 -14.828125 C 72.749516 -14.868055 72.239423 -14.883002 71.730469 -14.914062 C 71.155729 -14.962574 70.57975 -14.8814 70.003906 -14.875 C 69.35873 -14.85964 68.715582 -14.790185 68.070312 -14.773438 C 67.459622 -14.740517 66.849687 -14.747434 66.238281 -14.746094 C 65.661383 -14.740194 65.090349 -14.63901 64.511719 -14.652344 C 63.806481 -14.661444 63.106626 -14.555059 62.402344 -14.527344 C 61.48808 -14.489854 62.485201 -14.540846 61.578125 -14.472656 C 61.295396 -14.451404 61.009839 -14.440897 60.726562 -14.425781 C 60.634308 -14.534796 60.538348 -14.645073 60.441406 -14.75 L 60.4375 -14.753906 L 60.433594 -14.753906 L 60.429688 -14.753906 L 60.425781 -14.75 L 60.421875 -14.75 L 60.417969 -14.746094 L 60.414062 -14.742188 C 60.402102 -14.755332 60.390821 -14.768065 60.378906 -14.78125 C 60.301986 -14.75503 60.227156 -14.723335 60.148438 -14.703125 C 59.962676 -14.655435 59.198849 -14.5154 59.105469 -14.5 C 58.074543 -14.329986 57.034894 -14.224566 55.996094 -14.117188 C 55.406879 -14.062226 54.820066 -14.008524 54.230469 -13.957031 C 53.608553 -13.924744 52.985622 -13.909702 52.363281 -13.886719 C 51.98021 -13.872571 51.594107 -13.85585 51.210938 -13.84375 C 51.176223 -13.844928 51.144012 -13.848975 51.109375 -13.851562 C 51.009855 -13.858963 50.912016 -13.879029 50.8125 -13.886719 C 50.54905 -13.907069 50.283021 -13.891782 50.019531 -13.914062 C 49.719311 -13.917563 49.417466 -13.934311 49.117188 -13.925781 C 48.82215 -13.917381 48.689963 -13.901239 48.390625 -13.886719 C 48.347455 -13.884619 48.304907 -13.884469 48.261719 -13.882812 C 48.312752 -13.958471 48.36591 -14.033323 48.421875 -14.113281 L 48.425781 -14.117188 L 48.429688 -14.121094 L 48.429688 -14.125 L 48.429688 -14.128906 L 48.429688 -14.132812 L 48.429688 -14.136719 L 48.425781 -14.136719 L 48.425781 -14.140625 L 48.421875 -14.140625 L 48.417969 -14.144531 C 48.400686 -14.120467 48.371998 -14.080698 48.359375 -14.0625 C 48.350806 -14.060391 48.340607 -14.056756 48.332031 -14.054688 C 48.358207 -14.083844 48.383864 -14.115482 48.410156 -14.144531 C 48.363427 -14.151113 48.240699 -14.119059 48.183594 -14.117188 C 47.749368 -14.102616 47.316992 -14.0817 46.882812 -14.0625 C 45.893794 -14.048258 44.905389 -13.999069 43.917969 -13.941406 C 43.807703 -13.949048 43.696187 -13.956953 43.585938 -13.964844 C 42.666635 -14.047964 41.745265 -14.101901 40.828125 -14.207031 C 39.879813 -14.298041 38.925032 -14.32049 37.972656 -14.324219 C 37.180284 -14.341609 36.38956 -14.383303 35.597656 -14.414062 C 34.790572 -14.518441 33.984993 -14.663384 33.167969 -14.648438 C 32.056839 -14.658956 30.942336 -14.667037 29.835938 -14.546875 C 29.426323 -14.518615 29.021141 -14.487281 28.617188 -14.410156 C 28.065572 -14.304841 28.538453 -14.374618 28.046875 -14.289062 C 27.990995 -14.279363 27.935086 -14.273295 27.878906 -14.265625 L 27.75 -14.105469 L 27.746094 -14.105469 C 26.361181 -14.158411 25.547515 -14.186979 25.109375 -14.203125 L 25.109375 -14.207031 C 25.557076 -14.192902 26.053906 -14.180258 25.082031 -14.234375 C 24.966874 -14.350007 24.847598 -14.461241 24.722656 -14.566406 C 24.638442 -14.637296 24.504511 -14.585144 24.394531 -14.589844 C 24.169043 -14.599504 23.940506 -14.605475 23.714844 -14.609375 C 22.405632 -14.632245 21.097952 -14.624309 19.789062 -14.667969 C 18.588883 -14.658179 17.766635 -14.66076 16.5625 -14.625 C 16.42531 -14.637354 16.289422 -14.649859 16.152344 -14.664062 C 15.845672 -14.692293 15.540411 -14.71556 15.234375 -14.75 C 15.075373 -14.767891 14.749685 -14.928679 14.648438 -14.90625 C 14.646593 -14.905652 14.638375 -14.903096 14.636719 -14.902344 L 14.632812 -14.898438 L 14.628906 -14.898438 L 14.628906 -14.894531 L 14.625 -14.894531 L 14.625 -14.890625 L 14.621094 -14.890625 L 14.621094 -14.886719 L 14.617188 -14.882812 L 14.617188 -14.878906 C 14.616842 -14.874945 14.616572 -14.864132 14.617188 -14.859375 C 14.618301 -14.854204 14.622853 -14.841966 14.625 -14.835938 C 14.659139 -14.740083 14.703451 -14.650925 14.753906 -14.5625 C 13.244579 -14.506371 11.733696 -14.449561 10.222656 -14.476562 C 9.0690214 -14.452402 8.9262225 -14.437817 7.7734375 -14.460938 C 6.3645865 -14.489191 4.954901 -14.594021 3.546875 -14.644531 C 2.829108 -14.688806 2.115751 -14.727602 1.40625 -14.851562 C 1.26119 -14.876902 1.1204045 -14.909876 0.9765625 -14.941406 C 0.8669895 -14.965426 0.7605575 -15.016031 0.6484375 -15.019531 C 0.638935 -15.019826 0.63051425 -15.020469 0.62109375 -15.019531 z M 0.890625 -10.355469 C 0.88106684 -10.352784 0.87289525 -10.35019 0.86328125 -10.347656 C 0.86278487 -10.324344 0.85134952 -10.275486 0.8515625 -10.253906 L 0.8515625 -10.25 L 0.8515625 -10.246094 L 0.8515625 -10.242188 L 0.85546875 -10.242188 L 0.85546875 -10.246094 L 0.859375 -10.246094 C 0.8698297 -10.25716 0.88001106 -10.270152 0.890625 -10.28125 L 0.88671875 -10.285156 L 0.8828125 -10.285156 L 0.87890625 -10.289062 L 0.875 -10.289062 L 0.87109375 -10.292969 L 0.8671875 -10.296875 L 0.8671875 -10.300781 L 0.8671875 -10.304688 L 0.8671875 -10.308594 L 0.8671875 -10.3125 L 0.8671875 -10.316406 L 0.87109375 -10.320312 L 0.87109375 -10.324219 C 0.87749331 -10.334813 0.88430653 -10.34496 0.890625 -10.355469 z M 26.285156 -13.921875 C 26.605541 -13.920854 27.030581 -13.919 27.59375 -13.917969 L 27.546875 -13.859375 C 27.338678 -13.859453 27.130059 -13.859814 26.921875 -13.859375 C 26.724885 -13.878813 26.51505 -13.899258 26.285156 -13.921875 z M 1.7890625 -13.664062 L 1.7929688 -13.664062 L 1.7929688 -13.660156 L 1.796875 -13.660156 L 1.8007812 -13.65625 C 1.8808463 -13.63289 1.9676012 -13.646725 2.0507812 -13.640625 C 2.6722153 -13.595045 2.2296707 -13.612944 2.9804688 -13.601562 C 3.009955 -13.601118 3.0388113 -13.60197 3.0664062 -13.601562 C 3.0644699 -13.600928 3.0564879 -13.598431 3.0546875 -13.597656 L 3.0507812 -13.59375 L 3.046875 -13.589844 L 3.0429688 -13.585938 L 3.0390625 -13.582031 L 3.0351562 -13.578125 L 3.03125 -13.574219 C 3.030135 -13.571426 3.025401 -13.563835 3.0234375 -13.558594 L 3.0234375 -13.554688 C 3.0225001 -13.545137 3.0253576 -13.528197 3.0273438 -13.515625 C 3.0286523 -13.507341 3.0297219 -13.500382 3.03125 -13.492188 C 2.9309186 -13.507331 2.8308015 -13.525441 2.734375 -13.550781 C 2.8540982 -13.434951 2.9686861 -13.315261 3.0820312 -13.191406 C 2.6643674 -13.283785 2.2452867 -13.374087 1.828125 -13.46875 C 1.8196236 -13.520995 1.8091042 -13.570097 1.796875 -13.621094 C 1.7932092 -13.636391 1.7917092 -13.651727 1.7890625 -13.664062 z M 3.1367188 -13.597656 C 3.6499774 -13.590266 3.8472871 -13.591053 4.4453125 -13.585938 C 5.759823 -13.590753 7.0760832 -13.585633 8.390625 -13.589844 C 8.1925872 -13.551126 8.02368 -13.510047 7.8671875 -13.375 C 7.8509674 -13.374759 7.8326263 -13.375239 7.8164062 -13.375 C 6.5709842 -13.36271 5.3265874 -13.375451 4.0820312 -13.425781 C 3.9162426 -13.432485 3.7426992 -13.433379 3.5703125 -13.441406 C 3.4203049 -13.49553 3.2473903 -13.578786 3.1367188 -13.597656 z M 75.21875 -12.902344 C 75.230415 -12.902867 75.242239 -12.901854 75.253906 -12.902344 C 75.345663 -12.804573 75.435591 -12.707146 75.527344 -12.609375 C 75.542625 -12.593335 75.558878 -12.578487 75.574219 -12.5625 C 75.568815 -12.562379 75.563998 -12.562619 75.558594 -12.5625 C 75.445289 -12.675923 75.332108 -12.788975 75.21875 -12.902344 z M 76.019531 -12.882812 C 76.167039 -12.868355 76.314708 -12.84749 76.460938 -12.824219 C 76.397959 -12.747882 76.328033 -12.669413 76.253906 -12.582031 C 76.221506 -12.581413 76.188609 -12.57914 76.15625 -12.578125 C 76.138658 -12.677655 76.090945 -12.781085 76.019531 -12.882812 z M 69.300781 -12.878906 C 69.526222 -12.876568 69.751177 -12.875474 69.976562 -12.878906 C 70.100195 -12.873423 70.224012 -12.869376 70.347656 -12.863281 C 70.175256 -12.828628 70.004056 -12.782597 69.835938 -12.742188 C 69.39389 -12.635089 69.120043 -12.516334 68.894531 -12.332031 C 68.793364 -12.327499 68.694916 -12.324862 68.59375 -12.320312 C 68.798756 -12.377528 69.0631 -12.45862 69.199219 -12.542969 C 69.287561 -12.597712 69.352208 -12.68074 69.429688 -12.75 C 69.386432 -12.792994 69.343596 -12.835438 69.300781 -12.878906 z M 61.621094 -12.800781 C 62.073742 -12.796585 62.52781 -12.793994 62.980469 -12.792969 C 63.103545 -12.790424 63.228202 -12.791296 63.351562 -12.789062 C 63.023207 -12.760896 62.691462 -12.735265 62.363281 -12.707031 C 61.909963 -12.668033 61.457574 -12.612805 61.003906 -12.578125 C 60.082373 -12.507683 59.266752 -12.475577 58.375 -12.4375 C 57.622656 -12.446065 56.869361 -12.455574 56.117188 -12.472656 C 56.177742 -12.478862 56.236319 -12.485874 56.296875 -12.492188 C 57.076437 -12.552808 57.85195 -12.648962 58.632812 -12.691406 C 59.395727 -12.761666 60.166113 -12.739796 60.929688 -12.785156 C 61.161088 -12.800456 61.389746 -12.802671 61.621094 -12.800781 z M 72.9375 -12.722656 C 73.0456 -12.70996 73.153667 -12.696777 73.261719 -12.683594 C 73.604336 -12.638116 73.948031 -12.586573 74.289062 -12.53125 C 74.238511 -12.529593 74.18728 -12.529276 74.136719 -12.527344 C 73.84583 -12.520342 73.556471 -12.512596 73.265625 -12.503906 C 73.191424 -12.525316 73.114092 -12.54424 73.039062 -12.5625 C 72.782574 -12.624925 72.581451 -12.664566 72.371094 -12.699219 C 72.484017 -12.696568 72.691542 -12.70723 72.789062 -12.710938 C 72.838745 -12.71428 72.887861 -12.718821 72.9375 -12.722656 z M 13.902344 -12.429688 C 14.423376 -12.422886 14.943829 -12.398545 15.464844 -12.390625 C 15.794677 -12.389109 16.127125 -12.387367 16.457031 -12.386719 C 16.478712 -12.349019 16.506484 -12.315344 16.53125 -12.289062 C 16.57957 -12.237782 16.666271 -12.252445 16.734375 -12.234375 C 17.857626 -12.205491 18.983465 -12.168107 20.105469 -12.105469 C 19.679656 -12.105326 19.250181 -12.105885 18.824219 -12.105469 C 18.66723 -12.105602 18.512454 -12.105688 18.355469 -12.105469 C 17.475157 -12.134392 16.594496 -12.163228 15.714844 -12.203125 C 15.121326 -12.220345 14.52736 -12.258794 13.933594 -12.257812 C 13.800225 -12.257593 13.495458 -12.244803 13.125 -12.230469 C 13.131624 -12.238777 13.141843 -12.249479 13.148438 -12.257812 C 13.18592 -12.305185 13.169181 -12.36418 13.140625 -12.425781 C 13.160075 -12.425232 13.179763 -12.42228 13.199219 -12.421875 C 13.43437 -12.416975 13.667161 -12.432786 13.902344 -12.429688 z M 78.097656 -10.769531 C 78.10324 -10.769751 78.112846 -10.770058 78.117188 -10.769531 L 78.121094 -10.765625 L 78.125 -10.765625 L 78.125 -10.761719 L 78.128906 -10.761719 L 78.128906 -10.757812 L 78.125 -10.757812 L 78.125 -10.753906 C 78.121948 -10.750464 78.116329 -10.745622 78.113281 -10.742188 C 78.107477 -10.751316 78.10323 -10.761026 78.097656 -10.769531 z M 14.304688 -10.574219 C 14.492603 -10.563165 14.636976 -10.554944 14.710938 -10.550781 C 14.828895 -10.544142 14.944535 -10.537796 15.0625 -10.53125 C 14.827026 -10.503458 14.594841 -10.472641 14.359375 -10.445312 C 14.324447 -10.486891 14.287471 -10.527852 14.253906 -10.570312 C 14.269828 -10.571045 14.288766 -10.573487 14.304688 -10.574219 z M 14.183594 -10.566406 C 14.189943 -10.566698 14.196642 -10.566358 14.203125 -10.566406 L 14.199219 -10.5625 C 14.197487 -10.562245 14.189154 -10.562808 14.1875 -10.5625 L 14.183594 -10.566406 z M 13.960938 -10.558594 C 13.943823 -10.551612 13.926494 -10.545468 13.910156 -10.542969 C 13.640165 -10.501659 13.3953 -10.490496 13.121094 -10.472656 C 12.527722 -10.434332 11.934306 -10.416633 11.339844 -10.414062 C 11.355913 -10.428434 11.370662 -10.446538 11.386719 -10.460938 C 12.245134 -10.482193 13.103122 -10.519352 13.960938 -10.558594 z M 45.167969 -10.488281 C 45.588383 -10.485581 46.009385 -10.467071 46.429688 -10.457031 C 46.523645 -10.452028 46.654086 -10.444975 46.800781 -10.4375 C 46.361749 -10.426745 45.919498 -10.417103 45.480469 -10.40625 C 45.175734 -10.398719 44.804759 -10.38891 44.414062 -10.378906 C 44.043337 -10.390104 43.671416 -10.40395 43.300781 -10.417969 C 43.086447 -10.431197 42.874334 -10.445393 42.660156 -10.460938 C 43.502757 -10.472202 44.667088 -10.491522 45.167969 -10.488281 z M 78.640625 -10.222656 L 78.644531 -10.222656 C 78.653034 -10.222611 78.67035 -10.221349 78.679688 -10.21875 L 78.683594 -10.214844 L 78.6875 -10.214844 L 78.691406 -10.210938 L 78.695312 -10.210938 L 78.695312 -10.207031 L 78.691406 -10.207031 C 78.681713 -10.200124 78.671234 -10.195599 78.660156 -10.191406 C 78.65286 -10.200106 78.647909 -10.206134 78.640625 -10.214844 L 78.640625 -10.21875 L 78.640625 -10.222656 z M 27.640625 -9.6835938 C 27.795525 -9.682465 27.965295 -9.6804198 28.140625 -9.6796875 C 28.031474 -9.6726251 27.781566 -9.6546685 27.105469 -9.609375 C 26.7167 -9.619631 26.326041 -9.633311 25.9375 -9.6484375 C 26.505493 -9.6627278 27.07219 -9.6776194 27.640625 -9.6835938 z M 19.816406 -9.3828125 C 20.226483 -9.3705217 20.636935 -9.3491994 21.046875 -9.3242188 C 20.707909 -9.3145509 20.370299 -9.3065561 20.03125 -9.3007812 C 19.721592 -9.2955023 19.411277 -9.2928708 19.101562 -9.2929688 C 19.340279 -9.3214628 19.577825 -9.3531766 19.816406 -9.3828125 z M 77.058594 -8.53125 C 76.946681 -8.4120633 76.834422 -8.2969885 76.730469 -8.1875 C 76.729873 -8.2155468 76.731152 -8.241352 76.730469 -8.2695312 C 76.795865 -8.3528393 76.858826 -8.4384703 76.921875 -8.5234375 C 76.967078 -8.5264487 77.013389 -8.5282652 77.058594 -8.53125 z M 74.691406 -8.3007812 C 74.700136 -8.288457 74.708963 -8.2766138 74.71875 -8.265625 C 74.703758 -8.2737175 74.689975 -8.2814356 74.675781 -8.2890625 C 74.681303 -8.2930964 74.685906 -8.2967721 74.691406 -8.3007812 z M 67.503906 -8.0898438 C 68.080506 -8.0600996 68.658339 -8.039164 69.234375 -8 C 70.924784 -7.8850679 72.590255 -7.6110256 74.265625 -7.3789062 C 74.245854 -7.3598535 74.226218 -7.3386242 74.207031 -7.3203125 C 74.153607 -7.3269359 74.100411 -7.334172 74.046875 -7.3398438 C 73.725425 -7.3738978 73.400141 -7.3975633 73.078125 -7.4257812 C 71.917449 -7.5184812 70.756608 -7.6030797 69.59375 -7.6640625 C 69.11283 -7.6892825 68.63307 -7.7017708 68.152344 -7.7304688 C 64.91044 -7.9239907 68.645993 -7.7682673 65.113281 -7.8945312 C 64.999174 -7.8982489 64.883607 -7.9018157 64.769531 -7.90625 C 64.813367 -7.956808 64.858327 -8.0081612 64.902344 -8.0585938 C 65.737688 -8.0828017 66.434673 -8.0810381 67.503906 -8.0898438 z M 78.15625 -7.828125 C 78.163035 -7.8284694 78.174717 -7.8287467 78.179688 -7.828125 L 78.183594 -7.828125 L 78.183594 -7.8242188 L 78.1875 -7.8242188 L 78.191406 -7.8203125 L 78.191406 -7.8164062 L 78.1875 -7.8164062 L 78.1875 -7.8125 L 78.183594 -7.8085938 C 78.136218 -7.754741 78.087374 -7.7014231 78.039062 -7.6484375 C 78.026781 -7.6582339 78.017443 -7.6671308 78.007812 -7.6796875 C 77.994889 -7.6965362 77.987087 -7.7305892 77.988281 -7.7539062 L 77.988281 -7.7578125 L 77.988281 -7.7617188 L 77.988281 -7.765625 L 77.992188 -7.7695312 L 77.992188 -7.7734375 L 77.996094 -7.7773438 L 78 -7.78125 C 78.031175 -7.8036538 78.111019 -7.8258291 78.15625 -7.828125 z M 79.902344 -7.0664062 L 79.90625 -7.0664062 C 79.899041 -7.0526691 79.863862 -7.0068413 79.839844 -6.984375 L 79.835938 -6.9804688 L 79.832031 -6.9765625 C 79.820155 -6.9690784 79.806932 -6.9630989 79.792969 -6.9570312 C 79.829099 -6.9925705 79.865372 -7.029167 79.902344 -7.0664062 z M 76.589844 -6.7851562 C 76.521394 -6.7156712 76.450324 -6.6484872 76.382812 -6.578125 C 76.31316 -6.5778031 76.24536 -6.5768321 76.175781 -6.578125 C 76.209504 -6.6188473 76.241038 -6.6613417 76.273438 -6.703125 C 76.376915 -6.7349092 76.484866 -6.758487 76.589844 -6.7851562 z M 56.453125 -6.3164062 C 56.812536 -6.3173005 58.411924 -6.2930653 59.484375 -6.2773438 C 59.602285 -6.2662 59.718015 -6.2570739 59.835938 -6.2460938 C 59.358936 -6.250898 58.883495 -6.2564693 58.40625 -6.2578125 C 57.658447 -6.2673123 56.911598 -6.2874528 56.164062 -6.3125 C 56.261272 -6.3135536 56.355908 -6.3161642 56.453125 -6.3164062 z M 17.464844 -4.9453125 L 17.351562 -4.8125 C 17.313167 -4.8132029 17.27277 -4.811747 17.234375 -4.8125 C 16.331193 -4.8599033 16.426901 -4.8471579 15.945312 -4.890625 C 16.471915 -4.9009054 16.667312 -4.9152316 17.351562 -4.9414062 C 17.389937 -4.9438567 17.428778 -4.9430063 17.464844 -4.9453125 z M 51.925781 -4.7148438 C 52.003211 -4.7121252 52.110895 -4.7086544 52.277344 -4.703125 C 51.715635 -4.7090479 51.896543 -4.7057434 51.925781 -4.7109375 L 51.925781 -4.7148438 z M 0.4375 9.1640625 C 0.37155648 9.1706291 0.30643875 9.2053312 0.2421875 9.2226562 C 0.2253875 9.2631872 0.1943725 9.3037963 0.1953125 9.3476562 C 0.1963025 9.3937452 0.23031 9.4309773 0.25 9.4726562 C 0.28062 9.5374972 0.31601 9.5979325 0.34375 9.6640625 C 0.44908712 9.9151905 0.49301062 10.179392 0.53125 10.445312 C 0.4668322 10.431783 0.40429402 10.421139 0.33984375 10.417969 C 0.30808745 10.447209 0.23622869 10.474496 0.20703125 10.503906 L 0.203125 10.507812 L 0.19921875 10.511719 L 0.1953125 10.515625 L 0.1953125 10.519531 L 0.1953125 10.523438 L 0.19140625 10.527344 L 0.1953125 10.53125 L 0.1953125 10.535156 L 0.1953125 10.539062 L 0.19921875 10.542969 L 0.19921875 10.546875 C 0.32669905 10.698469 0.46283938 10.84298 0.6015625 10.984375 C 0.6221991 11.16752 0.6302568 11.269528 0.640625 11.558594 C 0.643706 11.643524 0.59297325 11.748764 0.62890625 11.820312 C 0.63181125 11.825112 0.64070185 11.835404 0.64453125 11.839844 C 0.65428525 11.851144 0.6622436 11.86382 0.671875 11.875 C 0.5994924 12.337483 0.43377067 12.210991 1.3046875 12.613281 C 1.3152375 12.625871 1.3256435 12.640044 1.3359375 12.652344 C 1.11156 12.688954 0.88852685 12.735803 0.671875 12.804688 C 0.6026936 12.806988 0.49205752 12.801283 0.4453125 12.820312 C 0.4434535 12.821283 0.43516875 12.827025 0.43359375 12.828125 L 0.4296875 12.832031 L 0.4296875 12.835938 L 0.42578125 12.835938 L 0.42578125 12.839844 L 0.42578125 12.84375 L 0.42578125 12.847656 L 0.42578125 12.851562 L 0.42578125 12.855469 L 0.4296875 12.859375 L 0.4296875 12.863281 L 0.4296875 12.867188 L 0.43359375 12.871094 L 0.4375 12.875 C 0.44025261 12.878044 0.44301645 12.883064 0.4453125 12.886719 C 0.4368549 12.889794 0.42688802 12.892005 0.41796875 12.894531 C 0.41647975 12.894841 0.41164475 12.898267 0.41015625 12.898438 L 0.40625 12.898438 L 0.40234375 12.898438 L 0.3984375 12.898438 L 0.39453125 12.894531 L 0.390625 12.894531 C 0.38409588 12.891235 0.37368814 12.882478 0.3671875 12.878906 C 0.3655683 12.878164 0.36098656 12.879431 0.359375 12.878906 C 0.4346972 12.953936 0.5083354 13.03255 0.58203125 13.109375 C 0.68777203 13.280851 0.77916106 13.433657 0.859375 13.570312 C 0.811708 13.652873 0.76023505 13.739635 0.70703125 13.828125 C 0.74042175 13.818725 0.77571245 13.807635 0.80859375 13.796875 C 0.77703938 13.831255 0.74286119 13.864365 0.7109375 13.898438 L 0.70703125 13.898438 L 0.703125 13.898438 L 0.69921875 13.898438 L 0.6953125 13.894531 L 0.69140625 13.894531 L 0.6875 13.890625 L 0.68359375 13.886719 L 0.68359375 13.882812 L 0.68359375 13.878906 L 0.68359375 13.875 L 0.68359375 13.871094 L 0.68359375 13.867188 L 0.6875 13.863281 L 0.6875 13.859375 C 0.6939 13.848785 0.70071275 13.838635 0.70703125 13.828125 C 0.69747325 13.830825 0.6893016 13.833437 0.6796875 13.835938 C 0.67919112 13.859248 0.66775585 13.908107 0.66796875 13.929688 L 0.66796875 13.933594 L 0.66796875 13.9375 L 0.66796875 13.941406 L 0.671875 13.941406 L 0.671875 13.9375 L 0.67578125 13.9375 C 0.68685105 13.92578 0.6999131 13.914104 0.7109375 13.902344 C 0.7732374 13.914104 0.9203269 13.880899 0.9921875 13.886719 C 1.0088323 13.888019 1.026317 13.889325 1.0429688 13.890625 C 1.1068558 14.004621 1.159011 14.100453 1.203125 14.183594 C 0.91257246 14.150534 0.62623474 14.103444 0.34375 14.027344 L 1.2578125 15.160156 C 1.3054955 15.164856 1.3544234 15.174861 1.4023438 15.175781 C 1.4980647 15.177581 1.5956663 15.168769 1.6914062 15.167969 C 2.2908963 15.162969 2.8894049 15.151462 3.4882812 15.132812 C 3.4772152 15.143193 3.464197 15.153693 3.453125 15.164062 C 3.3040315 15.303709 3.0757387 15.516135 2.9648438 15.75 C 2.6911712 15.7416 2.4169688 15.729571 2.1445312 15.707031 C 2.1108933 15.704231 1.635514 15.648334 1.5546875 15.652344 C 1.4850135 15.655844 1.4199773 15.677776 1.3515625 15.691406 L -0.109375 17.402344 C -0.06424282 17.415984 -0.0236388 17.438856 0.0234375 17.441406 C 0.1161941 17.446406 0.21210068 17.433311 0.3046875 17.425781 C 0.66737201 17.396261 0.6961722 17.386238 0.88671875 17.367188 L -0.31640625 18.628906 C -0.25294535 18.646726 -0.19082534 18.680094 -0.125 18.683594 C 0.10309854 18.695694 0.67395999 18.61584 0.85546875 18.59375 C 0.94889995 18.58238 1.0433106 18.570164 1.1367188 18.558594 L -0.0859375 20.0625 C 0.19795434 19.96666 0.49101878 19.900011 0.78515625 19.847656 L -0.26171875 21.105469 C -0.00079801182 21.047649 0.43243235 20.949515 0.66015625 20.910156 C 0.89918445 20.868846 1.1388106 20.839256 1.3789062 20.804688 C 2.094381 20.701662 2.6878724 20.613926 3.4140625 20.542969 C 3.7911584 20.506119 4.1691141 20.482375 4.546875 20.453125 C 6.6126323 20.300577 8.690539 20.417644 10.746094 20.648438 C 11.221454 20.740677 11.710682 20.747458 12.1875 20.828125 C 12.406171 20.865115 12.61582 20.94557 12.835938 20.972656 C 13.123394 21.008026 13.413776 21.002975 13.703125 21.015625 C 15.298798 21.085405 13.969082 21.016041 15.554688 21.105469 C 15.856953 21.119109 16.158437 21.137871 16.460938 21.144531 C 17.111134 21.158851 17.759818 21.147544 18.410156 21.152344 C 19.341094 21.159244 20.272165 21.175997 21.203125 21.179688 C 22.832263 21.213027 21.404228 21.196825 23.1875 21.171875 C 23.545768 21.166875 23.903477 21.174569 24.261719 21.167969 C 24.685297 21.160169 25.107658 21.135876 25.53125 21.128906 C 25.955376 21.121906 26.380503 21.1258 26.804688 21.125 C 27.266502 21.1166 27.725684 21.109972 28.1875 21.101562 C 28.665316 21.093563 29.143332 21.088865 29.621094 21.078125 C 30.129131 21.066705 30.640349 21.043956 31.148438 21.035156 C 32.976326 21.003496 34.804809 21.008128 36.632812 21.023438 C 39.21964 20.925538 41.805089 20.957206 44.390625 21.066406 L 45.550781 21.085938 C 45.915587 21.097378 46.279597 21.111127 46.644531 21.117188 C 47.039881 21.123787 47.436659 21.115894 47.832031 21.121094 C 48.217207 21.126194 48.603073 21.146938 48.988281 21.148438 C 51.294843 21.157438 50.502605 21.136596 50.164062 21.128906 C 50.345517 21.132406 50.758297 21.138504 51.5625 21.152344 C 53.758708 21.148844 55.950121 21.267489 58.144531 21.332031 C 59.251101 21.330031 60.358305 21.366205 61.464844 21.359375 C 61.983913 21.356175 62.504438 21.337125 63.023438 21.328125 C 64.471949 21.335625 65.915371 21.264711 67.363281 21.238281 C 67.602707 21.223321 67.842567 21.209622 68.082031 21.195312 C 68.326353 21.180712 68.57179 21.160674 68.816406 21.152344 C 69.585216 21.126154 70.353843 21.163251 71.121094 21.207031 C 71.795568 21.264321 72.471896 21.279839 73.148438 21.292969 C 73.707331 21.317489 74.265665 21.257272 74.824219 21.257812 C 75.252719 21.239472 75.668408 21.355263 76.09375 21.371094 C 76.40615 21.374694 76.143151 21.378992 76.511719 21.351562 C 76.593819 21.345462 76.676413 21.348168 76.757812 21.335938 C 76.853292 21.321578 76.968916 21.331541 77.042969 21.269531 C 77.452062 20.927218 77.799856 20.522949 78.179688 20.148438 L 78.257812 20.054688 C 78.512973 19.682718 78.821423 19.344714 79.023438 18.941406 L 79.027344 18.9375 L 79.027344 18.933594 L 79.027344 18.929688 L 79.027344 18.925781 L 79.027344 18.921875 L 79.027344 18.917969 L 79.023438 18.917969 L 79.023438 18.914062 L 79.019531 18.910156 L 79.015625 18.910156 L 79.011719 18.90625 L 79.007812 18.902344 L 79.003906 18.898438 C 78.963882 18.885271 78.887386 18.888653 78.847656 18.882812 C 78.771076 18.871552 78.690619 18.881848 78.613281 18.878906 C 78.540811 18.876106 78.497728 18.873094 78.46875 18.871094 C 80.150152 17.345612 80.609351 17.794565 79.769531 17.121094 C 79.755521 17.117194 79.736726 17.116981 79.722656 17.113281 C 79.33692 17.012388 78.933379 16.984465 78.554688 16.855469 C 78.358347 16.788589 78.173186 16.68995 77.980469 16.613281 C 77.958749 16.597961 77.933606 16.587719 77.910156 16.574219 C 78.195407 16.267189 78.472268 15.951742 78.71875 15.613281 L 78.722656 15.609375 L 78.722656 15.605469 C 78.726271 15.597481 78.728879 15.588151 78.730469 15.582031 C 78.731169 15.577934 78.734304 15.566718 78.734375 15.5625 C 78.734111 15.558246 78.731445 15.547247 78.730469 15.542969 C 78.729792 15.540835 78.723528 15.533369 78.722656 15.53125 C 78.750896 15.52945 78.776448 15.529144 78.804688 15.527344 C 79.163585 15.493604 79.111074 15.497866 79.441406 15.472656 C 79.512886 15.467156 79.58475 15.462241 79.65625 15.457031 C 79.70747 15.453231 79.760874 15.464233 79.808594 15.445312 C 79.835474 15.434638 79.88835 15.411447 79.914062 15.390625 L 79.917969 15.386719 L 79.917969 15.382812 L 79.921875 15.378906 L 79.921875 15.375 L 79.925781 15.371094 L 79.925781 15.367188 L 79.925781 15.363281 L 79.925781 15.359375 L 79.921875 15.355469 L 79.921875 15.351562 C 79.483739 14.802276 78.970761 14.314919 78.496094 13.796875 C 78.403274 13.778675 78.245581 13.74728 78.097656 13.71875 C 78.077256 13.68392 78.056953 13.651554 78.039062 13.621094 C 78.121572 13.510475 78.210889 13.393789 78.304688 13.265625 C 78.335588 13.264425 78.367537 13.263019 78.398438 13.261719 C 78.369088 13.248349 78.348954 13.237819 78.339844 13.230469 L 78.335938 13.226562 L 78.335938 13.222656 L 78.335938 13.21875 L 78.339844 13.214844 L 78.34375 13.214844 L 78.347656 13.214844 L 78.347656 13.210938 L 78.351562 13.210938 C 78.429073 13.235588 78.516021 13.267031 78.558594 13.269531 C 78.560494 13.269506 78.568632 13.269714 78.570312 13.269531 L 78.574219 13.269531 L 78.578125 13.269531 L 78.582031 13.265625 L 78.582031 13.261719 L 78.585938 13.261719 L 78.585938 13.257812 L 78.585938 13.253906 C 78.585289 13.252106 78.583031 13.244207 78.582031 13.242188 L 78.578125 13.238281 L 78.574219 13.234375 C 78.653963 13.243469 78.738222 13.249352 78.773438 13.242188 L 78.777344 13.238281 L 78.78125 13.238281 L 78.78125 13.234375 L 78.785156 13.234375 L 78.785156 13.230469 L 78.785156 13.226562 L 78.785156 13.222656 L 78.78125 13.21875 L 78.78125 13.214844 C 78.70158 13.123614 78.619361 13.032428 78.539062 12.941406 C 78.559453 12.913436 78.580592 12.884239 78.601562 12.855469 L 78.605469 12.851562 L 78.605469 12.847656 L 78.609375 12.84375 L 78.609375 12.839844 L 78.609375 12.835938 L 78.609375 12.832031 L 78.609375 12.828125 L 78.605469 12.824219 L 78.605469 12.820312 L 78.605469 12.816406 C 78.588529 12.787136 78.530608 12.758589 78.457031 12.730469 C 78.96228 12.247002 79.387764 11.674911 79.664062 11.394531 C 79.699623 11.358441 79.696892 11.296742 79.695312 11.246094 C 79.693912 11.202454 79.665684 11.162664 79.652344 11.121094 C 79.623944 11.087824 79.604532 11.046773 79.570312 11.019531 C 79.445144 10.919881 79.177808 10.922401 78.964844 10.882812 C 79.578393 10.396455 80.066119 9.828303 79.492188 9.484375 C 79.330628 9.462215 79.17972 9.4088433 79.023438 9.3632812 C 78.791815 9.3404303 78.562045 9.2776375 78.328125 9.2734375 C 77.962487 9.2616175 77.605071 9.1839925 77.238281 9.1953125 C 76.743635 9.1845225 76.25104 9.236625 75.757812 9.265625 C 75.296038 9.282605 74.839412 9.340614 74.378906 9.375 C 73.943426 9.40088 73.507962 9.4129487 73.074219 9.3554688 C 72.565923 9.3155388 72.055829 9.3005913 71.546875 9.2695312 C 70.972135 9.2210203 70.396157 9.3021938 69.820312 9.3085938 C 69.175136 9.3239538 68.531989 9.3934082 67.886719 9.4101562 C 67.276029 9.4430772 66.666093 9.43616 66.054688 9.4375 C 65.47779 9.4434 64.906755 9.544584 64.328125 9.53125 C 63.622887 9.52215 62.923032 9.628535 62.21875 9.65625 C 61.304486 9.69374 62.30161 9.6427475 61.394531 9.7109375 C 61.111802 9.7321895 60.826245 9.7426965 60.542969 9.7578125 C 60.450719 9.6487975 60.354754 9.5385207 60.257812 9.4335938 L 60.253906 9.4296875 L 60.25 9.4296875 L 60.246094 9.4296875 L 60.242188 9.4335938 L 60.238281 9.4335938 L 60.234375 9.4375 L 60.230469 9.4414062 C 60.218509 9.4282613 60.207233 9.4155287 60.195312 9.4023438 C 60.118392 9.4285637 60.043563 9.4602588 59.964844 9.4804688 C 59.779082 9.5281587 59.015255 9.6681938 58.921875 9.6835938 C 57.890949 9.8536077 56.8513 9.9590275 55.8125 10.066406 C 55.223285 10.121366 54.636472 10.17507 54.046875 10.226562 C 53.424959 10.258853 52.802029 10.273895 52.179688 10.296875 C 51.796616 10.311025 51.410513 10.327744 51.027344 10.339844 C 50.992634 10.338644 50.960414 10.334631 50.925781 10.332031 C 50.826261 10.324631 50.728422 10.304565 50.628906 10.296875 C 50.365456 10.276525 50.099427 10.291771 49.835938 10.269531 C 49.535717 10.266031 49.233873 10.249282 48.933594 10.257812 C 48.638556 10.266212 48.506369 10.282355 48.207031 10.296875 C 48.163861 10.298975 48.121311 10.299181 48.078125 10.300781 C 48.129155 10.225121 48.182316 10.150271 48.238281 10.070312 L 48.242188 10.066406 L 48.246094 10.066406 L 48.246094 10.0625 L 48.246094 10.058594 L 48.246094 10.054688 L 48.246094 10.050781 L 48.246094 10.046875 L 48.242188 10.046875 L 48.242188 10.042969 L 48.238281 10.042969 L 48.234375 10.039062 C 48.217095 10.063123 48.188401 10.102894 48.175781 10.121094 C 48.167181 10.123194 48.157007 10.126806 48.148438 10.128906 C 48.174617 10.099746 48.200263 10.068112 48.226562 10.039062 C 48.179833 10.032462 48.057105 10.064536 48 10.066406 C 47.565774 10.080976 47.133398 10.101894 46.699219 10.121094 C 45.710201 10.135334 44.721795 10.184524 43.734375 10.242188 C 43.624109 10.234587 43.512593 10.22664 43.402344 10.21875 C 42.483041 10.13563 41.561671 10.081692 40.644531 9.9765625 C 39.696219 9.8855525 38.741439 9.863104 37.789062 9.859375 C 36.99669 9.841985 36.205967 9.8002913 35.414062 9.7695312 C 34.606978 9.6651523 33.801399 9.5202102 32.984375 9.5351562 C 31.873245 9.5246372 30.758743 9.5165568 29.652344 9.6367188 C 29.242729 9.6649788 28.837547 9.6963125 28.433594 9.7734375 C 27.881978 9.8787525 28.354864 9.8089762 27.863281 9.8945312 C 27.807401 9.9042313 27.751492 9.9102988 27.695312 9.9179688 L 27.566406 10.078125 L 27.5625 10.078125 C 26.177587 10.025185 25.363921 9.9966147 24.925781 9.9804688 L 24.925781 9.9765625 C 25.373482 9.9906915 25.870309 10.003336 24.898438 9.9492188 C 24.783281 9.8335867 24.664005 9.7223525 24.539062 9.6171875 C 24.454853 9.5462975 24.320918 9.59845 24.210938 9.59375 C 23.98545 9.58409 23.756912 9.5781187 23.53125 9.5742188 C 22.222038 9.5513487 20.914359 9.559285 19.605469 9.515625 C 18.405289 9.525415 17.583041 9.5228348 16.378906 9.5585938 C 16.241716 9.5462398 16.105828 9.5337353 15.96875 9.5195312 C 15.662078 9.4913002 15.356817 9.4680338 15.050781 9.4335938 C 14.891779 9.4157028 14.566091 9.2549147 14.464844 9.2773438 C 14.463044 9.2779418 14.454785 9.28049 14.453125 9.28125 L 14.449219 9.2851562 L 14.445312 9.2851562 L 14.445312 9.2890625 L 14.441406 9.2890625 L 14.441406 9.2929688 L 14.4375 9.2929688 L 14.4375 9.296875 L 14.4375 9.3007812 L 14.4375 9.3046875 L 14.433594 9.3046875 C 14.433249 9.3086475 14.432978 9.3194617 14.433594 9.3242188 C 14.434694 9.3293887 14.439306 9.3416273 14.441406 9.3476562 C 14.475546 9.4435102 14.519856 9.5326687 14.570312 9.6210938 C 13.060985 9.6772227 11.550103 9.7340332 10.039062 9.7070312 C 8.8854277 9.7311913 8.7426287 9.7457772 7.5898438 9.7226562 C 6.1809928 9.6944022 4.7713073 9.5895725 3.3632812 9.5390625 C 2.6455143 9.4947875 1.9321573 9.4559912 1.2226562 9.3320312 C 1.0775963 9.3066913 0.93681075 9.2737175 0.79296875 9.2421875 C 0.68339575 9.2181675 0.57696375 9.1675625 0.46484375 9.1640625 C 0.45534125 9.1637675 0.4469205 9.1631244 0.4375 9.1640625 z M 26.101562 10.261719 C 26.421935 10.262719 26.847052 10.264625 27.410156 10.265625 L 27.363281 10.324219 C 27.155084 10.324141 26.946465 10.32378 26.738281 10.324219 C 26.541321 10.304782 26.331415 10.284335 26.101562 10.261719 z M 1.6054688 10.519531 L 1.609375 10.519531 L 1.609375 10.523438 L 1.6132812 10.523438 L 1.6171875 10.527344 C 1.6972525 10.550704 1.7840075 10.536839 1.8671875 10.542969 C 2.4886215 10.588549 2.0460769 10.570651 2.796875 10.582031 C 2.826361 10.582476 2.8552175 10.581624 2.8828125 10.582031 C 2.8808725 10.582666 2.8728928 10.585137 2.8710938 10.585938 L 2.8671875 10.589844 L 2.8632812 10.59375 L 2.859375 10.597656 L 2.8554688 10.601562 L 2.8515625 10.605469 L 2.8476562 10.609375 C 2.8469112 10.611225 2.845415 10.617226 2.84375 10.621094 L 2.84375 10.625 L 2.8398438 10.628906 C 2.8389063 10.638506 2.84176 10.655399 2.84375 10.667969 C 2.84506 10.676269 2.8461262 10.683206 2.8476562 10.691406 C 2.7473249 10.676266 2.6472077 10.658153 2.5507812 10.632812 C 2.6705045 10.748642 2.7850923 10.868332 2.8984375 10.992188 C 2.4807736 10.899807 2.061693 10.809507 1.6445312 10.714844 C 1.6360313 10.662604 1.6255103 10.613497 1.6132812 10.5625 C 1.6096165 10.547222 1.6081017 10.531862 1.6054688 10.519531 z M 2.953125 10.585938 C 3.4663837 10.593338 3.6636933 10.592536 4.2617188 10.597656 C 5.5762292 10.592856 6.8924894 10.597955 8.2070312 10.59375 C 8.0089935 10.63247 7.8400862 10.67355 7.6835938 10.808594 C 7.6673738 10.808835 7.6490325 10.808355 7.6328125 10.808594 C 6.3873905 10.820884 5.1429936 10.808141 3.8984375 10.757812 C 3.7326489 10.751112 3.5591055 10.750217 3.3867188 10.742188 C 3.2367112 10.688067 3.0637966 10.604807 2.953125 10.585938 z M 75.035156 11.28125 C 75.046826 11.280727 75.058642 11.28174 75.070312 11.28125 C 75.162072 11.37902 75.251997 11.476448 75.34375 11.574219 C 75.35903 11.590259 75.375285 11.605114 75.390625 11.621094 C 75.385225 11.621215 75.38041 11.620975 75.375 11.621094 C 75.261695 11.507671 75.148514 11.394619 75.035156 11.28125 z M 75.835938 11.300781 C 75.983446 11.315241 76.131115 11.336105 76.277344 11.359375 C 76.214364 11.435715 76.14444 11.51418 76.070312 11.601562 C 76.037913 11.60218 76.005016 11.604469 75.972656 11.605469 C 75.955067 11.505942 75.907353 11.402506 75.835938 11.300781 z M 69.117188 11.304688 C 69.342629 11.306988 69.567584 11.308088 69.792969 11.304688 C 69.916601 11.310188 70.040419 11.314182 70.164062 11.320312 C 69.991663 11.354962 69.820462 11.400993 69.652344 11.441406 C 69.210297 11.548504 68.936449 11.66726 68.710938 11.851562 C 68.60977 11.856063 68.511322 11.858761 68.410156 11.863281 C 68.615162 11.806061 68.879506 11.724974 69.015625 11.640625 C 69.103965 11.585885 69.168614 11.502854 69.246094 11.433594 C 69.202834 11.390604 69.160004 11.348153 69.117188 11.304688 z M 61.4375 11.382812 C 61.890148 11.387013 62.344216 11.389625 62.796875 11.390625 C 62.919951 11.393125 63.044608 11.392331 63.167969 11.394531 C 62.839613 11.422701 62.507869 11.448333 62.179688 11.476562 C 61.726369 11.515563 61.273981 11.570793 60.820312 11.605469 C 59.89878 11.675909 59.083158 11.708017 58.191406 11.746094 C 57.439062 11.737494 56.685767 11.728027 55.933594 11.710938 C 55.994144 11.704738 56.052725 11.697716 56.113281 11.691406 C 56.892843 11.630786 57.668357 11.534632 58.449219 11.492188 C 59.212134 11.421927 59.98252 11.443798 60.746094 11.398438 C 60.977494 11.383138 61.206152 11.380932 61.4375 11.382812 z M 72.753906 11.460938 C 72.862006 11.473638 72.970073 11.48682 73.078125 11.5 C 73.420742 11.54548 73.764438 11.59702 74.105469 11.652344 C 74.054919 11.654044 74.003686 11.65435 73.953125 11.65625 C 73.662236 11.66325 73.372877 11.670997 73.082031 11.679688 C 73.007831 11.658277 72.930498 11.639354 72.855469 11.621094 C 72.598981 11.558674 72.397857 11.519028 72.1875 11.484375 C 72.300423 11.487075 72.507949 11.476376 72.605469 11.472656 C 72.655149 11.469356 72.704268 11.464757 72.753906 11.460938 z M 13.71875 11.753906 C 14.239782 11.760706 14.760235 11.785049 15.28125 11.792969 C 15.611083 11.794469 15.943531 11.796275 16.273438 11.796875 C 16.295117 11.834575 16.322886 11.868251 16.347656 11.894531 C 16.395976 11.945811 16.482677 11.931149 16.550781 11.949219 C 17.674032 11.978099 18.799871 12.015489 19.921875 12.078125 C 19.496062 12.078268 19.066587 12.077709 18.640625 12.078125 C 18.483636 12.077992 18.32886 12.077906 18.171875 12.078125 C 17.291563 12.049205 16.410902 12.020369 15.53125 11.980469 C 14.937732 11.963249 14.343766 11.924801 13.75 11.925781 C 13.616631 11.926001 13.311864 11.938795 12.941406 11.953125 C 12.948006 11.944825 12.958244 11.934111 12.964844 11.925781 C 13.002324 11.878411 12.985571 11.819413 12.957031 11.757812 C 12.976481 11.758361 12.996175 11.761319 13.015625 11.761719 C 13.250776 11.766619 13.483567 11.750796 13.71875 11.753906 z M 31.539062 13.039062 C 32.381664 13.027802 44.33115 13.508479 44.832031 13.511719 C 45.252445 13.514419 45.923448 13.466522 46.34375 13.476562 C 46.43771 13.481562 56.46268 14.863624 56.609375 14.871094 C 56.170343 14.881844 46.251529 14.930556 45.8125 14.941406 C 45.507765 16.200176 42.433665 17.087656 42.042969 17.097656 C 42.028487 17.097219 42.010792 17.086683 42 17.078125 C 41.767917 16.845755 42.45052 14.582053 42.234375 14.3125 C 42.22227 14.300257 42.204874 14.293626 42.1875 14.292969 C 41.973166 14.279739 31.753241 13.054602 31.539062 13.039062 z M 77.925781 13.410156 C 77.929421 13.410118 77.931424 13.413799 77.933594 13.414062 L 77.9375 13.417969 L 77.941406 13.417969 L 77.941406 13.421875 L 77.945312 13.421875 L 77.945312 13.425781 L 77.941406 13.425781 L 77.941406 13.429688 C 77.938306 13.433087 77.932707 13.437986 77.929688 13.441406 C 77.923888 13.432306 77.919643 13.422562 77.914062 13.414062 C 77.916863 13.413953 77.922141 13.410195 77.925781 13.410156 z M 14.121094 13.609375 C 14.30901 13.620425 14.453382 13.628653 14.527344 13.632812 C 14.645302 13.639412 14.760941 13.645804 14.878906 13.652344 C 14.643432 13.680134 14.411247 13.710951 14.175781 13.738281 C 14.140851 13.696701 14.103881 13.655741 14.070312 13.613281 C 14.086232 13.612549 14.105174 13.610075 14.121094 13.609375 z M 14 13.617188 C 14.0038 13.617013 14.007761 13.6171 14.011719 13.617188 C 14.010067 13.617494 14.005326 13.620619 14.003906 13.621094 L 14 13.617188 z M 13.777344 13.625 C 13.760234 13.632 13.742902 13.638125 13.726562 13.640625 C 13.456572 13.681935 13.211706 13.693097 12.9375 13.710938 C 12.344128 13.749257 11.750712 13.766961 11.15625 13.769531 C 11.17232 13.755161 11.187075 13.737056 11.203125 13.722656 C 12.06154 13.701396 12.919529 13.66425 13.777344 13.625 z M 78.457031 13.960938 L 78.460938 13.960938 C 78.469437 13.960983 78.486754 13.962244 78.496094 13.964844 L 78.5 13.96875 L 78.503906 13.96875 L 78.507812 13.972656 L 78.511719 13.972656 L 78.511719 13.976562 L 78.507812 13.976562 L 78.503906 13.980469 C 78.49635 13.984851 78.484872 13.989037 78.476562 13.992188 C 78.469262 13.983487 78.464311 13.97746 78.457031 13.96875 L 78.457031 13.964844 L 78.457031 13.960938 z M 27.457031 14.5 C 27.611931 14.5011 27.781701 14.503206 27.957031 14.503906 C 27.84788 14.511006 27.597972 14.528929 26.921875 14.574219 C 26.533106 14.563959 26.142447 14.550276 25.753906 14.535156 C 26.321899 14.520866 26.888596 14.50598 27.457031 14.5 z M 19.632812 14.800781 C 20.04289 14.813071 20.453341 14.834395 20.863281 14.859375 C 20.524315 14.869075 20.186705 14.877032 19.847656 14.882812 C 19.537998 14.888112 19.227684 14.890725 18.917969 14.890625 C 19.156686 14.862135 19.394232 14.830411 19.632812 14.800781 z M 76.875 15.652344 C 76.763087 15.771531 76.650828 15.886606 76.546875 15.996094 C 76.546279 15.968044 76.547558 15.942242 76.546875 15.914062 C 76.612275 15.830753 76.675232 15.745123 76.738281 15.660156 C 76.783476 15.657157 76.829796 15.655343 76.875 15.652344 z M 74.507812 15.882812 C 74.516513 15.895132 74.525376 15.906979 74.535156 15.917969 C 74.520166 15.909869 74.506388 15.902161 74.492188 15.894531 C 74.497687 15.890531 74.502312 15.886832 74.507812 15.882812 z M 67.320312 16.09375 C 67.896912 16.12349 68.474745 16.144434 69.050781 16.183594 C 70.74119 16.298526 72.406661 16.572569 74.082031 16.804688 C 74.062261 16.823738 74.042618 16.844971 74.023438 16.863281 C 73.970017 16.856681 73.916817 16.84942 73.863281 16.84375 C 73.541831 16.8097 73.216547 16.786033 72.894531 16.757812 C 71.733855 16.665112 70.573014 16.580513 69.410156 16.519531 C 68.929236 16.494311 68.449476 16.481825 67.96875 16.453125 C 64.726846 16.259603 68.4624 16.415324 64.929688 16.289062 C 64.81558 16.285363 64.700014 16.281764 64.585938 16.277344 C 64.629778 16.226784 64.674737 16.175433 64.71875 16.125 C 65.554094 16.10079 66.25108 16.10256 67.320312 16.09375 z M 77.972656 16.355469 C 77.979456 16.355125 77.991124 16.354847 77.996094 16.355469 L 78 16.355469 L 78 16.359375 L 78.003906 16.359375 L 78.007812 16.363281 L 78.007812 16.367188 L 78.003906 16.367188 L 78.003906 16.371094 L 78 16.375 C 77.95262 16.42885 77.903781 16.48217 77.855469 16.535156 C 77.843189 16.525356 77.833849 16.516466 77.824219 16.503906 C 77.811299 16.487056 77.803498 16.453007 77.804688 16.429688 L 77.804688 16.425781 L 77.804688 16.421875 L 77.804688 16.417969 L 77.808594 16.414062 L 77.808594 16.410156 L 77.8125 16.40625 L 77.816406 16.402344 C 77.847586 16.379944 77.927425 16.357759 77.972656 16.355469 z M 79.71875 17.117188 L 79.722656 17.117188 C 79.715456 17.130927 79.68027 17.176749 79.65625 17.199219 L 79.652344 17.203125 L 79.648438 17.207031 C 79.636557 17.214531 79.623335 17.220493 79.609375 17.226562 C 79.645505 17.191022 79.681775 17.154423 79.71875 17.117188 z M 76.40625 17.398438 C 76.3378 17.467928 76.266731 17.535107 76.199219 17.605469 C 76.129569 17.605791 76.061767 17.606769 75.992188 17.605469 C 76.025908 17.564749 76.057444 17.522249 76.089844 17.480469 C 76.19332 17.448689 76.301274 17.425107 76.40625 17.398438 z M 56.269531 17.867188 C 56.628942 17.866294 58.22833 17.89053 59.300781 17.90625 C 59.418691 17.91739 59.534421 17.92652 59.652344 17.9375 C 59.175343 17.9327 58.699901 17.927131 58.222656 17.925781 C 57.474853 17.916281 56.728005 17.896144 55.980469 17.871094 C 56.077679 17.869994 56.172314 17.867388 56.269531 17.867188 z M 17.28125 19.238281 L 17.167969 19.371094 C 17.129569 19.370391 17.089178 19.371847 17.050781 19.371094 C 16.147599 19.323694 16.243307 19.336439 15.761719 19.292969 C 16.288321 19.282689 16.483719 19.268358 17.167969 19.242188 C 17.206338 19.239788 17.245189 19.240581 17.28125 19.238281 z M 51.742188 19.46875 C 51.819617 19.47145 51.927301 19.474949 52.09375 19.480469 C 51.532041 19.474569 51.71295 19.477856 51.742188 19.472656 L 51.742188 19.46875 z M 70.941406 29.5625 C 69.089321 29.621391 67.232947 29.957901 65.402344 30.179688 C 61.124444 30.524487 56.945909 31.544 52.734375 32.3125 C 48.425455 33.098772 48.77474 33.006609 44.527344 33.605469 C 44.053643 33.687724 43.578368 33.756156 43.101562 33.8125 C 42.343829 33.750445 41.583637 33.699884 40.828125 33.613281 C 39.879813 33.522271 38.925032 33.499823 37.972656 33.496094 C 37.180284 33.478704 36.38956 33.43701 35.597656 33.40625 C 34.790572 33.301871 33.984993 33.156929 33.167969 33.171875 C 32.056839 33.161355 30.942336 33.153275 29.835938 33.273438 C 29.426323 33.301698 29.021141 33.333027 28.617188 33.410156 C 28.065572 33.515471 28.538458 33.445696 28.046875 33.53125 C 27.990995 33.54095 27.935086 33.547018 27.878906 33.554688 L 27.75 33.714844 L 27.746094 33.714844 C 26.361181 33.661904 25.547515 33.633338 25.109375 33.617188 L 25.109375 33.613281 C 25.557076 33.627411 26.053902 33.640048 25.082031 33.585938 C 24.966874 33.470306 24.847598 33.359071 24.722656 33.253906 C 24.638446 33.183016 24.504511 33.235169 24.394531 33.230469 C 24.169043 33.220769 23.940506 33.214838 23.714844 33.210938 C 22.405632 33.188068 21.097952 33.196004 19.789062 33.152344 C 18.588883 33.162144 17.766635 33.159543 16.5625 33.195312 C 16.42531 33.182963 16.289422 33.17045 16.152344 33.15625 C 15.845672 33.12802 15.540411 33.104753 15.234375 33.070312 C 15.075373 33.052422 14.749685 32.891633 14.648438 32.914062 C 14.646638 32.91466 14.638379 32.917269 14.636719 32.917969 L 14.632812 32.921875 L 14.628906 32.921875 L 14.628906 32.925781 L 14.625 32.925781 L 14.625 32.929688 L 14.621094 32.929688 L 14.621094 32.933594 L 14.621094 32.9375 L 14.617188 32.9375 L 14.617188 32.941406 C 14.616843 32.945406 14.616571 32.956177 14.617188 32.960938 C 14.618287 32.966138 14.6229 32.978345 14.625 32.984375 C 14.65914 33.080225 14.70345 33.169387 14.753906 33.257812 C 13.244579 33.313943 11.733696 33.37075 10.222656 33.34375 C 9.0690216 33.36791 8.9262225 33.382505 7.7734375 33.359375 C 6.3645865 33.331125 4.954901 33.226291 3.546875 33.175781 C 2.829108 33.131511 2.115751 33.092711 1.40625 32.96875 C 1.26119 32.94341 1.1204045 32.910436 0.9765625 32.878906 C 0.8669895 32.854886 0.7605575 32.804291 0.6484375 32.800781 L 0.6484375 32.796875 C 0.5724175 32.794475 0.49921125 32.835669 0.42578125 32.855469 C 0.40898125 32.895999 0.37796625 32.936609 0.37890625 32.980469 C 0.37989625 33.026559 0.41390375 33.063789 0.43359375 33.105469 C 0.46421375 33.170309 0.49960375 33.230745 0.52734375 33.296875 C 0.63268087 33.548003 0.67660437 33.812204 0.71484375 34.078125 C 0.65042595 34.064595 0.58788777 34.053951 0.5234375 34.050781 C 0.4916812 34.080021 0.41982244 34.107309 0.390625 34.136719 L 0.38671875 34.140625 L 0.3828125 34.144531 L 0.37890625 34.148438 L 0.37890625 34.152344 L 0.37890625 34.15625 L 0.375 34.160156 L 0.37890625 34.164062 L 0.37890625 34.167969 L 0.37890625 34.171875 L 0.3828125 34.175781 L 0.3828125 34.179688 C 0.5102928 34.331282 0.64643313 34.475793 0.78515625 34.617188 C 0.80579285 34.800333 0.81385055 34.90234 0.82421875 35.191406 C 0.82729975 35.276336 0.776567 35.381577 0.8125 35.453125 C 0.815405 35.457925 0.8242956 35.468216 0.828125 35.472656 C 0.837879 35.483956 0.84583735 35.496633 0.85546875 35.507812 C 0.78308615 35.970295 0.6173644 35.843804 1.4882812 36.246094 C 1.4988313 36.258684 1.5092372 36.272856 1.5195312 36.285156 C 1.2951537 36.321766 1.0721206 36.368616 0.85546875 36.4375 C 0.78628735 36.4398 0.67565127 36.434095 0.62890625 36.453125 C 0.62704725 36.454095 0.6187625 36.459837 0.6171875 36.460938 L 0.61328125 36.464844 L 0.61328125 36.46875 L 0.609375 36.46875 L 0.609375 36.472656 L 0.609375 36.476562 L 0.609375 36.480469 L 0.609375 36.484375 L 0.609375 36.488281 C 0.60984982 36.489281 0.6125967 36.497597 0.61328125 36.5 C 0.6144405 36.50185 0.6197703 36.510112 0.62109375 36.511719 L 0.625 36.515625 L 0.62890625 36.519531 C 0.62044865 36.522606 0.60657552 36.528723 0.59765625 36.53125 L 0.59375 36.53125 L 0.58984375 36.53125 L 0.5859375 36.53125 L 0.58203125 36.53125 L 0.578125 36.53125 C 0.56997562 36.528054 0.55890705 36.523995 0.55078125 36.519531 C 0.6233968 36.592207 0.69446963 36.668011 0.765625 36.742188 C 0.87136578 36.913663 0.96275481 37.066469 1.0429688 37.203125 C 0.99530175 37.285685 0.9438288 37.372447 0.890625 37.460938 C 0.9240155 37.451538 0.9593062 37.440447 0.9921875 37.429688 C 0.9599911 37.464768 0.92709135 37.500427 0.89453125 37.535156 C 0.95683115 37.546916 1.1039207 37.513711 1.1757812 37.519531 C 1.1924263 37.520831 1.2099115 37.522137 1.2265625 37.523438 C 1.2904495 37.637434 1.3426047 37.733265 1.3867188 37.816406 C 1.0961663 37.783346 0.80982849 37.736256 0.52734375 37.660156 L 1.4414062 38.792969 C 1.4890892 38.797669 1.5380172 38.807674 1.5859375 38.808594 C 1.6816585 38.810394 1.77926 38.801581 1.875 38.800781 C 2.4744901 38.795781 3.0729986 38.784275 3.671875 38.765625 C 3.660809 38.776005 3.6477908 38.786505 3.6367188 38.796875 C 3.4876253 38.936521 3.2593324 39.148947 3.1484375 39.382812 C 2.8747649 39.374412 2.6005626 39.362384 2.328125 39.339844 C 2.294487 39.337044 1.8191078 39.281146 1.7382812 39.285156 C 1.6686072 39.288656 1.603571 39.310589 1.5351562 39.324219 L 0.07421875 41.035156 C 0.11935093 41.048796 0.15995495 41.071669 0.20703125 41.074219 C 0.29978785 41.079219 0.39569443 41.066124 0.48828125 41.058594 C 0.85096576 41.029074 0.87976595 41.01905 1.0703125 41 L -0.1328125 42.261719 C -0.0693516 42.279539 -0.00723159 42.312906 0.05859375 42.316406 C 0.28669229 42.328506 0.85755374 42.248652 1.0390625 42.226562 C 1.1324935 42.215193 1.2269044 42.202976 1.3203125 42.191406 L 0.09765625 43.695312 C 0.38154809 43.599472 0.67461253 43.532824 0.96875 43.480469 L -0.078125 44.738281 C 0.18279574 44.680461 0.6160261 44.582328 0.84375 44.542969 C 1.0827782 44.501659 1.3224043 44.472069 1.5625 44.4375 C 2.2779747 44.334474 2.8714661 44.246738 3.5976562 44.175781 C 3.9747522 44.138931 4.3527079 44.115188 4.7304688 44.085938 C 6.796226 43.933389 8.874133 44.050457 10.929688 44.28125 C 11.405048 44.37349 11.894276 44.38027 12.371094 44.460938 C 12.589765 44.497928 12.799413 44.578383 13.019531 44.605469 C 13.306988 44.640839 13.59737 44.635788 13.886719 44.648438 C 15.482392 44.718218 14.152675 44.648853 15.738281 44.738281 C 16.040547 44.751921 16.34203 44.770684 16.644531 44.777344 C 17.294728 44.791664 17.943412 44.780356 18.59375 44.785156 C 19.524688 44.792056 20.455759 44.80881 21.386719 44.8125 C 23.015857 44.84584 21.587822 44.829638 23.371094 44.804688 C 23.729362 44.799687 24.087071 44.807381 24.445312 44.800781 C 24.86889 44.792981 25.291252 44.768689 25.714844 44.761719 C 26.13897 44.754719 26.564097 44.758612 26.988281 44.757812 C 27.450095 44.749412 27.909278 44.742785 28.371094 44.734375 C 28.84891 44.726375 29.326926 44.721677 29.804688 44.710938 C 30.312725 44.699517 30.823943 44.676769 31.332031 44.667969 C 33.159919 44.636309 34.988402 44.64094 36.816406 44.65625 C 39.403234 44.55835 41.988683 44.590019 44.574219 44.699219 L 45.734375 44.71875 C 46.099181 44.73019 46.463191 44.74394 46.828125 44.75 C 47.223475 44.7566 47.620253 44.748706 48.015625 44.753906 C 48.400801 44.759006 48.786667 44.77975 49.171875 44.78125 C 51.478437 44.79025 50.686198 44.769409 50.347656 44.761719 C 50.529111 44.765219 50.941891 44.771316 51.746094 44.785156 C 53.942302 44.781656 56.133715 44.900302 58.328125 44.964844 C 59.434695 44.962844 60.541898 44.999017 61.648438 44.992188 C 62.167507 44.988988 62.688031 44.969937 63.207031 44.960938 C 64.655543 44.968438 66.098965 44.897524 67.546875 44.871094 C 67.786301 44.856134 68.026161 44.842435 68.265625 44.828125 C 68.509947 44.813525 68.755384 44.793486 69 44.785156 C 69.76881 44.758966 70.537436 44.796064 71.304688 44.839844 C 71.979162 44.897134 72.655489 44.912651 73.332031 44.925781 C 73.890925 44.950301 74.449258 44.890085 75.007812 44.890625 C 75.436312 44.872285 75.852002 44.988075 76.277344 45.003906 C 76.589744 45.007506 76.326745 45.011805 76.695312 44.984375 C 76.777412 44.978275 76.860006 44.98098 76.941406 44.96875 C 77.036886 44.95439 77.152509 44.964354 77.226562 44.902344 C 77.635655 44.560031 77.983449 44.155762 78.363281 43.78125 L 78.441406 43.6875 C 78.696566 43.31553 79.005017 42.977527 79.207031 42.574219 L 79.210938 42.570312 L 79.210938 42.566406 L 79.210938 42.5625 L 79.210938 42.558594 L 79.210938 42.554688 L 79.210938 42.550781 L 79.207031 42.550781 L 79.207031 42.546875 L 79.203125 42.542969 L 79.199219 42.542969 L 79.195312 42.539062 L 79.191406 42.535156 C 79.153696 42.518796 79.073628 42.521855 79.03125 42.515625 C 78.95467 42.504365 78.874213 42.514661 78.796875 42.511719 C 78.724405 42.508919 78.681322 42.505906 78.652344 42.503906 C 80.333746 40.978424 80.792945 41.427377 79.953125 40.753906 C 79.939115 40.750006 79.92032 40.749794 79.90625 40.746094 C 79.520514 40.645201 79.116973 40.617277 78.738281 40.488281 C 78.541941 40.421401 78.356779 40.322763 78.164062 40.246094 C 78.142342 40.230774 78.1172 40.220531 78.09375 40.207031 C 78.379001 39.900001 78.655862 39.584555 78.902344 39.246094 L 78.90625 39.246094 L 78.90625 39.242188 C 78.909865 39.2342 78.912473 39.220964 78.914062 39.214844 C 78.914762 39.210746 78.913991 39.203437 78.914062 39.199219 C 78.913799 39.194965 78.911132 39.183966 78.910156 39.179688 C 78.908804 39.175421 78.908398 39.168258 78.90625 39.164062 C 78.93449 39.162262 78.960041 39.161956 78.988281 39.160156 C 79.347179 39.126416 79.294668 39.130679 79.625 39.105469 C 79.69648 39.099969 79.768344 39.095054 79.839844 39.089844 C 79.891064 39.086044 79.944468 39.097045 79.992188 39.078125 C 80.019068 39.06745 80.071944 39.048166 80.097656 39.027344 C 80.099258 39.025829 80.100225 39.021069 80.101562 39.019531 L 80.101562 39.015625 L 80.105469 39.011719 L 80.105469 39.007812 L 80.109375 39.003906 L 80.109375 39 L 80.109375 38.996094 L 80.109375 38.992188 L 80.105469 38.988281 L 80.105469 38.984375 C 79.667333 38.435089 79.154355 37.947732 78.679688 37.429688 C 78.586867 37.411487 78.429175 37.380093 78.28125 37.351562 C 78.26085 37.316733 78.240546 37.284366 78.222656 37.253906 C 78.305166 37.143287 78.394482 37.026602 78.488281 36.898438 C 78.519181 36.897238 78.551131 36.895831 78.582031 36.894531 C 78.552681 36.881161 78.532547 36.870631 78.523438 36.863281 L 78.519531 36.859375 L 78.519531 36.855469 L 78.519531 36.851562 L 78.523438 36.847656 L 78.527344 36.847656 L 78.53125 36.847656 L 78.535156 36.847656 L 78.535156 36.84375 C 78.612666 36.8684 78.699614 36.899844 78.742188 36.902344 C 78.744088 36.902319 78.752226 36.902527 78.753906 36.902344 L 78.757812 36.902344 L 78.761719 36.902344 L 78.765625 36.902344 L 78.765625 36.898438 L 78.769531 36.898438 L 78.769531 36.894531 L 78.769531 36.890625 C 78.768882 36.888825 78.766625 36.880926 78.765625 36.878906 L 78.761719 36.875 L 78.757812 36.871094 C 78.842872 36.880794 78.925717 36.888696 78.957031 36.878906 L 78.960938 36.875 L 78.964844 36.875 L 78.964844 36.871094 L 78.96875 36.871094 L 78.96875 36.867188 L 78.96875 36.863281 L 78.96875 36.859375 L 78.964844 36.855469 L 78.964844 36.851562 C 78.885174 36.760332 78.802955 36.669147 78.722656 36.578125 C 78.743046 36.550155 78.764186 36.520957 78.785156 36.492188 L 78.789062 36.488281 L 78.789062 36.484375 L 78.792969 36.480469 L 78.792969 36.476562 L 78.792969 36.472656 L 78.792969 36.46875 L 78.792969 36.464844 L 78.789062 36.460938 L 78.789062 36.457031 L 78.789062 36.453125 C 78.788004 36.451296 78.782623 36.44323 78.78125 36.441406 C 78.757809 36.415949 78.705005 36.391792 78.640625 36.367188 C 79.145874 35.883721 79.571358 35.31163 79.847656 35.03125 C 79.883216 34.99516 79.880486 34.93346 79.878906 34.882812 C 79.877506 34.839172 79.849277 34.799383 79.835938 34.757812 C 79.807537 34.724542 79.788126 34.683492 79.753906 34.65625 C 79.628737 34.5566 79.361401 34.55912 79.148438 34.519531 C 79.761987 34.033174 80.249712 33.465022 79.675781 33.121094 C 79.514221 33.098934 79.363313 33.045563 79.207031 33 C 78.975409 32.97715 78.745639 32.914356 78.511719 32.910156 C 78.146081 32.898336 77.788665 32.820711 77.421875 32.832031 C 76.927229 32.821241 76.434634 32.873344 75.941406 32.902344 C 75.479632 32.919324 75.023006 32.977334 74.5625 33.011719 C 74.12702 33.037599 73.691555 33.049667 73.257812 32.992188 C 72.749516 32.952258 72.239423 32.93731 71.730469 32.90625 C 71.155729 32.85774 70.57975 32.938912 70.003906 32.945312 C 69.35873 32.960673 68.715583 33.030123 68.070312 33.046875 C 67.459622 33.079795 66.849687 33.072879 66.238281 33.074219 C 65.661383 33.080119 65.090349 33.181303 64.511719 33.167969 C 63.806481 33.158869 63.106626 33.265259 62.402344 33.292969 C 61.48808 33.330459 62.485204 33.279466 61.578125 33.347656 C 61.295396 33.368906 61.009839 33.379421 60.726562 33.394531 C 60.634313 33.285516 60.538348 33.17524 60.441406 33.070312 L 60.4375 33.066406 L 60.433594 33.066406 L 60.429688 33.066406 L 60.425781 33.070312 L 60.421875 33.070312 L 60.417969 33.074219 L 60.414062 33.078125 C 60.402102 33.064975 60.390826 33.052242 60.378906 33.039062 C 60.301986 33.065283 60.227157 33.096978 60.148438 33.117188 C 59.962676 33.164878 59.198849 33.304913 59.105469 33.320312 C 58.074543 33.490327 57.034894 33.595746 55.996094 33.703125 C 55.406879 33.758085 54.820066 33.811788 54.230469 33.863281 C 53.823608 33.884406 53.415093 33.896744 53.007812 33.910156 C 57.567899 33.105787 62.126837 32.283733 66.71875 31.683594 C 67.400364 31.611734 68.080105 31.540606 68.761719 31.46875 C 69.375323 31.41291 69.992455 31.362781 70.605469 31.300781 C 71.750937 31.184921 72.914544 30.963907 74.066406 31.148438 L 72.792969 29.609375 C 72.177071 29.552546 71.558768 29.54287 70.941406 29.5625 z M 0.890625 37.460938 C 0.881067 37.463637 0.87289535 37.46625 0.86328125 37.46875 C 0.86278487 37.49206 0.8513496 37.54092 0.8515625 37.5625 L 0.8515625 37.566406 L 0.8515625 37.570312 L 0.8515625 37.574219 L 0.85546875 37.574219 L 0.85546875 37.570312 L 0.859375 37.570312 C 0.86982981 37.559244 0.88001098 37.546255 0.890625 37.535156 L 0.88671875 37.535156 L 0.88671875 37.53125 L 0.8828125 37.53125 L 0.87890625 37.527344 L 0.875 37.527344 L 0.87109375 37.523438 L 0.8671875 37.519531 L 0.8671875 37.515625 L 0.8671875 37.511719 L 0.8671875 37.507812 L 0.8671875 37.503906 L 0.8671875 37.5 L 0.87109375 37.496094 L 0.87109375 37.492188 C 0.87749375 37.481597 0.8843065 37.471448 0.890625 37.460938 z M 26.285156 33.894531 C 26.605529 33.895531 27.030646 33.897438 27.59375 33.898438 L 27.546875 33.957031 C 27.338678 33.956953 27.130059 33.956592 26.921875 33.957031 C 26.724915 33.937594 26.515009 33.917147 26.285156 33.894531 z M 1.7890625 34.152344 L 1.7929688 34.152344 L 1.7929688 34.15625 L 1.796875 34.15625 L 1.8007812 34.160156 C 1.8808463 34.183516 1.9676012 34.169651 2.0507812 34.175781 C 2.6722152 34.221361 2.2296706 34.203464 2.9804688 34.214844 C 3.0099547 34.215289 3.0388113 34.214437 3.0664062 34.214844 C 3.0644663 34.215479 3.0564865 34.21795 3.0546875 34.21875 L 3.0507812 34.222656 L 3.046875 34.226562 L 3.0429688 34.230469 L 3.0390625 34.234375 L 3.0351562 34.238281 L 3.03125 34.242188 C 3.030505 34.244038 3.0251025 34.253945 3.0234375 34.257812 L 3.0234375 34.261719 C 3.0225001 34.271319 3.0253538 34.288211 3.0273438 34.300781 C 3.0286538 34.309081 3.02972 34.316019 3.03125 34.324219 C 2.9309186 34.309079 2.8308015 34.290965 2.734375 34.265625 C 2.8540982 34.381455 2.968686 34.501145 3.0820312 34.625 C 2.6643674 34.53262 2.2452867 34.442319 1.828125 34.347656 C 1.819625 34.295416 1.809104 34.246309 1.796875 34.195312 C 1.7932103 34.180034 1.7916955 34.164675 1.7890625 34.152344 z M 3.1367188 34.21875 C 3.6499774 34.22615 3.8472871 34.225349 4.4453125 34.230469 C 5.759823 34.225669 7.0760832 34.230767 8.390625 34.226562 C 8.1925872 34.265282 8.02368 34.306362 7.8671875 34.441406 C 7.8509675 34.441647 7.8326262 34.441167 7.8164062 34.441406 C 6.5709842 34.453696 5.3265873 34.440954 4.0820312 34.390625 C 3.9162427 34.383925 3.7426992 34.38303 3.5703125 34.375 C 3.4203049 34.32088 3.2473904 34.23762 3.1367188 34.21875 z M 75.21875 34.914062 C 75.23042 34.913539 75.242236 34.914553 75.253906 34.914062 C 75.345666 35.011832 75.435591 35.10926 75.527344 35.207031 C 75.542624 35.223071 75.558879 35.237926 75.574219 35.253906 C 75.568819 35.254027 75.564004 35.253787 75.558594 35.253906 C 75.445289 35.140483 75.332108 35.027432 75.21875 34.914062 z M 76.019531 34.933594 C 76.167039 34.948054 76.314709 34.968918 76.460938 34.992188 C 76.397958 35.068528 76.328033 35.146993 76.253906 35.234375 C 76.221506 35.234993 76.18861 35.237281 76.15625 35.238281 C 76.138661 35.138754 76.090947 35.035319 76.019531 34.933594 z M 69.300781 34.9375 C 69.526222 34.9398 69.751177 34.9409 69.976562 34.9375 C 70.100195 34.943 70.224012 34.946995 70.347656 34.953125 C 70.175256 34.987775 70.004056 35.033806 69.835938 35.074219 C 69.39389 35.181317 69.120043 35.300072 68.894531 35.484375 C 68.793364 35.488875 68.694916 35.491574 68.59375 35.496094 C 68.798756 35.438874 69.0631 35.357786 69.199219 35.273438 C 69.287559 35.218697 69.352208 35.135666 69.429688 35.066406 C 69.386427 35.023416 69.343598 34.980966 69.300781 34.9375 z M 61.621094 35.015625 C 62.073742 35.019825 62.52781 35.022437 62.980469 35.023438 C 63.103545 35.025937 63.228202 35.025144 63.351562 35.027344 C 63.023207 35.055514 62.691462 35.081145 62.363281 35.109375 C 61.909963 35.148375 61.457574 35.203605 61.003906 35.238281 C 60.082373 35.308721 59.266752 35.340829 58.375 35.378906 C 57.622656 35.370306 56.869361 35.36084 56.117188 35.34375 C 56.177737 35.33755 56.236319 35.330529 56.296875 35.324219 C 57.076437 35.263599 57.85195 35.167444 58.632812 35.125 C 59.395727 35.05474 60.166113 35.07661 60.929688 35.03125 C 61.161088 35.01595 61.389746 35.013745 61.621094 35.015625 z M 72.9375 35.09375 C 73.0456 35.10645 73.153667 35.119632 73.261719 35.132812 C 73.604336 35.178292 73.948031 35.229832 74.289062 35.285156 C 74.238512 35.286856 74.18728 35.287163 74.136719 35.289062 C 73.84583 35.296062 73.556471 35.30381 73.265625 35.3125 C 73.191425 35.29109 73.114092 35.272166 73.039062 35.253906 C 72.782574 35.191486 72.581451 35.15184 72.371094 35.117188 C 72.484017 35.119887 72.691542 35.109189 72.789062 35.105469 C 72.838742 35.102169 72.887862 35.09757 72.9375 35.09375 z M 13.902344 35.386719 C 14.423376 35.393519 14.943829 35.417861 15.464844 35.425781 C 15.794677 35.427281 16.127125 35.429088 16.457031 35.429688 C 16.478711 35.467388 16.50648 35.501064 16.53125 35.527344 C 16.57957 35.578624 16.666271 35.563961 16.734375 35.582031 C 17.857626 35.610911 18.983465 35.648302 20.105469 35.710938 C 19.679656 35.711081 19.250181 35.710521 18.824219 35.710938 C 18.66723 35.710805 18.512454 35.710719 18.355469 35.710938 C 17.475157 35.682018 16.594496 35.653181 15.714844 35.613281 C 15.121326 35.596061 14.52736 35.557614 13.933594 35.558594 C 13.800225 35.558814 13.495458 35.571608 13.125 35.585938 C 13.1316 35.577638 13.141838 35.566924 13.148438 35.558594 C 13.185918 35.511224 13.169165 35.452226 13.140625 35.390625 C 13.160075 35.391174 13.179769 35.394131 13.199219 35.394531 C 13.43437 35.399431 13.667161 35.383609 13.902344 35.386719 z M 78.097656 37.046875 C 78.103256 37.046655 78.112848 37.046348 78.117188 37.046875 L 78.121094 37.050781 L 78.125 37.050781 L 78.125 37.054688 L 78.128906 37.054688 L 78.128906 37.058594 L 78.125 37.058594 L 78.125 37.0625 C 78.1219 37.0659 78.116301 37.070799 78.113281 37.074219 C 78.107481 37.065119 78.103236 37.055375 78.097656 37.046875 z M 14.304688 37.242188 C 14.492603 37.253237 14.636975 37.261465 14.710938 37.265625 C 14.828895 37.272225 14.944535 37.278616 15.0625 37.285156 C 14.827026 37.312946 14.594841 37.343764 14.359375 37.371094 C 14.324445 37.329514 14.287475 37.288554 14.253906 37.246094 C 14.269826 37.245362 14.288767 37.242887 14.304688 37.242188 z M 14.183594 37.25 C 14.191194 37.24965 14.199411 37.25035 14.207031 37.25 L 14.203125 37.253906 C 14.201471 37.254213 14.193136 37.253656 14.191406 37.253906 L 14.1875 37.253906 L 14.183594 37.25 z M 13.960938 37.257812 C 13.943827 37.264812 13.926496 37.270937 13.910156 37.273438 C 13.640165 37.314748 13.3953 37.32591 13.121094 37.34375 C 12.527722 37.38207 11.934306 37.399774 11.339844 37.402344 C 11.355914 37.387974 11.370669 37.369869 11.386719 37.355469 C 12.245134 37.334209 13.103123 37.297062 13.960938 37.257812 z M 45.167969 37.328125 C 45.588383 37.330825 46.009385 37.349335 46.429688 37.359375 C 46.523648 37.364375 46.654086 37.371436 46.800781 37.378906 C 46.361749 37.389656 45.919498 37.399306 45.480469 37.410156 C 45.175734 37.417656 44.804759 37.4275 44.414062 37.4375 C 44.043337 37.4263 43.671416 37.412457 43.300781 37.398438 C 43.086447 37.385207 42.874334 37.371009 42.660156 37.355469 C 43.502757 37.344209 44.667088 37.324885 45.167969 37.328125 z M 78.640625 37.59375 L 78.644531 37.59375 C 78.653031 37.593795 78.670348 37.595056 78.679688 37.597656 L 78.683594 37.601562 L 78.6875 37.601562 L 78.691406 37.605469 L 78.695312 37.605469 L 78.695312 37.609375 L 78.691406 37.609375 C 78.681706 37.616275 78.671236 37.6208 78.660156 37.625 C 78.652856 37.6163 78.647905 37.610272 78.640625 37.601562 L 78.640625 37.597656 L 78.640625 37.59375 z M 27.640625 38.132812 C 27.795525 38.133913 27.965295 38.136019 28.140625 38.136719 C 28.031474 38.143819 27.781566 38.161741 27.105469 38.207031 C 26.7167 38.196771 26.326041 38.183089 25.9375 38.167969 C 26.505493 38.153679 27.07219 38.138793 27.640625 38.132812 z M 19.816406 38.433594 C 20.226483 38.445884 20.636935 38.467208 21.046875 38.492188 C 20.707909 38.501888 20.370299 38.509845 20.03125 38.515625 C 19.721592 38.520925 19.411277 38.523537 19.101562 38.523438 C 19.34028 38.494948 19.577825 38.463224 19.816406 38.433594 z M 77.058594 39.285156 C 76.946681 39.404343 76.834422 39.519418 76.730469 39.628906 C 76.729873 39.600856 76.731152 39.575055 76.730469 39.546875 C 76.795869 39.463565 76.858826 39.377936 76.921875 39.292969 C 76.96707 39.289969 77.013389 39.288156 77.058594 39.285156 z M 74.691406 39.515625 C 74.700106 39.527945 74.70897 39.539791 74.71875 39.550781 C 74.70376 39.542681 74.689981 39.534974 74.675781 39.527344 C 74.681281 39.523344 74.685906 39.519645 74.691406 39.515625 z M 67.503906 39.726562 C 68.080506 39.756302 68.658339 39.777246 69.234375 39.816406 C 70.924784 39.931338 72.590255 40.205381 74.265625 40.4375 C 74.245855 40.45655 74.226211 40.477784 74.207031 40.496094 C 74.153611 40.489494 74.100411 40.482233 74.046875 40.476562 C 73.725425 40.442512 73.400141 40.418845 73.078125 40.390625 C 71.917449 40.297925 70.756608 40.213326 69.59375 40.152344 C 69.11283 40.127124 68.63307 40.114638 68.152344 40.085938 C 64.91044 39.892415 68.645993 40.048137 65.113281 39.921875 C 64.999174 39.918175 64.883607 39.914576 64.769531 39.910156 C 64.813371 39.859596 64.858331 39.808245 64.902344 39.757812 C 65.737688 39.733603 66.434673 39.735372 67.503906 39.726562 z M 78.15625 39.988281 C 78.16305 39.987937 78.174717 39.987659 78.179688 39.988281 L 78.183594 39.988281 L 78.183594 39.992188 L 78.1875 39.992188 L 78.191406 39.996094 L 78.191406 40 L 78.1875 40 L 78.1875 40.003906 L 78.183594 40.007812 C 78.136214 40.061662 78.087375 40.114983 78.039062 40.167969 C 78.026782 40.158169 78.017443 40.149279 78.007812 40.136719 L 78.003906 40.132812 C 77.993774 40.114688 77.98724 40.082905 77.988281 40.0625 L 77.988281 40.058594 L 77.988281 40.054688 L 77.988281 40.050781 L 77.992188 40.046875 L 77.992188 40.042969 L 77.996094 40.039062 L 78 40.035156 C 78.03118 40.012756 78.111019 39.990571 78.15625 39.988281 z M 79.902344 40.75 L 79.90625 40.75 C 79.89905 40.76374 79.863864 40.809561 79.839844 40.832031 L 79.839844 40.835938 L 79.835938 40.839844 L 79.832031 40.839844 C 79.820151 40.847344 79.806929 40.853305 79.792969 40.859375 C 79.829099 40.823835 79.865369 40.787235 79.902344 40.75 z M 76.589844 41.03125 C 76.521394 41.10074 76.450324 41.167919 76.382812 41.238281 C 76.313163 41.238603 76.24536 41.239581 76.175781 41.238281 C 76.209501 41.197561 76.241038 41.155061 76.273438 41.113281 C 76.376914 41.081502 76.484868 41.057919 76.589844 41.03125 z M 56.453125 41.5 C 56.812536 41.499106 58.411924 41.523343 59.484375 41.539062 C 59.602285 41.550202 59.718015 41.559332 59.835938 41.570312 C 59.358936 41.565512 58.883495 41.559944 58.40625 41.558594 C 57.658447 41.549094 56.911598 41.528956 56.164062 41.503906 C 56.261272 41.502806 56.355908 41.5002 56.453125 41.5 z M 17.464844 42.871094 L 17.351562 43.003906 C 17.313163 43.003203 17.272772 43.004659 17.234375 43.003906 C 16.331193 42.956506 16.4269 42.969251 15.945312 42.925781 C 16.471914 42.915501 16.667313 42.90117 17.351562 42.875 C 17.389932 42.8726 17.428782 42.873394 17.464844 42.871094 z M 51.925781 43.101562 C 52.003211 43.104262 52.110895 43.107761 52.277344 43.113281 C 51.715635 43.107381 51.896543 43.110669 51.925781 43.105469 L 51.925781 43.101562 z " />
</svg>
