<svg xmlns="http://www.w3.org/2000/svg" fill="currentColor" class="hamburger" viewBox="0 0 80 30"><path d="M.621-15.02c-.066.007-.131.042-.195.06-.017.04-.048.08-.047.124 0 .046.035.083.055.125.03.065.066.125.093.191.106.252.15.516.188.782a1 1 0 0 0-.192-.028c-.031.03-.103.057-.132.086l-.004.004-.004.004-.004.004v.008l-.004.004.004.004v.007l.004.004v.004q.192.226.402.438c.02.183.029.285.04.574.002.085-.048.19-.012.262l.015.02q.014.016.027.034c-.072.463-.238.336.633.739l.032.039a5 5 0 0 0-.665.152c-.069.002-.18-.003-.226.016-.002 0-.01.006-.012.008l-.004.003v.004H.61v.024l.004.004v.004l.004.004c.002.001.007.01.008.011l.004.004c-.009.003-.022.01-.031.012h-.02c-.008-.003-.023-.015-.031-.02H.543q.112.114.223.23.157.257.277.462l-.152.258.101-.032-.097.106c.062.012.209-.022.28-.016l.052.004q.094.17.16.293a6 6 0 0 1-.86-.156l.914 1.133c.048.004.097.014.145.015.096.002.193-.007.289-.008q.9-.007 1.797-.035l-.035.031c-.15.14-.378.353-.489.586q-.41-.01-.82-.043c-.034-.002-.509-.058-.59-.054-.07.003-.134.025-.203.039l-1.46 1.71c.044.014.085.037.132.04.093.005.189-.008.281-.016.363-.03.392-.04.582-.058L-.133-5.555c.064.018.126.052.192.055.228.012.799-.068.98-.09l.281-.035L.098-4.121c.284-.096.577-.163.87-.215L-.077-3.078c.26-.058.694-.156.922-.195.239-.042.478-.071.719-.106.715-.103 1.308-.19 2.035-.262.377-.036.755-.06 1.132-.09 2.066-.152 4.144-.035 6.2.196.475.092.964.099 1.441.18.219.037.428.117.649.144.287.035.577.03.867.043 1.595.07.266 0 1.851.09.303.014.604.032.907.039.65.014 1.298.003 1.949.008.93.007 1.862.023 2.793.027 1.629.033.2.017 1.984-.008.358-.005.716.003 1.074-.004.424-.007.846-.032 1.27-.039s.85-.003 1.273-.004l1.383-.023c.478-.008.956-.013 1.434-.023.508-.012 1.019-.035 1.527-.043 1.828-.032 3.656-.027 5.484-.012a97 97 0 0 1 7.758.043l1.16.02c.365.01.73.025 1.094.03.395.007.792 0 1.188.005.385.005.77.025 1.156.027 2.306.009 1.514-.012 1.176-.02l1.398.024c1.651-.003 3.3.064 4.95.125l-1.383.363c-2.588.544-5.196.967-7.793 1.461-3.6.619-7.218 1.186-10.875 1.305-4.417.11-8.837.021-13.254.078-4.681.062-9.362.147-14.043.168C6.986.45 4.606.493 2.262.164l1.57 1.899c2.293.207 4.607.091 6.906.03 4.674-.142 9.349-.174 14.024-.187 4.42-.04 8.842-.009 13.261-.074C41.708 1.69 45.38 1.191 49.02.617c2.604-.492 5.236-.824 7.808-1.469a89 89 0 0 1 7.942-2.02c.925-.02 1.85-.056 2.777-.073l.719-.043c.244-.015.49-.035.734-.043.769-.026 1.537.01 2.305.054.674.058 1.35.073 2.027.086.559.025 1.117-.035 1.676-.035.428-.018.844.098 1.27.114.312.003.049.007.417-.02.082-.006.165-.003.246-.016.096-.014.212-.004.286-.066.409-.342.756-.747 1.136-1.121l.078-.094c.256-.372.564-.71.766-1.113l.004-.004v-.02h-.004v-.004l-.004-.003H79.2l-.004-.004-.004-.004c-.037-.017-.117-.014-.16-.02-.076-.011-.157 0-.234-.004-.073-.002-.116-.005-.145-.008 1.682-1.525 2.14-1.076 1.301-1.75l-.047-.007c-.385-.101-.789-.13-1.168-.258-.196-.067-.381-.166-.574-.242-.022-.016-.047-.026-.07-.04.285-.306.562-.622.808-.96l.004-.004v-.004l.008-.024a.1.1 0 0 0-.004-.043l-.004-.007.082-.004c.36-.034.307-.03.637-.055l.215-.016c.051-.003.104.008.152-.011a.5.5 0 0 0 .106-.055l.004-.004V-8.8l.003-.004v-.004l.004-.004v-.011l-.004-.004v-.004c-.438-.55-.95-1.037-1.425-1.555-.093-.018-.25-.05-.399-.078l-.058-.098q.123-.164.265-.355l.094-.004a.3.3 0 0 1-.059-.031l-.003-.004v-.008l.003-.004h.004l.004-.004h.004c.078.025.165.056.207.059h.02l.004-.004v-.004h.004v-.008l-.004-.011-.004-.004-.004-.004c.085.01.168.017.199.008l.004-.004h.004v-.004h.004v-.012l-.004-.004v-.004l-.242-.273.062-.086.004-.004v-.004l.004-.004v-.015l-.004-.004v-.008l-.004-.004a.4.4 0 0 0-.144-.082c.505-.484.93-1.056 1.207-1.336.035-.036.032-.098.03-.149 0-.043-.029-.083-.042-.124-.028-.034-.048-.075-.082-.102-.125-.1-.393-.097-.606-.137.614-.486 1.102-1.054.528-1.398-.162-.022-.313-.076-.469-.121-.232-.023-.461-.086-.695-.09-.366-.012-.723-.09-1.09-.078-.495-.011-.987.041-1.48.07-.462.017-.919.075-1.38.11-.435.025-.87.037-1.304-.02-.508-.04-1.019-.055-1.528-.086-.574-.049-1.15.033-1.726.039-.645.015-1.288.085-1.934.102-.61.032-1.22.026-1.832.027-.577.006-1.148.107-1.726.094-.706-.01-1.405.097-2.11.125-.914.037.083-.014-.824.054-.283.022-.568.032-.851.047a10 10 0 0 0-.286-.324l-.004-.004h-.007l-.004.004h-.004l-.004.004-.004.004-.035-.04c-.077.027-.152.059-.23.079-.186.048-.95.188-1.044.203-1.03.17-2.07.275-3.109.383-.59.055-1.176.108-1.766.16-.621.032-1.244.047-1.867.07-.383.014-.769.031-1.152.043q-.051-.002-.102-.008c-.1-.007-.197-.027-.297-.035-.263-.02-.529-.005-.792-.027-.3-.004-.603-.02-.903-.012-.295.009-.427.025-.726.04l-.13.003.16-.23.005-.004.004-.004v-.016h-.004v-.004h-.004l-.004-.004-.059.082-.027.008.078-.09c-.047-.006-.17.026-.226.028-.435.014-.867.035-1.301.055-.99.014-1.978.063-2.965.12l-.332-.023c-.92-.083-1.84-.137-2.758-.242a31 31 0 0 0-2.855-.117c-.793-.018-1.583-.06-2.375-.09-.807-.104-1.613-.25-2.43-.234-1.111-.011-2.226-.019-3.332.101-.41.028-.815.06-1.219.137-.551.105-.079.035-.57.12q-.084.014-.168.024l-.129.16h-.004c-1.385-.052-2.198-.081-2.637-.097v-.004c.448.014.945.027-.027-.027a6 6 0 0 0-.36-.332c-.084-.071-.217-.02-.327-.024q-.34-.014-.68-.02c-1.31-.022-2.617-.014-3.926-.058-1.2.01-2.022.007-3.227.043l-.41-.04c-.306-.027-.612-.05-.918-.085-.159-.018-.484-.179-.586-.156l-.011.004-.004.004h-.004v.003h-.004v.004h-.004v.004l-.004.004v.024l.008.023q.052.142.129.274c-1.51.056-3.02.112-4.531.085-1.154.025-1.297.04-2.45.016-1.408-.028-2.818-.133-4.226-.184-.718-.044-1.431-.083-2.14-.207-.146-.025-.287-.058-.43-.09-.11-.023-.216-.074-.329-.078zm.27 4.665-.028.007c0 .024-.012.073-.011.094v.012h.003v-.004H.86l.032-.035-.004-.004H.883l-.004-.004H.875l-.004-.004-.004-.004v-.019l.004-.004v-.004zm25.394-3.567 1.309.004-.047.059h-.625zm-24.496.258h.004v.004h.004l.004.004c.08.023.167.01.25.015.621.046.179.028.93.04h.085l-.011.003-.004.004-.004.004-.004.004-.004.004-.004.004-.004.004c0 .003-.006.01-.008.015v.004l.004.04.004.023q-.15-.021-.297-.059.18.174.348.36-.628-.137-1.254-.278a2 2 0 0 0-.031-.152q-.005-.023-.008-.043m1.348.066c.513.008.71.007 1.308.012 1.315-.005 2.631 0 3.946-.004-.198.039-.367.08-.524.215h-.05c-1.246.012-2.49 0-3.735-.05-.166-.007-.34-.008-.512-.016-.15-.055-.323-.138-.433-.157m72.082.696h.035q.137.146.273.293l.047.046h-.015zm.8.02q.222.022.442.058-.095.113-.207.242-.048.001-.098.004a.8.8 0 0 0-.136-.305m-6.718.003q.337.005.676 0l.37.016c-.172.034-.343.08-.511.12-.442.108-.716.227-.941.411l-.301.012c.205-.058.47-.139.605-.223.089-.055.153-.138.23-.207zm-7.68.078q.68.006 1.36.008.185.003.37.004l-.988.082c-.453.039-.905.094-1.36.129-.92.07-1.736.102-2.628.14q-1.129-.01-2.258-.035l.18-.02c.78-.06 1.555-.156 2.336-.198.763-.07 1.533-.049 2.297-.094a9 9 0 0 1 .691-.016m11.316.078.325.04q.514.068 1.027.152l-.152.004q-.435.01-.871.023a8.606 8.606 0 0 0-.895-.195c.113.002.32-.008.418-.012q.075-.005.148-.012m-59.035.293c.521.007 1.042.031 1.563.04l.992.003c.022.038.05.072.074.098.049.051.135.037.203.055 1.124.029 2.25.066 3.371.129h-1.75c-.88-.03-1.76-.058-2.64-.098-.594-.017-1.188-.056-1.781-.055-.134 0-.439.013-.809.028l.023-.028c.038-.047.021-.106-.007-.168.02 0 .039.004.058.004.235.005.468-.01.703-.008m64.196 1.66h.02l.003.004h.004v.004h.004v.004h-.004v.004l-.012.012zm-63.793.196c.188.01.332.02.406.023l.351.02-.703.086q-.054-.062-.105-.125zm-.121.008h.02l-.005.004h-.011zm-.223.007a.2.2 0 0 1-.05.016c-.27.041-.516.053-.79.07q-.89.056-1.781.059c.016-.014.03-.033.047-.047.858-.021 1.716-.058 2.574-.098m31.207.07c.42.003.841.022 1.262.032l.37.02-1.32.03-1.066.028q-.556-.017-1.113-.039l-.64-.043c.842-.011 2.006-.03 2.507-.027m33.473.266h.004l.035.004.004.004h.004l.003.004h.004v.004h-.004a.1.1 0 0 1-.03.016l-.02-.024v-.008m-51 .54q.234.002.5.003l-1.036.07q-.583-.015-1.168-.038c.568-.015 1.135-.03 1.704-.036m-7.825.3q.615.02 1.23.059-.507.014-1.015.023-.465.008-.93.008.359-.044.715-.09m57.243.852c-.112.119-.225.234-.329.344v-.083q.098-.125.192-.253zm-2.368.23.028.035-.043-.023zm-7.187.211c.577.03 1.154.05 1.73.09 1.69.115 3.356.389 5.032.621l-.059.059-.16-.02c-.322-.034-.647-.058-.969-.086-1.16-.092-2.321-.177-3.484-.238-.481-.025-.96-.038-1.442-.066-3.242-.194.494-.038-3.039-.165l-.343-.011.132-.153c.836-.024 1.533-.022 2.602-.03m10.652.262h.028v.004h.004l.003.004v.004h-.004v.003l-.003.004-.145.16a.2.2 0 0 1-.031-.03.13.13 0 0 1-.02-.075v-.012l.004-.004v-.003l.004-.004.004-.004a.4.4 0 0 1 .156-.047m1.746.762h.004a.5.5 0 0 1-.066.082l-.004.004-.004.003-.039.02zm-3.312.28q-.105.104-.207.208h-.207q.05-.061.097-.125c.104-.032.212-.055.317-.082m-20.137.47c.36-.001 1.959.023 3.031.039l.352.03c-.477-.004-.953-.01-1.43-.01q-1.121-.016-2.242-.056.144-.002.29-.003m-38.988 1.37-.113.133h-.118c-.903-.047-.807-.034-1.289-.078.527-.01.722-.024 1.407-.05q.058-.003.113-.004m34.46.231.352.012c-.561-.006-.38-.003-.351-.008zM.439 9.165c-.066.006-.132.04-.196.058-.017.04-.048.08-.047.125.001.046.035.083.055.125.03.064.066.125.094.191.105.251.149.515.187.781a1 1 0 0 0-.191-.027c-.032.03-.104.056-.133.086l-.004.004-.004.004-.004.004v.007l-.004.004.004.004v.008l.004.004v.004q.193.226.403.437c.02.184.028.286.039.575.003.085-.048.19-.012.261l.016.02q.014.017.027.035c-.073.462-.238.336.633.738l.03.04a5 5 0 0 0-.663.152c-.07.002-.18-.004-.227.015l-.011.008-.004.004v.004H.426v.019l.004.004v.008l.004.004.004.004.007.012-.027.008-.008.003H.398l-.003-.003H.39c-.007-.004-.017-.013-.024-.016H.36q.114.114.223.23.158.258.277.461-.071.125-.152.258l.102-.031-.098.101H.699l-.004-.003H.691l-.003-.004-.004-.004v-.02l.003-.004v-.004l.02-.03-.027.007c0 .023-.012.072-.012.094v.011h.004v-.004h.004l.035-.035c.062.012.21-.021.281-.015l.051.004q.095.17.16.293a6 6 0 0 1-.86-.157l.915 1.133c.047.005.096.015.144.016.096.002.194-.007.29-.008q.898-.008 1.796-.035l-.035.031c-.149.14-.377.352-.488.586q-.412-.01-.82-.043c-.034-.003-.51-.059-.59-.055-.07.004-.135.026-.203.04l-1.461 1.71c.045.014.085.037.132.04.093.004.19-.009.282-.016.362-.03.391-.04.582-.059L-.316 18.63c.063.018.125.051.191.055.228.012.799-.068.98-.09l.282-.035-1.223 1.503c.284-.095.577-.162.871-.214l-1.047 1.257c.261-.057.694-.155.922-.195.24-.041.479-.07.719-.105.715-.103 1.309-.191 2.035-.262.377-.037.755-.06 1.133-.09 2.066-.152 4.144-.035 6.2.195.474.093.964.1 1.44.18.22.037.429.118.649.145.287.035.578.03.867.043 1.596.07.266 0 1.852.09.302.013.603.032.906.039.65.014 1.299.003 1.95.007.93.007 1.861.024 2.792.028 1.63.033.201.017 1.985-.008.358-.005.715.003 1.074-.004.423-.008.846-.032 1.27-.04.423-.006.849-.002 1.273-.003l1.383-.023c.477-.008.955-.013 1.433-.024.508-.011 1.02-.034 1.527-.043 1.828-.032 3.657-.027 5.485-.012a97 97 0 0 1 7.758.043l1.16.02c.365.011.729.025 1.094.031.395.007.792-.001 1.187.004.385.005.771.026 1.156.027 2.307.01 1.515-.011 1.176-.02l1.398.024c2.197-.003 4.388.115 6.583.18 1.106-.002 2.213.034 3.32.027.519-.003 1.04-.022 1.558-.03 1.449.007 2.892-.064 4.34-.09q.36-.023.719-.044c.244-.014.49-.034.734-.043.77-.026 1.538.011 2.305.055.675.057 1.35.073 2.027.086.56.024 1.118-.036 1.676-.035.429-.019.844.097 1.27.113.312.004.05.008.418-.02.082-.006.164-.003.246-.015.095-.014.21-.004.285-.066.41-.343.757-.747 1.137-1.122l.078-.093c.255-.372.563-.71.765-1.114l.004-.003v-.02h-.004v-.004l-.003-.004h-.004l-.004-.004-.004-.004-.004-.004c-.04-.013-.117-.01-.156-.015-.077-.011-.157-.001-.235-.004l-.144-.008c1.681-1.525 2.14-1.076 1.3-1.75-.013-.004-.032-.004-.046-.008-.386-.1-.79-.129-1.168-.258-.197-.066-.382-.165-.575-.242-.021-.015-.046-.025-.07-.039.285-.307.562-.622.809-.96l.004-.005v-.004l.007-.023.004-.02-.004-.019c0-.002-.006-.01-.007-.012l.082-.004c.359-.033.306-.03.636-.054l.215-.016c.051-.004.105.007.153-.012a.5.5 0 0 0 .105-.054l.004-.004v-.004l.004-.004v-.004l.004-.004v-.012l-.004-.004v-.003c-.438-.55-.951-1.037-1.426-1.555l-.398-.078-.059-.098q.125-.164.266-.355l.093-.004a.3.3 0 0 1-.058-.032l-.004-.003v-.008l.004-.004h.008v-.004h.004c.077.025.164.056.207.059h.019l.004-.004v-.004h.004v-.008l-.004-.012-.004-.004-.004-.004a1 1 0 0 0 .2.008l.003-.004h.004v-.004h.004v-.011l-.004-.004v-.004l-.242-.274.063-.086.003-.003v-.004l.004-.004v-.016l-.004-.004v-.008c-.016-.029-.074-.057-.148-.086.505-.483.93-1.055 1.207-1.335.036-.037.033-.098.031-.149-.001-.044-.03-.083-.043-.125-.028-.033-.047-.074-.082-.101-.125-.1-.392-.098-.605-.137.613-.487 1.101-1.055.527-1.399-.161-.022-.312-.075-.469-.12-.231-.024-.461-.086-.695-.09-.366-.012-.723-.09-1.09-.079-.494-.01-.987.042-1.48.07-.462.018-.919.076-1.38.11-.435.026-.87.038-1.304-.02-.508-.04-1.018-.054-1.527-.085-.575-.049-1.15.032-1.727.039-.645.015-1.288.084-1.933.101-.611.033-1.22.026-1.832.027-.577.006-1.148.108-1.727.094-.705-.009-1.405.098-2.11.125-.914.038.084-.013-.823.055-.283.021-.569.032-.852.047a10 10 0 0 0-.285-.324l-.004-.004h-.008l-.004.004h-.004l-.004.004-.004.003-.035-.039c-.077.027-.151.058-.23.078-.186.048-.95.188-1.043.204-1.031.17-2.07.275-3.11.382q-.883.084-1.765.16c-.622.033-1.245.048-1.867.07-.383.015-.77.032-1.153.044q-.05-.003-.101-.008c-.1-.007-.198-.027-.297-.035-.264-.02-.53-.005-.793-.027-.3-.004-.602-.02-.902-.012-.295.008-.428.024-.727.039l-.129.004q.076-.112.16-.23l.004-.005h.004v-.019h-.004v-.004h-.004l-.004-.004-.058.082-.028.008.079-.09c-.047-.007-.17.026-.227.027q-.65.024-1.3.055c-.99.014-1.978.064-2.966.121l-.332-.023c-.919-.083-1.84-.137-2.757-.242a31 31 0 0 0-2.856-.118c-.792-.017-1.583-.059-2.375-.09-.807-.104-1.613-.249-2.43-.234-1.11-.01-2.225-.018-3.332.102-.41.028-.814.06-1.218.136-.552.106-.08.036-.57.122q-.085.013-.169.023l-.129.16h-.003c-1.385-.053-2.2-.081-2.637-.098v-.003c.447.014.944.026-.028-.028a6 6 0 0 0-.359-.332c-.084-.07-.218-.019-.328-.023q-.34-.015-.68-.02c-1.309-.023-2.617-.015-3.926-.058-1.2.01-2.022.007-3.226.043l-.41-.04c-.307-.028-.612-.051-.918-.085-.16-.018-.485-.18-.586-.157l-.012.004-.004.004h-.004v.004h-.004v.004h-.004v.012h-.003v.02c0 .004.005.017.007.023q.053.143.13.273c-1.51.056-3.02.113-4.532.086-1.154.024-1.296.039-2.45.016-1.408-.029-2.818-.133-4.226-.184-.717-.044-1.43-.083-2.14-.207-.145-.025-.286-.058-.43-.09-.11-.024-.216-.074-.328-.078zm25.664 1.097 1.308.004-.047.058h-.625zm-24.497.258h.004v.003h.004l.004.004c.08.024.167.01.25.016.622.046.18.028.93.039h.086l-.012.004-.004.004-.004.004-.004.004-.004.004-.003.003-.004.004-.004.012v.004l-.004.004c-.001.01.002.026.004.039l.004.023q-.15-.021-.297-.058a8 8 0 0 1 .347.36c-.417-.093-.836-.183-1.253-.278a2 2 0 0 0-.032-.152zm1.348.066c.513.007.71.007 1.309.012 1.314-.005 2.63 0 3.945-.004-.198.038-.367.08-.523.215h-.051c-1.246.012-2.49 0-3.735-.051-.165-.007-.339-.008-.511-.016-.15-.054-.323-.137-.434-.156m72.082.695h.035l.274.293.047.047h-.016zm.8.02q.222.022.442.058c-.063.077-.133.155-.207.243l-.097.003a.8.8 0 0 0-.137-.304m-6.718.004q.338.004.676 0l.371.015c-.172.035-.344.081-.512.121-.442.108-.716.226-.941.41l-.3.012c.204-.057.469-.138.605-.222.088-.055.153-.138.23-.207zm-7.68.078q.68.006 1.36.008.185.001.371.004-.494.04-.988.082c-.454.039-.906.094-1.36.128-.921.07-1.737.103-2.629.141q-1.129-.012-2.257-.035l.18-.02c.779-.06 1.554-.156 2.335-.199.763-.07 1.534-.048 2.297-.094.231-.015.46-.017.691-.015m11.317.078.324.039q.515.068 1.027.152l-.152.004-.871.024a8.608 8.608 0 0 0-.895-.195c.113.002.32-.009.418-.012zm-59.035.293c.52.007 1.041.031 1.562.039l.992.004c.022.038.05.071.075.098.048.05.135.036.203.054 1.123.03 2.249.066 3.37.13h-1.75c-.88-.03-1.76-.059-2.64-.099-.593-.017-1.187-.055-1.781-.054-.133 0-.438.013-.809.027l.024-.027c.037-.048.02-.107-.008-.168q.03.001.059.004c.235.005.468-.011.703-.008m17.82 1.285c.843-.011 12.792.47 13.293.473.42.002 1.091-.045 1.512-.035.094.005 10.119 1.387 10.265 1.394-.439.01-10.357.06-10.797.07-.304 1.26-3.378 2.147-3.769 2.157a.1.1 0 0 1-.043-.02c-.232-.232.45-2.496.234-2.765a.07.07 0 0 0-.047-.02c-.214-.013-10.434-1.238-10.648-1.254m46.387.371c.003 0 .005.004.008.004l.004.004h.003v.004h.004v.004h-.004v.004l-.011.011-.016-.027q.005-.002.012-.004m-63.805.2.406.023.352.02c-.236.027-.468.058-.703.085q-.054-.061-.106-.125.025-.001.051-.004m-.121.007h.012l-.008.004zm-.223.008a.2.2 0 0 1-.05.016c-.27.04-.515.052-.79.07a30 30 0 0 1-1.78.059q.022-.024.046-.047c.859-.022 1.717-.059 2.574-.098m64.68.336h.004l.035.004.004.004h.004l.004.004h.004v.004h-.004l-.004.003c-.008.005-.02.009-.027.012l-.02-.023v-.008m-51 .539.5.004-1.035.07q-.585-.016-1.168-.039c.568-.014 1.135-.029 1.703-.035m-7.824.3q.615.02 1.23.06-.507.015-1.015.023-.465.008-.93.008.357-.044.715-.09m57.242.852c-.112.12-.224.235-.328.344v-.082q.097-.126.191-.254zm-2.367.23.027.036-.043-.023zm-7.188.212c.577.03 1.155.05 1.73.09 1.691.115 3.357.389 5.032.62l-.059.06q-.08-.012-.16-.02c-.321-.034-.646-.058-.968-.086-1.161-.093-2.322-.177-3.485-.238-.48-.026-.96-.038-1.441-.067-3.242-.193.493-.038-3.04-.164q-.17-.005-.343-.012l.133-.152c.835-.024 1.532-.022 2.601-.031m10.653.261H78v.004h.004l.004.004v.004h-.004v.004l-.004.004q-.071.08-.145.16a.2.2 0 0 1-.03-.031.13.13 0 0 1-.02-.074v-.012l.004-.004v-.004l.004-.004.003-.004a.4.4 0 0 1 .157-.047m1.746.762h.004a.5.5 0 0 1-.067.082l-.004.004-.004.004-.039.02zm-3.313.281c-.068.07-.14.137-.207.207q-.103.002-.207 0 .05-.061.098-.125c.103-.031.211-.055.316-.082m-20.136.47c.359-.002 1.958.023 3.03.038q.177.015.352.032-.714-.008-1.43-.012-1.12-.016-2.242-.055c.098-.001.192-.004.29-.004m-38.989 1.37-.113.133h-.117c-.903-.047-.808-.035-1.29-.078.527-.01.723-.025 1.407-.05q.058-.003.113-.005m34.461.23.352.012c-.562-.005-.381-.002-.352-.007zm19.2 10.095c-1.853.058-3.71.395-5.54.617-4.278.344-8.456 1.364-12.668 2.133-4.309.786-3.96.694-8.207 1.292q-.71.123-1.425.208c-.758-.063-1.518-.113-2.274-.2a31 31 0 0 0-2.855-.117c-.793-.017-1.583-.059-2.375-.09-.807-.104-1.613-.25-2.43-.234-1.111-.01-2.226-.019-3.332.101a10 10 0 0 0-1.219.137c-.551.105-.079.036-.57.121q-.084.014-.168.024l-.129.16h-.004c-1.385-.053-2.198-.082-2.637-.098v-.004c.448.014.945.027-.027-.027a6 6 0 0 0-.36-.332c-.084-.071-.217-.019-.327-.024q-.34-.014-.68-.02c-1.31-.022-2.617-.014-3.926-.058-1.2.01-2.022.008-3.227.043l-.41-.039c-.306-.028-.612-.051-.918-.086-.159-.018-.484-.178-.586-.156l-.011.004-.004.004h-.004v.004h-.004v.004h-.004v.008h-.004v.023l.008.023q.052.142.129.274c-1.51.056-3.02.113-4.531.086-1.154.024-1.297.039-2.45.015-1.408-.028-2.818-.133-4.226-.183-.718-.044-1.431-.083-2.14-.207-.146-.026-.287-.059-.43-.09-.11-.024-.216-.075-.329-.078v-.004c-.076-.003-.149.039-.222.058-.017.041-.048.082-.047.125 0 .047.035.084.055.125.03.065.066.126.093.192.106.251.15.515.188.781a1 1 0 0 0-.192-.027c-.031.029-.103.056-.132.086l-.004.004-.004.004-.004.003v.008l-.004.004.004.004v.008l.004.004v.004q.192.226.402.437c.02.183.029.285.04.574.002.085-.048.19-.012.262.002.005.011.015.015.02q.014.018.027.035c-.072.462-.238.336.633.738l.032.04a5 5 0 0 0-.665.151c-.069.003-.18-.003-.226.016l-.012.008-.004.004v.004H.61v.019l.004.012.008.012.004.004.004.004c-.009.003-.022.009-.031.011h-.02c-.008-.003-.02-.007-.027-.011q.108.11.215.222.157.257.277.461l-.152.258.101-.031-.097.105c.062.012.209-.021.28-.015l.052.003q.094.17.16.293a6 6 0 0 1-.86-.156l.914 1.133c.048.005.097.015.145.016.096.001.193-.007.289-.008q.9-.008 1.797-.035l-.035.03c-.15.14-.378.353-.489.587-.273-.009-.547-.02-.82-.043-.034-.003-.509-.059-.59-.055-.07.004-.134.026-.203.04l-1.46 1.71c.044.014.085.037.132.04.093.004.189-.009.281-.016.363-.03.392-.04.582-.059l-1.203 1.262c.064.018.126.05.192.054.228.013.799-.067.98-.09q.14-.016.281-.035L.098 43.695c.284-.096.577-.162.87-.215l-1.046 1.258c.26-.058.694-.156.922-.195.239-.041.478-.07.719-.105.715-.104 1.308-.191 2.035-.262.377-.037.755-.06 1.132-.09 2.066-.153 4.144-.036 6.2.195.475.092.964.1 1.441.18.219.037.428.117.649.144.287.036.577.03.867.043 1.595.07.266 0 1.851.09.303.014.604.033.907.04.65.014 1.298.002 1.949.007.93.007 1.862.024 2.793.028 1.629.033.2.017 1.984-.008.358-.005.716.002 1.074-.004.424-.008.846-.032 1.27-.04.424-.006.85-.002 1.273-.003l1.383-.024c.478-.008.956-.012 1.434-.023.508-.011 1.019-.034 1.527-.043 1.828-.032 3.656-.027 5.484-.012a97 97 0 0 1 7.758.043l1.16.02c.365.011.73.025 1.094.031.395.007.792-.001 1.188.004.385.005.77.026 1.156.027 2.306.01 1.514-.012 1.176-.02l1.398.024c2.196-.003 4.388.115 6.582.18 1.107-.002 2.214.034 3.32.027.52-.003 1.04-.022 1.559-.031 1.449.007 2.892-.063 4.34-.09l.719-.043c.244-.014.49-.035.734-.043.769-.026 1.537.011 2.305.055.674.057 1.35.073 2.027.086.559.024 1.117-.036 1.676-.035.428-.019.844.097 1.27.113.312.004.049.008.417-.02.082-.006.165-.003.246-.015.096-.015.212-.005.286-.067.409-.342.756-.746 1.136-1.12l.078-.094c.256-.372.564-.71.766-1.114l.004-.004v-.019h-.004v-.004l-.004-.004H79.2l-.004-.004-.004-.004c-.037-.016-.117-.013-.16-.02-.076-.01-.157 0-.234-.003-.073-.003-.116-.006-.145-.008 1.682-1.526 2.14-1.077 1.301-1.75-.014-.004-.033-.004-.047-.008-.385-.1-.789-.129-1.168-.258-.196-.067-.381-.165-.574-.242-.022-.015-.047-.025-.07-.039.285-.307.562-.622.808-.96h.004v-.005c.004-.008.006-.021.008-.027v-.016l-.004-.02-.004-.015.082-.004c.36-.034.307-.03.637-.055l.215-.015c.051-.004.104.007.152-.012.027-.01.08-.03.106-.05q.001-.005.004-.008v-.004l.003-.004v-.004l.004-.004v-.012l-.004-.004v-.004c-.438-.549-.95-1.036-1.425-1.554-.093-.019-.25-.05-.399-.078l-.058-.098q.123-.164.265-.356l.094-.003a.3.3 0 0 1-.059-.032l-.003-.004v-.007l.003-.004h.012v-.004c.078.024.165.056.207.058h.024v-.004h.004v-.007l-.004-.012-.004-.004-.004-.004c.085.01.168.018.199.008l.004-.004h.004v-.004h.004v-.012l-.004-.004v-.003l-.242-.274.062-.086.004-.004v-.004l.004-.004v-.015l-.004-.004v-.008l-.008-.012a.4.4 0 0 0-.14-.074c.505-.483.93-1.055 1.207-1.336.035-.036.032-.098.03-.148 0-.044-.029-.084-.042-.125-.028-.033-.048-.075-.082-.102-.125-.1-.393-.097-.606-.136.614-.487 1.102-1.055.528-1.399-.162-.022-.313-.075-.469-.121-.232-.023-.461-.086-.695-.09-.366-.012-.723-.09-1.09-.078-.495-.01-.987.041-1.48.07-.462.017-.919.075-1.38.11-.435.026-.87.038-1.304-.02-.508-.04-1.019-.055-1.528-.086-.574-.048-1.15.033-1.726.04-.645.015-1.288.084-1.934.1-.61.034-1.22.027-1.832.028-.577.006-1.148.107-1.726.094-.706-.01-1.405.097-2.11.125-.914.037.083-.014-.824.055-.283.02-.568.031-.851.047a10 10 0 0 0-.286-.325l-.004-.004h-.007l-.004.004h-.004l-.004.004-.004.004-.035-.039c-.077.026-.152.058-.23.078-.186.048-.95.188-1.044.203-1.03.17-2.07.276-3.109.383-.59.055-1.176.109-1.766.16q-.61.03-1.222.047c4.56-.804 9.119-1.626 13.71-2.226l2.044-.215c.613-.056 1.23-.106 1.843-.168 1.146-.116 2.31-.337 3.461-.153l-1.273-1.539a15 15 0 0 0-1.852-.047M.89 37.46l-.028.008c0 .023-.012.072-.011.093v.012h.003v-.004H.86l.032-.035H.887v-.004H.883l-.004-.004H.875l-.004-.004-.004-.003v-.02l.004-.004v-.004zm25.394-3.566 1.309.003-.047.059h-.625zm-24.496.257h.004v.004h.004l.004.004c.08.024.167.01.25.016.621.045.179.027.93.039h.085l-.011.004-.004.004-.004.004-.004.003-.004.004-.004.004-.004.004-.008.016v.004c0 .01.002.026.004.039l.004.023q-.15-.022-.297-.058.18.173.348.359-.628-.137-1.254-.277a2 2 0 0 0-.031-.153q-.005-.023-.008-.043m1.348.067c.513.007.71.006 1.308.011 1.315-.004 2.631 0 3.946-.003-.198.038-.367.08-.524.214h-.05c-1.246.013-2.49 0-3.735-.05-.166-.007-.34-.008-.512-.016-.15-.054-.323-.137-.433-.156m72.082.695h.035l.273.293q.024.023.047.047h-.015zm.8.02q.222.022.442.058-.095.114-.207.242l-.098.004a.8.8 0 0 0-.136-.304m-6.718.004q.337.004.676 0 .185.007.37.015c-.172.035-.343.08-.511.121-.442.107-.716.226-.941.41l-.301.012c.205-.057.47-.138.605-.223.089-.054.153-.137.23-.207zm-7.68.078q.68.006 1.36.007.185.003.37.004-.494.042-.988.082c-.453.04-.905.095-1.36.13-.92.07-1.736.102-2.628.14q-1.129-.011-2.258-.035l.18-.02c.78-.06 1.555-.157 2.336-.199.763-.07 1.533-.048 2.297-.094.231-.015.46-.017.691-.015m11.316.078q.163.019.325.039.514.069 1.027.152l-.152.004-.871.023a8.607 8.607 0 0 0-.895-.195c.113.003.32-.008.418-.012zm-59.035.293c.521.007 1.042.03 1.563.039l.992.004c.022.037.05.071.074.097.049.052.135.037.203.055 1.124.029 2.25.066 3.371.129h-1.75c-.88-.029-1.76-.058-2.64-.098-.594-.017-1.188-.055-1.781-.054-.134 0-.439.013-.809.027l.023-.027c.038-.048.021-.107-.007-.168q.03.001.058.004c.235.004.468-.011.703-.008m64.196 1.66h.02l.003.004h.004v.004h.004v.004h-.004v.004l-.012.011zm-63.793.195.406.024.351.02q-.35.043-.703.085-.054-.061-.105-.125.026-.001.05-.004m-.121.008h.023l-.004.004h-.016zm-.223.008a.2.2 0 0 1-.05.015c-.27.042-.516.053-.79.07-.593.04-1.187.057-1.781.06q.023-.024.047-.048c.858-.02 1.716-.058 2.574-.097m31.207.07c.42.003.841.021 1.262.031l.37.02-1.32.031-1.066.028q-.556-.019-1.113-.04l-.64-.043c.842-.01 2.006-.03 2.507-.027m33.473.266h.004l.035.004.004.004h.004l.003.003h.004v.004h-.004a.1.1 0 0 1-.03.016l-.02-.023v-.008m-51 .539q.234.001.5.004l-1.036.07q-.583-.016-1.168-.039c.568-.014 1.135-.03 1.704-.035m-7.825.3q.615.02 1.23.06-.507.014-1.015.023-.465.008-.93.007.359-.044.715-.09m57.243.852c-.112.12-.225.234-.329.344v-.082q.098-.126.192-.254zm-2.368.23.028.036-.043-.024zm-7.187.212c.577.03 1.154.05 1.73.09 1.69.114 3.356.388 5.032.62l-.059.06q-.08-.012-.16-.02c-.322-.034-.647-.058-.969-.086-1.16-.093-2.321-.178-3.484-.239-.481-.025-.96-.037-1.442-.066-3.242-.194.494-.038-3.039-.164q-.172-.005-.343-.012l.132-.152c.836-.024 1.533-.023 2.602-.031m10.652.261h.028v.004h.004l.003.004V40h-.004v.004l-.003.004-.145.16a.2.2 0 0 1-.031-.031l-.004-.004a.2.2 0 0 1-.016-.07v-.012l.004-.004v-.004l.004-.004.004-.004a.4.4 0 0 1 .156-.047m1.746.762h.004a.5.5 0 0 1-.066.082v.004l-.004.004h-.004l-.039.02zm-3.312.281q-.105.104-.207.207-.104.002-.207 0 .05-.061.097-.125c.104-.031.212-.055.317-.082m-20.137.469c.36 0 1.959.023 3.031.04l.352.03q-.715-.008-1.43-.011-1.121-.016-2.242-.055.144-.003.29-.004m-38.988 1.371-.113.133h-.118c-.903-.047-.807-.035-1.289-.078.527-.01.722-.025 1.407-.051zm34.46.23.352.012c-.561-.006-.38-.002-.351-.008z" style="fill:currentColor;stroke-width:6;stroke-linejoin:round"/></svg>