<?xml version="1.0" encoding="UTF-8" standalone="no"?>
<!-- Created with Inkscape (http://www.inkscape.org/) -->

<svg
   version="1.1"
   id="svg2"
   xml:space="preserve"
   width="30"
   height="30"
   viewBox="0 0 30 30"
   sodipodi:docname="www-globe_white.svg"
   inkscape:version="1.2 (56b05e47e7, 2022-06-09, custom)"
   xmlns:inkscape="http://www.inkscape.org/namespaces/inkscape"
   xmlns:sodipodi="http://sodipodi.sourceforge.net/DTD/sodipodi-0.dtd"
   xmlns="http://www.w3.org/2000/svg"
   xmlns:svg="http://www.w3.org/2000/svg"><defs
     id="defs6" /><sodipodi:namedview
     id="namedview4"
     pagecolor="#505050"
     bordercolor="#eeeeee"
     borderopacity="1"
     inkscape:pageshadow="0"
     inkscape:pageopacity="0"
     inkscape:pagecheckerboard="0"
     showgrid="false"
     inkscape:zoom="22.570848"
     inkscape:cx="14.199732"
     inkscape:cy="14.842154"
     inkscape:window-width="1920"
     inkscape:window-height="1016"
     inkscape:window-x="0"
     inkscape:window-y="0"
     inkscape:window-maximized="1"
     inkscape:current-layer="g8"
     inkscape:showpageshadow="0"
     inkscape:deskcolor="#505050" /><g
     id="g8"
     inkscape:groupmode="layer"
     inkscape:label="ink_ext_XXXXXX"
     transform="matrix(1.3333333,0,0,-1.3333333,0,1600)"><g
       id="g10"
       transform="matrix(0.00258728,0,0,0.00258728,-3.9596874,1173.6168)"
       style="fill:#e6e6e6;fill-opacity:1"><path
         d="m 9590.91,3829.79 -2347.78,701.48 103.96,-2420.48 838.99,642.75 983.71,-1252.64 604.86,463.4 -983.71,1252.63 799.97,612.86"
         style="fill:#e6e6e6;fill-opacity:1;fill-rule:nonzero;stroke:none"
         id="path12" /><path
         d="M 6125.57,3734.19 H 6900.7 C 6640.48,3353.38 6350.47,3060.63 6125.57,2863.21 Z M 5631.71,8026.65 H 4614.77 c 142.96,240.2 296.14,451.98 439.53,629.58 204.75,253.62 408.99,463.46 577.41,622.01 z m 0,-1780.4 H 4039.56 c 24.29,470.75 150.03,906.7 321.67,1292.62 h 1270.48 z m 0,-2024.29 H 4575.12 c -297.78,506.09 -473.24,1019.05 -524.37,1536.52 h 1580.96 z m 0,-1305.23 c -279.93,269.91 -523.42,542.53 -730.05,817.46 h 730.05 z m -2550.46,817.46 h 1225.9 c 298.89,-447.08 684.65,-886.64 1156.97,-1317.24 -956.94,110.91 -1801.56,600.76 -2382.87,1317.24 z m -334.51,487.77 c -263.01,458.78 -430.28,980.31 -474.02,1536.52 H 3555.26 C 3600,5238.9 3754.33,4726.08 4017.15,4221.96 Z M 2574.07,7538.87 H 3830.31 C 3661.02,7109.93 3564.49,6675.6 3545,6246.25 H 2266.29 c 23.93,458.1 131.64,894.07 307.78,1292.62 z m 2774.82,2131.29 c -190.47,-174.5 -432.44,-417.2 -677.58,-719.32 -243.43,-300.02 -449.23,-609.52 -615.86,-924.19 H 2835.17 c 553.38,868.89 1460.42,1486.52 2513.72,1643.51 z m 776.68,-2131.29 h 1025.76 c 198.05,-438.74 323.88,-869.98 377.01,-1292.62 H 6125.57 Z m 0,1611.86 c 309.02,-379.19 568.35,-754.09 777.61,-1124.08 H 6125.57 Z M 8922.11,8026.65 H 7457.82 C 7175,8572.12 6791.52,9125.02 6308.04,9683.61 7403.96,9551.92 8351.22,8923.01 8922.11,8026.65 Z m 568.87,-1780.4 H 8025.9 c -47.72,425.07 -161.29,856.24 -340.78,1292.62 H 9183.2 c 176.15,-398.55 283.85,-834.52 307.78,-1292.62 z M 6350.51,2423.91 c 179.58,147.18 411.38,359.36 645.74,633.55 l -42.41,1164.5 h -828.27 v 1536.52 h 1431.84 c -1.24,-154.67 -12.12,-308.14 -33.54,-460.24 -23.57,-167.34 -59.06,-327.57 -103.72,-480.68 l 481.22,-109.23 c 47.32,166.19 85.22,340.18 111.15,522.01 24.92,174.83 37.54,350.93 38.89,528.14 H 9484.55 C 9447.33,5285.19 9320.39,4837.17 9121.41,4431.4 l 492.41,-111.77 C 9855.11,4846.86 9990,5433.38 9990,6051.14 9990,8337.32 8145.65,10197.3 5878.64,10197.3 3611.62,10197.3 1767.28,8337.32 1767.28,6051.14 1767.28,3764.96 3611.62,1905 5878.64,1905 c 400.33,0 787.39,58.3 1153.53,166.37 l -18.44,506.14 c -213.07,-71.38 -434.79,-123.37 -663.22,-153.6"
         style="fill:#e6e6e6;fill-opacity:1;fill-rule:nonzero;stroke:none"
         id="path14" /></g></g></svg>
